<svg width="53" height="80" viewBox="0 0 53 80" fill="none" xmlns="http://www.w3.org/2000/svg">
<path d="M26.1716 0C11.8189 0 0.17203 11.7862 0.00460459 26.4031V26.4169C-0.00153486 26.6089 -0.00153486 26.801 0.00460459 26.993C0.0127058 27.3513 0.0370095 27.8447 0.0937182 28.4483C0.324373 32.1457 1.30751 35.7534 2.9804 39.0413C4.6533 42.3293 6.97923 45.2252 9.8098 47.5443C14.7678 53.2555 15.9937 58.3713 16.1315 60.0912V60.1078C16.1504 60.2869 16.1774 60.4661 16.2125 60.6398H16.2044V65.5736L36.4575 61.4446V61.3068C36.6114 60.9319 36.7113 60.5295 36.7464 60.1078V60.0885C36.9003 58.1894 37.7186 53.1315 42.5604 47.5719C45.4057 45.2412 47.7406 42.3275 49.4146 39.0189C51.0886 35.7103 52.0645 32.0802 52.2792 28.3629C52.3273 27.8395 52.3562 27.3145 52.3656 26.789V26.4775C52.1847 11.8082 40.5405 0 26.1716 0ZM5.40543 26.4885C5.46234 20.9052 7.67529 15.5703 11.5636 11.6428C15.4518 7.71529 20.7013 5.5124 26.1716 5.51271C37.5592 5.51271 46.8136 14.865 46.9648 26.5354V26.7917C46.9648 26.9378 46.9486 27.2714 46.8946 27.9411L46.8892 27.9742V28.0101C46.7211 30.997 45.9334 33.9134 44.5782 36.5663C43.223 39.2192 41.3313 41.5481 39.0283 43.3988L38.8473 43.5421L38.6934 43.7158C33.595 49.4903 32.0153 55.0085 31.5292 58.2417H29.8226C29.9441 54.0107 30.495 46.1276 32.8416 43.4952C35.164 41.6209 36.7032 38.7819 36.8922 35.5569C36.9192 35.2537 36.9192 35.0608 36.9192 34.923V34.8127C36.8901 31.9299 35.7478 29.1753 33.7405 27.147C31.7332 25.1188 29.0231 23.9808 26.1986 23.9803C23.9765 23.9811 21.8098 24.6885 19.9997 26.0041C18.1895 27.3198 16.8259 29.1783 16.0983 31.3215C15.3707 33.4646 15.3153 35.7859 15.9397 37.9626C16.5641 40.1394 17.8374 42.0636 19.5826 43.4677C21.9104 46.122 22.4828 54.0107 22.6206 58.2417H21.3244C20.7195 54.9148 18.7158 49.4186 13.6822 43.6937L13.5256 43.5173L13.3419 43.3712C11.0486 41.5269 9.16303 39.2087 7.80878 36.5685C6.45454 33.9284 5.66222 31.0259 5.48374 28.0514L5.47834 28.0018L5.47294 27.9494C5.42906 27.5052 5.40563 27.0591 5.40273 26.6126V26.5327L5.40543 26.4913V26.4885ZM26.1986 26.7366C30.5733 26.7366 34.1378 30.3474 34.1918 34.8127V35.0332C34.1918 35.1159 34.1918 35.2262 34.1648 35.3916C34.0298 37.7069 32.9226 39.8844 31.1404 41.3177L30.9513 41.4555L30.7893 41.6209C27.8188 44.9837 27.1978 53.5284 27.0897 58.2142H25.3345C25.1995 53.5284 24.5514 44.9837 21.5809 41.6209L21.4189 41.4555L21.2298 41.3177C20.3379 40.5977 19.6067 39.6917 19.0852 38.6603C18.5636 37.6288 18.2637 36.4957 18.2054 35.3364C18.2049 35.2809 18.1994 35.2256 18.1892 35.1711C18.1835 35.1438 18.1799 35.1162 18.1784 35.0884V34.8403C18.2594 30.375 21.8509 26.7366 26.1986 26.7366ZM36.4575 64.2561L16.2044 68.3851V71.056L36.4575 66.701V64.2561ZM16.2044 74.4215V73.8703L36.4575 69.518V74.4215C36.4575 75.1526 36.173 75.8536 35.6665 76.3706C35.1601 76.8875 34.4733 77.1779 33.7571 77.1779H30.7434C30.287 78.0072 29.6241 78.6989 28.8218 79.1829C28.0195 79.6669 27.1062 79.926 26.1743 79.9342C25.2424 79.926 24.3291 79.6669 23.5268 79.1829C22.7245 78.6989 22.0616 78.0072 21.6052 77.1779H18.9048C18.1886 77.1779 17.5017 76.8875 16.9953 76.3706C16.4889 75.8536 16.2044 75.1526 16.2044 74.4215Z" fill="white"/>
</svg>
