<svg width="25" height="24" viewBox="0 0 25 24" fill="none" xmlns="http://www.w3.org/2000/svg">
<path d="M12.7822 1.5C6.98379 1.5 2.28223 6.32344 2.28223 12.2672C2.28223 17.025 5.2916 21.0562 9.46348 22.4812C9.52199 22.494 9.58172 22.5002 9.6416 22.5C10.0307 22.5 10.1807 22.2141 10.1807 21.9656C10.1807 21.7078 10.1713 21.0328 10.1666 20.1328C9.81928 20.2142 9.46396 20.2567 9.10723 20.2594C7.08691 20.2594 6.62754 18.6891 6.62754 18.6891C6.14941 17.4469 5.46035 17.1141 5.46035 17.1141C4.54629 16.4719 5.45566 16.4531 5.52598 16.4531H5.53066C6.58535 16.5469 7.13848 17.5687 7.13848 17.5687C7.66348 18.4875 8.3666 18.7453 8.99473 18.7453C9.41006 18.737 9.81896 18.6412 10.1947 18.4641C10.2885 17.7703 10.5604 17.2969 10.8604 17.025C8.53066 16.7531 6.0791 15.8297 6.0791 11.7047C6.0791 10.5281 6.48691 9.56719 7.15723 8.81719C7.04941 8.54531 6.68848 7.44844 7.26035 5.96719C7.33706 5.94883 7.4159 5.94095 7.49473 5.94375C7.87441 5.94375 8.73223 6.08906 10.1479 7.07344C11.8679 6.59218 13.6871 6.59218 15.4072 7.07344C16.8229 6.08906 17.6807 5.94375 18.0604 5.94375C18.1392 5.94095 18.218 5.94883 18.2947 5.96719C18.8666 7.44844 18.5057 8.54531 18.3979 8.81719C19.0682 9.57187 19.476 10.5328 19.476 11.7047C19.476 15.8391 17.0197 16.7484 14.6807 17.0156C15.0557 17.3484 15.3932 18.0047 15.3932 19.0078C15.3932 20.4469 15.3791 21.6094 15.3791 21.9609C15.3791 22.2141 15.5244 22.5 15.9135 22.5C15.9765 22.5003 16.0393 22.494 16.101 22.4812C20.2775 21.0562 23.2822 17.0203 23.2822 12.2672C23.2822 6.32344 18.5807 1.5 12.7822 1.5Z" fill="white"/>
</svg>
