<svg width="205" height="194" viewBox="0 0 205 194" fill="none" xmlns="http://www.w3.org/2000/svg">
<g opacity="0.1">
<path d="M204.899 161.3L153.849 193.083L0.100098 104.317L52.9831 73.5884L204.899 161.3Z" fill="black"/>
</g>
<path d="M151.953 129.663L151.943 133.799L128.697 147.306L128.705 143.172L151.953 129.663Z" fill="#4881FF"/>
<path d="M128.706 143.172L128.698 147.305L78.3149 118.216L78.3248 114.08L128.706 143.172Z" fill="#0F4BB7"/>
<path d="M151.954 129.664L128.706 143.172L78.3252 114.081L101.571 100.576L151.954 129.664Z" fill="#6A96EF"/>
<path d="M64.3872 3.70988C66.3299 2.57892 68.2786 1.44797 70.2213 0.318981C71.0843 -0.181477 72.2783 -0.108576 73.5944 0.648021L67.7584 4.03892C66.4383 3.28429 65.2482 3.21139 64.3872 3.70988Z" fill="#85A9FF"/>
<mask id="mask0_729_283" style="mask-type:luminance" maskUnits="userSpaceOnUse" x="64" y="0" width="10" height="5">
<path d="M64.3872 3.70988C66.3299 2.57892 68.2786 1.44797 70.2213 0.318981C71.0843 -0.181477 72.2783 -0.108576 73.5944 0.648021L67.7584 4.03892C66.4383 3.28429 65.2482 3.21139 64.3872 3.70988Z" fill="white"/>
</mask>
<g mask="url(#mask0_729_283)">
<path d="M64.3867 3.71031L70.2208 0.319418C70.3449 0.248487 70.4711 0.189377 70.6011 0.14209L64.767 3.53299C64.637 3.58224 64.5069 3.63938 64.3867 3.71031Z" fill="#85A9FF"/>
<path d="M64.7671 3.53426L70.6012 0.143371C70.7115 0.107906 70.8179 0.0744077 70.9322 0.0527344L65.1 3.44363C64.9838 3.46727 64.8774 3.49683 64.7671 3.53426Z" fill="#85A9FF"/>
<path d="M65.1001 3.44432L70.9322 0.0534252C71.0189 0.0376628 71.1154 0.0219021 71.2061 0.0159912L65.3661 3.40294C65.2814 3.4128 65.1888 3.42462 65.1001 3.44432Z" fill="#85A9FF"/>
<path d="M65.3662 3.40256L71.2062 0.015607C71.287 0.00575551 71.3678 0.00378418 71.4505 0.00378418L65.6204 3.39468C65.5317 3.39468 65.4509 3.39665 65.3662 3.40256Z" fill="#85A9FF"/>
<path d="M65.6201 3.39484L71.4503 0.003942C71.5212 0.00197169 71.6 0.00591281 71.6729 0.00985342L65.8349 3.39878C65.764 3.39484 65.693 3.39484 65.6201 3.39484Z" fill="#85A9FF"/>
<path d="M65.835 3.39832L71.6729 0.00939941C71.7419 0.0153103 71.8069 0.0212206 71.8779 0.0310721L66.0478 3.42394C65.9768 3.41212 65.9039 3.40226 65.835 3.39832Z" fill="#85A9FF"/>
<path d="M66.0498 3.42228L71.8799 0.0294189C71.9528 0.0392705 72.0257 0.0491213 72.0927 0.0648837L66.2566 3.45381C66.1857 3.44395 66.1148 3.43017 66.0498 3.42228Z" fill="#85A9FF"/>
<path d="M66.2544 3.45546L72.0904 0.0665283C72.1574 0.0763798 72.2205 0.0921448 72.2836 0.109878L66.4534 3.4988C66.3864 3.48304 66.3214 3.46925 66.2544 3.45546Z" fill="#85A9FF"/>
<path d="M66.4536 3.49879L72.2838 0.109863C72.3468 0.125626 72.4118 0.143356 72.4827 0.163059L66.6507 3.55199C66.5758 3.53425 66.5167 3.51455 66.4536 3.49879Z" fill="#85A9FF"/>
<path d="M66.6484 3.55018L72.4805 0.161255C72.5475 0.180958 72.6066 0.198692 72.6697 0.220365L66.8317 3.6152C66.7706 3.59353 66.7075 3.57185 66.6484 3.55018Z" fill="#85A9FF"/>
<path d="M66.832 3.61578L72.6701 0.220947C72.7351 0.246561 72.8001 0.270205 72.8631 0.295819L67.0252 3.68671C66.9601 3.66307 66.899 3.63745 66.832 3.61578Z" fill="#85A9FF"/>
<path d="M67.0254 3.68618L72.8634 0.295288C72.9284 0.320902 72.9895 0.346517 73.0505 0.376071L67.2185 3.76893C67.1515 3.73938 67.0884 3.71179 67.0254 3.68618Z" fill="#85A9FF"/>
<path d="M67.2158 3.76677L73.048 0.373901C73.115 0.403456 73.1741 0.43301 73.243 0.464534L67.409 3.8574C67.342 3.82587 67.2789 3.79435 67.2158 3.76677Z" fill="#85A9FF"/>
<path d="M67.4092 3.85832L73.2432 0.465454C73.3063 0.496979 73.3733 0.530474 73.4383 0.56791L67.6042 3.96078C67.5372 3.92334 67.4722 3.88984 67.4092 3.85832Z" fill="#85A9FF"/>
<path d="M67.6045 3.96025L73.4386 0.567383C73.4898 0.594967 73.5469 0.622555 73.5942 0.650139L67.7581 4.04103C67.701 4.01542 67.6557 3.98586 67.6045 3.96025Z" fill="#85A9FF"/>
</g>
<path d="M171.727 133.336L171.701 141.505C171.701 141.871 171.666 142.204 171.607 142.516C171.603 142.529 171.601 142.545 171.601 142.557C171.538 142.858 171.449 143.136 171.335 143.384C171.331 143.388 171.331 143.394 171.331 143.4C171.227 143.611 171.097 143.79 170.963 143.96C170.923 144.009 170.882 144.064 170.842 144.11C170.687 144.279 170.513 144.427 170.32 144.541L176.156 141.15C176.347 141.036 176.519 140.888 176.671 140.725C176.72 140.671 176.765 140.612 176.809 140.553C176.864 140.486 176.925 140.427 176.974 140.346C177.041 140.246 177.104 140.139 177.155 140.023C177.159 140.021 177.161 140.017 177.161 140.013C177.165 140.005 177.165 140 177.169 139.992C177.205 139.915 177.236 139.836 177.27 139.753C177.305 139.674 177.331 139.592 177.35 139.505C177.38 139.426 177.396 139.345 177.421 139.263C177.423 139.229 177.427 139.196 177.437 139.162C177.437 139.154 177.443 139.14 177.443 139.131C177.451 139.099 177.455 139.066 177.465 139.032C177.476 138.957 177.49 138.88 177.5 138.806C177.506 138.731 177.514 138.656 177.52 138.581C177.526 138.508 177.534 138.431 177.538 138.358C177.539 138.283 177.54 138.209 177.54 138.13C177.54 138.124 177.54 138.122 177.54 138.116L177.563 129.947L171.727 133.336Z" fill="#4881FF"/>
<path d="M128.04 133.88L146.876 132.614L132.223 124.157L128.04 133.88Z" fill="#4881FF"/>
<path d="M125.187 100.036L129.951 97.2659L132.812 131.11L128.04 133.88L125.187 100.036Z" fill="#85A9FF"/>
<path d="M97.7734 84.2112L102.544 81.4409L129.95 97.2664L125.186 100.037L97.7734 84.2112Z" fill="#85A9FF"/>
<path d="M125.187 100.036L128.04 133.88L95.7227 115.217L97.7737 84.2107L125.187 100.036Z" fill="#AECFFF"/>
<path d="M62.8267 70.4616L68.6627 67.0687L177.561 129.945L171.727 133.336L62.8267 70.4616Z" fill="#DCC9A0"/>
<path d="M67.2617 9.26441L73.1017 5.87549L72.9322 64.6398L67.0962 68.0307L67.2617 9.26441Z" fill="#584245"/>
<path d="M67.0962 68.0307L72.9322 64.6398L172.519 122.135L166.683 125.524L67.0962 68.0307Z" fill="#62494D"/>
<path d="M171.727 133.336L171.701 141.505C171.698 144.496 169.579 145.724 166.957 144.212L67.5177 86.7997C64.9031 85.2904 62.7949 81.6198 62.8047 78.6308L62.8244 70.46L171.727 133.336Z" fill="#91BDF2"/>
<path d="M166.849 66.7633L166.683 125.524L67.0962 68.0302L67.2617 9.26392L166.849 66.7633Z" fill="#2263D6"/>
<path d="M166.849 66.7632L172.683 63.3704L172.52 122.135L166.684 125.524L166.849 66.7632Z" fill="#82B3B8"/>
<path d="M67.2617 9.26441L73.1017 5.87549L172.683 63.3709L166.849 66.7638L67.2617 9.26441Z" fill="#92C8CE"/>
<path d="M171.912 69.6248L177.744 66.23L177.561 129.946L171.727 133.337L171.912 69.6248Z" fill="#4881FF"/>
<path d="M67.7583 4.04116L73.5944 0.650269L173.028 58.063L167.196 61.4539L67.7583 4.04116Z" fill="#85A9FF"/>
<path d="M167.196 61.4534C169.812 62.9646 171.919 66.6136 171.911 69.6223L171.725 133.336L62.8228 70.4616L63.004 6.74983C63.0158 3.74314 65.1359 2.53337 67.7544 4.04263L167.196 61.4534ZM166.683 125.524L166.849 66.7633L67.2618 9.26394L67.0963 68.0302L166.683 125.524Z" fill="#AECFFF"/>
<path d="M177.744 66.2297C177.744 66.1607 177.744 66.0878 177.74 66.0169C177.737 65.94 177.737 65.8651 177.731 65.7863C177.727 65.7095 177.717 65.6327 177.711 65.5558C177.703 65.477 177.697 65.4002 177.689 65.3233C177.677 65.2445 177.66 65.1637 177.646 65.0849C177.646 65.079 177.646 65.0731 177.644 65.0652C177.636 64.9923 177.62 64.9214 177.608 64.8465C177.591 64.7638 177.573 64.681 177.557 64.6002C177.54 64.5175 177.522 64.4327 177.5 64.352C177.484 64.2692 177.457 64.1845 177.437 64.1017C177.421 64.0367 177.396 63.9697 177.384 63.9047C177.384 63.9047 177.38 63.9027 177.38 63.8988C177.376 63.885 177.372 63.8692 177.362 63.8515C177.337 63.7727 177.311 63.6919 177.283 63.6091C177.258 63.5284 177.232 63.4476 177.201 63.3648C177.169 63.288 177.145 63.2112 177.114 63.1382C177.086 63.0614 177.053 62.9826 177.019 62.9077C176.998 62.8486 176.97 62.7934 176.948 62.7383C176.946 62.7324 176.946 62.7265 176.939 62.7205C176.939 62.7067 176.931 62.6949 176.923 62.6811C176.891 62.6043 176.856 62.5294 176.822 62.4546C176.779 62.3718 176.741 62.289 176.702 62.2083C176.655 62.1117 176.604 62.0191 176.558 61.9226C176.497 61.8142 176.442 61.7058 176.375 61.5994C176.375 61.5955 176.371 61.5896 176.367 61.5856C176.351 61.5581 176.34 61.5344 176.324 61.5068L176.316 61.5108L176.32 61.5068C176.21 61.3216 176.093 61.1325 175.969 60.9473C175.875 60.8113 175.782 60.6714 175.683 60.5434C175.674 60.5296 175.666 60.5197 175.658 60.5079C175.591 60.4212 175.528 60.3325 175.459 60.2498C175.402 60.1749 175.339 60.0981 175.276 60.0252C175.215 59.9523 175.157 59.8794 175.094 59.8124C175.033 59.7414 174.974 59.6725 174.911 59.6055C174.897 59.5956 174.885 59.5818 174.872 59.572C174.866 59.5641 174.858 59.5543 174.854 59.5464C174.801 59.4991 174.759 59.4498 174.716 59.4026C174.651 59.3356 174.582 59.2725 174.519 59.2075C174.45 59.1405 174.379 59.0755 174.308 59.0105C174.237 58.9474 174.17 58.8863 174.097 58.8272C174.058 58.7996 174.024 58.7661 173.985 58.7386C173.977 58.7326 173.971 58.7267 173.965 58.7208C173.932 58.6992 173.912 58.6755 173.883 58.6558C173.81 58.6026 173.747 58.5494 173.676 58.4962C173.607 58.4469 173.538 58.3957 173.469 58.3484C173.406 58.3031 173.335 58.2558 173.264 58.2145C173.201 58.1731 173.134 58.1297 173.067 58.0903C173.047 58.0844 173.033 58.0726 173.018 58.0627L167.186 61.4536C167.511 61.6388 167.82 61.8575 168.123 62.1038C168.135 62.1137 168.147 62.1235 168.161 62.1334C168.452 62.3757 168.736 62.6437 169.012 62.9333C169.026 62.9412 169.034 62.9511 169.036 62.959C169.315 63.2545 169.581 63.5717 169.826 63.9047C169.826 63.9086 169.826 63.9086 169.826 63.9106C169.83 63.9145 169.834 63.9185 169.834 63.9205C170.082 64.2515 170.306 64.6042 170.521 64.9667C170.531 64.9746 170.535 64.9884 170.539 65.0002C170.959 65.7312 171.302 66.5055 171.536 67.2877C171.536 67.2897 171.54 67.2956 171.54 67.2976C171.654 67.6857 171.745 68.0758 171.808 68.46C171.808 68.4679 171.808 68.4719 171.812 68.4797C171.871 68.8659 171.906 69.2541 171.906 69.6265L177.744 66.2297Z" fill="#85A9FF"/>
<path d="M188.611 154.763L189.962 154.245C189.555 153.185 179.863 128.296 161.681 129.029C152.647 129.394 148.582 121.867 144.259 113.895C140.332 106.651 136.268 99.1575 128.189 96.872C120.566 94.7145 115.432 82.7804 110.459 71.2423C104.676 57.8107 99.2122 45.1239 89.7074 45.1239C89.6917 45.1239 89.6719 45.1239 89.6522 45.1239C83.9718 45.1535 80.7938 49.9393 77.722 54.5656C73.6179 60.7425 69.3758 67.1361 58.9608 63.96L39.9612 58.1732L39.5415 59.5584L58.5412 65.3451C69.9808 68.8267 74.737 61.6784 78.9279 55.3695C81.9247 50.8555 84.7541 46.5977 89.6661 46.5721C89.6799 46.5721 89.6956 46.5721 89.7074 46.5721C98.2645 46.5721 103.791 59.4047 109.135 71.8176C114.236 83.667 119.514 95.9223 127.801 98.265C135.298 100.385 139.209 107.606 142.992 114.587C147.335 122.596 151.786 130.903 161.746 130.476C178.795 129.817 188.516 154.517 188.611 154.763Z" fill="#24B8D1"/>
<path d="M168.338 128.625C167.323 128.036 166.49 128.513 166.486 129.679C166.482 130.851 167.306 132.284 168.326 132.871C169.345 133.458 170.178 132.987 170.182 131.813C170.186 130.645 169.355 129.214 168.338 128.625Z" fill="#1C8EA2"/>
<path d="M172.022 132.976C172.018 135.316 170.361 136.26 168.32 135.082C166.281 133.908 164.632 131.053 164.638 128.712C164.646 126.371 166.309 125.423 168.342 126.598C170.381 127.78 172.03 130.633 172.022 132.976ZM168.326 132.871C169.345 133.458 170.178 132.987 170.182 131.813C170.186 130.645 169.355 129.212 168.338 128.625C167.323 128.036 166.49 128.513 166.486 129.679C166.482 130.852 167.306 132.284 168.326 132.871Z" fill="#09AEBF"/>
<path d="M134.318 99.9335C133.3 99.3444 132.468 99.8192 132.464 100.986C132.46 102.158 133.29 103.59 134.305 104.178C135.325 104.767 136.153 104.294 136.155 103.119C136.159 101.951 135.337 100.521 134.318 99.9335Z" fill="#1C8EA2"/>
<path d="M138.007 104.282C138.001 106.623 136.338 107.569 134.299 106.39C132.267 105.214 130.612 102.361 130.622 100.02C130.63 97.6757 132.287 96.73 134.324 97.9043C136.368 99.0825 138.013 101.939 138.007 104.282ZM134.305 104.178C135.325 104.767 136.153 104.294 136.155 103.12C136.159 101.951 135.335 100.519 134.316 99.9337C133.298 99.3445 132.466 99.8194 132.462 100.986C132.462 102.156 133.29 103.589 134.305 104.178Z" fill="#09AEBF"/>
<path d="M91.9038 44.6353C90.8891 44.0482 90.0557 44.5211 90.0537 45.6894C90.0498 46.8618 90.8754 48.2942 91.8901 48.8794C92.9107 49.4685 93.7441 48.9956 93.75 47.8233C93.754 46.6549 92.9244 45.2245 91.9038 44.6353Z" fill="#1C8EA2"/>
<path d="M95.5942 48.9876C95.5863 51.3264 93.9293 52.2721 91.888 51.0939C89.8507 49.9176 88.2016 47.0626 88.2075 44.7258C88.2115 42.3792 89.8744 41.4335 91.9077 42.6117C93.949 43.7899 95.6001 46.6429 95.5942 48.9876ZM91.89 48.8792C92.9106 49.4684 93.7441 48.9955 93.75 47.8232C93.7539 46.6548 92.9244 45.2224 91.9019 44.6352C90.8871 44.048 90.0537 44.5209 90.0517 45.6893C90.0497 46.8597 90.8753 48.2941 91.89 48.8792Z" fill="#09AEBF"/>
<path d="M39.5455 56.8925C38.5268 56.3034 37.6934 56.7783 37.6895 57.9467C37.6875 59.119 38.5131 60.5514 39.5278 61.1386C40.5504 61.7277 41.3798 61.2528 41.3838 60.0805C41.3877 58.9121 40.5582 57.4817 39.5455 56.8925Z" fill="#1C8EA2"/>
<path d="M43.228 61.2447C43.2221 63.5854 41.5631 64.5311 39.5238 63.3549C37.4865 62.1786 35.8374 59.3216 35.8452 56.9829C35.8492 54.6382 37.5121 53.6925 39.5474 54.8668C41.5867 56.045 43.2339 58.9 43.228 61.2447ZM39.5278 61.1383C40.5504 61.7274 41.3798 61.2525 41.3838 60.0802C41.3877 58.9118 40.5582 57.4814 39.5455 56.8923C38.5268 56.3031 37.6934 56.778 37.6895 57.9464C37.6875 59.1187 38.5131 60.5511 39.5278 61.1383Z" fill="#09AEBF"/>
<path d="M189.291 153.613C188.274 153.026 187.442 153.499 187.438 154.667C187.437 155.839 188.262 157.272 189.277 157.859C190.297 158.448 191.129 157.973 191.133 156.801C191.139 155.636 190.313 154.202 189.291 153.613Z" fill="#1C8EA2"/>
<path d="M192.979 157.965C192.973 160.306 191.31 161.251 189.275 160.075C187.238 158.897 185.586 156.042 185.594 153.703C185.602 151.36 187.263 150.411 189.297 151.589C191.338 152.765 192.983 155.62 192.979 157.965ZM189.277 157.858C190.297 158.448 191.129 157.973 191.133 156.8C191.137 155.636 190.311 154.2 189.291 153.612C188.274 153.025 187.442 153.498 187.438 154.667C187.438 155.839 188.264 157.271 189.277 157.858Z" fill="#09AEBF"/>
<g opacity="0.5">
<path d="M39.549 52.9105C36.5522 51.1806 34.109 52.5716 34.0972 56.0177C34.0873 59.4697 36.5187 63.6743 39.5116 65.4062C42.5183 67.142 44.9614 65.749 44.9733 62.2951C44.9851 58.849 42.5577 54.6444 39.549 52.9105Z" fill="#85A9FF"/>
</g>
<g opacity="0.5">
<path d="M39.4292 66.968C35.6797 64.8046 32.6415 59.538 32.6553 55.227C32.6652 52.2361 34.1902 50.3052 36.5467 50.3052C37.518 50.3052 38.5603 50.6244 39.64 51.247C43.3915 53.4123 46.4337 58.679 46.4218 62.9861C46.41 65.9809 44.885 67.9158 42.5265 67.9158C41.5591 67.9158 40.5129 67.5946 39.4292 66.968ZM32.9883 55.229C32.9726 59.4336 35.9379 64.5702 39.5947 66.6823C40.6291 67.2794 41.6163 67.5808 42.5246 67.5808C44.7136 67.5808 46.081 65.8194 46.0888 62.9821C46.0987 58.7834 43.1314 53.6488 39.4745 51.5327C38.4421 50.9376 37.4589 50.6362 36.5467 50.6362C34.3596 50.6362 32.9942 52.3976 32.9883 55.229Z" fill="#85A9FF"/>
</g>
<g opacity="0.6">
<path d="M39.5451 55.7318C37.9019 54.7841 36.5601 55.5466 36.5542 57.4362C36.5464 59.3277 37.8802 61.6329 39.5235 62.5826C41.1726 63.5343 42.5104 62.7698 42.5183 60.8763C42.5222 58.9888 41.1923 56.6835 39.5451 55.7318Z" fill="#85A9FF"/>
</g>
<path d="M39.5457 56.2817C38.2 55.5073 37.1085 56.1299 37.1045 57.6747C37.0986 59.2174 38.1843 61.0991 39.526 61.8773C40.8757 62.6517 41.9653 62.029 41.9712 60.4843C41.9751 58.9416 40.8894 57.0599 39.5457 56.2817Z" fill="#85A9FF"/>
<path d="M39.5419 57.5463C38.8031 57.1227 38.2022 57.4635 38.2022 58.3088C38.2002 59.156 38.7932 60.1865 39.5301 60.6101C40.267 61.0357 40.8679 60.6948 40.8719 59.8496C40.8758 59.0023 40.2769 57.9719 39.5419 57.5463Z" fill="#6E97EA"/>
<g opacity="0.5">
<path d="M91.9118 40.653C88.915 38.9211 86.4738 40.3121 86.462 43.7582C86.4482 47.2102 88.8796 51.4148 91.8744 53.1467C94.8831 54.8825 97.3242 53.4895 97.3302 50.0376C97.3459 46.5935 94.9205 42.3869 91.9118 40.653Z" fill="#85A9FF"/>
</g>
<g opacity="0.5">
<path d="M91.7896 54.7131C88.042 52.5477 85.0058 47.2831 85.0137 42.972C85.0235 39.9811 86.5485 38.0463 88.909 38.0463C89.8744 38.0463 90.9206 38.3635 91.9984 38.9881C95.7498 41.1554 98.7959 46.422 98.7821 50.7271C98.7723 53.72 97.2453 55.6549 94.8888 55.6549C93.9195 55.6588 92.8772 55.3396 91.7896 54.7131ZM85.3506 42.972C85.3388 47.1786 88.3021 52.3152 91.957 54.4234C92.9895 55.0224 93.9766 55.3258 94.8908 55.3258C97.0759 55.3258 98.4413 53.5624 98.4472 50.7291C98.461 46.5304 95.4917 41.3938 91.8348 39.2816C90.8044 38.6827 89.8173 38.3832 88.9109 38.3832C86.7239 38.3812 85.3545 40.1407 85.3506 42.972Z" fill="#85A9FF"/>
</g>
<g opacity="0.6">
<path d="M91.9054 43.4765C90.2642 42.5249 88.9244 43.2894 88.9185 45.1789C88.9126 47.0723 90.2425 49.3776 91.8877 50.3253C93.5368 51.277 94.8767 50.5145 94.8826 48.621C94.8865 46.7295 93.5526 44.4262 91.9054 43.4765Z" fill="#85A9FF"/>
</g>
<path d="M91.9051 44.026C90.5633 43.2516 89.4698 43.8743 89.4658 45.417C89.4599 46.9637 90.5476 48.8414 91.8893 49.6177C93.237 50.396 94.3246 49.7714 94.3305 48.2247C94.3345 46.6839 93.2508 44.8003 91.9051 44.026Z" fill="#85A9FF"/>
<path d="M91.9032 45.2873C91.1683 44.8637 90.5674 45.2046 90.5674 46.0518C90.5635 46.8971 91.1605 47.9295 91.8914 48.3531C92.6342 48.7787 93.2332 48.4378 93.2332 47.5886C93.2352 46.7473 92.6421 45.7168 91.9032 45.2873Z" fill="#6E97EA"/>
<g opacity="0.5">
<path d="M134.329 95.8539C131.33 94.122 128.887 95.515 128.879 98.9591C128.867 102.413 131.296 106.618 134.291 108.348C137.298 110.085 139.741 108.69 139.751 105.238C139.763 101.794 137.334 97.5898 134.329 95.8539Z" fill="#85A9FF"/>
</g>
<g opacity="0.5">
<path d="M134.205 109.916C130.457 107.75 127.419 102.486 127.431 98.1745C127.441 95.1797 128.968 93.2507 131.324 93.2507C132.293 93.2507 133.334 93.566 134.417 94.1925C138.167 96.3599 141.207 101.623 141.197 105.93C141.187 108.926 139.66 110.861 137.302 110.861C136.331 110.859 135.292 110.54 134.205 109.916ZM127.766 98.1745C127.752 102.379 130.719 107.516 134.372 109.626C135.407 110.223 136.392 110.526 137.304 110.526C139.491 110.526 140.858 108.763 140.864 105.928C140.876 101.727 137.907 96.5924 134.252 94.4782C133.219 93.8852 132.234 93.5837 131.326 93.5837C129.133 93.5837 127.776 95.3432 127.766 98.1745Z" fill="#85A9FF"/>
</g>
<g opacity="0.6">
<path d="M134.322 98.6747C132.679 97.727 131.339 98.4895 131.332 100.381C131.328 102.272 132.66 104.578 134.303 105.525C135.95 106.477 137.288 105.717 137.294 103.821C137.302 101.934 135.97 99.6263 134.322 98.6747Z" fill="#85A9FF"/>
</g>
<path d="M134.323 99.2267C132.977 98.4524 131.889 99.075 131.885 100.616C131.879 102.16 132.963 104.042 134.307 104.816C135.654 105.595 136.742 104.972 136.748 103.423C136.75 101.883 135.666 100.003 134.323 99.2267Z" fill="#85A9FF"/>
<path d="M134.319 100.489C133.582 100.066 132.981 100.407 132.981 101.254C132.977 102.099 133.572 103.132 134.307 103.555C135.048 103.981 135.647 103.64 135.649 102.791C135.653 101.947 135.052 100.917 134.319 100.489Z" fill="#6E97EA"/>
<g opacity="0.5">
<path d="M168.346 124.549C165.347 122.817 162.904 124.21 162.894 127.656C162.884 131.108 165.31 135.311 168.31 137.045C171.311 138.779 173.754 137.386 173.768 133.934C173.78 130.488 171.351 126.281 168.346 124.549Z" fill="#85A9FF"/>
</g>
<g opacity="0.5">
<path d="M168.222 138.609C164.476 136.445 161.438 131.179 161.446 126.866C161.458 123.875 162.983 121.942 165.339 121.942C166.31 121.942 167.351 122.259 168.432 122.886C172.182 125.051 175.228 130.316 175.214 134.625C175.202 137.618 173.679 139.552 171.321 139.552C170.356 139.554 169.309 139.237 168.222 138.609ZM161.783 126.868C161.771 131.072 164.736 136.209 168.385 138.319C169.424 138.918 170.413 139.22 171.323 139.22C173.508 139.22 174.873 137.458 174.879 134.623C174.893 130.422 171.926 125.286 168.267 123.173C167.237 122.578 166.253 122.277 165.341 122.277C163.154 122.277 161.791 124.036 161.783 126.868Z" fill="#85A9FF"/>
</g>
<g opacity="0.6">
<path d="M168.34 127.372C166.693 126.424 165.355 127.187 165.351 129.074C165.345 130.966 166.679 133.271 168.324 134.221C169.969 135.171 171.309 134.41 171.313 132.515C171.319 130.627 169.985 128.324 168.34 127.372Z" fill="#85A9FF"/>
</g>
<path d="M168.338 127.92C166.996 127.144 165.904 127.769 165.9 129.309C165.896 130.854 166.982 132.736 168.324 133.51C169.67 134.288 170.761 133.666 170.763 132.119C170.769 130.578 169.681 128.699 168.338 127.92Z" fill="#85A9FF"/>
<path d="M168.336 129.183C167.601 128.761 167 129.1 166.998 129.945C166.994 130.795 167.589 131.825 168.328 132.247C169.063 132.672 169.666 132.33 169.668 131.484C169.668 130.641 169.075 129.611 168.336 129.183Z" fill="#6E97EA"/>
<g opacity="0.5">
<path d="M189.304 149.538C186.303 147.804 183.858 149.199 183.854 152.645C183.842 156.097 186.268 160.3 189.265 162.034C192.267 163.768 194.71 162.375 194.724 158.923C194.738 155.477 192.307 151.27 189.304 149.538Z" fill="#85A9FF"/>
</g>
<g opacity="0.5">
<path d="M189.178 163.596C185.431 161.432 182.394 156.164 182.404 151.853C182.414 148.862 183.939 146.931 186.298 146.931C187.267 146.931 188.311 147.248 189.393 147.875C193.144 150.04 196.183 155.305 196.173 159.612C196.165 162.607 194.634 164.54 192.278 164.54C191.308 164.54 190.266 164.224 189.178 163.596ZM182.735 151.855C182.725 156.061 185.693 161.198 189.346 163.308C190.382 163.905 191.367 164.209 192.276 164.209C194.465 164.209 195.832 162.445 195.836 159.61C195.85 155.411 192.88 150.275 189.226 148.16C188.195 147.567 187.21 147.266 186.298 147.266C184.109 147.266 182.747 149.021 182.735 151.855Z" fill="#85A9FF"/>
</g>
<g opacity="0.6">
<path d="M189.297 152.36C187.651 151.41 186.312 152.176 186.308 154.064C186.3 155.957 187.634 158.263 189.277 159.21C190.922 160.16 192.264 159.399 192.268 157.504C192.274 155.614 190.942 153.309 189.297 152.36Z" fill="#85A9FF"/>
</g>
<path d="M189.295 152.909C187.951 152.133 186.861 152.757 186.855 154.298C186.854 155.845 187.937 157.724 189.277 158.501C190.623 159.277 191.716 158.654 191.718 157.108C191.724 155.567 190.636 153.687 189.295 152.909Z" fill="#85A9FF"/>
<path d="M189.293 154.172C188.556 153.749 187.955 154.089 187.953 154.935C187.949 155.78 188.546 156.814 189.283 157.236C190.018 157.662 190.621 157.321 190.621 156.476C190.623 155.628 190.026 154.598 189.293 154.172Z" fill="#6E97EA"/>
<path d="M42.3138 95.4631C42.1011 95.3823 41.8765 95.3193 41.6657 95.2897C41.6538 95.2897 41.6439 95.2897 41.6262 95.2878C41.3957 95.2582 41.1671 95.2602 40.9406 95.3016C40.9406 95.3016 40.9327 95.3035 40.9288 95.3055C40.7022 95.3488 40.4775 95.4296 40.2529 95.5557L41.3386 94.9233L44.2113 93.2544C44.2881 93.2111 44.3689 93.1736 44.4457 93.1401C44.5167 93.1086 44.5876 93.083 44.6664 93.0613C44.7354 93.0416 44.7945 93.0258 44.8634 93.014C44.8634 93.014 44.8733 93.014 44.8753 93.0101C44.8832 93.0101 44.8871 93.0101 44.895 93.0081C44.9718 92.9963 45.0467 92.9845 45.1236 92.9825C45.2122 92.9766 45.2871 92.9766 45.3679 92.9805C45.4289 92.9825 45.4959 92.9904 45.5511 93.0002C45.5708 93.0002 45.5846 93.0002 45.5984 93.0022C45.6142 93.0061 45.6279 93.0061 45.6398 93.0061C45.754 93.0239 45.8624 93.0475 45.9747 93.079C46.0594 93.1027 46.1579 93.1401 46.2486 93.1736C46.286 93.1894 46.3215 93.1973 46.3629 93.213C46.3845 93.2189 46.4043 93.2288 46.424 93.2386C46.6427 93.3234 46.8614 93.4357 47.0761 93.5598C48.1224 94.1627 49.2178 95.1538 50.337 96.1586C51.46 97.1615 52.6048 98.1743 53.7436 98.8343C53.9899 98.9742 54.2264 99.0924 54.4726 99.1968C54.5928 99.252 54.7189 99.2954 54.845 99.3387C54.9219 99.3643 55.0007 99.3978 55.0814 99.4195C55.2686 99.4687 55.4538 99.5101 55.641 99.5357C55.6686 99.5377 55.6982 99.5416 55.7297 99.5456C55.9228 99.5653 56.1178 99.5732 56.3109 99.5535C56.6931 99.5219 57.0478 99.4412 57.3789 99.3348C57.4143 99.3249 57.4537 99.3092 57.4832 99.2934C57.8064 99.187 58.1059 99.051 58.3857 98.8875C57.0734 99.65 55.7612 100.413 54.4549 101.177C54.4352 101.185 54.4135 101.199 54.3879 101.21C54.2165 101.309 54.0332 101.4 53.8421 101.476C53.7554 101.516 53.6569 101.545 53.5584 101.577C53.519 101.593 53.4835 101.607 53.448 101.62C53.4067 101.632 53.3673 101.648 53.3298 101.662C53.1663 101.711 52.989 101.75 52.8077 101.782C52.6678 101.808 52.5279 101.823 52.3821 101.839C52.3486 101.841 52.3309 101.845 52.3112 101.845C52.1989 101.851 52.0925 101.853 51.9822 101.845C51.9211 101.845 51.86 101.833 51.8009 101.829C51.7753 101.823 51.7358 101.823 51.6984 101.817C51.6767 101.815 51.6551 101.815 51.6255 101.809C51.4837 101.79 51.3457 101.76 51.1999 101.721C51.1822 101.715 51.1605 101.707 51.1487 101.703C51.0679 101.683 50.9852 101.648 50.9044 101.62C50.8098 101.587 50.7054 101.559 50.6128 101.518C50.5931 101.51 50.5694 101.494 50.5438 101.482C50.3015 101.378 50.0611 101.26 49.8148 101.12C48.672 100.458 47.5293 99.4471 46.4062 98.4442C45.291 97.4374 44.1856 96.4443 43.1473 95.8454C42.9109 95.7035 42.6646 95.5892 42.4282 95.4966C42.3947 95.4848 42.3572 95.4769 42.3138 95.4631Z" fill="#2A70EA"/>
<path d="M62.831 96.6849C62.697 96.6455 62.5709 96.6041 62.4527 96.5765C62.3483 96.5509 62.2478 96.5292 62.1493 96.5115C61.9995 96.4819 61.8459 96.4563 61.6922 96.4425C61.6331 96.4366 61.5739 96.4287 61.5089 96.4228C61.3178 96.413 61.1208 96.413 60.9336 96.4268C60.8942 96.4287 60.8509 96.4366 60.8095 96.4425C60.6578 96.4563 60.512 96.4819 60.3662 96.5135C60.3208 96.5253 60.2735 96.5332 60.2302 96.543C60.0667 96.5883 59.913 96.6396 59.7573 96.7006C59.7475 96.7085 59.7297 96.7125 59.7179 96.7144C59.5327 96.7913 59.3652 96.878 59.1958 96.9745C59.2057 96.9647 59.2194 96.9568 59.2332 96.9509L62.1178 95.2742C62.4547 95.0771 62.7936 94.8821 63.1265 94.687C63.1463 94.6811 63.1581 94.6712 63.1679 94.6633C63.3157 94.5786 63.4674 94.5038 63.629 94.4368C63.629 94.4368 63.6309 94.4348 63.6349 94.4328C63.6723 94.421 63.6999 94.4112 63.7295 94.4033C63.8398 94.356 63.9403 94.3185 64.0565 94.2811C64.092 94.2732 64.1216 94.2673 64.157 94.2594C64.2004 94.2476 64.2476 94.2358 64.2969 94.224C64.3619 94.2121 64.4191 94.1964 64.4782 94.1865C64.5688 94.1668 64.6575 94.1609 64.756 94.1511C64.7934 94.1471 64.8249 94.1392 64.8624 94.1373C64.8742 94.1373 64.8979 94.1333 64.9117 94.1333C65.0555 94.1235 65.217 94.1235 65.3668 94.1294C65.3963 94.1314 65.4161 94.1353 65.4476 94.1373C65.5008 94.1373 65.5638 94.1491 65.6209 94.155C65.7096 94.1649 65.8022 94.1668 65.8968 94.1846C65.9579 94.1925 66.0229 94.2121 66.0859 94.224C66.1825 94.2417 66.281 94.2594 66.3756 94.2851C66.4425 94.3008 66.5017 94.3087 66.5687 94.3264C66.6317 94.3461 66.7086 94.3777 66.7696 94.3993C66.9548 94.4565 67.1322 94.5195 67.3233 94.5924C67.3923 94.6239 67.4632 94.6358 67.5341 94.6673C67.5775 94.685 67.6287 94.7185 67.674 94.7382C68.0562 94.9077 68.4582 95.1008 68.8838 95.347C72.1033 97.3055 76.3611 100.478 80.215 102.7C80.745 103.006 81.2612 103.285 81.7755 103.551C81.9134 103.624 82.0513 103.691 82.1912 103.756C82.5872 103.961 82.9754 104.139 83.3635 104.302C83.4818 104.353 83.6019 104.41 83.7162 104.462C84.2088 104.661 84.6758 104.826 85.1289 104.95C85.3378 105.007 85.5329 105.053 85.7338 105.094C85.8442 105.12 85.9584 105.149 86.0687 105.169C86.3603 105.214 86.6362 105.24 86.9022 105.242C86.9436 105.244 86.981 105.242 87.0224 105.242C87.2805 105.24 87.5287 105.216 87.7671 105.163C87.7849 105.159 87.8066 105.153 87.8263 105.149C88.0785 105.088 88.3149 105 88.5297 104.875C88.5139 104.881 88.5041 104.887 88.5001 104.891L84.5654 107.179C84.4787 107.226 84.394 107.267 84.3014 107.305C84.2049 107.346 84.1123 107.378 84.0098 107.409C83.9743 107.423 83.9369 107.425 83.8916 107.435C83.8739 107.443 83.8522 107.445 83.8305 107.453C83.7812 107.462 83.7379 107.476 83.6887 107.484C83.5606 107.508 83.4266 107.522 83.2926 107.529C83.2295 107.533 83.1626 107.529 83.0936 107.529C83.0483 107.531 83.0069 107.533 82.9636 107.531C82.9143 107.529 82.8729 107.537 82.8197 107.533C82.6207 107.522 82.4198 107.504 82.2089 107.47C82.1853 107.466 82.1636 107.459 82.1439 107.457C82.0356 107.437 81.9153 107.405 81.7971 107.382C81.6356 107.346 81.472 107.321 81.3045 107.273C81.2691 107.265 81.2336 107.246 81.1962 107.236C80.747 107.11 80.2741 106.944 79.7815 106.745C79.752 106.733 79.7264 106.728 79.7027 106.716C79.614 106.68 79.5234 106.631 79.4446 106.596C79.0623 106.428 78.6663 106.249 78.2605 106.048C78.1206 105.975 77.9807 105.91 77.8388 105.835C77.3325 105.571 76.8162 105.293 76.2843 104.986C72.4284 102.761 68.1725 99.5911 64.955 97.6365C64.5294 97.3863 64.1314 97.1952 63.7492 97.0297C63.6251 96.9765 63.5088 96.9253 63.3906 96.8819C63.1935 96.8031 63.0083 96.74 62.831 96.6849Z" fill="#2A70EA"/>
<path d="M99.4429 85.0538C99.3956 85.0459 99.3385 85.042 99.2951 85.038C99.0961 85.0144 98.905 84.9986 98.7079 84.9986C98.641 84.9986 98.572 84.9986 98.503 85.0025C98.3237 85.0065 98.1484 85.0223 97.9711 85.0439C97.908 85.0518 97.845 85.0557 97.7819 85.0676C97.5474 85.105 97.315 85.1562 97.0805 85.2252C97.0706 85.2291 97.0549 85.2331 97.045 85.237C96.8224 85.306 96.5978 85.3868 96.385 85.4813C96.2687 85.5306 96.1604 85.5917 96.0441 85.6449C95.9082 85.7158 95.7742 85.7769 95.6343 85.8517L99.5729 83.5682C99.6005 83.5504 99.6222 83.5366 99.6517 83.5189C99.768 83.4578 99.8803 83.4046 100.002 83.3514C100.103 83.2963 100.213 83.2411 100.32 83.1938C100.328 83.1879 100.341 83.184 100.351 83.178C100.534 83.1012 100.718 83.0382 100.897 82.983C100.94 82.9672 100.982 82.9475 101.023 82.9377C101.023 82.9377 101.025 82.9357 101.029 82.9357C101.226 82.8746 101.427 82.8273 101.64 82.7919C101.661 82.786 101.685 82.784 101.717 82.7781C101.772 82.7702 101.837 82.7662 101.902 82.7584C102.016 82.7446 102.128 82.7249 102.239 82.717C102.306 82.7131 102.371 82.717 102.434 82.715C102.507 82.7131 102.582 82.7131 102.649 82.7131C102.706 82.715 102.763 82.7091 102.824 82.7131C102.95 82.717 103.078 82.7367 103.202 82.7485C103.265 82.7564 103.32 82.7584 103.384 82.7682C103.405 82.7702 103.423 82.7702 103.445 82.7722C103.667 82.8076 103.894 82.8589 104.126 82.9219C104.13 82.9239 104.144 82.9258 104.144 82.9258C104.43 83.0106 104.717 83.1111 105.013 83.2391C105.013 83.2391 105.013 83.2431 105.021 83.2431C105.297 83.3593 105.574 83.5012 105.852 83.6627C106.207 83.8676 106.566 84.1179 106.926 84.3918C107.034 84.4725 107.133 84.5573 107.237 84.64C107.537 84.8784 107.834 85.1424 108.134 85.4321C108.195 85.4892 108.25 85.5306 108.313 85.5897C108.339 85.6153 108.362 85.6449 108.388 85.6705C108.597 85.8852 108.814 86.1217 109.034 86.3621C109.123 86.4625 109.212 86.5453 109.298 86.6497C109.312 86.6615 109.326 86.6773 109.338 86.6911C109.442 86.8133 109.549 86.9531 109.657 87.0812C109.824 87.2842 109.994 87.4851 110.163 87.7038C110.183 87.7294 110.205 87.761 110.226 87.7846C110.339 87.9324 110.453 88.0959 110.567 88.2516C110.711 88.4506 110.863 88.6358 111.012 88.8466C111.044 88.9018 111.087 88.9629 111.117 89.0141C111.263 89.219 111.409 89.4397 111.546 89.6623C111.659 89.8298 111.771 89.9835 111.883 90.1569C111.925 90.2239 111.966 90.2987 112.009 90.3618C112.193 90.6494 112.372 90.947 112.549 91.2504C112.646 91.408 112.738 91.5459 112.831 91.7095C112.941 91.8986 113.05 92.0878 113.166 92.2848C114.015 93.7842 114.803 95.2402 115.568 96.6766C115.639 96.8027 115.712 96.9367 115.781 97.0608C115.887 97.2539 115.966 97.4233 116.066 97.6145C117.881 101.068 119.495 104.321 120.959 107.35C121.018 107.474 121.083 107.612 121.146 107.732C121.266 107.984 121.382 108.223 121.5 108.473C121.735 108.956 121.954 109.421 122.184 109.889C122.503 110.565 122.824 111.223 123.132 111.868C123.343 112.305 123.546 112.731 123.749 113.156C124.097 113.873 124.436 114.565 124.777 115.249C124.956 115.607 125.128 115.97 125.301 116.317C125.739 117.186 126.164 118.025 126.59 118.829C126.647 118.941 126.71 119.059 126.765 119.168C127.193 119.968 127.616 120.726 128.036 121.457C128.324 121.958 128.617 122.432 128.901 122.899C128.988 123.037 129.07 123.187 129.163 123.319C129.522 123.888 129.88 124.426 130.256 124.947C130.337 125.059 130.422 125.165 130.499 125.28C130.808 125.695 131.119 126.095 131.433 126.474C131.517 126.578 131.602 126.682 131.685 126.783C132.085 127.244 132.481 127.679 132.893 128.083C133.206 128.387 133.535 128.657 133.858 128.927C134 129.043 134.136 129.181 134.276 129.287C134.747 129.658 135.237 129.985 135.746 130.278C136.189 130.532 136.64 130.755 137.107 130.952C137.29 131.027 137.484 131.086 137.673 131.155C137.958 131.257 138.232 131.362 138.524 131.443C138.815 131.525 139.119 131.584 139.42 131.646C139.602 131.681 139.771 131.728 139.948 131.756C140.435 131.833 140.939 131.888 141.464 131.912C141.688 131.923 141.909 131.945 142.137 131.981C142.193 131.988 142.252 132.008 142.311 132.016C142.421 132.036 142.533 132.063 142.646 132.089C142.746 132.114 142.851 132.126 142.949 132.154C143.02 132.174 143.097 132.207 143.172 132.231C143.371 132.29 143.566 132.361 143.777 132.438C143.865 132.473 143.948 132.491 144.043 132.528C144.088 132.548 144.135 132.579 144.187 132.601C144.602 132.778 145.02 132.977 145.438 133.22C146.854 134.039 148.289 135.19 149.713 136.573C149.776 136.634 149.841 136.692 149.906 136.755L149.908 136.759C150.637 137.47 151.358 138.244 152.072 139.066C152.093 139.085 152.105 139.103 152.125 139.123C152.133 139.131 152.137 139.141 152.143 139.148C152.795 139.897 153.441 140.697 154.087 141.519C154.121 141.566 154.164 141.609 154.196 141.655C154.217 141.678 154.229 141.704 154.249 141.728C154.944 142.626 155.632 143.566 156.31 144.527C156.339 144.567 156.363 144.6 156.389 144.634C156.402 144.652 156.412 144.669 156.42 144.685C157.228 145.836 158.014 147.024 158.781 148.222C158.798 148.249 158.822 148.273 158.834 148.299C158.859 148.336 158.877 148.373 158.901 148.413C159.841 149.887 160.749 151.38 161.614 152.87C161.624 152.882 161.632 152.893 161.639 152.905C161.669 152.954 161.695 153 161.722 153.049C162.258 153.967 162.776 154.883 163.279 155.788C163.3 155.829 163.326 155.872 163.35 155.916C163.834 156.793 164.299 157.652 164.751 158.497C164.798 158.586 164.851 158.68 164.898 158.765C164.934 158.826 164.957 158.885 164.993 158.946C165.288 159.502 165.574 160.049 165.848 160.585C165.943 160.765 166.031 160.936 166.122 161.113C166.331 161.523 166.54 161.925 166.741 162.319C166.821 162.493 166.912 162.664 166.997 162.834C167.202 163.243 167.403 163.639 167.592 164.029C167.659 164.16 167.722 164.29 167.781 164.414C168.023 164.898 168.256 165.369 168.474 165.815C168.48 165.838 168.502 165.868 168.508 165.891C168.638 166.165 168.76 166.419 168.884 166.678C168.926 166.766 168.967 166.865 169.01 166.951C169.121 167.174 169.215 167.379 169.312 167.588C169.379 167.716 169.432 167.852 169.495 167.974C169.554 168.106 169.611 168.22 169.669 168.346C170.465 170.057 170.967 171.194 171.083 171.469L167.154 173.751C167.034 173.473 166.518 172.297 165.694 170.533C165.647 170.443 165.614 170.358 165.57 170.266C165.484 170.084 165.387 169.889 165.298 169.698C165.231 169.548 165.16 169.408 165.093 169.253C165.009 169.085 164.928 168.904 164.839 168.727C164.749 168.528 164.652 168.341 164.554 168.134C164.331 167.669 164.091 167.182 163.842 166.68C163.791 166.573 163.736 166.461 163.683 166.354C163.478 165.939 163.267 165.507 163.044 165.07C162.973 164.93 162.908 164.792 162.837 164.654C162.591 164.165 162.333 163.665 162.071 163.157C162.03 163.086 161.998 163.019 161.963 162.948C161.647 162.343 161.324 161.72 160.989 161.094C160.972 161.056 160.948 161.017 160.932 160.981C160.445 160.071 159.945 159.135 159.413 158.19C159.395 158.156 159.376 158.123 159.36 158.089C158.861 157.191 158.341 156.278 157.807 155.362C157.766 155.289 157.73 155.216 157.685 155.145C156.816 153.654 155.91 152.158 154.964 150.685C154.931 150.629 154.895 150.572 154.858 150.517C154.087 149.307 153.295 148.119 152.485 146.967C152.456 146.919 152.422 146.874 152.391 146.829C151.709 145.861 151.022 144.923 150.322 144.015C150.265 143.94 150.204 143.869 150.147 143.792C149.498 142.965 148.844 142.161 148.182 141.406C147.461 140.563 146.72 139.769 145.98 139.042C145.962 139.024 145.944 139.013 145.93 138.997C145.207 138.28 144.47 137.623 143.739 137.046C143.672 136.991 143.609 136.946 143.538 136.894C143.235 136.656 142.928 136.424 142.624 136.213C142.252 135.959 141.883 135.72 141.509 135.505C141.095 135.263 140.674 135.064 140.26 134.885C140.122 134.826 139.98 134.77 139.84 134.717C139.643 134.64 139.446 134.569 139.241 134.51C139.064 134.459 138.886 134.414 138.709 134.37C138.597 134.345 138.486 134.319 138.376 134.3C138.096 134.248 137.809 134.209 137.531 134.195C137.032 134.17 136.55 134.122 136.087 134.051C136.057 134.047 136.041 134.043 136.024 134.038C135.844 134.01 135.673 133.963 135.497 133.925C135.224 133.872 134.952 133.829 134.69 133.758C134.66 133.748 134.631 133.732 134.595 133.724C134.3 133.641 134.012 133.535 133.728 133.431C133.569 133.37 133.395 133.328 133.241 133.265C133.218 133.255 133.202 133.243 133.186 133.234C132.715 133.037 132.258 132.818 131.821 132.56C131.313 132.27 130.828 131.937 130.351 131.573C130.174 131.435 130.002 131.267 129.829 131.119C129.539 130.873 129.246 130.637 128.962 130.365C128.958 130.357 128.952 130.353 128.944 130.349C128.582 129.996 128.229 129.618 127.886 129.222C127.841 129.169 127.796 129.108 127.748 129.055C127.673 128.964 127.595 128.869 127.522 128.781C127.352 128.572 127.177 128.371 127.005 128.152C126.86 127.961 126.716 127.752 126.564 127.553C126.489 127.447 126.41 127.344 126.332 127.234C126.273 127.155 126.213 127.082 126.16 127.004C125.865 126.572 125.559 126.125 125.264 125.656C125.254 125.636 125.242 125.618 125.226 125.601C125.132 125.457 125.049 125.303 124.958 125.155C124.706 124.75 124.45 124.348 124.2 123.92C124.17 123.863 124.139 123.798 124.105 123.741C123.689 123.025 123.276 122.279 122.862 121.498C122.838 121.453 122.813 121.412 122.787 121.368C122.738 121.276 122.687 121.169 122.637 121.077C122.22 120.277 121.794 119.449 121.363 118.592C121.203 118.267 121.039 117.924 120.872 117.593C120.507 116.858 120.139 116.108 119.769 115.335C119.719 115.233 119.674 115.14 119.621 115.04C119.514 114.811 119.4 114.573 119.292 114.342C118.858 113.45 118.421 112.54 117.974 111.6C117.861 111.369 117.749 111.135 117.633 110.898C117.426 110.455 117.195 109.988 116.977 109.537C116.295 108.134 115.593 106.688 114.845 105.188C114.784 105.064 114.73 104.948 114.665 104.824C113.893 103.269 113.05 101.65 112.185 100.004C111.99 99.636 111.803 99.2695 111.602 98.8971C110.845 97.4864 110.067 96.0481 109.227 94.5723C109.009 94.1802 108.79 93.8216 108.569 93.4611C108.414 93.201 108.258 92.935 108.098 92.6887C107.923 92.405 107.746 92.137 107.568 91.871C107.444 91.6898 107.324 91.5006 107.206 91.3213C107.007 91.0396 106.816 90.7736 106.617 90.5096C106.508 90.3618 106.4 90.2101 106.296 90.0721C106.114 89.8337 105.931 89.617 105.746 89.4003C105.632 89.2584 105.519 89.1106 105.401 88.9747C105.305 88.8683 105.218 88.7737 105.121 88.6732C104.897 88.425 104.674 88.1787 104.457 87.958C104.367 87.8713 104.29 87.8024 104.201 87.7216C103.904 87.43 103.602 87.164 103.299 86.9236C103.198 86.8408 103.098 86.762 103.003 86.6832C102.637 86.4074 102.28 86.1552 101.924 85.9503C101.642 85.7887 101.358 85.6468 101.076 85.5247C100.787 85.4005 100.501 85.2981 100.217 85.2173C99.9551 85.1405 99.701 85.0873 99.4429 85.0538Z" fill="#2A70EA"/>
<path d="M101.921 85.946C92.8989 80.7366 87.0983 98.2486 86.0403 104.646C85.3093 109.079 81.1145 107.777 76.2814 104.985C72.4255 102.761 68.1696 99.5904 64.9521 97.6359C57.6856 93.4352 57.595 101.385 52.3815 101.844C51.5363 101.919 50.6773 101.626 49.8123 101.125C48.6695 100.463 47.5267 99.4525 46.4037 98.4496C45.2885 97.4428 44.1831 96.4497 43.1448 95.8508C41.0878 94.6627 39.2455 94.9878 37.8564 99.6869L167.146 173.747C166.458 172.178 153.391 142.368 141.498 135.501C140.147 134.719 138.811 134.256 137.522 134.193C135.357 134.088 133.483 133.531 131.81 132.56C123.758 127.912 120.105 113.783 109.223 94.5661C106.606 89.9398 104.165 87.2425 101.921 85.946Z" fill="#131395"/>
<path d="M32.4589 106.532C31.8875 106.298 31.3418 106.083 30.8059 105.878C30.6502 105.815 30.4985 105.756 30.3448 105.701C29.9566 105.549 29.5705 105.409 29.1981 105.269C29.0661 105.222 28.9242 105.171 28.7922 105.121C28.3095 104.944 27.8386 104.782 27.3972 104.629C27.3558 104.617 27.3282 104.609 27.2928 104.597C26.879 104.455 26.483 104.325 26.0968 104.201C25.9746 104.162 25.8564 104.124 25.7343 104.087C25.4269 103.992 25.1254 103.9 24.8397 103.811C24.7412 103.784 24.6427 103.754 24.5521 103.726C24.1817 103.616 23.8172 103.518 23.4743 103.423C23.0901 103.321 22.7197 103.226 22.3769 103.143C22.2646 103.118 22.174 103.094 22.0754 103.072C21.839 103.017 21.6006 102.96 21.3838 102.915C21.2636 102.889 21.1553 102.869 21.0371 102.844C20.8597 102.808 20.6864 102.771 20.5209 102.743C20.4164 102.724 20.314 102.702 20.2115 102.684C20.0618 102.66 19.912 102.635 19.776 102.613C19.6795 102.597 19.5948 102.584 19.5041 102.572C19.4155 102.558 19.3209 102.544 19.2382 102.532C19.1476 102.521 19.0648 102.513 18.9899 102.501C18.919 102.493 18.852 102.485 18.785 102.481C18.7023 102.471 18.6313 102.461 18.5584 102.458C18.5171 102.456 18.4717 102.452 18.4343 102.448C18.3594 102.444 18.2983 102.436 18.2392 102.436C18.2156 102.432 18.186 102.432 18.1663 102.428C18.0225 102.424 17.9338 102.424 17.9082 102.424L22.5463 99.7267C22.5719 99.7267 22.6468 99.7267 22.7768 99.7346C22.7847 99.7346 22.7926 99.7346 22.8005 99.7385C22.8261 99.7385 22.8576 99.7405 22.8832 99.7425C22.9423 99.7444 23.0034 99.7484 23.0724 99.7543C23.1118 99.7562 23.1532 99.7622 23.1926 99.7641C23.2655 99.77 23.3403 99.7779 23.429 99.7878C23.4861 99.7937 23.5571 99.7996 23.6221 99.8094C23.7029 99.8193 23.7915 99.8252 23.8782 99.839C23.961 99.8508 24.0477 99.8626 24.1383 99.8764C24.1994 99.8823 24.2467 99.8922 24.3078 99.9001C24.3433 99.906 24.3866 99.9139 24.424 99.9198C24.558 99.9414 24.6999 99.9651 24.8516 99.9907C24.9521 100.008 25.0506 100.024 25.1668 100.046C25.3264 100.077 25.5037 100.117 25.6791 100.152C25.7934 100.176 25.9018 100.196 26.0239 100.223C26.2446 100.269 26.485 100.326 26.7293 100.383C26.8278 100.404 26.9125 100.424 27.013 100.45C27.3598 100.535 27.7322 100.627 28.1282 100.737C28.1361 100.737 28.1439 100.739 28.1597 100.743C28.4848 100.83 28.8257 100.929 29.1823 101.035C29.2867 101.065 29.3931 101.096 29.5015 101.13C29.7813 101.212 30.0631 101.297 30.3645 101.392C30.4926 101.429 30.6147 101.472 30.7468 101.512C31.1172 101.632 31.4974 101.756 31.8915 101.888C31.9427 101.908 31.9939 101.922 32.0412 101.939C32.4845 102.091 32.9436 102.253 33.4165 102.424C33.5682 102.477 33.716 102.534 33.8638 102.586C34.2204 102.72 34.5908 102.854 34.9632 102.999C35.1287 103.06 35.2883 103.123 35.4616 103.189C35.9936 103.393 36.5335 103.61 37.099 103.839C37.7236 104.095 38.3186 104.304 38.8999 104.495C39.0634 104.546 39.2151 104.593 39.3688 104.637C39.7293 104.749 40.0761 104.838 40.415 104.922C40.7618 105.007 41.0987 105.078 41.4297 105.137C41.7076 105.188 41.9854 105.238 42.2632 105.271C42.4878 105.299 42.7163 105.324 42.937 105.338C43.2424 105.362 43.5438 105.376 43.8354 105.378C44.0069 105.378 44.1763 105.379 44.3418 105.372C44.6729 105.36 44.9979 105.328 45.3151 105.287C45.4294 105.271 45.5457 105.265 45.656 105.246C46.0796 105.177 46.4914 105.086 46.8855 104.97C47.0076 104.932 47.1219 104.881 47.2441 104.844C47.5278 104.747 47.8115 104.65 48.0854 104.532C48.3278 104.43 48.5603 104.304 48.7928 104.184C48.9898 104.087 49.1829 103.998 49.376 103.884L44.7379 106.581C44.6965 106.607 44.6452 106.635 44.5999 106.662C44.4561 106.743 44.3083 106.804 44.1625 106.877C43.9241 106.997 43.6877 107.123 43.4473 107.23C43.4158 107.241 43.3902 107.259 43.3587 107.271C43.1183 107.371 42.868 107.448 42.6237 107.531C42.4976 107.572 42.3774 107.628 42.2494 107.663C42.2375 107.667 42.2277 107.673 42.2198 107.673C41.8612 107.779 41.4967 107.868 41.1085 107.929C41.0829 107.935 41.0514 107.937 41.0199 107.941C40.9017 107.963 40.7795 107.968 40.6574 107.982C40.4308 108.014 40.2042 108.051 39.9619 108.067C39.8831 108.073 39.7924 108.063 39.7076 108.067C39.5382 108.075 39.3609 108.073 39.1816 108.073C39.024 108.073 38.8684 108.083 38.7048 108.075C38.5787 108.071 38.4349 108.045 38.3048 108.035C38.0783 108.018 37.8477 107.998 37.6112 107.965C37.4832 107.949 37.363 107.949 37.229 107.927C37.0911 107.905 36.9394 107.86 36.7975 107.834C36.4645 107.773 36.1197 107.702 35.769 107.616C35.6252 107.58 35.4892 107.565 35.3375 107.523C35.1484 107.47 34.9435 107.399 34.7405 107.338C34.577 107.289 34.4134 107.239 34.2479 107.186C33.6726 106.993 33.0796 106.784 32.4589 106.532Z" fill="#5A39EA"/>
<path d="M56.1067 98.8991C56.0358 98.8754 55.9649 98.8498 55.888 98.8301C55.8289 98.8144 55.7639 98.8045 55.7029 98.7927C55.5905 98.769 55.4802 98.7454 55.3679 98.7316C55.3186 98.7257 55.2714 98.7218 55.2201 98.7178C55.098 98.708 54.9758 98.702 54.8537 98.708C54.8123 98.708 54.7788 98.706 54.7433 98.708C54.5916 98.7139 54.4399 98.7355 54.2882 98.7631C54.2527 98.771 54.2153 98.7828 54.1759 98.7907C54.0557 98.8203 53.9316 98.8557 53.8094 98.901C53.772 98.9148 53.7306 98.9267 53.6912 98.9424C53.5296 99.0074 53.37 99.0803 53.2144 99.1729C53.2262 99.1631 53.2419 99.1572 53.2557 99.1473L55.161 98.04L57.8466 96.4756C57.8663 96.4697 57.882 96.4579 57.8918 96.45C58.016 96.3791 58.1441 96.3199 58.2761 96.2628C58.2938 96.2549 58.3115 96.251 58.3293 96.2431C58.3647 96.2293 58.4002 96.2195 58.4357 96.2057C58.5026 96.184 58.5677 96.1544 58.6367 96.1367C58.6918 96.119 58.7529 96.1072 58.81 96.0934C58.8514 96.0855 58.8869 96.0756 58.9263 96.0697C58.946 96.0638 58.9716 96.0579 58.9913 96.0559C59.1115 96.0342 59.2258 96.0185 59.3459 96.0126C59.3558 96.0126 59.3696 96.0126 59.3794 96.0126C59.4188 96.0106 59.4523 96.0126 59.4918 96.0106C59.5627 96.0086 59.6415 96.0047 59.7124 96.0086C59.7637 96.0106 59.8109 96.0185 59.8563 96.0224C59.9075 96.0264 59.9607 96.0303 60.006 96.0382C60.0474 96.0421 60.0828 96.0421 60.1203 96.048C60.1952 96.0579 60.268 96.0796 60.3468 96.0934C60.406 96.1072 60.469 96.119 60.534 96.1347C60.5498 96.1406 60.5735 96.1426 60.5991 96.1505C60.6464 96.1643 60.7015 96.1879 60.7508 96.2037C60.8808 96.2451 61.0168 96.2884 61.1488 96.3416C61.1783 96.3534 61.2118 96.3613 61.2414 96.3751C61.2729 96.3889 61.3025 96.4066 61.334 96.4204C61.5882 96.5308 61.8423 96.6509 62.1004 96.8007C62.4906 97.0273 62.8807 97.2992 63.2787 97.5947C63.4087 97.7011 63.5506 97.8134 63.6865 97.9238C63.9466 98.1346 64.2146 98.3494 64.4786 98.5838C64.6284 98.7198 64.7781 98.8577 64.9357 98.9976C65.1978 99.238 65.4579 99.4823 65.7199 99.7345C65.8637 99.8764 66.0115 100.02 66.1652 100.164C66.2302 100.235 66.3031 100.302 66.3741 100.371C66.644 100.637 66.9159 100.909 67.1858 101.181C67.4951 101.49 67.8045 101.797 68.1177 102.101C68.301 102.284 68.4882 102.459 68.6714 102.639C68.9118 102.871 69.1502 103.09 69.3827 103.313C69.5501 103.462 69.7157 103.61 69.8792 103.754C70.1413 103.988 70.4033 104.199 70.6575 104.406C70.7914 104.514 70.9235 104.629 71.0614 104.733C71.4496 105.027 71.8436 105.299 72.2259 105.519C72.4702 105.663 72.7224 105.781 72.9647 105.89C73.0297 105.917 73.0927 105.945 73.1538 105.969C73.2839 106.02 73.4139 106.061 73.5459 106.103C73.607 106.122 73.6701 106.146 73.7371 106.162C73.7942 106.177 73.8592 106.187 73.9163 106.201C74.0267 106.223 74.1272 106.244 74.2316 106.258C74.2808 106.262 74.3261 106.268 74.3754 106.272C74.4936 106.282 74.6099 106.286 74.7242 106.284C74.7616 106.284 74.801 106.286 74.8345 106.284C74.9803 106.274 75.1242 106.258 75.2719 106.233C75.3054 106.223 75.337 106.215 75.3744 106.207C75.4906 106.179 75.6069 106.146 75.7212 106.104C75.7606 106.093 75.8 106.081 75.8394 106.065C75.9911 106.006 76.1388 105.939 76.2866 105.852L71.6525 108.55C71.6466 108.554 71.6407 108.554 71.6367 108.554C71.5126 108.626 71.3884 108.688 71.2663 108.739C71.2426 108.749 71.217 108.757 71.2032 108.762C71.1619 108.778 71.1244 108.79 71.085 108.804C71.0259 108.822 70.9727 108.843 70.9195 108.861C70.8604 108.879 70.7993 108.89 70.7383 108.904C70.7008 108.912 70.6653 108.924 70.6318 108.93C70.618 108.932 70.5944 108.938 70.5826 108.94C70.4683 108.959 70.356 108.973 70.2417 108.981C70.2279 108.981 70.2122 108.981 70.1984 108.981C70.159 108.983 70.1255 108.983 70.094 108.983C70.025 108.985 69.956 108.987 69.893 108.987C69.8417 108.983 69.7886 108.973 69.7413 108.969C69.692 108.965 69.6447 108.961 69.5994 108.956C69.56 108.952 69.5363 108.95 69.5009 108.946C69.4299 108.932 69.3571 108.912 69.2822 108.896C69.2211 108.885 69.1581 108.875 69.1049 108.861C69.0812 108.857 69.0654 108.853 69.0497 108.849C69.0044 108.835 68.9551 108.816 68.9078 108.8C68.7758 108.758 68.6477 108.717 68.5157 108.666C68.4862 108.652 68.4625 108.648 68.431 108.634C68.3975 108.621 68.3679 108.601 68.3364 108.589C68.0882 108.479 67.8419 108.36 67.5917 108.219C67.2035 107.994 66.8193 107.724 66.4233 107.43C66.2952 107.328 66.1494 107.21 66.0135 107.101C65.7593 106.895 65.5032 106.684 65.2411 106.453C65.0815 106.309 64.92 106.164 64.7584 106.012C64.516 105.787 64.2776 105.567 64.0353 105.334C63.8501 105.153 63.6668 104.977 63.4816 104.794C63.4284 104.741 63.3752 104.69 63.3181 104.639C63.0659 104.384 62.8078 104.13 62.5517 103.874C62.2009 103.523 61.8502 103.177 61.5034 102.836C61.3694 102.706 61.2374 102.582 61.1054 102.455C60.8316 102.186 60.5518 101.925 60.272 101.671C60.136 101.543 59.9922 101.417 59.8543 101.295C59.5765 101.051 59.3046 100.824 59.0268 100.603C58.8987 100.501 58.7726 100.393 58.6465 100.298C58.2524 100 57.8544 99.7266 57.4643 99.5C57.2102 99.3503 56.952 99.2281 56.6979 99.1178C56.6388 99.0922 56.5796 99.0665 56.5146 99.0409C56.3708 98.9818 56.2427 98.9385 56.1067 98.8991Z" fill="#5A39EA"/>
<mask id="mask1_729_283" style="mask-type:luminance" maskUnits="userSpaceOnUse" x="81" y="71" width="8" height="4">
<path d="M86.2455 72.1326L81.6074 74.83C81.7414 74.7512 81.8872 74.6783 82.029 74.6192C82.5906 74.3827 83.1344 74.4399 83.6664 74.7492L88.3045 72.0519C87.7705 71.7425 87.2228 71.6874 86.6672 71.9277C86.5194 71.9849 86.3834 72.0558 86.2455 72.1326Z" fill="white"/>
</mask>
<g mask="url(#mask1_729_283)">
<path d="M83.6645 74.7495L88.3025 72.0522C88.2119 72.0009 88.1213 71.9596 88.0346 71.9202L83.3965 74.6175C83.4871 74.651 83.5817 74.6963 83.6645 74.7495Z" fill="#972CB1"/>
<path d="M83.399 74.6153L88.0371 71.9179C87.9603 71.8864 87.8795 71.8588 87.8026 71.8372L83.1626 74.5345C83.2394 74.5562 83.3222 74.5818 83.399 74.6153Z" fill="#932BAC"/>
<path d="M83.1604 74.5348L87.8005 71.8374C87.7355 71.8216 87.6724 71.8078 87.6054 71.796L82.9692 74.4914C83.0343 74.5032 83.0993 74.517 83.1604 74.5348Z" fill="#902AA8"/>
<path d="M82.9713 74.4911L87.6074 71.7957C87.5522 71.7898 87.4872 71.7799 87.4281 71.778L82.792 74.4773C82.8491 74.4792 82.9082 74.4832 82.9713 74.4911Z" fill="#8C29A4"/>
<path d="M82.7921 74.4772L87.4282 71.7779C87.375 71.7759 87.312 71.7759 87.2548 71.7799L82.6147 74.4772C82.6798 74.4733 82.731 74.4733 82.7921 74.4772Z" fill="#88289F"/>
<path d="M82.6144 74.4774L87.2545 71.78C87.1953 71.7859 87.1323 71.7919 87.0771 71.7997L82.4351 74.4991C82.4981 74.4872 82.5533 74.4794 82.6144 74.4774Z" fill="#84279B"/>
<path d="M82.4358 74.4986L87.0779 71.7993C87.0109 71.8131 86.9458 71.8269 86.8808 71.8486L82.2407 74.542C82.3077 74.5242 82.3767 74.5085 82.4358 74.4986Z" fill="#812596"/>
<path d="M82.2396 74.5423L86.8797 71.8489C86.8087 71.8706 86.7338 71.8922 86.6708 71.9238L82.0308 74.6172C82.1037 74.5896 82.1667 74.564 82.2396 74.5423Z" fill="#7D2492"/>
<path d="M82.0314 74.6166L86.6715 71.9232C86.6675 71.9232 86.6656 71.9252 86.6656 71.9252C86.5257 71.9823 86.3897 72.0493 86.2538 72.1281L81.6177 74.8235C81.7477 74.7486 81.8876 74.6777 82.0255 74.6186L82.0314 74.6166Z" fill="#79238D"/>
<path d="M81.6192 74.822L86.2553 72.1266L86.2455 72.1325L81.6074 74.8298C81.6133 74.8259 81.6153 74.8239 81.6192 74.822Z" fill="#5A39EA"/>
</g>
<path d="M95.6559 109.292C95.5298 108.89 95.4076 108.484 95.2854 108.075C95.1909 107.783 95.1042 107.486 95.0135 107.19C94.8933 106.776 94.7732 106.357 94.651 105.939C94.5584 105.63 94.4678 105.326 94.3791 105.015C94.3023 104.737 94.2235 104.455 94.1427 104.177C94.0225 103.74 93.8983 103.307 93.7722 102.865C93.7092 102.635 93.6462 102.404 93.5831 102.176C93.4097 101.545 93.2363 100.915 93.0669 100.286C92.9585 99.888 92.8521 99.496 92.7497 99.1019C92.5743 98.4517 92.3989 97.8074 92.2216 97.1611C91.9615 96.176 91.6955 95.2007 91.4374 94.2313C91.3842 94.0264 91.3252 93.8274 91.2739 93.6205C91.0651 92.8541 90.8562 92.0935 90.6493 91.3448C90.6079 91.1891 90.5646 91.0296 90.5193 90.8759C90.3991 90.4424 90.2809 90.0129 90.1567 89.5893C90.0917 89.3449 90.0208 89.1026 89.9518 88.8602C89.8474 88.4898 89.741 88.1332 89.6366 87.7726C89.5518 87.485 89.4691 87.1934 89.3844 86.9116C89.2957 86.6121 89.2051 86.3205 89.1145 86.0289C89.0159 85.7078 88.9194 85.3807 88.8189 85.0674C88.7421 84.8192 88.6613 84.5788 88.5824 84.3345C88.4741 83.9936 88.3677 83.6508 88.2574 83.3257C88.2101 83.1956 88.1628 83.0715 88.1194 82.9395C87.9933 82.5632 87.8653 82.1947 87.7372 81.8342C87.6781 81.6686 87.621 81.513 87.5579 81.3534C87.4476 81.0539 87.3373 80.7623 87.223 80.4786C87.1343 80.248 87.0397 80.0254 86.9491 79.8047C86.8466 79.5604 86.7501 79.322 86.6536 79.0954C86.5905 78.9476 86.5196 78.8058 86.4545 78.6639C86.3087 78.3428 86.1649 78.0334 86.0132 77.7477C86.0092 77.73 85.9974 77.7123 85.9896 77.6926C85.8103 77.3537 85.6329 77.0404 85.4556 76.7488C85.4339 76.7212 85.4201 76.6917 85.4044 76.6641C85.2211 76.3725 85.0339 76.1025 84.8546 75.8661C84.8448 75.8543 84.835 75.8464 84.8271 75.8385C84.6951 75.6671 84.5591 75.5292 84.4251 75.3912C84.3404 75.2986 84.2537 75.212 84.169 75.1371C84.0015 74.9873 83.8321 74.8494 83.6606 74.7548L88.2987 72.0575C88.4327 72.1343 88.5687 72.2309 88.6987 72.3392C88.7342 72.3668 88.7657 72.4102 88.8012 72.4397C88.8859 72.5166 88.9745 72.6092 89.0671 72.6998C89.1282 72.7668 89.1933 72.8161 89.2583 72.887C89.3272 72.9697 89.4001 73.0584 89.4691 73.151C89.473 73.1589 89.4829 73.1628 89.4907 73.1707C89.4967 73.1786 89.4986 73.1845 89.5006 73.1884C89.5814 73.2929 89.6662 73.4032 89.745 73.5214C89.8297 73.6377 89.9085 73.7579 89.9913 73.8879C90.009 73.9175 90.0267 73.949 90.0444 73.9785C90.0562 74.0002 90.07 74.0278 90.0878 74.0514C90.137 74.1421 90.1981 74.2307 90.2513 74.3253C90.3656 74.5243 90.4818 74.7332 90.5961 74.9499C90.6059 74.9637 90.6099 74.9814 90.6158 74.9933C90.6336 75.0267 90.6513 75.0622 90.667 75.0957C90.7557 75.2671 90.8463 75.4464 90.939 75.6316C90.9902 75.7498 91.0414 75.8759 91.1005 75.9942C91.1616 76.1262 91.2207 76.2542 91.2798 76.3922C91.3251 76.4887 91.3665 76.5793 91.4079 76.6759C91.469 76.8197 91.5261 76.9754 91.5931 77.1212C91.6837 77.3497 91.7783 77.5783 91.8709 77.8187C91.9064 77.9054 91.9398 77.9861 91.9792 78.0768C92.0443 78.2442 92.1034 78.4275 92.1704 78.5989C92.2413 78.7959 92.3181 78.991 92.3891 79.19C92.4955 79.4934 92.5979 79.8067 92.7122 80.1259C92.7753 80.3091 92.8383 80.4904 92.9034 80.6835C92.925 80.7268 92.9348 80.7643 92.9486 80.8076C93.0176 81.0243 93.0886 81.2529 93.1595 81.4736C93.262 81.7868 93.3644 82.0942 93.4668 82.4193C93.5496 82.6912 93.6402 82.9769 93.725 83.2587C93.8215 83.5798 93.9239 83.901 94.0185 84.232C94.1131 84.5374 94.2018 84.8507 94.2944 85.162C94.389 85.4812 94.4796 85.8004 94.5761 86.1235C94.6747 86.4722 94.7732 86.8249 94.8717 87.1776C94.9544 87.4732 95.0391 87.7746 95.1219 88.078C95.1455 88.1647 95.1751 88.2495 95.1948 88.3361C95.246 88.5233 95.2992 88.7184 95.3544 88.9056C95.5298 89.5439 95.7051 90.1922 95.8864 90.8443C95.9533 91.1064 96.0243 91.3625 96.0933 91.6246C96.31 92.4285 96.5307 93.2402 96.7494 94.0559C96.9819 94.9288 97.2164 95.8095 97.4548 96.6843C97.5218 96.9326 97.5927 97.1848 97.6597 97.435C97.8961 98.302 98.1345 99.1748 98.369 100.036C98.3867 100.093 98.4005 100.148 98.4163 100.205C98.6192 100.938 98.8221 101.667 99.029 102.388C99.092 102.597 99.1473 102.804 99.2143 103.011C99.3601 103.517 99.5058 104.026 99.6575 104.526C99.7363 104.804 99.8211 105.074 99.9058 105.346C100.03 105.773 100.16 106.203 100.29 106.625C100.385 106.912 100.471 107.194 100.566 107.48C100.686 107.878 100.82 108.276 100.946 108.67C101.051 108.979 101.149 109.28 101.252 109.584C101.35 109.87 101.449 110.155 101.543 110.431C101.655 110.75 101.766 111.062 101.878 111.373C101.977 111.633 102.067 111.893 102.166 112.145C102.254 112.386 102.347 112.62 102.44 112.855C102.629 113.339 102.816 113.808 103.011 114.263C103.104 114.48 103.192 114.699 103.287 114.91C103.372 115.111 103.468 115.302 103.553 115.499C103.685 115.781 103.813 116.056 103.943 116.322C104.02 116.48 104.095 116.634 104.177 116.787C104.347 117.114 104.512 117.436 104.684 117.737C104.715 117.79 104.741 117.845 104.772 117.897C104.979 118.259 105.19 118.6 105.399 118.919C105.44 118.974 105.476 119.03 105.515 119.083C105.72 119.388 105.931 119.67 106.14 119.932C106.177 119.977 106.211 120.019 106.25 120.064C106.412 120.257 106.567 120.425 106.739 120.592C106.822 120.683 106.908 120.779 106.999 120.864C107.237 121.085 107.476 121.282 107.718 121.445C107.972 121.613 108.22 121.802 108.469 122.005C108.552 122.078 108.634 122.158 108.719 122.235C108.875 122.369 109.026 122.497 109.172 122.643C109.178 122.653 109.192 122.663 109.202 122.673C109.452 122.919 109.696 123.181 109.945 123.459C109.948 123.465 109.952 123.471 109.958 123.477C110.177 123.729 110.398 124.001 110.614 124.28C110.62 124.282 110.622 124.286 110.624 124.29C110.679 124.361 110.737 124.446 110.796 124.519C110.941 124.722 111.099 124.923 111.247 125.137C111.259 125.151 111.271 125.171 111.28 125.185C111.406 125.364 111.529 125.555 111.651 125.74C111.743 125.878 111.83 126.002 111.921 126.142C111.931 126.156 111.936 126.174 111.942 126.188C112.185 126.56 112.417 126.944 112.648 127.34C112.652 127.346 112.654 127.35 112.658 127.354C112.671 127.378 112.685 127.405 112.697 127.429C112.945 127.857 113.186 128.294 113.428 128.747C113.458 128.798 113.483 128.846 113.519 128.901C113.54 128.958 113.572 129.019 113.595 129.074C113.946 129.728 114.281 130.4 114.614 131.092C114.628 131.113 114.642 131.133 114.654 131.159C114.675 131.212 114.703 131.271 114.728 131.324C115.034 131.969 115.341 132.625 115.643 133.295C115.649 133.31 115.658 133.326 115.666 133.342C115.989 134.055 116.307 134.78 116.62 135.509C116.628 135.531 116.64 135.551 116.649 135.572C116.655 135.59 116.669 135.612 116.675 135.629C117.134 136.691 117.587 137.765 118.041 138.835C118.466 139.838 118.89 140.831 119.311 141.81C119.365 141.942 119.424 142.07 119.481 142.198C119.757 142.845 120.044 143.489 120.326 144.117C120.352 144.179 120.381 144.234 120.405 144.293C120.667 144.874 120.931 145.438 121.193 145.993C121.248 146.111 121.305 146.232 121.362 146.344C121.662 146.97 121.969 147.573 122.275 148.159C122.344 148.285 122.411 148.413 122.476 148.541C122.657 148.878 122.842 149.205 123.021 149.526C123.081 149.628 123.138 149.733 123.199 149.833C123.352 150.105 123.512 150.361 123.674 150.614C123.731 150.71 123.792 150.811 123.847 150.903C123.912 151 123.977 151.09 124.036 151.183C124.18 151.406 124.326 151.62 124.474 151.831C124.525 151.904 124.582 151.975 124.633 152.05C124.783 152.255 124.935 152.46 125.082 152.655C125.149 152.736 125.216 152.814 125.281 152.891C125.413 153.051 125.551 153.21 125.679 153.36C125.807 153.506 125.943 153.642 126.075 153.778C126.176 153.88 126.276 153.983 126.377 154.081C126.542 154.235 126.704 154.369 126.869 154.507C126.95 154.578 127.035 154.655 127.126 154.722C127.37 154.913 127.626 155.086 127.888 155.234C128.099 155.358 128.314 155.464 128.528 155.555C128.617 155.593 128.7 155.62 128.788 155.652C128.903 155.693 129.013 155.736 129.131 155.77C129.277 155.809 129.421 155.843 129.563 155.87C129.61 155.876 129.652 155.89 129.695 155.896C129.896 155.929 130.095 155.949 130.302 155.955C130.357 155.955 130.408 155.957 130.467 155.959C130.773 155.973 131.086 156.002 131.397 156.052C131.433 156.057 131.474 156.071 131.513 156.077C131.638 156.099 131.764 156.128 131.89 156.154C132.073 156.193 132.254 156.223 132.441 156.274C132.516 156.292 132.583 156.327 132.664 156.347C132.904 156.42 133.149 156.511 133.395 156.599C133.519 156.647 133.653 156.678 133.779 156.729C133.831 156.751 133.878 156.785 133.929 156.806C134.422 157.019 134.908 157.253 135.385 157.529C135.813 157.774 136.224 158.046 136.632 158.325C136.758 158.41 136.873 158.505 136.995 158.593C137.277 158.798 137.564 159.007 137.836 159.23C137.982 159.348 138.126 159.47 138.266 159.592C138.512 159.797 138.752 160.004 138.989 160.219C139.135 160.353 139.284 160.493 139.432 160.629C139.566 160.765 139.712 160.893 139.852 161.029C139.903 161.082 139.948 161.137 140.003 161.19C140.535 161.724 141.048 162.274 141.542 162.833C141.578 162.873 141.609 162.906 141.645 162.94C141.712 163.024 141.773 163.109 141.848 163.192C142.238 163.647 142.608 164.1 142.963 164.559C143.018 164.624 143.079 164.695 143.134 164.762C143.16 164.794 143.18 164.831 143.205 164.863C143.621 165.403 144.013 165.935 144.383 166.457C144.423 166.512 144.464 166.567 144.5 166.618C144.553 166.693 144.596 166.756 144.647 166.829C145.038 167.399 145.404 167.948 145.737 168.463C145.753 168.482 145.767 168.504 145.774 168.52C145.863 168.654 145.928 168.768 146.011 168.894C146.123 169.073 146.238 169.255 146.338 169.424C146.427 169.564 146.5 169.688 146.58 169.82C146.677 169.984 146.775 170.141 146.862 170.291C146.876 170.321 146.896 170.352 146.913 170.38C147.018 170.559 147.112 170.722 147.195 170.878C147.223 170.923 147.24 170.957 147.266 170.998C147.351 171.162 147.439 171.304 147.506 171.436C147.528 171.469 147.542 171.501 147.56 171.532C147.625 171.654 147.68 171.767 147.733 171.851C147.733 171.851 147.733 171.851 147.737 171.853C147.8 171.976 147.845 172.064 147.865 172.102L143.227 174.797C143.209 174.766 143.17 174.683 143.117 174.586C143.067 174.498 143.004 174.377 142.929 174.245C142.904 174.2 142.878 174.151 142.851 174.102C142.791 173.989 142.721 173.861 142.642 173.723C142.612 173.672 142.585 173.623 142.555 173.566C142.458 173.396 142.35 173.205 142.232 173.006C142.139 172.852 142.033 172.679 141.938 172.51C141.856 172.379 141.781 172.253 141.698 172.112C141.595 171.956 141.493 171.784 141.391 171.619C141.29 171.467 141.199 171.316 141.095 171.156C140.762 170.63 140.38 170.064 139.974 169.481C139.905 169.385 139.836 169.288 139.769 169.192C139.391 168.656 138.989 168.104 138.563 167.546C138.49 167.454 138.417 167.363 138.346 167.272C137.984 166.813 137.604 166.348 137.208 165.887C137.107 165.767 137.009 165.649 136.906 165.531C136.416 164.973 135.901 164.421 135.367 163.887C135.18 163.7 134.993 163.517 134.798 163.334C134.65 163.19 134.504 163.048 134.351 162.914C134.124 162.709 133.89 162.506 133.657 162.309C133.501 162.179 133.354 162.045 133.194 161.923C132.94 161.714 132.674 161.521 132.412 161.328C132.276 161.226 132.138 161.119 131.994 161.021C131.594 160.741 131.179 160.471 130.755 160.229C130.28 159.955 129.787 159.716 129.295 159.506C129.122 159.427 128.94 159.364 128.761 159.299C128.521 159.208 128.276 159.121 128.028 159.048C127.77 158.972 127.514 158.909 127.256 158.855C127.13 158.828 127.003 158.796 126.877 158.775C126.475 158.708 126.077 158.66 125.671 158.652C125.644 158.652 125.614 158.652 125.585 158.65C125.419 158.641 125.254 158.625 125.088 158.599C125.08 158.599 125.073 158.597 125.063 158.593C125.015 158.587 124.974 158.574 124.927 158.564C124.807 158.542 124.684 158.522 124.564 158.489C124.543 158.483 124.523 158.473 124.503 158.467C124.391 158.436 124.276 158.39 124.168 158.353C124.089 158.325 124.018 158.308 123.946 158.278C123.928 158.27 123.91 158.26 123.898 158.252C123.683 158.16 123.467 158.057 123.254 157.935C122.994 157.785 122.74 157.608 122.484 157.415C122.417 157.358 122.336 157.289 122.263 157.226C122.089 157.082 121.914 156.938 121.745 156.777C121.717 156.751 121.689 156.729 121.664 156.704C121.595 156.641 121.532 156.558 121.463 156.495C121.319 156.345 121.175 156.199 121.029 156.038C121 156 120.962 155.967 120.931 155.929C120.846 155.835 120.769 155.726 120.683 155.632C120.606 155.533 120.525 155.441 120.446 155.342C120.415 155.305 120.391 155.275 120.362 155.238C120.263 155.108 120.161 154.964 120.06 154.83C119.983 154.722 119.9 154.615 119.822 154.501C119.814 154.487 119.802 154.475 119.79 154.46C119.7 154.326 119.605 154.18 119.514 154.04C119.406 153.892 119.311 153.75 119.217 153.597C119.211 153.589 119.207 153.581 119.201 153.575C119.16 153.512 119.12 153.443 119.083 153.38C118.909 153.104 118.736 152.82 118.563 152.529C118.547 152.505 118.537 152.487 118.523 152.464C118.48 152.393 118.44 152.314 118.405 152.247C118.214 151.916 118.025 151.575 117.838 151.226C117.806 151.163 117.769 151.106 117.739 151.045C117.706 150.988 117.676 150.925 117.646 150.87C117.337 150.275 117.03 149.666 116.724 149.033C116.707 149.002 116.691 148.974 116.679 148.943C116.644 148.866 116.606 148.783 116.569 148.704C116.297 148.141 116.033 147.567 115.769 146.978C115.739 146.925 115.721 146.872 115.696 146.819C115.41 146.188 115.128 145.542 114.845 144.89C114.815 144.831 114.791 144.772 114.764 144.712C114.736 144.645 114.711 144.58 114.679 144.513C114.25 143.52 113.826 142.514 113.398 141.503C112.969 140.486 112.537 139.471 112.104 138.461C112.045 138.331 111.988 138.193 111.925 138.059C111.635 137.387 111.343 136.725 111.052 136.069C111.024 136.018 111.005 135.966 110.979 135.913C110.699 135.296 110.421 134.695 110.136 134.1C110.082 133.988 110.027 133.87 109.97 133.756C109.649 133.086 109.32 132.437 108.987 131.803C108.922 131.675 108.855 131.547 108.79 131.421C108.538 130.956 108.286 130.503 108.029 130.063C108.029 130.059 108.027 130.057 108.025 130.053C107.793 129.648 107.553 129.255 107.308 128.873C107.241 128.769 107.178 128.668 107.109 128.57C106.95 128.333 106.8 128.099 106.642 127.874C106.524 127.707 106.41 127.549 106.288 127.388C106.191 127.252 106.085 127.108 105.992 126.978C105.98 126.97 105.974 126.964 105.968 126.956C105.758 126.68 105.543 126.418 105.322 126.168C105.074 125.882 104.822 125.616 104.566 125.362C104.428 125.226 104.288 125.108 104.146 124.984C104.041 124.889 103.943 124.789 103.839 124.706C103.592 124.503 103.344 124.318 103.092 124.144C102.869 123.993 102.648 123.823 102.432 123.624C102.408 123.605 102.388 123.579 102.367 123.557C102.288 123.484 102.213 123.398 102.13 123.315C102.006 123.191 101.886 123.077 101.764 122.935C101.715 122.88 101.665 122.816 101.616 122.759C101.583 122.72 101.553 122.679 101.519 122.637C101.47 122.58 101.425 122.525 101.378 122.47C101.252 122.304 101.125 122.133 100.999 121.952C100.956 121.894 100.919 121.833 100.877 121.78C100.844 121.727 100.816 121.678 100.781 121.626C100.723 121.542 100.664 121.459 100.609 121.37C100.461 121.134 100.312 120.89 100.166 120.635C100.156 120.62 100.138 120.598 100.132 120.584C100.115 120.553 100.099 120.523 100.085 120.492C99.9669 120.283 99.8428 120.066 99.7226 119.839C99.6615 119.719 99.5965 119.587 99.5334 119.461C99.4645 119.327 99.3935 119.191 99.3265 119.051C99.2753 118.943 99.2201 118.844 99.1649 118.73C99.0802 118.557 98.9975 118.362 98.9187 118.18C98.828 117.987 98.7433 117.8 98.6546 117.601C98.6192 117.52 98.5857 117.447 98.5463 117.365C98.499 117.246 98.4458 117.112 98.3946 116.99C98.1936 116.517 97.9966 116.031 97.8015 115.526C97.7582 115.412 97.7109 115.308 97.6676 115.195C97.6262 115.085 97.5828 114.971 97.5474 114.864C97.4469 114.612 97.3523 114.35 97.2557 114.09C97.1375 113.759 97.0213 113.43 96.9011 113.093C96.8124 112.849 96.7277 112.606 96.6469 112.358C96.576 112.153 96.5051 111.966 96.442 111.759C96.3928 111.617 96.3474 111.462 96.2962 111.318C96.1799 110.959 96.0637 110.599 95.9494 110.232C95.8509 109.909 95.7505 109.604 95.6559 109.292Z" fill="#83239B"/>
<path d="M83.6647 74.7494C83.1307 74.4401 82.5888 74.383 82.0273 74.6194C74.7214 77.6931 77.6414 105.145 71.6477 108.55C70.3493 109.293 68.9859 109.027 67.585 108.217C65.9418 107.267 64.2454 105.569 62.543 103.873C60.8387 102.166 59.1265 100.46 57.4557 99.4965C55.6509 98.4522 53.8894 98.2828 52.2422 99.9299C46.2505 105.908 42.5759 110.652 32.4544 106.53C22.3369 102.413 18.1264 102.422 17.9058 102.424L143.223 174.776C142.949 174.252 137.785 164.27 130.745 160.205C129.12 159.27 127.407 158.673 125.662 158.631C124.814 158.608 124.013 158.359 123.242 157.916C115.54 153.469 111.318 129.656 103.084 124.125C94.7378 118.512 90.0721 78.4457 83.6647 74.7494Z" fill="#922BAB"/>
<path d="M52.3861 122.289C52.2502 122.23 52.1122 122.171 51.9723 122.118C51.4739 121.913 50.9439 121.712 50.3705 121.519C49.6927 121.294 48.9795 121.061 48.2308 120.827C48.148 120.799 48.0593 120.772 47.9706 120.746C47.2751 120.524 46.5461 120.301 45.7974 120.07C45.7206 120.049 45.6457 120.023 45.5708 120.001C44.8044 119.769 44.0143 119.534 43.2183 119.296C43.0804 119.257 42.9424 119.215 42.7986 119.176C42.0637 118.957 41.3169 118.742 40.5741 118.528C40.448 118.49 40.3239 118.455 40.1998 118.417C39.4018 118.189 38.6038 117.962 37.8078 117.738C37.6522 117.692 37.4946 117.651 37.335 117.607C36.6335 117.408 35.938 117.215 35.2543 117.024C35.075 116.973 34.8957 116.924 34.7204 116.875C34.0485 116.687 33.3904 116.508 32.7422 116.331C32.4585 116.252 32.1846 116.177 31.9009 116.1C31.4556 115.98 31.0241 115.862 30.6044 115.748C26.8529 114.731 23.994 113.986 23.2591 113.795C23.2059 113.783 23.135 113.763 23.1133 113.758L27.7514 111.06C27.9583 111.115 29.0814 111.405 30.7778 111.854C30.8468 111.874 30.9138 111.892 30.9827 111.911C31.2586 111.982 31.5423 112.061 31.8457 112.142C32.0427 112.193 32.2536 112.25 32.4604 112.305C32.5491 112.329 32.6299 112.351 32.7205 112.372C33.3372 112.54 33.9795 112.711 34.6672 112.897C34.8012 112.934 34.9568 112.975 35.0928 113.015C35.6011 113.151 36.1271 113.295 36.667 113.44C36.8581 113.494 37.0414 113.545 37.2325 113.598C37.9556 113.791 38.6925 113.996 39.4491 114.207C39.5594 114.236 39.6658 114.268 39.7761 114.297C40.5505 114.512 41.3386 114.733 42.1307 114.953C42.2075 114.975 42.2765 114.997 42.3494 115.017C43.1986 115.253 44.0537 115.497 44.9068 115.744C44.9758 115.761 45.0369 115.779 45.1039 115.799C45.9156 116.033 46.7314 116.268 47.5274 116.504C47.616 116.53 47.7067 116.555 47.7914 116.579C48.6327 116.829 49.4582 117.074 50.2641 117.318C50.2936 117.326 50.3212 117.336 50.3567 117.345C51.1428 117.586 51.9073 117.82 52.6422 118.051C52.7092 118.076 52.7782 118.098 52.8491 118.118C53.6018 118.358 54.3269 118.593 55.0007 118.819C55.4125 118.955 55.7987 119.097 56.175 119.241C56.2814 119.282 56.3819 119.322 56.4844 119.365C56.5789 119.402 56.6853 119.44 56.774 119.477C56.8646 119.515 56.9375 119.554 57.0223 119.59C57.3612 119.737 57.6902 119.881 57.9956 120.029C58.1138 120.086 58.232 120.143 58.3463 120.2C58.7423 120.399 59.1186 120.596 59.4556 120.795C60.6042 121.457 61.4791 122.106 62.2199 122.677C62.9647 123.254 63.5676 123.747 64.1606 124.09C64.3222 124.182 64.4818 124.265 64.6493 124.334C64.7498 124.375 64.8502 124.411 64.9566 124.444C65 124.458 65.0473 124.478 65.0946 124.492C65.2286 124.527 65.3645 124.553 65.5143 124.571C65.5478 124.576 65.5871 124.578 65.6265 124.584C65.7507 124.594 65.8788 124.596 66.0049 124.592C66.0423 124.592 66.0758 124.594 66.1093 124.59C66.263 124.584 66.4285 124.563 66.5979 124.529C66.6787 124.515 66.7694 124.492 66.8482 124.472C66.9565 124.444 67.0668 124.419 67.189 124.383C67.384 124.324 67.5929 124.247 67.8057 124.163C67.8589 124.143 67.9042 124.127 67.9574 124.106C68.2136 123.997 68.4776 123.873 68.7653 123.729C69.0884 123.566 69.4076 123.418 69.7248 123.284C69.7484 123.274 69.7681 123.27 69.7898 123.258C70.1799 123.101 70.5642 122.965 70.9405 122.852C70.9444 122.85 70.9503 122.847 70.9582 122.847C71.2577 122.758 71.5572 122.693 71.8488 122.64C71.8843 122.632 71.9217 122.62 71.9591 122.612C72.2507 122.563 72.5384 122.527 72.8221 122.51C72.8556 122.506 72.8812 122.51 72.9167 122.506C72.9955 122.502 73.0684 122.506 73.1511 122.506C73.3009 122.502 73.4565 122.494 73.6043 122.5C73.6812 122.502 73.754 122.517 73.8309 122.521C73.9255 122.529 74.02 122.539 74.1107 122.551C74.1914 122.559 74.2723 122.561 74.3452 122.575C74.4929 122.596 74.6407 122.636 74.7885 122.665C74.8634 122.683 74.9343 122.695 75.0092 122.713C75.0368 122.72 75.0663 122.724 75.0978 122.732C75.3244 122.795 75.553 122.878 75.7795 122.965C75.8288 122.982 75.88 122.994 75.9293 123.016C75.9411 123.016 75.947 123.02 75.9569 123.024C76.2583 123.148 76.5618 123.296 76.8613 123.471C77.1706 123.652 77.4858 123.871 77.7991 124.106C77.8996 124.18 78.002 124.269 78.0986 124.354C78.3114 124.527 78.5242 124.712 78.735 124.915C78.7941 124.969 78.8473 125.01 78.9064 125.065C78.9774 125.134 79.0463 125.219 79.1153 125.292C79.2295 125.41 79.3458 125.532 79.462 125.658C79.5231 125.727 79.5862 125.788 79.6512 125.861C79.7497 125.973 79.8463 126.101 79.9448 126.222C80.0118 126.306 80.0846 126.387 80.1516 126.476C80.191 126.521 80.2246 126.563 80.2659 126.612C80.4571 126.86 80.6502 127.122 80.8432 127.394C80.8452 127.4 80.8531 127.408 80.855 127.412C80.8905 127.465 80.926 127.524 80.9654 127.579C81.119 127.798 81.2688 128.023 81.4186 128.261C81.4639 128.332 81.5112 128.411 81.5545 128.484C81.6333 128.604 81.7082 128.734 81.787 128.86C81.8639 128.99 81.9447 129.114 82.0254 129.25C82.1023 129.386 82.1791 129.534 82.2579 129.67C82.3485 129.833 82.4451 130.003 82.5377 130.176C82.5869 130.263 82.6342 130.342 82.6815 130.434C82.8529 130.753 83.0244 131.084 83.1958 131.425C83.4165 131.882 83.6509 132.312 83.8854 132.732C83.9347 132.812 83.978 132.897 84.0272 132.976C84.2578 133.38 84.4903 133.764 84.7346 134.13C84.7898 134.223 84.8548 134.312 84.9119 134.4C85.1267 134.72 85.3474 135.027 85.5661 135.323C85.6114 135.382 85.6527 135.447 85.7 135.506C85.9581 135.845 86.2261 136.164 86.4881 136.467C86.6458 136.649 86.8034 136.806 86.965 136.976C87.1029 137.125 87.2487 137.281 87.3886 137.421C87.8083 137.829 88.2318 138.193 88.6594 138.53C88.7599 138.611 88.8624 138.686 88.9668 138.767C89.4002 139.09 89.8397 139.389 90.279 139.643C90.7224 139.896 91.1657 140.108 91.6109 140.298C91.7449 140.355 91.875 140.406 92.0011 140.457C92.338 140.585 92.6729 140.699 93.0098 140.796C93.132 140.833 93.2522 140.875 93.3724 140.904C93.7231 140.995 94.0679 141.07 94.4166 141.125C94.4738 141.135 94.5309 141.151 94.5881 141.159C95.0038 141.22 95.4077 141.257 95.8116 141.279C95.9101 141.287 96.0087 141.281 96.1131 141.287C96.4362 141.293 96.7593 141.291 97.0765 141.275C97.1987 141.269 97.3169 141.261 97.4371 141.251C97.8194 141.222 98.2075 141.176 98.5839 141.115C98.6568 141.103 98.7336 141.097 98.8084 141.084C98.8143 141.082 98.8203 141.08 98.8203 141.08C98.8892 141.07 98.9582 141.062 99.0272 141.054C99.0981 141.052 99.171 141.052 99.2419 141.054C99.2458 141.054 99.2459 141.054 99.2459 141.054C99.2538 141.054 99.2617 141.054 99.2656 141.056C99.3405 141.06 99.4134 141.068 99.4843 141.076C99.5513 141.09 99.6104 141.103 99.6774 141.117C99.6931 141.121 99.7187 141.125 99.7345 141.131C99.7463 141.133 99.7621 141.135 99.7778 141.139C99.9059 141.172 100.032 141.218 100.168 141.273C100.168 141.273 100.174 141.279 100.18 141.281C100.343 141.348 100.513 141.432 100.684 141.531C100.944 141.683 101.218 141.874 101.486 142.087C101.522 142.116 101.557 142.14 101.594 142.169C101.853 142.378 102.117 142.615 102.377 142.869C102.406 142.89 102.426 142.908 102.45 142.932C102.473 142.953 102.493 142.981 102.513 143.003C102.783 143.269 103.052 143.558 103.32 143.868C103.34 143.887 103.362 143.903 103.376 143.923C103.403 143.954 103.423 143.988 103.452 144.017C103.718 144.327 103.986 144.654 104.256 144.999C104.268 145.016 104.28 145.028 104.29 145.044C104.312 145.074 104.341 145.109 104.359 145.137C104.664 145.535 104.966 145.944 105.271 146.372C105.279 146.384 105.285 146.396 105.295 146.409C105.312 146.431 105.33 146.457 105.342 146.476C105.706 146.997 106.063 147.536 106.418 148.088C106.434 148.114 106.447 148.139 106.467 148.165C106.487 148.187 106.497 148.214 106.508 148.238C106.975 148.969 107.429 149.716 107.868 150.468C107.878 150.48 107.884 150.492 107.89 150.504C107.903 150.525 107.913 150.545 107.925 150.565C108.211 151.055 108.489 151.548 108.759 152.031C108.796 152.094 108.831 152.155 108.861 152.214C109.131 152.689 109.383 153.16 109.625 153.621C109.643 153.646 109.655 153.672 109.669 153.698C109.685 153.731 109.7 153.761 109.716 153.794C109.901 154.135 110.079 154.476 110.248 154.805C110.266 154.84 110.278 154.87 110.293 154.903C110.449 155.207 110.601 155.496 110.745 155.786C110.782 155.853 110.814 155.918 110.849 155.987C110.997 156.281 111.137 156.566 111.273 156.842C111.306 156.901 111.33 156.956 111.361 157.018C111.485 157.266 111.598 157.504 111.706 157.731C111.718 157.749 111.726 157.77 111.736 157.786C111.743 157.796 111.745 157.804 111.751 157.814C111.897 158.121 112.033 158.405 112.153 158.667C112.171 158.696 112.183 158.722 112.193 158.751C112.315 159.002 112.419 159.226 112.506 159.421C112.516 159.437 112.524 159.453 112.53 159.467C112.711 159.863 112.833 160.129 112.872 160.215L108.234 162.913C108.221 162.885 108.189 162.812 108.163 162.751C108.132 162.688 108.094 162.605 108.051 162.511C108.018 162.44 107.984 162.361 107.947 162.274C107.911 162.203 107.876 162.125 107.834 162.042C107.764 161.888 107.679 161.713 107.592 161.524C107.559 161.449 107.525 161.37 107.486 161.291C107.373 161.067 107.261 160.818 107.129 160.552C107.1 160.487 107.068 160.418 107.034 160.351C106.932 160.146 106.832 159.938 106.727 159.721C106.696 159.658 106.664 159.597 106.631 159.534C106.499 159.258 106.359 158.97 106.205 158.675C106.177 158.612 106.14 158.545 106.108 158.481C105.967 158.198 105.821 157.912 105.661 157.617C105.647 157.573 105.626 157.534 105.606 157.492C105.439 157.169 105.261 156.84 105.084 156.503C105.048 156.436 105.013 156.369 104.977 156.3C104.735 155.847 104.481 155.382 104.221 154.915C104.185 154.848 104.156 154.781 104.115 154.718C103.85 154.235 103.573 153.749 103.289 153.264C103.267 153.227 103.244 153.191 103.226 153.158C102.79 152.405 102.333 151.66 101.87 150.929C101.835 150.88 101.807 150.831 101.77 150.78C101.419 150.228 101.061 149.688 100.7 149.17C100.674 149.134 100.649 149.099 100.627 149.063C100.328 148.636 100.022 148.228 99.7207 147.83C99.6833 147.783 99.6498 147.733 99.6104 147.688C99.3444 147.345 99.0764 147.018 98.8104 146.709C98.7671 146.658 98.7257 146.606 98.6824 146.555C98.4104 146.246 98.1405 145.96 97.8686 145.69C97.8272 145.647 97.78 145.602 97.7405 145.558C97.4765 145.304 97.2105 145.068 96.9524 144.859C96.9209 144.829 96.8834 144.806 96.846 144.776C96.5761 144.565 96.3062 144.372 96.0441 144.22C95.8747 144.12 95.7072 144.039 95.5437 143.97C95.39 143.909 95.2422 143.86 95.0984 143.82C95.0727 143.815 95.057 143.813 95.0334 143.807C94.8954 143.777 94.7615 143.753 94.6275 143.746C94.6216 143.746 94.6137 143.744 94.6098 143.744C94.46 143.738 94.3103 143.746 94.1664 143.773C94.1329 143.777 94.1073 143.783 94.0758 143.789C94.0305 143.797 93.9852 143.799 93.9379 143.805C93.5635 143.868 93.1813 143.911 92.7931 143.943C92.734 143.947 92.6729 143.96 92.6177 143.964C92.5547 143.966 92.4936 143.96 92.4345 143.964C92.1134 143.98 91.7962 143.984 91.4671 143.974C91.3922 143.972 91.3233 143.98 91.2464 143.976C91.2169 143.976 91.1952 143.97 91.1676 143.968C90.7676 143.948 90.3539 143.913 89.948 143.85C89.9382 143.85 89.9323 143.85 89.9224 143.848C89.8791 143.842 89.8278 143.826 89.7865 143.818C89.4357 143.761 89.0791 143.684 88.7245 143.594C88.6831 143.584 88.6397 143.578 88.5964 143.566C88.5255 143.547 88.4486 143.511 88.3717 143.491C88.0328 143.391 87.694 143.273 87.3571 143.145C87.2763 143.115 87.1994 143.095 87.1245 143.066C87.0753 143.044 87.026 143.011 86.9787 142.991C86.5315 142.798 86.0842 142.587 85.637 142.331C85.1936 142.077 84.7562 141.773 84.3208 141.45C84.2223 141.375 84.1218 141.3 84.0233 141.222C83.5898 140.883 83.1662 140.518 82.7485 140.11C82.7327 140.099 82.717 140.089 82.7071 140.073C82.5653 139.933 82.4274 139.775 82.2855 139.626C82.1456 139.474 81.9959 139.33 81.854 139.169C81.8382 139.151 81.8205 139.129 81.8028 139.109C81.5703 138.845 81.3417 138.564 81.1151 138.272C81.0974 138.246 81.0796 138.221 81.058 138.193C81.0107 138.134 80.9673 138.073 80.922 138.012C80.79 137.831 80.656 137.655 80.524 137.468C80.4373 137.344 80.3546 137.216 80.264 137.088C80.2127 137.005 80.1536 136.922 80.0984 136.84C80.063 136.775 80.0196 136.717 79.9743 136.65C79.797 136.371 79.6197 136.085 79.4482 135.787C79.4285 135.75 79.4049 135.713 79.3872 135.675C79.3418 135.594 79.2926 135.51 79.2492 135.429C79.1409 135.238 79.0325 135.051 78.9281 134.854C78.798 134.613 78.6759 134.369 78.5518 134.117C78.3331 133.677 78.1084 133.264 77.8917 132.858C77.803 132.694 77.7124 132.535 77.6257 132.377C77.4602 132.087 77.2987 131.806 77.1332 131.536C77.0622 131.417 76.9932 131.297 76.9243 131.185C76.7135 130.854 76.5046 130.535 76.2938 130.233C76.2682 130.192 76.2445 130.152 76.215 130.111C75.9845 129.782 75.7559 129.473 75.5195 129.175C75.4446 129.085 75.3717 128.998 75.2988 128.909C75.1432 128.712 74.9796 128.529 74.816 128.348C74.7018 128.22 74.5855 128.093 74.4673 127.973C74.3471 127.849 74.2249 127.731 74.1028 127.615C73.8861 127.408 73.6615 127.219 73.4467 127.037C73.3521 126.961 73.2517 126.876 73.1591 126.801C72.8497 126.565 72.5364 126.348 72.2192 126.165C71.9079 125.985 71.6005 125.837 71.2873 125.709C71.238 125.688 71.1828 125.676 71.1355 125.656C70.8794 125.558 70.6253 125.471 70.3652 125.404C70.2962 125.386 70.2194 125.376 70.1524 125.363C69.9219 125.311 69.6953 125.272 69.4647 125.244C69.3702 125.233 69.2854 125.223 69.1987 125.217C68.9643 125.199 68.7278 125.193 68.4953 125.199C68.4205 125.201 68.3515 125.197 68.2727 125.201C67.6264 125.235 66.9644 125.351 66.2905 125.548C65.9103 125.658 65.5201 125.798 65.134 125.96C64.797 126.098 64.4582 126.249 64.1193 126.425C63.8375 126.566 63.5696 126.693 63.3213 126.797C63.3154 126.801 63.2997 126.807 63.2898 126.809C63.2366 126.832 63.1873 126.844 63.1341 126.866C62.9312 126.947 62.7322 127.022 62.5509 127.079C62.5214 127.085 62.4957 127.098 62.4701 127.106C62.3657 127.136 62.2672 127.152 62.1706 127.175C62.1017 127.193 62.0308 127.211 61.9658 127.225C61.948 127.227 61.9303 127.234 61.9106 127.236C61.7687 127.26 61.621 127.278 61.4889 127.288C61.4752 127.29 61.4633 127.288 61.4515 127.288C61.4278 127.29 61.4042 127.288 61.3825 127.29C61.2978 127.294 61.2072 127.295 61.1244 127.294C61.0772 127.29 61.0239 127.282 60.9766 127.278C60.9412 127.276 60.9037 127.27 60.8643 127.266C60.8367 127.26 60.8151 127.26 60.7895 127.258C60.6772 127.24 60.5649 127.217 60.4506 127.189C60.4447 127.185 60.4427 127.185 60.4348 127.183C60.4112 127.175 60.3895 127.165 60.3619 127.158C60.2555 127.124 60.1452 127.089 60.0407 127.045C60.0269 127.039 60.0152 127.031 60.0033 127.028C59.8378 126.959 59.6742 126.878 59.5127 126.783C58.9177 126.438 58.3167 125.944 57.57 125.37C56.8311 124.799 55.9543 124.147 54.8096 123.489C54.4667 123.288 54.0904 123.091 53.6905 122.89C53.5841 122.837 53.4678 122.785 53.3555 122.73C53.056 122.584 52.7309 122.437 52.3861 122.289Z" fill="#09B4C6"/>
<path d="M72.227 126.168C69.7228 124.725 67.0688 124.936 64.1311 126.428C61.9047 127.559 60.7323 127.486 59.5265 126.788C58.9315 126.444 58.3305 125.949 57.5837 125.376C56.8449 124.804 55.9681 124.152 54.8234 123.494C53.657 122.82 52.2206 122.138 50.3725 121.52C41.179 118.456 24.0176 113.997 23.1152 113.763L108.24 162.908C107.888 162.124 101.187 147.189 96.0559 144.226C95.3919 143.843 94.7594 143.672 94.1802 143.778C91.5065 144.263 88.5136 143.991 85.6488 142.338C83.0854 140.856 80.6186 138.267 78.5635 134.122C76.5164 130.006 74.4298 127.443 72.227 126.168Z" fill="#0BE1F7"/>
<g opacity="0.1">
<path d="M24.8869 140.908C14.6708 146.807 14.6117 156.371 24.7667 162.27C34.9236 168.179 51.4367 168.175 61.6547 162.27C71.8786 156.371 71.9338 146.809 61.7749 140.908C51.618 135.003 35.1068 135.003 24.8869 140.908Z" fill="black"/>
</g>
<path d="M60.3642 63.1953C60.3642 63.1953 59.3672 65.6483 62.4271 67.2935C62.4271 67.2935 63.2251 64.4878 60.3642 63.1953Z" fill="#3D93FF"/>
<path d="M60.0846 64.3085C60.0846 64.3085 60.4018 63.3273 61.8874 62.0604C63.371 60.7954 64.0764 60.8802 65.2862 60.5826C66.4841 60.2812 67.2387 60.2418 67.5757 60.7225C68.0249 61.357 67.5008 62.6652 65.1148 63.4829C62.6519 64.3203 62.5277 66.7576 62.0706 67.061C61.6135 67.3743 59.791 64.8799 60.0846 64.3085Z" fill="#FFAA83"/>
<path d="M62.3603 64.4578C62.5061 64.1662 63.5543 64.7218 65.9856 63.715C67.8692 62.9348 65.8556 64.8578 65.4162 65.0607C64.9749 65.2656 61.98 67.0625 61.98 67.0625C61.98 67.0625 61.8618 65.4745 62.3603 64.4578Z" fill="#FFAA83"/>
<path d="M34.1241 57.83C33.7537 55.9957 36.0964 52.786 38.843 54.3662C41.3197 55.7907 46.7045 67.6796 48.9172 68.712C49.6127 69.0391 60.3646 63.1951 60.3646 63.1951C60.3646 63.1951 59.4819 65.3152 62.4276 67.2934C62.4276 67.2934 50.3792 76.0514 47.3212 74.3313C42.0763 71.3818 35.1901 63.0789 34.1241 57.83Z" fill="#3D93FF"/>
<path d="M35.9207 91.8023C35.9207 91.8023 38.6574 96.1252 41.408 95.5912C44.1625 95.0612 44.5329 94.4662 43.3645 93.7214C42.1981 92.9766 39.1224 90.8723 39.7116 90.6793C40.2987 90.4803 41.5893 90.7699 41.4533 90.2064C41.3174 89.6449 37.4201 88.8942 37.4201 88.8942L34.7148 90.2123L35.9207 91.8023Z" fill="#FFAA83"/>
<path d="M34.0298 146.321C34.1894 146.354 42.6046 146.076 40.7229 149.134C39.5072 151.11 37.8266 151.459 36.5695 151.495C35.3125 151.532 33.0131 150.819 32.4417 151.171C31.8723 151.53 29.0233 153.445 27.3919 151.522C27.0589 151.13 26.8441 150.001 27.0589 149.282C27.2756 148.561 33.1057 146.145 34.0298 146.321Z" fill="#5BB0FF"/>
<path d="M40.7221 149.134C39.5064 151.11 37.8258 151.459 36.5687 151.495C35.3117 151.532 33.0123 150.819 32.4409 151.171C31.8715 151.53 29.0225 153.445 27.3911 151.522C27.2098 151.309 27.0659 150.882 27.0107 150.421C28.1456 152.052 30.9356 151.605 31.7218 151.063C32.5966 150.458 33.8753 150.151 34.9728 150.369C36.0722 150.59 38.4622 150.324 39.6542 149.199C40.3793 148.515 40.3458 147.733 40.2039 147.223C40.9408 147.637 41.2659 148.24 40.7221 149.134Z" fill="#3D93FF"/>
<path d="M29.8304 83.1312C29.8304 83.1312 22.7137 89.5209 27.9823 104.55C29.133 107.827 31.4126 114.796 30.654 118.22C29.7437 122.334 28.4119 121.17 27.4503 134.783C26.5972 146.802 26.7509 144.197 26.4652 149.067C26.3844 150.46 31.6451 151.913 32.4372 149.759C35.9108 140.337 40.7302 120.601 39.747 109.715C38.7678 98.8306 38.1432 88.652 38.1432 88.652C38.1432 88.652 33.2528 86.2325 29.8304 83.1312Z" fill="#0E007A"/>
<path d="M50.2646 153.648C50.432 153.648 59.0423 151.787 57.6335 155.284C56.7252 157.546 55.0564 158.224 53.7658 158.495C52.4792 158.769 49.9907 158.466 49.4607 158.941C48.9366 159.414 46.3358 161.92 44.332 160.245C43.9222 159.904 43.5006 158.785 43.605 158.003C43.7015 157.225 49.2774 153.645 50.2646 153.648Z" fill="#5BB0FF"/>
<path d="M57.6333 155.284C56.725 157.546 55.0561 158.224 53.7656 158.495C52.479 158.769 49.9905 158.466 49.4605 158.941C48.9364 159.414 46.3356 161.92 44.3318 160.245C44.1091 160.06 43.8865 159.65 43.7446 159.185C45.1948 160.651 47.9985 159.668 48.7019 158.966C49.4999 158.178 50.7629 157.621 51.9312 157.64C53.1055 157.664 55.5152 156.941 56.5516 155.558C57.1821 154.724 57.0028 153.922 56.7743 153.422C57.5998 153.706 58.0432 154.265 57.6333 155.284Z" fill="#3D93FF"/>
<path d="M32.3995 90.693C32.3995 90.693 26.4886 96.7911 37.0652 112.236C37.0652 112.236 42.1959 123.229 42.0185 126.74C41.8038 130.954 40.0542 131.34 41.7683 145.101C43.2579 157.047 42.6353 157.305 43.5869 158.302C44.5938 159.362 49.6101 158.334 49.7835 156.21C50.7253 144.518 52.607 127.333 51.5194 116.461C50.2682 103.969 49.352 93.7095 49.352 93.7095C49.352 93.7095 36.283 93.1303 32.3995 90.693Z" fill="#160F96"/>
<path d="M55.1505 68.4409C55.1505 68.4409 57.4064 63.2885 49.1095 58.1657C40.8145 53.0429 35.274 52.0026 34.1234 57.0131C32.9707 62.0236 33.4022 69.8969 32.8131 72.1647C31.3787 77.6638 30.8723 79.2815 28.9809 81.9512C25.8047 86.4337 25.125 92.1357 39.1417 95.9621C41.5967 96.6339 49.9646 99.0023 50.0454 92.9317C50.3035 74.1587 52.8846 74.2158 55.1505 68.4409Z" fill="url(#paint0_linear_729_283)"/>
<path d="M74.7103 64.6492C74.7103 64.6492 74.397 67.2795 77.7781 68.0617C77.7781 68.0617 77.8135 65.1437 74.7103 64.6492Z" fill="#3D93FF"/>
<path d="M77.2045 67.8043C77.2045 67.8043 78.2034 67.5482 79.555 66.1433C80.9106 64.7385 80.8673 64.0292 81.2377 62.845C81.614 61.6648 81.6987 60.9141 81.2397 60.5457C80.6328 60.059 79.2989 60.5043 78.3334 62.8372C77.3463 65.2409 74.909 65.2133 74.578 65.6567C74.2352 66.0921 76.6153 68.0644 77.2045 67.8043Z" fill="#FFAA83"/>
<path d="M77.1893 65.5225C77.4947 65.3944 77.0021 64.3147 78.1567 61.9543C79.0532 60.1199 77.0081 62.0134 76.7776 62.439C76.549 62.8646 74.5728 65.7451 74.5728 65.7451C74.5728 65.7451 76.149 65.9599 77.1893 65.5225Z" fill="#FFAA83"/>
<path d="M47.9889 66.37C47.1436 64.6953 48.5623 60.9871 51.6301 61.7891C54.3924 62.5122 62.713 72.5646 65.1227 72.9843C65.8773 73.1144 74.7122 64.6519 74.7122 64.6519C74.7122 64.6519 74.4166 66.9276 77.7799 68.0645C77.7799 68.0645 68.4604 79.6814 65.0577 78.8243C59.2177 77.3545 50.3927 71.1539 47.9889 66.37Z" fill="#5BB0FF"/>
<path d="M49.5637 51.945C49.5637 51.945 47.5185 55.4048 48.7952 58.2539C49.4868 59.7927 38.3842 59.2312 40.5239 55.7221C42.4075 52.6346 41.9859 49.8427 40.1338 46.8715L49.5637 51.945Z" fill="#FFAA83"/>
<path d="M48.5633 54.5615C48.5633 54.5615 46.3073 53.5093 45.1172 52.4158L44.9398 52.4651L43.9921 52.4966L41.9805 51.476C41.9805 51.476 43.271 56.6756 48.4963 57.31C48.4963 57.31 48.2776 56.1278 48.5633 54.5615Z" fill="#EF916C"/>
<path d="M52.9189 36.6336C52.9189 36.6336 54.7099 39.3743 55.1316 44.2508C55.5512 49.1411 55.5532 52.867 52.7199 54.3447C51.3939 55.0343 42.9847 55.2037 41.3611 45.1315C40.3208 38.7182 46.0071 31.7768 52.9189 36.6336Z" fill="#FFAA83"/>
<path d="M54.4732 37.6502C56.8021 39.2265 58.5971 40.1368 53.9077 41.7189C50.1779 42.976 50.7021 48.1677 49.3248 48.8317C48.5505 49.2041 48.9052 47.8584 47.792 46.8043C47.2679 46.3078 45.9103 45.9708 45.6206 48.0416C45.3547 49.9509 46.9033 52.8314 45.8867 53.3023C44.3518 54.0097 41.0535 51.9428 39.692 49.7775C37.7434 46.6585 36.3287 38.2433 42.8721 34.878C48.4875 31.9876 52.6034 36.3853 54.4732 37.6502Z" fill="#994E17"/>
<defs>
<linearGradient id="paint0_linear_729_283" x1="45.975" y1="51.8117" x2="37.9309" y2="94.4533" gradientUnits="userSpaceOnUse">
<stop stop-color="#5AB0FF"/>
<stop offset="1" stop-color="#3C84F7"/>
</linearGradient>
</defs>
</svg>
