<svg width="326" height="367" viewBox="0 0 326 367" fill="none" xmlns="http://www.w3.org/2000/svg">
<g clip-path="url(#clip0_735_407)">
<path d="M176.013 359.759C173.455 360.719 86.0508 369.611 75.6942 359.759C65.5836 350.128 134.685 307.246 144.82 308.009C147.305 308.182 149.273 310.645 152.988 316.039C164.476 332.591 176.013 359.759 176.013 359.759Z" fill="url(#paint0_linear_735_407)"/>
<path d="M144.82 308.034C140.319 308.625 156.112 353.921 176.013 359.783C176.013 359.783 156.702 306.507 144.82 308.034Z" fill="url(#paint1_linear_735_407)"/>
<path style="mix-blend-mode:multiply" opacity="0.3" d="M176.013 359.758C173.455 360.719 86.5184 369.069 75.6943 359.758C75.6943 359.758 101.328 364.044 124.722 355.941C148.142 347.812 148.56 327.393 148.56 327.393L149.987 310.152C161.475 326.704 176.013 359.783 176.013 359.783V359.758Z" fill="url(#paint2_linear_735_407)"/>
<path d="M83.8123 284.437C83.8123 284.437 79.5565 264.166 98.0066 242.565C121.918 214.56 171.807 193.82 180.146 197.687C188.486 201.555 161.204 245.521 161.204 245.521C161.204 245.521 126.666 254.24 108.462 275.472C90.2575 296.679 83.8123 284.437 83.8123 284.437Z" fill="url(#paint3_linear_735_407)"/>
<path d="M260.736 311.384C258.374 331.039 249.297 346.507 233.922 354.931C223.614 360.547 210.453 363.035 194.611 361.434C171.118 359.069 156.801 341.458 150.478 317.467C150.478 317.443 150.454 317.418 150.454 317.394C147.625 306.679 146.419 294.659 146.665 282.171C147.551 241.678 168.953 209.781 183.689 199.855C208.092 183.426 242.581 192.909 246.443 221.777C249.543 245.003 264.721 278.526 260.736 311.408V311.384Z" fill="url(#paint4_linear_735_407)"/>
<path d="M238.99 206.16C234.881 204.51 232.495 242.663 249.346 264.93C249.346 264.93 257.021 260.028 253.725 241.309C250.429 222.589 244.525 208.402 238.99 206.16Z" fill="url(#paint5_linear_735_407)"/>
<path d="M236.013 220.102C236.013 220.102 251.289 241.801 246.345 260.472C246.345 260.472 236.652 245.89 236.013 220.102Z" fill="#6340A2"/>
<path d="M233.922 354.931C223.614 360.547 210.453 363.034 194.611 361.433C171.118 359.069 156.8 341.458 150.478 317.467C150.478 317.443 150.454 317.418 150.454 317.393C143.885 290.915 155.792 255.619 191.56 255.619C227.329 255.619 244.869 292.393 246.64 318.182C247.329 328.477 246.148 348.896 233.946 354.931H233.922Z" fill="#121495"/>
<path d="M305.828 347.024C306.271 357 300.859 364.241 291.092 366.261C286.074 367.296 275.029 367.246 264.278 366.113C263.86 366.089 263.639 366.064 263.639 366.064C250.65 364.66 238.252 361.729 237.612 357.295C237.169 354.315 236.997 351.212 237.071 348.084C237.366 322.172 252.372 293.009 261.941 295.004C267.845 296.235 276.431 301.95 284.426 309.684C291.019 315.989 297.193 323.674 301.178 331.261C304.155 336.926 305.656 342.295 305.803 347.049L305.828 347.024Z" fill="url(#paint6_linear_735_407)"/>
<path style="mix-blend-mode:multiply" opacity="0.5" d="M284.475 309.659C284.475 309.659 266.197 304.462 251.781 316.359C241.572 324.783 238.67 342.492 237.095 348.059C237.39 322.147 252.396 292.984 261.966 294.979C267.87 296.211 276.455 301.925 284.45 309.659H284.475Z" fill="url(#paint7_linear_735_407)"/>
<path d="M301.154 270.225C299.481 279.388 279.874 292.837 246.738 290.447C246.738 290.447 230.92 277.689 232.47 263.698C232.47 263.698 233.897 263.132 235.865 262.146C239.752 260.201 252.101 255.472 253.331 251.284C255.668 243.353 247.279 232.343 242.236 220.791C237.562 210.126 241.129 200.791 243.589 200.274C246.049 199.756 262.039 205.323 277.882 220.077C279.505 221.579 281.031 223.107 282.433 224.609H282.457C300.022 243.328 302.703 261.728 301.154 270.201V270.225Z" fill="url(#paint8_linear_735_407)"/>
<path d="M235.373 263.476C235.373 263.476 221.154 253.353 211.044 249.018C211.044 249.018 201.13 250.939 199.334 256.235C197.563 261.555 219.235 271.9 219.235 271.9L235.373 263.452V263.476Z" fill="url(#paint9_linear_735_407)"/>
<path d="M93.062 265.422C93.062 265.422 101.623 248.944 108.437 246.801C115.251 244.659 119.482 245.521 120.614 246.801C121.77 248.082 121.869 254.486 119.187 259.511C116.506 264.536 105.583 270.201 105.583 270.201L93.062 265.398V265.422Z" fill="url(#paint10_linear_735_407)"/>
<path d="M107.231 247.343C107.231 247.343 108.486 252.516 112.816 254.93C117.145 257.343 120.343 256.383 120.343 256.383C120.343 256.383 124.23 248.131 119.974 245.521C116.284 243.255 108.166 245.767 107.256 247.343H107.231Z" fill="url(#paint11_linear_735_407)"/>
<path d="M223.811 324.98C212.323 329.487 193.184 309.635 181.105 302.467C168.928 295.275 147.822 293.034 138.178 297.196C128.535 301.359 113.997 318.871 100.836 316.605C98.4493 316.187 97.6129 310.103 98.1295 301.704C99.1627 284.29 105.952 257.122 116.555 250.398C132.299 240.447 195.841 243.008 210.921 257.146C218.99 264.708 224.402 282.664 226.443 298.231C228.239 311.802 227.501 323.527 223.787 325.004L223.811 324.98Z" fill="#5A39EB"/>
<path style="mix-blend-mode:multiply" opacity="0.5" d="M223.811 324.98C212.323 329.487 193.184 309.635 181.106 302.467C168.928 295.275 147.822 293.034 138.178 297.196C128.535 301.359 113.997 318.871 100.836 316.605C98.4493 316.187 97.6129 310.103 98.1295 301.704L101.672 295.571L125.657 280.94C125.657 280.94 125.854 289.61 128.117 290.768C130.356 291.901 138.695 290.103 154.341 289.955C169.986 289.782 182.188 297.812 189.568 293.157C196.973 288.501 202.286 277.196 202.286 277.196L209.174 276.432L226.468 298.206C228.264 311.778 227.526 323.502 223.811 324.98Z" fill="url(#paint12_linear_735_407)"/>
<path d="M91.6598 260.471C91.6598 260.471 106.789 259.486 124.501 272.491C124.501 272.491 129.445 290.644 119.236 301.95C119.236 301.95 111.61 306.309 100.663 307.984C89.7164 309.659 91.6598 260.471 91.6598 260.471Z" fill="url(#paint13_linear_735_407)"/>
<path d="M232.495 263.723C232.495 263.723 246.099 263.723 253.577 275.299C259.85 285.028 250.183 290.669 250.183 290.669C250.183 290.669 233.578 289.536 232.495 263.747V263.723Z" fill="url(#paint14_linear_735_407)"/>
<path d="M91.6596 260.471C84.6732 260.028 79.3596 293.378 86.346 303.502C93.3324 313.625 110.626 305.423 113.775 301.802C116.924 298.181 121.77 282.27 119.95 275.767C118.129 269.265 108.781 261.555 91.6596 260.447V260.471Z" fill="url(#paint15_linear_735_407)"/>
<path d="M60.319 351.926C40.6882 351.926 10.6269 350.448 2.3613 341.754C0.590096 339.906 -0.197106 337.788 0.0488949 335.448C1.0575 325.399 16.6539 319.931 33.1852 314.118C49.4704 308.403 66.3215 302.492 68.7323 292.369C70.2821 285.866 67.9451 277.886 65.6819 270.176C62.7298 260.127 59.6794 249.757 64.6733 241.506C68.4371 235.324 76.3091 231.136 88.7321 228.722C136.087 219.535 158.621 244.412 158.842 244.683L156.923 246.358C156.702 246.112 135.054 222.318 89.2241 231.235C77.5391 233.501 70.2083 237.294 66.8381 242.861C62.41 250.127 65.1898 259.536 68.1173 269.487C70.4789 277.516 72.9143 285.817 71.1923 292.984C68.4617 304.462 50.9464 310.595 34.0216 316.556C18.9663 321.827 3.4191 327.295 2.5581 335.744C2.4105 337.32 2.9271 338.724 4.1817 340.029C15.6945 352.123 77.1455 349.044 77.7605 349.02L77.8835 351.557C77.0471 351.606 69.9131 351.951 60.2944 351.951L60.319 351.926Z" fill="#5A39EB"/>
<path style="mix-blend-mode:multiply" opacity="0.5" d="M150.454 205.52C150.454 205.52 165.066 229.215 193.455 228.131C221.843 227.047 237.021 202.244 237.021 202.244L154.365 203.796L150.429 205.52H150.454Z" fill="url(#paint16_linear_735_407)"/>
<path d="M265.754 25.9117C265.754 25.9117 281.129 12.611 299.973 10.3203C299.973 10.3203 305.729 13.1529 312.396 33.9167C319.063 54.6805 306.763 95.7402 306.763 95.7402L265.754 25.9363V25.9117Z" fill="url(#paint17_linear_735_407)"/>
<path d="M299.973 10.3205C299.973 10.3205 284.746 26.6754 284.746 53.0304L290.625 56.7497L307.796 21.1827C307.796 21.1827 302.089 10.0249 299.973 10.3205Z" fill="url(#paint18_linear_735_407)"/>
<path d="M290.059 54.9516C290.059 54.9516 286 32.4389 300.809 15.9116C300.809 15.9116 317.513 23.7935 324.45 53.0303C331.363 82.2672 313.355 99.829 313.355 99.829L290.059 54.9516Z" fill="#121495"/>
<path d="M281.449 16.8721C278.596 18.3992 278.842 21.4781 284.721 20.7145C290.601 19.951 293.799 15.3204 293.159 14.4336C292.519 13.5469 284.623 15.1479 281.449 16.8721Z" fill="white"/>
<path d="M136.653 29.2368C136.653 29.2368 121.278 15.9362 102.434 13.6455C102.434 13.6455 96.678 16.4781 90.0114 37.2419C83.3448 58.0057 95.6448 99.0654 95.6448 99.0654L136.653 29.2368Z" fill="url(#paint19_linear_735_407)"/>
<path d="M102.435 13.6454C102.435 13.6454 117.662 30.0003 117.662 56.3553L111.783 60.0746L94.6118 24.5076C94.6118 24.5076 100.319 13.3498 102.435 13.6454Z" fill="url(#paint20_linear_735_407)"/>
<path d="M112.348 58.2767C112.348 58.2767 116.407 35.7641 101.598 19.2368C101.598 19.2368 84.8944 27.1187 77.9572 56.3555C71.0446 85.5924 90.9706 105.051 90.9706 105.051L112.323 58.3014L112.348 58.2767Z" fill="#121495"/>
<path d="M120.934 20.1973C123.787 21.7244 123.541 24.8033 117.662 24.0397C111.783 23.2762 108.585 18.6455 109.224 17.7588C109.864 16.8721 117.76 18.4731 120.934 20.1973Z" fill="white"/>
<path d="M93.431 171.603C116.998 226.037 293.405 209.067 314.487 164.337C337.537 115.42 284.524 -5.44349 199.998 0.196982C128.585 4.97537 63.1483 101.627 93.431 171.603Z" fill="url(#paint21_linear_735_407)"/>
<path d="M103.172 158.253C125.706 202.909 279.702 195.52 302.187 154.485C321.276 119.632 276.185 13.4978 198.817 17.2663C121.45 21.0595 81.5242 115.396 103.172 158.253Z" fill="#121495"/>
<path d="M224.894 10.2958C223.295 12.217 241.991 20.3452 244.5 19.2122C247.009 18.0792 230.281 3.86717 224.894 10.2958Z" fill="white"/>
<path style="mix-blend-mode:screen" opacity="0.5" d="M150.232 172.958C148.191 180.667 164.304 188.377 203.885 186.431C251.757 184.091 261.917 174.042 259.58 171.258C258.177 169.584 243.836 178.623 204.5 170.002C178.522 164.313 152.373 164.854 150.232 172.958Z" fill="url(#paint22_linear_735_407)"/>
<path style="mix-blend-mode:screen" opacity="0.2" d="M107.453 148.992C107.453 148.992 105.78 137.81 107.748 122.809C109.716 107.809 113.726 98.1293 116.137 99.484C118.523 100.839 118.154 115.543 119.581 130.002C120.688 141.258 122.852 151.849 122.852 151.849C122.852 151.849 112.496 161.751 107.453 148.992Z" fill="url(#paint23_linear_735_407)"/>
<path style="mix-blend-mode:multiply" opacity="0.5" d="M110.774 189.953C110.774 189.953 113.16 187.367 125.927 179.855C134.488 174.805 143.492 168.845 144.771 166.653C146.665 161.505 108.092 164.534 108.092 164.534L93.4307 171.579C93.4307 171.579 99.2609 183.106 110.774 189.929V189.953Z" fill="url(#paint24_linear_735_407)"/>
<path d="M81.2783 76.0847C81.2783 76.0847 91.2414 82.4887 84.6978 97.3412C84.6978 97.3412 38.2036 122.686 40.9096 150.322C43.1482 173.377 107.379 162.219 107.379 162.219L109.691 169.904C109.691 169.904 55.1285 180.594 36.3094 167.736C36.3094 167.736 29.9134 152.514 45.7805 125.076C61.6721 97.6367 81.2783 76.0847 81.2783 76.0847Z" fill="url(#paint25_linear_735_407)"/>
<path d="M99.261 160.076C93.4062 166.702 105.829 173.968 116.038 175.076C127.502 176.333 147.846 171.776 146.616 160.224C145.386 148.672 112.988 144.534 99.261 160.076Z" fill="#5A39EB"/>
<path d="M100.048 161.307C99.7037 163.204 140.614 163.647 141.573 156.406C142.532 149.164 102.754 146.677 100.048 161.307Z" fill="#7360FC"/>
<path style="mix-blend-mode:screen" opacity="0.72" d="M314.364 29.0892C314.364 29.0892 308.952 22.3649 301.547 24.163C294.167 25.961 293.675 49.2618 298.079 49.8284C302.507 50.3949 304.376 36.9464 307.746 34.8282C311.141 32.7099 317.045 33.5227 317.045 33.5227L314.339 29.0892H314.364Z" fill="url(#paint26_linear_735_407)"/>
<path style="mix-blend-mode:screen" opacity="0.72" d="M84.1812 39.0401C84.1812 39.0401 87.0348 35.8134 93.4308 36.8479C99.8268 37.9071 103.517 51.0599 106.813 49.7299C110.085 48.3998 107.699 27.0941 99.015 20.8132C99.015 20.8132 87.8466 30.3454 84.1812 39.0154V39.0401Z" fill="url(#paint27_linear_735_407)"/>
<path d="M72.3731 91.0356C72.3731 91.0356 50.1346 116.873 51.5614 118.671C52.9636 120.47 73.7753 93.6465 72.3731 91.0356Z" fill="url(#paint28_linear_735_407)"/>
<path d="M231.609 116.282C235.644 124.829 270.773 125.938 276.431 112.44C281.523 100.321 265.754 68.2274 244.746 71.1339C228.854 73.3507 224.795 101.849 231.585 116.282H231.609Z" fill="#1FA5E5"/>
<path d="M171.684 116.282C167.649 124.829 132.52 125.938 126.862 112.44C121.77 100.322 136.678 69.4838 158.547 71.134C174.537 72.341 178.498 101.849 171.708 116.282H171.684Z" fill="#1FA5E5"/>
<path style="mix-blend-mode:multiply" opacity="0.3" d="M301.154 270.225C299.481 279.388 279.875 292.836 246.738 290.447C246.738 290.447 230.92 277.688 232.47 263.698C232.47 263.698 230.871 264.782 232.839 263.797L239.407 264.93C239.407 264.93 260.145 270.299 282.531 266.457C304.917 262.59 289.198 234.018 282.433 224.658C299.997 243.353 302.679 261.752 301.129 270.225H301.154Z" fill="url(#paint29_linear_735_407)"/>
<path d="M249.494 294.117C249.494 294.117 249.297 294.191 249.198 294.241C249.002 294.314 248.706 294.413 248.337 294.561C248.288 294.61 248.239 294.635 248.19 294.635C246.615 295.25 243.762 296.383 240.342 297.861C238.694 298.551 236.923 299.364 235.078 300.201C227.6 303.625 218.473 309.462 217.932 309.832C217.907 309.832 217.907 309.857 217.907 309.857C217.907 309.857 200.417 301.827 199.457 291.211C198.793 283.846 203.27 273.033 208.731 266.555C211.142 263.674 213.774 261.654 216.21 261.112C224.156 259.413 232.839 263.255 232.839 263.255C232.839 263.255 244.401 262.959 249.543 274.191C254.684 285.447 249.543 294.117 249.543 294.117H249.494Z" fill="url(#paint30_linear_735_407)"/>
<path d="M249.494 294.117C249.494 294.117 249.297 294.191 249.199 294.24C248.953 294.339 248.633 294.438 248.338 294.561C248.288 294.61 248.239 294.635 248.19 294.635C246.616 295.374 244.475 296.482 242.138 297.812C233.627 302.541 222.139 309.856 222.139 309.856H217.883C217.883 309.856 217.883 309.832 217.907 309.832C221.647 303.231 227.083 299.364 232.372 297.122C241.105 293.403 249.494 294.093 249.494 294.093V294.117Z" fill="url(#paint31_linear_735_407)"/>
<g style="mix-blend-mode:screen" opacity="0.72">
<path d="M169.248 345.079C169.248 345.079 178.399 357.517 197.169 358.847C215.939 360.177 224.451 354.906 224.451 354.906C224.451 354.906 221.4 349.069 213.381 347.739C205.361 346.409 196.21 353.256 187.378 352.074C178.547 350.891 169.248 345.079 169.248 345.079Z" fill="#7360FC"/>
</g>
<path style="mix-blend-mode:multiply" opacity="0.3" d="M305.828 347.024C306.271 357 300.859 364.241 291.092 366.261C286.074 367.296 275.029 367.246 264.278 366.113C267.55 366.36 282.753 367.345 286.172 363.305C290.035 358.798 290.256 351.286 294.61 348.059C298.964 344.832 303.097 347.221 304.475 347C304.721 346.951 305.213 346.975 305.852 347.024H305.828Z" fill="url(#paint32_linear_735_407)"/>
<path d="M281.228 341.212C280.588 343.083 287.058 348.453 290.748 347.074C294.438 345.694 291.56 340.325 289.789 339.192C288.017 338.059 281.769 339.684 281.228 341.212Z" fill="white"/>
<path d="M89.0026 345.079C88.7812 346.803 98.9165 342.665 100.712 339.413C102.508 336.162 103.123 332.394 102.508 332.172C101.918 331.95 89.3224 342.443 88.978 345.079H89.0026Z" fill="white"/>
<path d="M216.038 263.723C215.472 265.398 222.532 273.033 224.303 271.925C226.074 270.792 224.623 265.324 221.105 263.723C217.563 262.122 216.382 262.787 216.062 263.723H216.038Z" fill="white"/>
<path d="M263.934 242.589C261.892 243.107 262.162 246.21 260.391 249.043C258.62 251.851 255.324 253.944 255.693 254.585C256.062 255.225 264.401 255.077 265.852 250.816C267.304 246.555 265.09 242.294 263.934 242.589Z" fill="white"/>
<path d="M261.744 239.388C261.08 239.24 258.915 235.003 259.432 233.624C259.949 232.245 262.286 233.846 262.704 235.225C263.122 236.604 262.802 239.609 261.744 239.388Z" fill="white"/>
<path d="M91.5121 263.082C91.7089 266.112 102.927 266.728 104.058 265.127C105.19 263.526 103.099 262.122 99.3842 261.481C95.6696 260.841 91.4629 262.319 91.5121 263.082Z" fill="white"/>
<path style="mix-blend-mode:multiply" opacity="0.3" d="M242.114 297.812C233.602 302.541 222.114 309.856 222.114 309.856H217.858C217.858 309.856 200.367 301.827 199.408 291.211C198.744 283.846 203.221 273.033 208.682 266.555C210.01 269.979 217.415 288.551 225.016 294.068C227.157 295.62 229.715 296.58 232.347 297.147C235.078 297.738 237.833 297.911 240.293 297.886C240.933 297.886 241.548 297.861 242.089 297.837L242.114 297.812Z" fill="url(#paint33_linear_735_407)"/>
<path style="mix-blend-mode:multiply" opacity="0.3" d="M148.904 249.806C148.904 249.806 149.986 253.279 160.736 253.599C171.487 253.92 180.466 246.432 180.466 246.432L159.777 244.387L148.904 249.782V249.806Z" fill="url(#paint34_linear_735_407)"/>
<path d="M125.682 222.417C125.534 223.944 140.663 220.101 139.064 215.224C138.056 212.121 125.952 219.683 125.682 222.417Z" fill="white"/>
<g style="mix-blend-mode:screen" opacity="0.19">
<path d="M130.306 61.9959C128.535 72.6364 148.658 71.4295 180.859 70.3458C219.531 69.065 258.399 102.415 281.031 78.474C284.77 74.533 247.722 22.7589 203.024 23.9166C158.326 25.0742 131.856 52.7593 130.331 61.9959H130.306Z" fill="white"/>
</g>
<path d="M150.454 132.539C150.454 132.539 202.311 169.362 254.536 132.539H150.454Z" fill="#2F95CD"/>
</g>
<defs>
<linearGradient id="paint0_linear_735_407" x1="124.156" y1="367.985" x2="131.9" y2="306.386" gradientUnits="userSpaceOnUse">
<stop stop-color="#DAD3F9"/>
<stop offset="1" stop-color="#BE9DEA"/>
</linearGradient>
<linearGradient id="paint1_linear_735_407" x1="160.048" y1="359.759" x2="160.048" y2="307.984" gradientUnits="userSpaceOnUse">
<stop stop-color="#BE9DEA"/>
<stop offset="1" stop-color="#9E8CEF"/>
</linearGradient>
<linearGradient id="paint2_linear_735_407" x1="125.878" y1="364.143" x2="125.878" y2="310.152" gradientUnits="userSpaceOnUse">
<stop stop-color="#9D68C2"/>
<stop offset="1" stop-color="#CCEDFF"/>
</linearGradient>
<linearGradient id="paint3_linear_735_407" x1="125.854" y1="292.492" x2="138.455" y2="192.223" gradientUnits="userSpaceOnUse">
<stop stop-color="#DAD3F9"/>
<stop offset="1" stop-color="#BE9DEA"/>
</linearGradient>
<linearGradient id="paint4_linear_735_407" x1="195.251" y1="361.532" x2="216.533" y2="192.325" gradientUnits="userSpaceOnUse">
<stop stop-color="#CBC1F7"/>
<stop offset="1" stop-color="#E8DCF7"/>
</linearGradient>
<linearGradient id="paint5_linear_735_407" x1="241.499" y1="263.944" x2="248.601" y2="207.345" gradientUnits="userSpaceOnUse">
<stop stop-color="#BE9DEA"/>
<stop offset="1" stop-color="#9E8CEF"/>
</linearGradient>
<linearGradient id="paint6_linear_735_407" x1="269.002" y1="366.754" x2="277.756" y2="296.952" gradientUnits="userSpaceOnUse">
<stop stop-color="#CBC1F7"/>
<stop offset="1" stop-color="#E8DCF7"/>
</linearGradient>
<linearGradient id="paint7_linear_735_407" x1="260.785" y1="348.059" x2="260.785" y2="294.881" gradientUnits="userSpaceOnUse">
<stop stop-color="#8DA4E5"/>
<stop offset="1" stop-color="#755CBB"/>
</linearGradient>
<linearGradient id="paint8_linear_735_407" x1="263.638" y1="292.59" x2="274.76" y2="204.12" gradientUnits="userSpaceOnUse">
<stop stop-color="#CBC1F7"/>
<stop offset="1" stop-color="#E8DCF7"/>
</linearGradient>
<linearGradient id="paint9_linear_735_407" x1="215.89" y1="271.506" x2="218.602" y2="249.98" gradientUnits="userSpaceOnUse">
<stop stop-color="#DAD3F9"/>
<stop offset="1" stop-color="#BE9DEA"/>
</linearGradient>
<linearGradient id="paint10_linear_735_407" x1="105.78" y1="270.25" x2="109.011" y2="244.536" gradientUnits="userSpaceOnUse">
<stop stop-color="#CBC1F7"/>
<stop offset="1" stop-color="#E8DCF7"/>
</linearGradient>
<linearGradient id="paint11_linear_735_407" x1="114.587" y1="256.555" x2="114.587" y2="244.609" gradientUnits="userSpaceOnUse">
<stop stop-color="#BE9DEA"/>
<stop offset="1" stop-color="#9E8CEF"/>
</linearGradient>
<linearGradient id="paint12_linear_735_407" x1="162.729" y1="325.62" x2="162.729" y2="276.408" gradientUnits="userSpaceOnUse">
<stop stop-color="#8DA4E5"/>
<stop offset="1" stop-color="#755CBB"/>
</linearGradient>
<linearGradient id="paint13_linear_735_407" x1="108.609" y1="308.034" x2="108.609" y2="260.447" gradientUnits="userSpaceOnUse">
<stop stop-color="#BE9DEA"/>
<stop offset="1" stop-color="#9E8CEF"/>
</linearGradient>
<linearGradient id="paint14_linear_735_407" x1="244.106" y1="290.669" x2="244.106" y2="263.723" gradientUnits="userSpaceOnUse">
<stop stop-color="#BE9DEA"/>
<stop offset="1" stop-color="#9E8CEF"/>
</linearGradient>
<linearGradient id="paint15_linear_735_407" x1="98.3754" y1="308.748" x2="104.269" y2="261.951" gradientUnits="userSpaceOnUse">
<stop stop-color="#CBC1F7"/>
<stop offset="1" stop-color="#E8DCF7"/>
</linearGradient>
<linearGradient id="paint16_linear_735_407" x1="193.75" y1="228.18" x2="193.75" y2="202.244" gradientUnits="userSpaceOnUse">
<stop stop-color="#8DA4E5"/>
<stop offset="1" stop-color="#755CBB"/>
</linearGradient>
<linearGradient id="paint17_linear_735_407" x1="290.059" y1="95.7155" x2="290.059" y2="10.3203" gradientUnits="userSpaceOnUse">
<stop stop-color="#B9ACF4"/>
<stop offset="1" stop-color="#E1D1F5"/>
</linearGradient>
<linearGradient id="paint18_linear_735_407" x1="296.258" y1="56.725" x2="296.258" y2="10.2958" gradientUnits="userSpaceOnUse">
<stop stop-color="#BE9DEA"/>
<stop offset="1" stop-color="#9E8CEF"/>
</linearGradient>
<linearGradient id="paint19_linear_735_407" x1="112.324" y1="99.0407" x2="112.324" y2="13.6455" gradientUnits="userSpaceOnUse">
<stop stop-color="#B9ACF4"/>
<stop offset="1" stop-color="#E1D1F5"/>
</linearGradient>
<linearGradient id="paint20_linear_735_407" x1="106.149" y1="60.0746" x2="106.149" y2="13.6454" gradientUnits="userSpaceOnUse">
<stop stop-color="#BE9DEA"/>
<stop offset="1" stop-color="#9E8CEF"/>
</linearGradient>
<linearGradient id="paint21_linear_735_407" x1="193.553" y1="208.5" x2="219.644" y2="1.09177" gradientUnits="userSpaceOnUse">
<stop stop-color="#CBC1F7"/>
<stop offset="1" stop-color="#E8DCF7"/>
</linearGradient>
<linearGradient id="paint22_linear_735_407" x1="150.085" y1="176.48" x2="259.899" y2="176.48" gradientUnits="userSpaceOnUse">
<stop/>
<stop offset="1" stop-color="#6A9BFF"/>
</linearGradient>
<linearGradient id="paint23_linear_735_407" x1="113.937" y1="155.501" x2="117.777" y2="99.5239" gradientUnits="userSpaceOnUse">
<stop/>
<stop offset="1" stop-color="#00E3FF"/>
</linearGradient>
<linearGradient id="paint24_linear_735_407" x1="119.138" y1="189.953" x2="119.138" y2="163.672" gradientUnits="userSpaceOnUse">
<stop stop-color="#8DA4E5"/>
<stop offset="1" stop-color="#755CBB"/>
</linearGradient>
<linearGradient id="paint25_linear_735_407" x1="70.8233" y1="175.421" x2="83.277" y2="76.3349" gradientUnits="userSpaceOnUse">
<stop stop-color="#BE9DEA"/>
<stop offset="1" stop-color="#9E8CEF"/>
</linearGradient>
<linearGradient id="paint26_linear_735_407" x1="295.274" y1="36.8479" x2="317.094" y2="36.8479" gradientUnits="userSpaceOnUse">
<stop/>
<stop offset="1" stop-color="#D4E2FF"/>
</linearGradient>
<linearGradient id="paint27_linear_735_407" x1="84.1812" y1="35.3208" x2="108.215" y2="35.3208" gradientUnits="userSpaceOnUse">
<stop stop-color="#D4E2FF"/>
<stop offset="1"/>
</linearGradient>
<linearGradient id="paint28_linear_735_407" x1="61.9673" y1="118.77" x2="61.9673" y2="91.0356" gradientUnits="userSpaceOnUse">
<stop stop-color="#CBC1F7"/>
<stop offset="1" stop-color="#E8DCF7"/>
</linearGradient>
<linearGradient id="paint29_linear_735_407" x1="266.713" y1="290.743" x2="266.713" y2="224.658" gradientUnits="userSpaceOnUse">
<stop stop-color="#9D68C2"/>
<stop offset="1" stop-color="#CCEDFF"/>
</linearGradient>
<linearGradient id="paint30_linear_735_407" x1="222.63" y1="310.448" x2="228.796" y2="261.508" gradientUnits="userSpaceOnUse">
<stop stop-color="#CBC1F7"/>
<stop offset="1" stop-color="#E8DCF7"/>
</linearGradient>
<linearGradient id="paint31_linear_735_407" x1="233.676" y1="309.856" x2="233.676" y2="294.068" gradientUnits="userSpaceOnUse">
<stop stop-color="#BE9DEA"/>
<stop offset="1" stop-color="#9E8CEF"/>
</linearGradient>
<linearGradient id="paint32_linear_735_407" x1="285.065" y1="367" x2="285.065" y2="346.359" gradientUnits="userSpaceOnUse">
<stop stop-color="#9D68C2"/>
<stop offset="1" stop-color="#CCEDFF"/>
</linearGradient>
<linearGradient id="paint33_linear_735_407" x1="220.736" y1="309.856" x2="220.736" y2="266.555" gradientUnits="userSpaceOnUse">
<stop stop-color="#9D68C2"/>
<stop offset="1" stop-color="#CCEDFF"/>
</linearGradient>
<linearGradient id="paint34_linear_735_407" x1="164.672" y1="253.599" x2="164.672" y2="244.387" gradientUnits="userSpaceOnUse">
<stop stop-color="#8DA4E5"/>
<stop offset="1" stop-color="#755CBB"/>
</linearGradient>
<clipPath id="clip0_735_407">
<rect width="326" height="367" fill="white"/>
</clipPath>
</defs>
</svg>
