<svg width="461" height="528" viewBox="0 0 461 528" fill="none" xmlns="http://www.w3.org/2000/svg">
<g clip-path="url(#clip0_729_1887)">
<path d="M141.358 26.7676C141.358 26.7676 121.051 41.6722 112.804 75.0049C104.582 108.338 151.883 67.1724 151.883 67.1724L141.333 26.7676H141.358Z" fill="#5A39EB"/>
<path d="M123.453 61.5704C123.453 61.5704 138.931 21.5712 153.171 15.2342C167.411 8.89717 188.61 21.3684 188.61 21.3684L123.453 61.5704Z" fill="url(#paint0_linear_729_1887)"/>
<path d="M299.557 197.03C262.31 237.384 119.367 216.751 99.3816 188.97C91.432 177.918 87.4944 164.61 86.9991 150.415V150.365C84.8941 89.5546 145.444 11.7107 220.408 17.7182C271.201 21.7993 304.832 72.0898 313.698 120.429C319.27 150.643 315.184 180.098 299.557 197.005V197.03Z" fill="url(#paint1_linear_729_1887)"/>
<path d="M267.635 213.684C248.714 218.069 220.978 220.3 202.825 219.21C169.095 217.207 145.023 211.884 131.749 205.522C123.007 201.314 118.946 196.726 119.837 192.265C120.357 189.553 127.118 187.55 137.643 186.207C168.575 182.329 232.023 184.331 265.876 191.631C268.799 192.265 271.498 192.924 273.925 193.634C274.47 193.786 274.94 193.938 275.436 194.09C275.535 194.09 275.609 194.115 275.708 194.166C281.528 195.991 285.589 198.044 287.323 200.376C287.769 200.959 288.066 201.542 288.19 202.151C289.23 206.739 280.438 210.693 267.635 213.659V213.684Z" fill="url(#paint2_linear_729_1887)"/>
<path style="mix-blend-mode:multiply" opacity="0.3" d="M299.557 197.03C262.31 237.384 119.367 216.751 99.3815 188.97C91.432 177.918 87.4943 164.61 86.999 150.415V150.365C86.999 150.365 95.5429 170.136 124.493 175.485C153.419 180.833 238.709 181.467 256.689 169.426C274.668 157.386 271.399 97.2097 271.399 97.2097L313.673 120.429C319.245 150.643 315.159 180.098 299.532 197.005L299.557 197.03Z" fill="url(#paint3_linear_729_1887)"/>
<path d="M267.635 213.684C253.469 206.359 211.963 187.094 177.515 192.924C135.266 200.047 131.774 205.547 131.774 205.547C123.032 201.34 118.971 196.752 119.862 192.29C120.382 189.578 127.143 187.576 137.668 186.232C168.6 182.354 232.048 184.356 265.901 191.657C269.443 192.518 272.637 193.355 275.461 194.141C275.56 194.141 275.634 194.166 275.733 194.217C281.553 196.042 285.614 198.095 287.348 200.427C287.794 201.01 288.091 201.593 288.215 202.201C289.255 206.789 280.463 210.744 267.66 213.709L267.635 213.684Z" fill="#1FA5E5"/>
<path d="M273.925 193.659C265.53 200.985 226.921 205.497 205.128 204.179C166.074 201.821 142.72 194.115 137.644 186.207C171.225 181.999 243.217 184.737 273.925 193.659Z" fill="#121495"/>
<path d="M86.4789 153.128C91.5557 171.708 215.009 185.649 248.491 155.713C281.974 125.752 258.174 17.8451 192.126 23.6245C129.149 29.125 77.2911 119.465 86.4789 153.128Z" fill="#DFE3FB"/>
<path d="M86.9989 150.39C92.0757 168.97 215.529 182.911 249.011 152.975C282.494 123.014 258.694 15.1073 192.646 20.8867C129.669 26.3872 77.8111 116.728 86.9989 150.39Z" fill="#121495"/>
<path d="M259.091 39.3148C259.091 39.3148 252.702 101.798 290.443 123.698C290.443 123.698 308.943 125.65 319.617 114.092C319.617 114.092 302.974 130.264 285.243 113.61C267.511 96.9309 271.548 50.7214 284.871 35.6139C298.195 20.5065 317.561 24.3594 317.561 24.3594L309.785 17.2619C309.785 17.2619 281.256 11.4572 259.091 39.2894V39.3148Z" fill="url(#paint4_linear_729_1887)"/>
<path d="M309.785 17.2874C309.785 17.2874 288.833 15.4116 274.321 40.3795C258.917 66.8682 270.433 112.495 289.353 119.339C308.274 126.183 326.996 52.1663 326.996 52.1663L315.877 22.8133C315.877 22.8133 313.673 18.7069 309.809 17.262L309.785 17.2874Z" fill="url(#paint5_linear_729_1887)"/>
<path d="M337.175 80.0999C334.55 94.3963 328.928 106.082 321.375 113.483L321.325 113.534L319.22 115.46C313.103 120.581 305.847 123.04 297.972 122.051C272.464 118.857 268.848 81.0885 271.746 59.6441C275.114 34.879 295.718 19.9237 312.187 22.0022C331.776 24.4863 342.376 52.1157 337.225 80.0999H337.175Z" fill="#121495"/>
<path d="M86.3057 133.356C86.3057 133.356 68.4996 137.488 51.6347 151.632C34.7945 165.776 30.3616 183.038 51.1394 181.492L60.773 175.713C60.773 175.713 48.3657 177.487 50.0002 164.56C51.6595 151.632 85.8599 135.714 85.8599 135.714L86.3057 133.331V133.356Z" fill="url(#paint6_linear_729_1887)"/>
<path d="M47.4741 170.922C41.2334 177.411 53.393 183.317 63.5961 185.016C75.0376 186.942 95.6668 185.649 95.0724 173.71C94.4781 161.771 62.1102 155.713 47.4741 170.897V170.922Z" fill="#2970EA"/>
<path d="M48.1926 172.215C47.7468 174.141 88.8319 176.879 90.194 169.502C91.556 162.126 51.6844 157.335 48.1926 172.215Z" fill="#1FA5E5"/>
<path d="M193.216 96.4495C192.324 97.6915 209.437 86.4116 236.654 97.2352C239.353 98.2999 210.7 71.9632 193.216 96.4495Z" fill="#1FA5E5"/>
<path d="M107.356 96.5761C106.464 97.8182 115.454 88.9463 139.377 94.8778C142.175 95.5622 123.082 74.7514 107.356 96.5761Z" fill="#1FA5E5"/>
<g style="mix-blend-mode:screen" opacity="0.23">
<path d="M121.348 72.7995C124.146 77.134 147.549 64.6881 173.28 67.3497C199.011 70.0112 227.194 95.8662 248.293 92.647C265.034 90.0869 242.944 28.4658 200.299 22.9652C157.653 17.4647 118.55 68.4903 121.323 72.7995H121.348Z" fill="white"/>
</g>
<g style="mix-blend-mode:screen" opacity="0.23">
<path d="M113.745 155.966C113.745 155.966 140.541 148.692 173.627 152.468C206.713 156.245 212.062 159.845 211.443 163.039C210.824 166.232 186.753 172.772 156.391 169.452C126.029 166.156 113.721 155.966 113.721 155.966H113.745Z" fill="white"/>
</g>
<path style="mix-blend-mode:screen" opacity="0.5" d="M87.9155 145.447C87.9155 145.447 84.5227 121.569 105.573 87.8055C105.573 87.8055 110.105 82.5078 112.16 84.4089C114.241 86.31 93.1657 110.822 87.9155 145.447Z" fill="url(#paint7_linear_729_1887)"/>
<g style="mix-blend-mode:screen" opacity="0.15">
<path d="M276.005 89.8081C276.005 89.8081 278.829 112.976 295.495 117.894C312.162 122.811 325.634 110.441 329.795 93.0273C329.795 93.0273 324.644 108.059 302.974 104.333C281.305 100.606 276.03 89.8081 276.03 89.8081H276.005Z" fill="white"/>
</g>
<g style="mix-blend-mode:screen" opacity="0.15">
<path d="M278.854 45.9814C279.076 50.2906 309.562 41.1653 319.295 42.4327C329.003 43.7001 333.213 55.8671 334.748 55.5883C336.283 55.3095 332.024 26.7929 313.97 24.7904C295.917 22.7879 278.73 42.9903 278.878 45.9814H278.854Z" fill="white"/>
</g>
<path d="M136.405 118.477C136.405 118.477 166.544 122.152 184.053 119.161C184.053 119.161 177.639 147.83 158 146.157C138.362 144.484 136.38 118.477 136.38 118.477H136.405Z" fill="#1FA5E5"/>
<path d="M134.226 292.364C134.226 292.364 83.2845 321.946 71.2983 320.754C59.312 319.563 64.6365 291.68 64.6365 291.68C66.2214 289.754 68.0045 287.776 69.9114 285.723C89.0547 265.014 121.745 238.652 140.516 226.079C148.416 220.782 153.865 217.943 154.781 219.007C161.74 226.916 134.152 292.364 134.152 292.364H134.226Z" fill="url(#paint8_linear_729_1887)"/>
<path d="M64.6611 291.68C64.6611 291.68 71.3229 285.951 79.5696 293.657C87.8164 301.363 79.322 319.842 71.3229 320.754C63.3238 321.667 58.5442 303.67 64.6611 291.68Z" fill="url(#paint9_linear_729_1887)"/>
<path style="mix-blend-mode:multiply" opacity="0.3" d="M134.226 292.364C134.226 292.364 83.2845 321.946 71.2983 320.754C59.312 319.563 64.6365 291.68 64.6365 291.68C66.2214 289.754 68.0045 287.776 69.9114 285.723C69.9114 285.723 82.3682 293.226 105.301 289.627C128.258 286.027 140.516 226.079 140.516 226.079C148.416 220.782 153.865 217.943 154.781 219.007C161.74 226.916 134.152 292.364 134.152 292.364H134.226Z" fill="url(#paint10_linear_729_1887)"/>
<path d="M193.712 388.839C194.48 399.916 182.741 437.634 170.878 449.218C170.878 449.218 170.878 449.235 170.878 449.269C168.575 451.474 166.297 452.742 164.093 452.64C154.261 452.26 142.696 406.152 138.337 379.866C136.653 369.701 136.059 362.528 137.05 362.072C145.371 358.371 192.795 375.633 193.737 388.814L193.712 388.839Z" fill="url(#paint11_linear_729_1887)"/>
<path d="M194.232 392.413C194.232 392.413 183.484 400.778 163.771 394.238C148.367 389.118 135.241 366.71 137.025 362.097C138.808 357.484 198.318 374.416 194.232 392.413Z" fill="url(#paint12_linear_729_1887)"/>
<path style="mix-blend-mode:multiply" opacity="0.3" d="M193.712 388.839C194.479 399.916 182.741 437.634 170.878 449.218C179.1 435.936 175.881 411.956 167.907 401.995C161.889 394.441 145.791 384.327 138.312 379.866C136.628 369.701 136.034 362.528 137.025 362.072C145.346 358.371 192.771 375.633 193.712 388.814V388.839Z" fill="url(#paint13_linear_729_1887)"/>
<path d="M156.267 405.518C153.246 405.29 155.252 413.655 155.846 414.111C156.44 414.568 157.827 411.754 157.951 409.473C158.075 407.445 157.357 405.594 156.292 405.518H156.267Z" fill="white"/>
<path d="M264.366 321.515C267.338 363.035 250.424 386.406 211.196 397.762C172.761 408.89 136.901 373.605 134.747 319.994C133.384 285.774 134.326 254.748 145.495 232.214V232.138C151.81 219.387 161.443 209.4 175.757 203.063C187.075 198.07 198.665 201.542 209.611 210.135C238.091 232.518 262.014 289.5 264.342 321.515H264.366Z" fill="url(#paint14_linear_729_1887)"/>
<path style="mix-blend-mode:multiply" opacity="0.3" d="M222.538 254.571C222.538 254.571 235.465 283.721 241.359 303.999C248.343 328.029 241.756 355.43 241.756 355.43L264.663 328.536C264.663 328.536 265.555 311.147 259.487 295.482C253.42 279.817 250.002 272.847 250.002 272.847L222.513 254.571H222.538Z" fill="url(#paint15_linear_729_1887)"/>
<path d="M134.251 326.787C134.251 326.787 134.573 294.621 162.087 286.23C195.049 276.193 228.11 306.712 233.509 332.617C238.883 358.523 238.239 384.53 207.382 395.024C207.382 395.024 148.664 411.475 134.251 326.787Z" fill="url(#paint16_linear_729_1887)"/>
<path d="M135.613 330.285C135.613 330.285 135.935 298.119 163.449 289.728C196.411 279.691 229.473 310.21 234.871 336.115C240.245 362.021 239.601 388.028 208.744 398.522C208.744 398.522 150.026 414.973 135.613 330.285Z" fill="#121495"/>
<path d="M247.229 282.301C245.792 282.732 243.91 281.972 241.756 280.35C232.122 273.049 216.941 248.081 212.632 232.949C210.973 227.093 210.923 222.708 213.499 221.39C217.684 219.261 231.032 231.732 241.607 251.782C247.724 263.468 253.346 280.426 247.253 282.276L247.229 282.301Z" fill="url(#paint17_linear_729_1887)"/>
<path d="M241.756 280.35C232.122 273.049 216.941 248.082 212.632 232.949C218.625 237.359 227.07 247.473 234.277 261.11C237.397 267.042 240.394 274.367 241.781 280.35H241.756Z" fill="#6340A2"/>
<path style="mix-blend-mode:multiply" opacity="0.5" d="M209.239 209.907C209.239 209.907 173.454 237.74 157.481 240.655C141.978 243.494 144.925 232.569 145.098 231.96V231.884C151.413 219.134 161.047 209.147 175.361 202.81C186.679 197.816 198.269 201.289 209.215 209.882L209.239 209.907Z" fill="url(#paint18_linear_729_1887)"/>
<g style="mix-blend-mode:screen" opacity="0.17">
<path d="M138.337 326.534C144.851 333.352 157.283 318.27 177.243 314.671C197.204 311.072 210.626 318.346 215.356 313.809C220.087 309.246 194.009 285.039 164.019 292.897C140.071 299.158 136.133 324.227 138.337 326.534Z" fill="white"/>
</g>
<g style="mix-blend-mode:screen" opacity="0.17">
<path d="M181.304 393.427C181.304 393.427 191.829 399.359 205.376 395.759C218.922 392.16 221.448 384.175 221.448 384.175C221.448 384.175 214.737 383.339 205.846 388.104C196.956 392.895 187.966 394.238 181.329 393.453L181.304 393.427Z" fill="white"/>
</g>
<path d="M190.369 241.947C188.041 242.733 190.74 267.295 192.845 267.498C194.95 267.701 196.065 261.972 195.693 253.759C195.322 245.547 192.622 241.187 190.369 241.947Z" fill="white"/>
<path d="M354.634 314.975C358.275 330.564 344.01 341.109 337.745 340.627C332.296 340.196 314.267 333.91 290.567 316.724C290.543 316.724 290.518 316.699 290.493 316.699C287.001 314.164 283.41 311.401 279.696 308.41C250.72 284.887 209.66 234.064 222.637 229.121C222.637 229.121 222.637 229.121 222.711 229.121C260.379 214.8 350.994 299.437 354.659 315L354.634 314.975Z" fill="url(#paint19_linear_729_1887)"/>
<path d="M325.585 336.952C325.585 336.952 318.725 324.709 326.724 314.088C334.723 303.467 353.124 311.604 353.124 311.604C353.124 311.604 361.123 325.165 347.081 334.011C333.039 342.883 325.585 336.952 325.585 336.952Z" fill="url(#paint20_linear_729_1887)"/>
<path style="mix-blend-mode:multiply" opacity="0.3" d="M354.634 314.975C358.275 330.564 344.01 341.109 337.745 340.627C332.296 340.196 314.268 333.91 290.567 316.724C292.722 318.093 308.398 327.776 315.085 323.72C322.242 319.335 324.223 290.514 285.392 256.244C247.774 223.012 224.148 228.716 222.711 229.096C260.379 214.774 350.994 299.411 354.659 314.975H354.634Z" fill="url(#paint21_linear_729_1887)"/>
<path d="M332.321 319.056C337.323 313.784 349.508 312.972 355.625 315.913C361.742 318.853 381.925 334.594 392.822 364.201C392.822 364.201 390.94 381.615 379.449 385.037C370.707 387.648 355.501 365.671 343.936 350.538C332.37 335.38 324.099 327.725 332.321 319.056Z" fill="url(#paint22_linear_729_1887)"/>
<path d="M381.306 384.885C381.306 384.885 353.792 328.993 327.442 333.327C327.442 333.327 332.395 342.098 348.369 359.664C364.342 377.23 375.685 386.634 381.306 384.885Z" fill="url(#paint23_linear_729_1887)"/>
<path style="mix-blend-mode:multiply" opacity="0.5" d="M362.757 356.343C362.757 356.343 363.153 367.369 360.677 371.096C358.2 374.822 354.684 375.557 354.684 375.557L350.746 343.694C350.746 343.694 359.463 350.919 362.757 356.343Z" fill="url(#paint24_linear_729_1887)"/>
<path d="M350.746 343.694C350.746 343.694 338.091 332.034 327.566 334.823C327.566 334.823 325.535 348.13 348.839 376.191C348.839 376.191 357.136 378.675 358.968 368.51C358.968 368.51 356.64 354.67 350.771 343.694H350.746Z" fill="url(#paint25_linear_729_1887)"/>
<path d="M342.623 342.376C345.372 340.298 350.226 355.912 348.567 356.723C346.933 357.509 340.32 344.125 342.623 342.376Z" fill="white"/>
<path d="M257.481 274.139C254.138 280.375 264.787 285.014 267.61 284.051C270.433 283.087 259.76 269.881 257.481 274.139Z" fill="white"/>
<path d="M269.839 286.357C268.824 287.143 273.157 291.072 274.198 291.731C276.204 292.998 280.24 293.556 280.414 292.796C280.612 292.035 270.978 285.47 269.814 286.382L269.839 286.357Z" fill="white"/>
<path d="M88.1383 272.061C88.6831 273.835 100.669 268.309 100.719 263.011C100.744 257.714 87.3706 269.5 88.1383 272.061Z" fill="white"/>
<path d="M303.643 440.245C301.538 442.425 297.526 442.349 292.474 440.752C286.951 438.978 280.116 435.378 273.058 430.892C273.034 430.892 273.009 430.866 273.009 430.866L272.934 430.816C253.222 418.319 231.552 398.953 230.388 393.326C226.401 373.782 245.743 348.688 258.051 336.267C262.855 331.426 266.619 328.511 267.461 328.612C270.557 328.967 314.589 429.041 303.643 440.245Z" fill="url(#paint26_linear_729_1887)"/>
<path style="mix-blend-mode:multiply" opacity="0.3" d="M303.643 440.245C301.538 442.425 297.526 442.349 292.474 440.752L273.058 430.892C274.891 431.703 295.743 440.22 288.685 409.447C281.33 377.255 257.333 338.751 257.333 338.751L258.051 336.293C262.855 331.451 266.619 328.536 267.461 328.638C270.557 328.992 314.589 429.067 303.643 440.27V440.245Z" fill="url(#paint27_linear_729_1887)"/>
<path d="M245.743 386.786C241.112 389.701 252.652 399.688 253.94 399.764C255.252 399.815 254.386 394.213 252.206 390.74C250.275 387.648 247.352 385.772 245.718 386.786H245.743Z" fill="white"/>
<path d="M255.624 400.829C254.93 401.944 258.521 405.037 259.041 403.921C259.561 402.806 258.695 400.854 257.952 400.373C257.209 399.916 255.946 400.296 255.624 400.829Z" fill="white"/>
<path d="M28.7271 296.623C28.8757 298.727 43.4127 291.832 43.4127 289.323C43.4127 286.813 28.5042 293.049 28.7271 296.623Z" fill="white"/>
<path d="M0 322.605C0 322.605 0.19812 327.218 2.74891 332.237C2.74891 332.237 9.80693 337.205 23.6506 336.647C37.4942 336.09 65.8996 321.261 69.862 318.549C73.7996 315.837 75.9047 307.573 75.9047 307.573L0 322.605Z" fill="url(#paint28_linear_729_1887)"/>
<path d="M74.7901 292.44C67.7816 289.551 49.7775 293.505 38.757 297.662C27.7366 301.794 9.7325 314.544 -0.0249023 322.605C-0.0249023 322.605 0.173217 330.285 14.5864 332.085C28.9996 333.884 67.7568 317.18 74.2205 309.931C80.7089 302.656 74.7653 292.44 74.7653 292.44H74.7901Z" fill="url(#paint29_linear_729_1887)"/>
<path d="M24.8638 304.836C24.8638 304.836 49.3316 301.465 61.8131 291.883C61.8131 291.883 40.7629 290.97 24.8638 304.836Z" fill="url(#paint30_linear_729_1887)"/>
<path d="M58.1231 292.441C58.1231 292.441 43.7842 300.932 28.628 301.591C28.628 301.591 13.2737 301.794 12.407 299.969C11.565 298.144 11.0697 291.224 15.032 289.475C18.9944 287.726 45.5425 284.659 58.1231 292.441Z" fill="url(#paint31_linear_729_1887)"/>
<path d="M27.1919 304.481C27.1919 304.481 45.5923 305.748 65.2804 316.141L67.6083 314.823C67.6083 314.823 53.2942 304.506 27.1919 304.481Z" fill="url(#paint32_linear_729_1887)"/>
<path d="M26.5479 326.61C26.5479 326.61 34.8441 321.641 43.3633 322.098C43.3633 322.098 31.7485 327.573 26.5479 326.61Z" fill="white"/>
</g>
<defs>
<linearGradient id="paint0_linear_729_1887" x1="151.222" y1="67.052" x2="161.953" y2="12.6609" gradientUnits="userSpaceOnUse">
<stop stop-color="#B9ACF4"/>
<stop offset="1" stop-color="#E1D1F5"/>
</linearGradient>
<linearGradient id="paint1_linear_729_1887" x1="177.391" y1="222.198" x2="243.871" y2="23.0775" gradientUnits="userSpaceOnUse">
<stop stop-color="#CBC1F7"/>
<stop offset="1" stop-color="#E8DCF7"/>
</linearGradient>
<linearGradient id="paint2_linear_729_1887" x1="121.266" y1="184.742" x2="285.944" y2="215.754" gradientUnits="userSpaceOnUse">
<stop stop-color="#8879EA"/>
<stop offset="1" stop-color="#9E8CEF"/>
</linearGradient>
<linearGradient id="paint3_linear_729_1887" x1="188.992" y1="219.788" x2="215.356" y2="86.1584" gradientUnits="userSpaceOnUse">
<stop stop-color="#9D68C2"/>
<stop offset="1" stop-color="#CCEDFF"/>
</linearGradient>
<linearGradient id="paint4_linear_729_1887" x1="289.369" y1="123.831" x2="288.814" y2="16.8385" gradientUnits="userSpaceOnUse">
<stop stop-color="#B9ACF4"/>
<stop offset="1" stop-color="#E1D1F5"/>
</linearGradient>
<linearGradient id="paint5_linear_729_1887" x1="297.347" y1="119.734" x2="296.817" y2="17.3041" gradientUnits="userSpaceOnUse">
<stop stop-color="#BE9DEA"/>
<stop offset="1" stop-color="#9E8CEF"/>
</linearGradient>
<linearGradient id="paint6_linear_729_1887" x1="51.9469" y1="183.871" x2="70.578" y2="128.097" gradientUnits="userSpaceOnUse">
<stop stop-color="#BE9DEA"/>
<stop offset="1" stop-color="#9E8CEF"/>
</linearGradient>
<linearGradient id="paint7_linear_729_1887" x1="93.1895" y1="146.47" x2="105.734" y2="82.8854" gradientUnits="userSpaceOnUse">
<stop/>
<stop offset="1" stop-color="#6A9BFF"/>
</linearGradient>
<linearGradient id="paint8_linear_729_1887" x1="102.131" y1="324.734" x2="116.39" y2="213.918" gradientUnits="userSpaceOnUse">
<stop stop-color="#CBC1F7"/>
<stop offset="1" stop-color="#D4BEF1"/>
</linearGradient>
<linearGradient id="paint9_linear_729_1887" x1="74.0966" y1="320.476" x2="70.8551" y2="289.566" gradientUnits="userSpaceOnUse">
<stop stop-color="#BE9DEA"/>
<stop offset="1" stop-color="#9E8CEF"/>
</linearGradient>
<linearGradient id="paint10_linear_729_1887" x1="109.734" y1="320.805" x2="109.734" y2="218.804" gradientUnits="userSpaceOnUse">
<stop stop-color="#9D68C2"/>
<stop offset="1" stop-color="#CCEDFF"/>
</linearGradient>
<linearGradient id="paint11_linear_729_1887" x1="167.056" y1="452.588" x2="164.599" y2="360.908" gradientUnits="userSpaceOnUse">
<stop stop-color="#CBC1F7"/>
<stop offset="1" stop-color="#E8DCF7"/>
</linearGradient>
<linearGradient id="paint12_linear_729_1887" x1="139.623" y1="382.2" x2="192.094" y2="374.392" gradientUnits="userSpaceOnUse">
<stop stop-color="#8879EA"/>
<stop offset="1" stop-color="#9E8CEF"/>
</linearGradient>
<linearGradient id="paint13_linear_729_1887" x1="175.54" y1="448.496" x2="161.449" y2="358.105" gradientUnits="userSpaceOnUse">
<stop stop-color="#9D68C2"/>
<stop offset="1" stop-color="#CCEDFF"/>
</linearGradient>
<linearGradient id="paint14_linear_729_1887" x1="211.783" y1="398.022" x2="178.445" y2="201.77" gradientUnits="userSpaceOnUse">
<stop stop-color="#CBC1F7"/>
<stop offset="1" stop-color="#E8DCF7"/>
</linearGradient>
<linearGradient id="paint15_linear_729_1887" x1="258.004" y1="350.48" x2="228.254" y2="252.856" gradientUnits="userSpaceOnUse">
<stop stop-color="#9D68C2"/>
<stop offset="1" stop-color="#CCEDFF"/>
</linearGradient>
<linearGradient id="paint16_linear_729_1887" x1="141.012" y1="353.972" x2="232.09" y2="327.479" gradientUnits="userSpaceOnUse">
<stop stop-color="#BE9DEA"/>
<stop offset="1" stop-color="#9E8CEF"/>
</linearGradient>
<linearGradient id="paint17_linear_729_1887" x1="219.104" y1="255.301" x2="242.546" y2="248.482" gradientUnits="userSpaceOnUse">
<stop stop-color="#8879EA"/>
<stop offset="1" stop-color="#9E8CEF"/>
</linearGradient>
<linearGradient id="paint18_linear_729_1887" x1="180.196" y1="233.913" x2="171.066" y2="203.953" gradientUnits="userSpaceOnUse">
<stop stop-color="#8DA4E5"/>
<stop offset="1" stop-color="#755CBB"/>
</linearGradient>
<linearGradient id="paint19_linear_729_1887" x1="319.258" y1="349.93" x2="258.185" y2="213.227" gradientUnits="userSpaceOnUse">
<stop stop-color="#CBC1F7"/>
<stop offset="1" stop-color="#E8DCF7"/>
</linearGradient>
<linearGradient id="paint20_linear_729_1887" x1="345.584" y1="334.937" x2="330.757" y2="310.578" gradientUnits="userSpaceOnUse">
<stop stop-color="#BE9DEA"/>
<stop offset="1" stop-color="#9E8CEF"/>
</linearGradient>
<linearGradient id="paint21_linear_729_1887" x1="331.989" y1="346.103" x2="250.477" y2="212.193" gradientUnits="userSpaceOnUse">
<stop stop-color="#9D68C2"/>
<stop offset="1" stop-color="#CCEDFF"/>
</linearGradient>
<linearGradient id="paint22_linear_729_1887" x1="390.385" y1="376.88" x2="333.219" y2="318.479" gradientUnits="userSpaceOnUse">
<stop stop-color="#CBC1F7"/>
<stop offset="1" stop-color="#E8DCF7"/>
</linearGradient>
<linearGradient id="paint23_linear_729_1887" x1="376.844" y1="388.575" x2="332.325" y2="329.902" gradientUnits="userSpaceOnUse">
<stop stop-color="#BE9DEA"/>
<stop offset="1" stop-color="#9E8CEF"/>
</linearGradient>
<linearGradient id="paint24_linear_729_1887" x1="362.273" y1="371.011" x2="345.058" y2="348.323" gradientUnits="userSpaceOnUse">
<stop stop-color="#8DA4E5"/>
<stop offset="1" stop-color="#755CBB"/>
</linearGradient>
<linearGradient id="paint25_linear_729_1887" x1="359.965" y1="371.059" x2="326.174" y2="336.513" gradientUnits="userSpaceOnUse">
<stop stop-color="#CBC1F7"/>
<stop offset="1" stop-color="#E8DCF7"/>
</linearGradient>
<linearGradient id="paint26_linear_729_1887" x1="275.363" y1="447.256" x2="250.358" y2="332.318" gradientUnits="userSpaceOnUse">
<stop stop-color="#CBC1F7"/>
<stop offset="1" stop-color="#E8DCF7"/>
</linearGradient>
<linearGradient id="paint27_linear_729_1887" x1="295.073" y1="443.842" x2="255.578" y2="332.785" gradientUnits="userSpaceOnUse">
<stop stop-color="#9D68C2"/>
<stop offset="1" stop-color="#CCEDFF"/>
</linearGradient>
<linearGradient id="paint28_linear_729_1887" x1="49.53" y1="333.961" x2="25.9554" y2="302.902" gradientUnits="userSpaceOnUse">
<stop stop-color="#BE9DEA"/>
<stop offset="1" stop-color="#9E8CEF"/>
</linearGradient>
<linearGradient id="paint29_linear_729_1887" x1="35.9091" y1="334.822" x2="41.9498" y2="287.837" gradientUnits="userSpaceOnUse">
<stop stop-color="#E8DCF7"/>
<stop offset="1" stop-color="#CBC1F7"/>
</linearGradient>
<linearGradient id="paint30_linear_729_1887" x1="46.8798" y1="303.239" x2="39.5321" y2="293.568" gradientUnits="userSpaceOnUse">
<stop stop-color="#BE9DEA"/>
<stop offset="1" stop-color="#9E8CEF"/>
</linearGradient>
<linearGradient id="paint31_linear_729_1887" x1="33.8287" y1="303.366" x2="35.9287" y2="286.977" gradientUnits="userSpaceOnUse">
<stop stop-color="#CBC1F7"/>
<stop offset="1" stop-color="#E8DCF7"/>
</linearGradient>
<linearGradient id="paint32_linear_729_1887" x1="31.8725" y1="297.967" x2="63.4306" y2="320.611" gradientUnits="userSpaceOnUse">
<stop stop-color="#BE9DEA"/>
<stop offset="1" stop-color="#9E8CEF"/>
</linearGradient>
<clipPath id="clip0_729_1887">
<rect width="461" height="528" fill="white"/>
</clipPath>
</defs>
</svg>
