<svg width="25" height="24" viewBox="0 0 25 24" fill="none" xmlns="http://www.w3.org/2000/svg">
<g clip-path="url(#clip0_1101_348)">
<path d="M24.0322 5.13258C23.1882 5.4993 22.2952 5.74091 21.3814 5.84976C22.3418 5.28744 23.0639 4.39409 23.4125 3.33726C22.5046 3.86817 21.513 4.24067 20.48 4.43883C20.0451 3.98298 19.522 3.62034 18.9425 3.37296C18.363 3.12557 17.7393 2.9986 17.1093 2.99976C14.5583 2.99976 12.4939 5.03414 12.4939 7.54195C12.4921 7.89078 12.5321 8.23857 12.613 8.57789C10.7838 8.49214 8.99263 8.02551 7.35409 7.20785C5.71556 6.3902 4.26574 5.23953 3.09738 3.82945C2.6875 4.52044 2.47073 5.30885 2.46973 6.11226C2.46973 7.68726 3.29145 9.07945 4.53223 9.89508C3.7971 9.87763 3.07703 9.68306 2.43316 9.32789V9.38414C2.43316 11.5873 4.02691 13.4201 6.13629 13.8373C5.73962 13.943 5.33087 13.9966 4.92035 13.9966C4.62906 13.9971 4.33843 13.9689 4.0527 13.9123C4.6391 15.717 6.34582 17.0295 8.36754 17.067C6.72475 18.333 4.70783 19.0173 2.63379 19.0123C2.26564 19.0117 1.89784 18.9898 1.53223 18.9466C3.64215 20.2939 6.09478 21.0066 8.59816 20.9998C17.0994 20.9998 21.7438 14.0763 21.7438 8.07164C21.7438 7.87476 21.7386 7.67789 21.7293 7.4857C22.6307 6.84448 23.4106 6.04763 24.0322 5.13258Z" fill="white"/>
</g>
<defs>
<clipPath id="clip0_1101_348">
<rect width="24" height="24" fill="white" transform="translate(0.782227)"/>
</clipPath>
</defs>
</svg>
