<svg width="89" height="74" viewBox="0 0 89 74" fill="none" xmlns="http://www.w3.org/2000/svg">
<path d="M22.8341 3.65411C26.6047 1.27549 31.2077 -0.0074272 35.9375 0.00203406C37.571 -0.0284776 39.1873 0.284705 40.6369 0.912604C42.0866 1.5405 43.3226 2.46283 44.2308 3.59424C45.1389 2.46283 46.375 1.5405 47.8246 0.912604C49.2742 0.284705 50.8905 -0.0284776 52.524 0.00203406C57.2538 -0.0074272 61.8569 1.27549 65.6274 3.65411C68.53 5.53311 70.7692 8.13515 71.5599 11.2806C73.3733 11.3958 75.032 12.0221 76.4252 12.9662C78.5373 14.3939 80.0743 16.5354 81.0418 18.8012C82.5567 22.3244 82.9659 26.8146 81.3957 30.6371C81.7937 30.7937 82.1863 30.9779 82.5678 31.1897C84.0882 32.0325 85.2437 33.2391 86.0952 34.6622C87.7704 37.4484 88.4615 41.3354 88.4615 46.0559C88.4615 51.3107 86.0565 54.8384 83.0046 57.0167C81.3169 58.2221 79.3252 59.0957 77.1772 59.5727C76.6243 62.1425 75.0762 65.1176 72.649 67.6414C69.4976 70.9342 64.6101 73.6883 58.0529 73.6883C52.8558 73.6883 48.7202 71.2934 46.0332 68.9447C45.3908 68.3839 44.7889 67.7918 44.2308 67.1716C43.6727 67.7919 43.0708 68.384 42.4284 68.9447C39.7413 71.2934 35.6113 73.6883 30.4087 73.6883C23.8514 73.6883 18.9695 70.9342 15.8125 67.6414C13.5443 65.2952 11.9908 62.527 11.2844 59.5727C9.13631 59.0957 7.14465 58.2221 5.45697 57.0167C2.40505 54.8384 0 51.3061 0 46.0559C0 41.3354 0.696634 37.4438 2.36635 34.6622C3.15769 33.2666 4.37379 32.0678 5.89375 31.1851C6.26716 30.9792 6.65902 30.7975 7.06587 30.6417C5.49567 26.81 5.90481 22.3244 7.41971 18.8012C8.38726 16.5354 9.92428 14.3939 12.0363 12.9662C13.4296 12.0221 15.0882 11.4004 16.9017 11.2806C17.6978 8.13515 19.937 5.53311 22.8397 3.65411H22.8341ZM41.4663 11.5155V11.4694L41.4553 11.2392C41.3739 10.0386 41.0872 8.85379 40.6038 7.72067C40.2597 6.86527 39.6738 6.09131 38.8954 5.46403C38.0788 4.87168 37.0191 4.56481 35.9375 4.60742C32.4374 4.59743 29.0289 5.53844 26.2288 7.28776C23.6635 8.9503 22.1154 11.2023 22.1154 13.8182C22.1151 14.1829 22.0107 14.5423 21.8111 14.8668C21.6114 15.1913 21.322 15.4717 20.9668 15.6848C20.6115 15.898 20.2006 16.0378 19.7678 16.0928C19.335 16.1478 18.8928 16.1164 18.4774 16.0012C17.438 15.7156 16.5091 15.8768 15.5195 16.54C14.4358 17.2768 13.3798 18.5848 12.6224 20.3486C11.0798 23.9501 11.2401 28.3114 13.3577 30.9641C13.6601 31.3418 13.8217 31.7857 13.8221 32.2398H17.9687C21.268 32.2398 24.4322 33.3315 26.7651 35.2747C29.098 37.218 30.4087 39.8537 30.4087 42.6019V44.1447C32.2531 44.6879 33.8077 45.7567 34.7975 47.1623C35.7874 48.5679 36.1489 50.2197 35.8181 51.8259C35.4872 53.432 34.4854 54.889 32.9897 55.9393C31.4939 56.9897 29.6006 57.5658 27.6442 57.5658C25.6879 57.5658 23.7945 56.9897 22.2988 55.9393C20.803 54.889 19.8012 53.432 19.4704 51.8259C19.1396 50.2197 19.501 48.5679 20.4909 47.1623C21.4808 45.7567 23.0353 44.6879 24.8798 44.1447V42.6019C24.8798 39.4242 21.7837 36.8451 17.9687 36.8451H8.29327C7.96276 36.8447 7.63504 36.7948 7.32572 36.6978L7.30913 36.7254C6.21442 38.5445 5.52885 41.5657 5.52885 46.0559C5.52885 50.0119 7.27043 52.241 9.05625 53.5166C10.9748 54.8891 13.1034 55.2667 13.8221 55.2667C14.5553 55.2667 15.2584 55.5093 15.7769 55.9411C16.2953 56.373 16.5865 56.9587 16.5865 57.5694C16.5865 59.2642 17.6923 62.2254 20.125 64.7676C22.4969 67.2315 25.9082 69.0829 30.4087 69.0829C33.5048 69.0829 36.2803 67.6414 38.4255 65.767C39.4815 64.8459 40.3053 63.8926 40.8416 63.1097C41.0857 62.7625 41.2947 62.3989 41.4663 62.0228V25.3317H35.4675C34.8154 26.8681 33.5323 28.163 31.8448 28.9875C30.1574 29.812 28.1743 30.1131 26.2462 29.8376C24.318 29.562 22.5689 28.7275 21.3079 27.4816C20.0469 26.2357 19.3553 24.6586 19.3553 23.029C19.3553 21.3994 20.0469 19.8223 21.3079 18.5763C22.5689 17.3304 24.318 16.4959 26.2462 16.2204C28.1743 15.9448 30.1574 16.2459 31.8448 17.0705C33.5323 17.895 34.8154 19.1899 35.4675 20.7263H41.4663V11.5155ZM46.9952 57.5648V62.0182C47.1669 62.3943 47.3759 62.7578 47.6199 63.1051C48.1618 63.888 48.98 64.8413 50.0305 65.7624C52.1812 67.6368 54.9623 69.0783 58.0529 69.0783C62.5534 69.0783 65.9647 67.2269 68.3365 64.763C70.7692 62.2208 71.875 59.2596 71.875 57.5648C71.875 56.9541 72.1662 56.3684 72.6847 55.9365C73.2031 55.5047 73.9062 55.2621 74.6394 55.2621C75.3582 55.2621 77.4868 54.8845 79.4053 53.512C81.1911 52.2364 82.9327 50.0073 82.9327 46.0513C82.9327 41.5611 82.2416 38.5445 81.1524 36.7208C80.788 36.0417 80.2161 35.4541 79.4937 35.0168C78.8712 34.6853 78.1422 34.5198 77.4038 34.5424C76.9038 34.5422 76.4132 34.429 75.9843 34.2149C75.5554 34.0008 75.2042 33.6938 74.9682 33.3266C74.7321 32.9594 74.6201 32.5458 74.644 32.1297C74.6679 31.7137 74.8268 31.3108 75.1038 30.9641C77.2269 28.3114 77.3817 23.9501 75.8392 20.3486C75.0817 18.5848 74.0257 17.2722 72.9421 16.54C71.9524 15.8768 71.0236 15.711 69.9841 16.0012C69.5688 16.1164 69.1265 16.1478 68.6937 16.0928C68.2609 16.0378 67.85 15.898 67.4948 15.6848C67.1395 15.4717 66.8502 15.1913 66.6505 14.8668C66.4508 14.5423 66.3465 14.1829 66.3461 13.8182C66.3461 11.2023 64.7981 8.9503 62.2272 7.28776C59.4286 5.53939 56.0222 4.59843 52.524 4.60742C51.4424 4.56481 50.3827 4.87168 49.5661 5.46403C48.7854 6.09058 48.1975 6.86465 47.8522 7.72067C47.3258 8.92362 47.0364 10.1895 46.9952 11.4694V52.964H51.1418C54.9567 52.964 58.0529 50.385 58.0529 47.2073V38.7564C56.2084 38.2132 54.6539 37.1443 53.664 35.7387C52.6741 34.3332 52.3126 32.6813 52.6435 31.0752C52.9743 29.4691 53.9761 28.0121 55.4718 26.9617C56.9676 25.9114 58.861 25.3353 60.8173 25.3353C62.7737 25.3353 64.667 25.9114 66.1628 26.9617C67.6585 28.0121 68.6603 29.4691 68.9911 31.0752C69.322 32.6813 68.9605 34.3332 67.9706 35.7387C66.9807 37.1443 65.4262 38.2132 63.5817 38.7564V47.2073C63.5817 49.9555 62.2711 52.5911 59.9382 54.5344C57.6052 56.4777 54.4411 57.5694 51.1418 57.5694H46.9952V57.5648ZM24.8798 23.029C24.8798 23.6397 25.1711 24.2254 25.6895 24.6572C26.2079 25.0891 26.9111 25.3317 27.6442 25.3317C28.3774 25.3317 29.0805 25.0891 29.599 24.6572C30.1174 24.2254 30.4087 23.6397 30.4087 23.029C30.4087 22.4183 30.1174 21.8326 29.599 21.4007C29.0805 20.9689 28.3774 20.7263 27.6442 20.7263C26.9111 20.7263 26.2079 20.9689 25.6895 21.4007C25.1711 21.8326 24.8798 22.4183 24.8798 23.029ZM60.8173 34.5424C61.5505 34.5424 62.2536 34.2998 62.772 33.868C63.2905 33.4362 63.5817 32.8505 63.5817 32.2398C63.5817 31.629 63.2905 31.0433 62.772 30.6115C62.2536 30.1797 61.5505 29.9371 60.8173 29.9371C60.0841 29.9371 59.381 30.1797 58.8626 30.6115C58.3441 31.0433 58.0529 31.629 58.0529 32.2398C58.0529 32.8505 58.3441 33.4362 58.8626 33.868C59.381 34.2998 60.0841 34.5424 60.8173 34.5424ZM27.6442 48.3586C26.9111 48.3586 26.2079 48.6012 25.6895 49.0331C25.1711 49.4649 24.8798 50.0506 24.8798 50.6613C24.8798 51.272 25.1711 51.8577 25.6895 52.2896C26.2079 52.7214 26.9111 52.964 27.6442 52.964C28.3774 52.964 29.0805 52.7214 29.599 52.2896C30.1174 51.8577 30.4087 51.272 30.4087 50.6613C30.4087 50.0506 30.1174 49.4649 29.599 49.0331C29.0805 48.6012 28.3774 48.3586 27.6442 48.3586Z" fill="white"/>
</svg>
