<svg width="75" height="90" viewBox="0 0 75 90" fill="none" xmlns="http://www.w3.org/2000/svg">
<rect x="7.5" y="4.97333" width="60" height="60" rx="30" fill="#4A23F5"/>
<g filter="url(#filter0_d_958_4520)">
<rect width="14" height="28" transform="translate(30.5 20.9733)" fill="white" fill-opacity="0.01"/>
</g>
<g filter="url(#filter1_d_958_4520)">
<rect width="14" height="28" transform="translate(30.1152 21.3293)" fill="white" fill-opacity="0.01"/>
<path d="M35.6816 30.1672L36.3262 29.5226C36.6191 29.259 37.0586 29.259 37.3223 29.5226L43.0352 35.2062C43.2988 35.4992 43.2988 35.9387 43.0352 36.2023L37.3223 41.9152C37.0586 42.1789 36.6191 42.1789 36.3262 41.9152L35.6816 41.2707C35.418 40.9777 35.418 40.5383 35.6816 40.2453L39.2266 36.8762H30.8184C30.4082 36.8762 30.1152 36.5832 30.1152 36.173V35.2355C30.1152 34.8547 30.4082 34.5324 30.8184 34.5324H39.2266L35.6816 31.1926C35.418 30.8996 35.3887 30.4601 35.6816 30.1672Z" fill="white"/>
</g>
<defs>
<filter id="filter0_d_958_4520" x="0.5" y="0.973328" width="74" height="88" filterUnits="userSpaceOnUse" color-interpolation-filters="sRGB">
<feFlood flood-opacity="0" result="BackgroundImageFix"/>
<feColorMatrix in="SourceAlpha" type="matrix" values="0 0 0 0 0 0 0 0 0 0 0 0 0 0 0 0 0 0 127 0" result="hardAlpha"/>
<feOffset dy="10"/>
<feGaussianBlur stdDeviation="15"/>
<feComposite in2="hardAlpha" operator="out"/>
<feColorMatrix type="matrix" values="0 0 0 0 1 0 0 0 0 1 0 0 0 0 1 0 0 0 0.12 0"/>
<feBlend mode="normal" in2="BackgroundImageFix" result="effect1_dropShadow_958_4520"/>
<feBlend mode="normal" in="SourceGraphic" in2="effect1_dropShadow_958_4520" result="shape"/>
</filter>
<filter id="filter1_d_958_4520" x="0.115234" y="1.32928" width="74" height="88" filterUnits="userSpaceOnUse" color-interpolation-filters="sRGB">
<feFlood flood-opacity="0" result="BackgroundImageFix"/>
<feColorMatrix in="SourceAlpha" type="matrix" values="0 0 0 0 0 0 0 0 0 0 0 0 0 0 0 0 0 0 127 0" result="hardAlpha"/>
<feOffset dy="10"/>
<feGaussianBlur stdDeviation="15"/>
<feComposite in2="hardAlpha" operator="out"/>
<feColorMatrix type="matrix" values="0 0 0 0 1 0 0 0 0 1 0 0 0 0 1 0 0 0 0.12 0"/>
<feBlend mode="normal" in2="BackgroundImageFix" result="effect1_dropShadow_958_4520"/>
<feBlend mode="normal" in="SourceGraphic" in2="effect1_dropShadow_958_4520" result="shape"/>
</filter>
</defs>
</svg>
