<svg width="101" height="45" viewBox="0 0 101 45" fill="none" xmlns="http://www.w3.org/2000/svg">
<path d="M39.5697 13.9639H36.5398V4.14569H39.7039C40.6563 4.14569 41.4713 4.34224 42.1489 4.73535C42.8264 5.12527 43.3458 5.68617 43.7069 6.41806C44.0681 7.14675 44.2486 8.01926 44.2486 9.0356C44.2486 10.0583 44.0665 10.9388 43.7021 11.6771C43.3378 12.4122 42.8072 12.9779 42.1105 13.3742C41.4138 13.7673 40.5668 13.9639 39.5697 13.9639ZM37.7288 12.9092H39.493C40.3048 12.9092 40.9775 12.7526 41.5113 12.4394C42.045 12.1262 42.4429 11.6803 42.705 11.1018C42.967 10.5233 43.0981 9.83461 43.0981 9.0356C43.0981 8.24299 42.9686 7.56064 42.7098 6.98855C42.4509 6.41326 42.0642 5.97221 41.5496 5.66539C41.035 5.35538 40.3942 5.20037 39.6272 5.20037H37.7288V12.9092ZM47.4319 4.14569V13.9639H46.243V4.14569H47.4319ZM56.5274 7.21387C56.4219 6.89107 56.2829 6.60183 56.1103 6.34615C55.9409 6.08727 55.738 5.86674 55.5014 5.68457C55.2681 5.5024 55.0029 5.36337 54.7056 5.26749C54.4084 5.17161 54.0824 5.12367 53.7277 5.12367C53.146 5.12367 52.617 5.27388 52.1408 5.57431C51.6646 5.87473 51.2859 6.31738 51.0046 6.90226C50.7234 7.48713 50.5828 8.20463 50.5828 9.05478C50.5828 9.90492 50.725 10.6224 51.0094 11.2073C51.2939 11.7922 51.679 12.2348 52.1648 12.5352C52.6506 12.8357 53.1971 12.9859 53.8044 12.9859C54.3669 12.9859 54.8622 12.866 55.2905 12.6263C55.722 12.3834 56.0576 12.0415 56.2973 11.6004C56.5402 11.1562 56.6616 10.6336 56.6616 10.0328L57.0259 10.1095H54.0728V9.05478H57.8122V10.1095C57.8122 10.9181 57.6396 11.6212 57.2944 12.2188C56.9524 12.8165 56.4794 13.2799 55.8754 13.6091C55.2745 13.9351 54.5842 14.0981 53.8044 14.0981C52.935 14.0981 52.1712 13.8936 51.5128 13.4845C50.8576 13.0754 50.3463 12.4937 49.9787 11.7394C49.6144 10.9852 49.4322 10.0903 49.4322 9.05478C49.4322 8.27814 49.5361 7.57981 49.7438 6.95978C49.9547 6.33656 50.252 5.80602 50.6355 5.36816C51.019 4.93031 51.4729 4.59473 51.997 4.36142C52.5212 4.12811 53.098 4.01145 53.7277 4.01145C54.2454 4.01145 54.728 4.08975 55.1755 4.24636C55.6261 4.39977 56.0272 4.6187 56.3788 4.90314C56.7335 5.18439 57.0291 5.52157 57.2657 5.91468C57.5022 6.3046 57.6652 6.73766 57.7546 7.21387H56.5274ZM61.0374 4.14569V13.9639H59.8484V4.14569H61.0374ZM62.8843 5.20037V4.14569H70.2479V5.20037H67.1605V13.9639H65.9716V5.20037H62.8843ZM71.3385 13.9639H70.0921L73.6972 4.14569H74.9245L78.5296 13.9639H77.2831L74.3492 5.69895H74.2725L71.3385 13.9639ZM71.7988 10.1286H76.8229V11.1833H71.7988V10.1286ZM80.0589 13.9639V4.14569H81.2478V12.9092H85.8117V13.9639H80.0589Z" fill="white"/>
<path d="M36.5398 29.8235V20.0053H42.4652V21.06H37.7287V24.3775H42.1584V25.4322H37.7287V28.7688H42.5419V29.8235H36.5398ZM52.3937 20.0053V29.8235H51.2431L45.893 22.1147H45.7971V29.8235H44.6082V20.0053H45.7587L51.1281 27.7333H51.2239V20.0053H52.3937ZM54.7727 29.8235V20.0053H60.6981V21.06H55.9616V24.3775H60.3913V25.4322H55.9616V28.7688H60.7749V29.8235H54.7727ZM62.8411 29.8235V20.0053H66.1586C66.9256 20.0053 67.5552 20.1363 68.0474 20.3984C68.5396 20.6573 68.9039 21.0136 69.1404 21.4675C69.3769 21.9213 69.4952 22.4375 69.4952 23.016C69.4952 23.5944 69.3769 24.1074 69.1404 24.5548C68.9039 25.0023 68.5412 25.3538 68.0522 25.6095C67.5632 25.862 66.9384 25.9883 66.1777 25.9883H63.4931V24.9144H66.1394C66.6635 24.9144 67.0854 24.8377 67.405 24.6843C67.7278 24.5309 67.9611 24.3135 68.1049 24.0323C68.2519 23.7478 68.3255 23.4091 68.3255 23.016C68.3255 22.6228 68.2519 22.2793 68.1049 21.9852C67.9579 21.6912 67.723 21.4643 67.4002 21.3045C67.0774 21.1415 66.6507 21.06 66.1202 21.06H64.03V29.8235H62.8411ZM67.4625 25.413L69.8787 29.8235H68.498L66.1202 25.413H67.4625ZM78.188 23.0735C78.0825 22.7507 77.9435 22.4614 77.7709 22.2058C77.6015 21.9469 77.3986 21.7264 77.1621 21.5442C76.9288 21.362 76.6635 21.223 76.3662 21.1271C76.069 21.0312 75.743 20.9833 75.3883 20.9833C74.8066 20.9833 74.2776 21.1335 73.8014 21.4339C73.3252 21.7344 72.9465 22.177 72.6653 22.7619C72.384 23.3467 72.2434 24.0643 72.2434 24.9144C72.2434 25.7645 72.3856 26.482 72.67 27.0669C72.9545 27.6518 73.3396 28.0944 73.8254 28.3949C74.3112 28.6953 74.8577 28.8455 75.465 28.8455C76.0275 28.8455 76.5229 28.7257 76.9511 28.486C77.3826 28.2431 77.7182 27.9011 77.9579 27.46C78.2008 27.0158 78.3222 26.4932 78.3222 25.8924L78.6866 25.9691H75.7334V24.9144H79.4728V25.9691C79.4728 26.7777 79.3002 27.4808 78.955 28.0785C78.6131 28.6761 78.14 29.1395 77.536 29.4687C76.9351 29.7947 76.2448 29.9577 75.465 29.9577C74.5957 29.9577 73.8318 29.7532 73.1734 29.3441C72.5182 28.935 72.0069 28.3533 71.6393 27.5991C71.275 26.8448 71.0928 25.9499 71.0928 24.9144C71.0928 24.1378 71.1967 23.4394 71.4044 22.8194C71.6154 22.1962 71.9126 21.6656 72.2961 21.2278C72.6796 20.7899 73.1335 20.4543 73.6576 20.221C74.1818 19.9877 74.7587 19.8711 75.3883 19.8711C75.906 19.8711 76.3886 19.9494 76.8361 20.106C77.2867 20.2594 77.6878 20.4783 78.0394 20.7628C78.3941 21.044 78.6898 21.3812 78.9263 21.7743C79.1628 22.1642 79.3258 22.5973 79.4153 23.0735H78.188ZM80.3621 20.0053H81.7236L84.4466 24.5884H84.5617L87.2847 20.0053H88.6462L85.0986 25.7773V29.8235H83.9097V25.7773L80.3621 20.0053Z" fill="white"/>
<path d="M9.99996 29.5836H4.01935V24.8499H12.2881C12.4455 24.8499 12.5786 24.7168 12.5786 24.6078V21.2664C12.5786 21.1332 12.4455 21.0243 12.2881 21.0243H4.01935V16.2664H9.99996V12.4529H0.290553C0.133169 12.4529 0 12.5861 0 12.695V33.276C0 33.385 0.133169 33.5182 0.290553 33.5182H15.5689V29.5957H9.99996V29.5836Z" fill="white"/>
<path d="M9.9151 28.4456L15.5688 33.5061V28.4456H9.9151Z" fill="#4552A4"/>
<path d="M20.472 6.18178H9.9151V28.4456H20.472C26.6342 28.4456 31.6099 23.4456 31.6099 17.2713C31.6099 11.097 27.2879 6.16968 20.472 6.16968V6.18178ZM26.7673 16.6539C26.4647 17.005 26.162 17.3561 25.8714 17.7072C23.8375 20.0679 21.8037 22.4408 19.7819 24.8016C19.7577 24.8379 19.7214 24.8742 19.6971 24.9105C19.6003 25.0074 19.4792 25.0437 19.3339 25.0074C19.1887 24.971 19.116 24.8742 19.1281 24.7531C19.1523 24.4384 19.1887 24.1236 19.2129 23.8088C19.2734 23.2156 19.3339 22.6224 19.3945 22.0292C19.4792 21.1333 19.5761 20.2495 19.6608 19.3536C19.6729 19.1963 19.685 19.0268 19.7092 18.8694C19.7335 18.7362 19.685 18.6999 19.5155 18.6999C18.7407 18.6999 17.9538 18.6999 17.179 18.6999C16.4042 18.6999 15.6415 18.6999 14.8666 18.6999C14.7093 18.6999 14.564 18.6878 14.4914 18.5546C14.4187 18.4335 14.4913 18.3367 14.564 18.2398C16.9248 15.4917 19.2734 12.7556 21.6342 10.0074C21.731 9.88637 21.8521 9.82583 22.0337 9.87426C22.2032 9.92269 22.2516 10.0438 22.2395 10.1769C22.1669 10.9033 22.0942 11.6176 22.0216 12.344C21.9611 12.9251 21.9126 13.4941 21.8521 14.0752C21.7916 14.6805 21.731 15.2859 21.6705 15.9033C21.6705 15.9275 21.6705 15.9517 21.6705 15.988C21.6624 16.1172 21.7391 16.1817 21.9005 16.1817C23.3896 16.1817 24.8787 16.1817 26.3799 16.1817C26.4162 16.1817 26.4526 16.1817 26.501 16.1817C26.6584 16.1817 26.8158 16.1817 26.9005 16.327C26.9852 16.4602 26.9005 16.5691 26.8036 16.6781L26.7673 16.6539Z" fill="white"/>
<path opacity="0.1" d="M49.6245 44.293C77.0313 44.293 99.249 43.6372 99.249 42.8282C99.249 42.0191 77.0313 41.3633 49.6245 41.3633C22.2176 41.3633 0 42.0191 0 42.8282C0 43.6372 22.2176 44.293 49.6245 44.293Z" fill="white"/>
</svg>
