<svg width="25" height="24" viewBox="0 0 25 24" fill="none" xmlns="http://www.w3.org/2000/svg">
<path d="M12.7822 1.5C6.9852 1.5 2.28223 6.20297 2.28223 12C2.28223 17.797 6.9852 22.5 12.7822 22.5C18.5793 22.5 23.2822 17.8022 23.2822 12C23.2822 6.19781 18.5793 1.5 12.7822 1.5ZM19.4488 6.33984C20.6637 7.76805 21.3868 9.54925 21.5113 11.4202C19.6189 11.3217 17.3549 11.3217 15.5394 11.4914C15.3097 10.9116 15.0744 10.343 14.8175 9.79594C16.911 8.88844 18.5244 7.69594 19.4488 6.33984ZM12.7822 3.24984C14.8217 3.24634 16.7978 3.95866 18.366 5.26266C17.4144 6.46547 15.9214 7.51266 14.0619 8.30297C13.0447 6.42188 11.8743 4.80328 10.626 3.52875C11.3304 3.3469 12.0547 3.25322 12.7822 3.24984ZM8.8227 4.20703C10.086 5.46469 11.2729 7.06641 12.3121 8.94141C10.3377 9.54469 8.07363 9.89062 5.65723 9.89062C5.19785 9.89062 4.74973 9.87422 4.30676 9.84656C4.61489 8.63935 5.17712 7.5118 5.95589 6.53927C6.73467 5.56673 7.71204 4.77161 8.8227 4.20703ZM4.04848 11.5842C4.54629 11.6062 5.04926 11.617 5.55785 11.6119C8.3141 11.5791 10.8791 11.1469 13.0832 10.44C13.291 10.8722 13.4879 11.3152 13.6738 11.7689C13.4075 11.8272 13.1459 11.9056 12.8914 12.0033C9.87832 13.2689 7.50504 15.3084 6.21973 17.775C4.81036 16.1814 4.0323 14.1274 4.03207 12C4.03207 11.8594 4.0377 11.7211 4.04848 11.5842ZM12.7822 20.7502C10.8382 20.7525 8.94947 20.1036 7.41738 18.907C8.58223 16.5994 10.6602 14.6883 13.28 13.5037C13.5261 13.3889 13.8543 13.2961 14.2316 13.2141C14.5441 14.0778 14.823 14.9747 15.0683 15.9047C15.4347 17.3083 15.7046 18.7354 15.876 20.1759C14.8884 20.5543 13.8399 20.7489 12.7822 20.7502ZM17.5129 19.3556C17.3417 17.9001 17.0694 16.4584 16.6977 15.0408C16.5102 14.3297 16.2988 13.6406 16.0691 12.968C17.7861 12.8273 19.8425 12.8475 21.4775 12.968C21.3335 14.2606 20.9028 15.5047 20.2169 16.6097C19.531 17.7148 18.6072 18.6529 17.5129 19.3556Z" fill="white"/>
</svg>
