<svg width="383" height="607" viewBox="0 0 383 607" fill="none" xmlns="http://www.w3.org/2000/svg">
<path d="M144.25 516.934C142.65 516.819 140.965 516.619 139.252 516.334C109.58 511.534 66.7701 482.795 77.5082 428.174C77.9365 425.945 78.4792 423.746 79.1075 421.517C79.3645 420.403 79.5929 419.603 79.7072 419.26C79.7357 419.118 79.7643 419.032 79.7643 419.032C92.273 376.837 131.712 334.843 131.712 334.843C139.138 343.042 137.995 358.183 134.683 371.952C134.683 371.952 134.683 371.981 134.654 371.981C133.055 378.723 130.913 385.122 128.999 390.207C126.515 396.863 124.43 401.291 124.43 401.291C115.663 422.774 117.519 449.485 117.519 449.485L143.479 515.105L144.25 516.934Z" fill="url(#paint0_linear_958_5995)"/>
<path d="M131.712 334.814C131.712 334.814 111.207 369.695 117.519 408.719C117.519 408.719 127.943 391.807 133.34 372.838C138.738 353.897 138.195 339.814 131.712 334.814Z" fill="url(#paint1_linear_958_5995)"/>
<path d="M243.662 511.277L264.767 446.485C264.767 446.485 269.337 428.574 267.138 410.49C266.538 405.405 265.396 400.349 263.482 395.635C263.482 395.635 256.999 381.865 253.258 366.324C253.23 366.324 253.23 366.324 253.23 366.324C249.917 352.555 248.774 337.414 256.2 329.215C256.2 329.215 294.954 370.524 307.777 412.347C308.862 415.747 309.747 419.146 310.404 422.546C321.77 480.31 273.192 509.135 243.662 511.306V511.277Z" fill="url(#paint2_linear_958_5995)"/>
<path d="M256.2 329.186C256.2 329.186 277.876 366.124 268.737 405.919C268.737 405.919 259.969 386.15 254.572 367.21C249.174 348.27 249.717 334.186 256.2 329.186Z" fill="url(#paint3_linear_958_5995)"/>
<path style="mix-blend-mode:multiply" opacity="0.3" d="M243.662 511.277L264.767 446.486C264.767 446.486 269.337 428.574 267.138 410.49L270.393 403.091C270.393 403.091 271.736 447.6 285.615 459.512C302.779 474.196 312.66 440.029 307.777 412.319C308.862 415.718 309.747 419.118 310.404 422.517C321.77 480.281 273.192 509.106 243.662 511.277Z" fill="url(#paint4_linear_958_5995)"/>
<path style="mix-blend-mode:multiply" opacity="0.3" d="M143.479 515.105L139.252 516.334C109.58 511.534 66.7701 482.795 77.5082 428.174C77.9365 425.945 78.4792 423.746 79.1075 421.517C77.8509 427.174 76.3944 455.913 86.6755 466.769C99.841 480.681 114.32 431.945 117.519 397.12C118.518 386.122 123.145 385.665 128.999 390.207C126.515 396.863 124.43 401.291 124.43 401.291C115.663 422.774 117.519 449.485 117.519 449.485L143.479 515.105Z" fill="url(#paint5_linear_958_5995)"/>
<path d="M277.99 502.193C277.904 504.05 277.761 505.964 277.619 507.963C275.477 538.274 269.908 582.954 261.94 599.552C260.055 603.551 257.999 605.922 255.828 606.094C255.257 606.151 254.686 606.094 254.086 605.951C252.03 605.494 249.774 603.98 247.461 601.666C232.896 587.21 214.618 541.788 213.219 527.989C213.048 526.275 213.133 525.047 213.505 524.418C220.587 513.391 274.534 473.939 277.904 478.024C278.79 479.11 278.79 488.737 278.018 502.193H277.99Z" fill="url(#paint6_linear_958_5995)"/>
<path d="M213.162 527.961C211.705 532.275 270.593 518.876 277.847 478.024C277.847 478.024 274.363 476.396 268.994 478.024C253.772 482.709 223.243 497.85 213.133 527.961H213.162Z" fill="url(#paint7_linear_958_5995)"/>
<path style="mix-blend-mode:multiply" opacity="0.3" d="M277.99 502.193C277.99 502.193 246.061 513.877 239.493 529.789C232.953 545.673 238.065 582.182 247.432 601.637C232.867 587.21 214.59 541.788 213.19 527.961C213.019 526.247 213.105 525.018 213.476 524.39C220.558 513.363 274.506 473.911 277.876 477.996C278.761 479.081 278.761 488.709 277.99 502.164V502.193Z" fill="url(#paint8_linear_958_5995)"/>
<path d="M244.519 577.383C246.975 578.012 249.346 587.267 245.347 588.553C241.349 589.839 238.807 575.926 244.519 577.383Z" fill="white"/>
<path d="M109.979 502.193C110.065 504.05 110.208 505.964 110.351 507.963C112.493 538.274 118.061 582.954 126.029 599.552C127.914 603.551 129.97 605.922 132.141 606.094C132.712 606.151 133.283 606.094 133.883 605.951C135.939 605.494 138.195 603.98 140.509 601.666C155.073 587.21 173.351 541.788 174.75 527.989C174.922 526.275 174.836 525.047 174.465 524.418C167.382 513.391 113.435 473.939 110.065 478.024C109.18 479.11 109.18 488.737 109.951 502.193H109.979Z" fill="url(#paint9_linear_958_5995)"/>
<path d="M174.779 527.961C176.235 532.275 117.347 518.876 110.094 478.024C110.094 478.024 112.435 476.31 117.947 478.024C133.255 482.767 164.783 498.05 174.807 527.961H174.779Z" fill="url(#paint10_linear_958_5995)"/>
<path style="mix-blend-mode:multiply" opacity="0.3" d="M109.979 502.193C109.979 502.193 141.908 513.877 148.476 529.789C155.016 545.673 149.904 582.182 140.537 601.637C155.102 587.21 173.38 541.788 174.779 527.961C174.95 526.247 174.865 525.018 174.493 524.39C167.411 513.363 113.464 473.911 110.094 477.996C109.208 479.081 109.208 488.709 109.979 502.164V502.193Z" fill="url(#paint11_linear_958_5995)"/>
<path d="M146.534 559.328C144.078 559.957 138.595 587.267 142.593 588.553C146.592 589.839 152.246 557.9 146.534 559.328Z" fill="white"/>
<path d="M123.659 119.899C123.659 119.899 105.81 104.472 83.9339 101.816C83.9339 101.816 77.2511 105.101 69.5117 129.183C61.7724 153.266 76.0517 200.889 76.0517 200.889L123.659 119.928V119.899Z" fill="url(#paint12_linear_958_5995)"/>
<path d="M75.452 113.843C75.452 113.843 78.9647 105.701 83.9339 101.844C83.9339 101.844 101.926 118.442 101.212 158.123L96.0142 163.493L75.452 113.871V113.843Z" fill="url(#paint13_linear_958_5995)"/>
<path d="M271.479 119.899C271.479 119.899 289.328 104.472 311.204 101.816C311.204 101.816 317.886 105.101 325.626 129.183C333.365 153.266 319.086 200.889 319.086 200.889L271.479 119.928V119.899Z" fill="url(#paint14_linear_958_5995)"/>
<path d="M311.204 101.816C311.204 101.816 293.526 120.785 293.526 151.352L300.351 155.666L320.285 114.414C320.285 114.414 313.66 101.473 311.204 101.816Z" fill="url(#paint15_linear_958_5995)"/>
<path d="M299.694 153.58C299.694 153.58 294.982 127.469 312.175 108.3C312.175 108.3 331.566 117.442 339.619 151.352C347.673 185.262 326.74 205.631 326.74 205.631L299.694 153.58Z" fill="url(#paint16_linear_958_5995)"/>
<path d="M95.443 153.58C95.443 153.58 100.155 127.469 82.9629 108.3C82.9629 108.3 63.5716 117.442 55.518 151.352C47.4645 185.262 68.398 205.631 68.398 205.631L95.443 153.58Z" fill="url(#paint17_linear_958_5995)"/>
<path d="M323.541 297.876C283.673 353.783 96.3566 349.641 71.9675 304.418C56.0604 274.879 57.8024 230.485 73.1099 189.633C93.2152 136.011 136.739 88.4458 194.484 88.4458C262.425 88.4458 314.63 156.151 330.338 218.001C338.305 249.311 336.935 279.078 323.541 297.876Z" fill="url(#paint18_linear_958_5995)"/>
<path d="M85.933 245.997C94.8433 284.078 259.512 288.22 299.951 253.71C340.391 219.2 282.159 96.6162 192.942 101.958C111.35 106.843 71.311 183.605 85.933 245.997Z" fill="#DFE3FB"/>
<path d="M85.0763 241.398C93.9865 279.478 258.656 283.621 299.095 249.111C339.534 214.601 281.303 92.0168 192.086 97.359C110.493 102.244 70.4542 179.006 85.0763 241.398Z" fill="url(#paint19_linear_958_5995)"/>
<path style="mix-blend-mode:multiply" opacity="0.3" d="M323.541 297.876C283.673 353.783 96.3569 349.641 71.9678 304.418C56.0607 274.879 57.8027 230.485 73.1102 189.633C72.4533 192.033 56.7461 249.311 72.7675 274.508C89.1601 300.276 153.988 296.705 223.586 293.734C293.183 290.734 316.201 280.65 327.882 260.995C337.078 245.54 327.825 211.459 323.484 197.632L330.309 218.001C338.277 249.311 336.906 279.078 323.512 297.876H323.541Z" fill="url(#paint20_linear_958_5995)"/>
<path d="M271.421 327.815C249.974 334.386 216.475 339.071 194.684 339.042C155.759 338.985 127.686 334.614 111.978 328.329C101.669 324.216 96.6711 319.273 97.4136 314.217C97.8705 311.132 105.496 308.418 117.547 306.218C152.903 299.819 226.099 297.876 265.538 303.847C268.908 304.361 272.078 304.932 274.934 305.561C275.534 305.704 276.134 305.847 276.676 305.989C276.819 306.018 276.905 306.046 277.019 306.075C283.816 307.732 288.642 309.789 290.784 312.274C291.327 312.931 291.698 313.56 291.898 314.217C293.297 319.016 284.644 323.758 271.45 327.815H271.421Z" fill="url(#paint21_linear_958_5995)"/>
<path style="mix-blend-mode:multiply" opacity="0.5" d="M271.421 327.815C262.825 324.016 208.135 301.19 163.841 311.103C115.663 321.93 111.978 328.329 111.978 328.329C101.669 324.216 96.6711 319.273 97.4136 314.217C97.8705 311.132 105.496 308.418 117.547 306.218C152.903 299.819 226.099 297.876 265.538 303.847C269.651 304.59 273.392 305.304 276.676 305.989C276.819 306.018 276.905 306.046 277.019 306.075C283.816 307.732 288.642 309.789 290.784 312.274C291.327 312.931 291.698 313.56 291.898 314.217C293.297 319.016 284.644 323.758 271.45 327.815H271.421Z" fill="url(#paint22_linear_958_5995)"/>
<path d="M274.906 305.561C265.71 314.36 221.558 321.987 196.398 321.959C151.304 321.902 123.887 314.788 117.519 306.218C155.93 299.276 238.979 297.562 274.906 305.589V305.561Z" fill="url(#paint23_linear_958_5995)"/>
<path style="mix-blend-mode:multiply" opacity="0.5" d="M71.9678 304.418C71.9678 304.418 79.8786 295.191 95.3859 287.734C110.893 280.307 125.173 274.479 127.372 268.508C129.571 262.538 84.7906 266.052 84.7906 266.052L62.5149 275.736C62.5149 275.736 65.9991 293.705 71.9392 304.418H71.9678Z" fill="url(#paint24_linear_958_5995)"/>
<path d="M229.754 184.919C235.695 195.404 271.621 197.746 279.189 184.919C283.673 177.292 267.052 140.211 246.233 142.582C225.413 144.953 226.87 179.834 229.754 184.919Z" fill="url(#paint25_linear_958_5995)"/>
<path d="M165.183 184.491C159.243 194.975 117.519 197.946 115.891 186.747C113.264 168.807 126.372 140.182 147.191 142.582C168.011 144.953 168.068 179.406 165.183 184.491Z" fill="url(#paint26_linear_958_5995)"/>
<path d="M169.524 205.059C169.524 205.059 177.178 207.116 198.825 207.116C220.473 207.116 231.611 203.831 231.611 203.831C231.611 203.831 222.072 216.772 198.825 216.772C175.579 216.772 169.524 205.031 169.524 205.031V205.059Z" fill="#2F95CD"/>
<path d="M53.6903 163.465C53.6903 163.465 65.2565 170.892 57.6599 188.119C57.6599 188.119 3.68409 217.515 6.82554 249.568C9.42437 276.307 83.991 263.366 83.991 263.366L86.6755 272.279C86.6755 272.279 23.3324 284.678 1.48507 269.765C1.48507 269.765 -5.94018 252.11 12.4801 220.286C30.929 188.462 53.6903 163.465 53.6903 163.465Z" fill="url(#paint27_linear_958_5995)"/>
<path d="M74.5667 260.881C67.7697 268.566 82.1918 276.993 94.0436 278.279C107.352 279.736 130.97 274.451 129.542 261.052C128.114 247.654 90.5024 242.855 74.5667 260.881Z" fill="#5A39EB"/>
<path style="mix-blend-mode:screen" opacity="0.5" d="M112.121 145.096C110.065 157.437 137.51 156.894 174.865 155.666C219.759 154.18 264.881 192.861 291.155 165.093C295.496 160.522 252.487 100.473 200.596 101.816C148.705 103.158 113.92 134.383 112.121 145.096Z" fill="url(#paint28_linear_958_5995)"/>
<path style="mix-blend-mode:screen" opacity="0.5" d="M137.567 252.539C135.197 261.481 153.903 270.422 199.853 268.166C255.429 265.452 267.223 253.796 264.51 250.568C262.882 248.625 246.233 259.11 200.567 249.111C170.409 242.512 140.052 243.14 137.567 252.539Z" fill="url(#paint29_linear_958_5995)"/>
<path d="M226.27 96.3019C222.329 97.2161 255.429 114.757 256.771 112.671C258.113 110.586 237.18 93.7594 226.27 96.3019Z" fill="white"/>
<path d="M289.727 109.415C286.415 111.186 286.7 114.757 293.526 113.871C300.351 112.986 304.064 107.615 303.321 106.586C302.579 105.558 293.412 107.415 289.727 109.415Z" fill="white"/>
<path d="M75.4805 262.281C75.0807 264.48 122.574 264.995 123.688 256.596C124.801 248.197 78.622 245.311 75.4805 262.281Z" fill="#5A39EB"/>
<path style="mix-blend-mode:screen" opacity="0.2" d="M87.1324 228.828C87.1324 228.828 85.1904 215.858 87.4751 198.46C89.7598 181.062 94.4149 169.835 97.2136 171.407C100.012 172.978 99.5554 190.033 101.212 206.802C102.497 219.857 105.01 232.142 105.01 232.142C105.01 232.142 92.9869 243.626 87.1324 228.828Z" fill="url(#paint30_linear_958_5995)"/>
<path style="mix-blend-mode:screen" opacity="0.72" d="M326.968 123.641C326.968 123.641 320.685 115.842 312.089 117.928C303.521 120.013 302.95 147.038 308.062 147.695C313.203 148.352 315.373 132.754 319.286 130.298C323.227 127.841 330.081 128.783 330.081 128.783L326.939 123.641H326.968Z" fill="url(#paint31_linear_958_5995)"/>
<path style="mix-blend-mode:screen" opacity="0.72" d="M61.9723 133.04C61.9723 133.04 65.2851 129.298 72.7103 130.498C80.1356 131.726 84.4194 146.981 88.2462 145.439C92.0445 143.896 89.2744 119.185 79.1931 111.9C79.1931 111.9 66.2275 122.956 61.9723 133.012V133.04Z" fill="url(#paint32_linear_958_5995)"/>
<path d="M51.8625 169.035C51.8625 169.035 25.56 198.575 27.1593 200.689C28.7586 202.803 53.4333 172.092 51.8625 169.035Z" fill="url(#paint33_linear_958_5995)"/>
<path d="M270.108 471.197C264.682 503.307 235.923 524.733 194.713 524.733C158.843 524.733 128.428 511.363 120.403 481.881C112.378 452.456 115.491 398.006 126.201 364.096C127.8 359.04 129.742 354.155 131.97 349.527V349.469C134.026 345.27 136.282 341.271 138.766 337.528V337.471C151.846 317.759 171.009 304.875 192.685 304.875C214.361 304.875 232.496 314.16 244.234 327.872C249.688 334.243 253.972 341.613 257.028 349.412C260.569 358.411 263.539 367.953 265.881 377.78C265.881 377.837 265.881 377.952 265.938 378.066C273.363 408.862 274.934 442.486 270.079 471.168L270.108 471.197Z" fill="url(#paint34_linear_958_5995)"/>
<path d="M121.945 452.142C128.086 409.033 162.641 379.808 201.053 383.437C242.434 387.35 264.682 426.86 264.11 460.769C263.511 494.679 238.75 521.162 194.313 521.162C149.876 521.162 116.205 492.451 121.945 452.142Z" fill="url(#paint35_linear_958_5995)"/>
<path d="M122.345 455.713C128.485 412.604 163.041 383.379 201.453 387.008C242.834 390.921 265.081 430.43 264.51 464.34C263.91 498.25 239.15 524.733 194.713 524.733C150.276 524.733 116.605 496.022 122.345 455.713Z" fill="#121495"/>
<path style="mix-blend-mode:multiply" opacity="0.5" d="M244.262 327.901C235.495 341.67 187.145 349.698 159.214 347.155C134.883 344.927 138.595 338.357 138.766 337.528V337.471C151.846 317.759 171.009 304.875 192.685 304.875C214.361 304.875 232.496 314.16 244.234 327.872L244.262 327.901Z" fill="url(#paint36_linear_958_5995)"/>
<path d="M227.098 351.783C224.842 352.526 224.757 370.638 227.098 373.581C229.44 376.495 233.238 375.609 234.495 371.324C235.752 367.067 230.497 350.669 227.098 351.783Z" fill="white"/>
<path d="M231.239 378.38C229.354 378.837 229.155 383.322 230.011 384.893C230.868 386.465 234.124 386.122 234.666 384.208C235.18 382.294 233.124 377.923 231.239 378.38Z" fill="white"/>
<g style="mix-blend-mode:screen" opacity="0.3">
<path d="M137.024 428.345C144.335 440.001 174.351 433.801 208.193 437.087C242.035 440.401 247.803 451.399 254.943 449.171C262.083 446.943 250.802 395.978 200.253 392.521C149.704 389.064 135.225 425.431 137.053 428.316L137.024 428.345Z" fill="white"/>
</g>
<path d="M95.2431 399.463C91.3877 398.349 85.419 415.432 85.7331 417.604C86.0473 419.775 93.0441 413.147 94.7005 410.29C96.9281 406.491 99.0414 400.549 95.2431 399.463Z" fill="white"/>
<path d="M275.819 389.664C273.963 389.664 273.592 399.149 274.134 403.063C274.677 406.976 277.933 410.547 279.018 410.662C280.103 410.776 280.075 389.693 275.819 389.664Z" fill="white"/>
<g opacity="0.38">
<path d="M15.1075 13.5126C8.39626 19.3975 10.5382 271.022 22.0473 277.564C33.5564 284.106 367.493 284.278 378.031 271.708C388.597 259.138 379.944 22.5114 373.233 12.1985C366.522 1.88549 26.6452 3.42815 15.1075 13.5126Z" fill="#5A39EB"/>
<path d="M15.1075 8.34192C8.39626 14.2269 10.5382 265.852 22.0473 272.394C33.5564 278.936 367.493 279.107 378.031 266.537C388.597 253.968 379.944 17.3408 373.233 7.0278C366.522 -3.28516 26.6452 -1.7425 15.1075 8.34192Z" fill="#5A39EB"/>
</g>
<path opacity="0.5" d="M185.403 129.441C175.664 131.612 179.748 192.318 185.403 192.947C191.057 193.575 224.271 171.778 225.87 161.036C227.47 150.295 194.57 127.384 185.403 129.441Z" fill="white"/>
<path d="M165.84 65.6773C165.84 68.5055 165.64 70.9052 165.269 72.8764C164.869 74.8475 164.355 76.4473 163.698 77.6757C163.041 78.9042 162.242 79.7897 161.356 80.3611C160.442 80.9039 159.5 81.1896 158.472 81.1896C157.444 81.1896 156.473 80.9325 155.588 80.3897C154.674 79.8755 153.903 78.9899 153.217 77.79C152.532 76.5902 152.018 74.9904 151.618 72.9906C151.218 71.0194 151.047 68.5626 151.047 65.6487C151.047 62.7348 151.247 60.2494 151.618 58.2211C151.989 56.1928 152.532 54.5358 153.217 53.2503C153.903 51.9647 154.674 51.0506 155.588 50.4792C156.501 49.9079 157.444 49.6222 158.472 49.6222C159.5 49.6222 160.471 49.9079 161.356 50.4507C162.27 50.9934 163.041 51.9076 163.698 53.1932C164.355 54.4501 164.898 56.1071 165.269 58.1354C165.64 60.1637 165.84 62.6777 165.84 65.6201V65.6773ZM161.128 65.6773C161.128 63.4776 161.071 61.5921 160.928 60.078C160.785 58.5639 160.585 57.3355 160.357 56.3642C160.1 55.4214 159.814 54.7358 159.5 54.3073C159.186 53.8788 158.843 53.6788 158.472 53.6788C158.101 53.6788 157.729 53.9074 157.415 54.3359C157.073 54.7644 156.787 55.45 156.559 56.3927C156.301 57.3355 156.13 58.5925 155.987 60.1066C155.845 61.6207 155.787 63.4776 155.787 65.6773C155.787 67.877 155.845 69.6768 155.987 71.1337C156.13 72.6192 156.33 73.7905 156.559 74.6761C156.816 75.5617 157.101 76.2188 157.415 76.5902C157.758 76.9615 158.101 77.1615 158.472 77.1615C158.843 77.1615 159.186 76.9615 159.5 76.5616C159.814 76.1616 160.1 75.5046 160.357 74.5904C160.614 73.6763 160.785 72.505 160.928 71.0194C161.071 69.5625 161.128 67.7627 161.128 65.6487V65.6773Z" fill="white"/>
<path d="M183.404 49.9935C183.232 52.8218 183.089 55.6214 182.975 58.421C182.89 61.1921 182.832 63.9917 182.832 66.7914C182.832 68.9625 182.861 71.1337 182.918 73.2477C182.975 75.3617 183.089 77.5043 183.232 79.6754L178.977 79.5612C178.406 77.7328 177.863 75.9045 177.321 74.1047C176.778 72.305 176.235 70.5052 175.693 68.7054C175.15 66.9057 174.608 65.1345 174.065 63.3633C173.522 61.5921 172.923 59.8209 172.351 58.0497C172.38 61.7349 172.466 65.3916 172.551 69.0482C172.637 72.7049 172.808 76.333 173.037 79.9897L168.153 79.9326C168.325 75.4474 168.41 70.9337 168.41 66.3914C168.41 63.5918 168.41 60.8493 168.325 58.1068C168.268 55.3643 168.182 52.6218 168.068 49.8793L173.979 49.9935C174.693 53.0789 175.464 56.2499 176.293 59.4495C177.121 62.6491 177.977 65.7915 178.891 68.9054C178.777 65.7344 178.634 62.5348 178.463 59.3352C178.263 56.1356 178.063 53.0217 177.835 49.9364L183.375 49.9935H183.404Z" fill="white"/>
<path d="M197.112 80.504C196.312 80.504 195.57 80.4468 194.827 80.4468C194.085 80.4468 193.342 80.4468 192.628 80.4468C191.543 80.4468 190.458 80.4468 189.372 80.504C188.287 80.5325 187.202 80.5897 186.06 80.6754C186.174 78.0471 186.288 75.4475 186.374 72.9049C186.459 70.3338 186.488 67.7342 186.488 65.1059C186.488 62.4777 186.459 60.1066 186.402 57.6497C186.345 55.1643 186.231 52.6789 186.088 50.1936C186.231 50.1936 186.402 50.1936 186.574 50.1936C186.716 50.1936 186.916 50.1936 187.145 50.1936H187.916C188.373 50.1936 188.858 50.1936 189.372 50.165C189.886 50.165 190.429 50.1079 190.972 50.0793C190.8 52.1076 190.658 54.2502 190.572 56.4785C190.486 58.7067 190.458 60.9922 190.429 63.2776C190.429 65.563 190.4 67.8484 190.4 70.1339C190.4 72.4193 190.372 74.5904 190.315 76.7044C191.457 76.7044 192.599 76.6187 193.685 76.533C194.77 76.4473 195.941 76.3045 197.169 76.1331V80.5611L197.112 80.504Z" fill="white"/>
<path d="M207.193 80.1611C206.622 80.1611 206.079 80.104 205.508 80.104C204.937 80.104 204.394 80.104 203.823 80.104C202.881 80.104 201.967 80.104 201.024 80.1611C200.082 80.1897 199.168 80.2469 198.226 80.3326V75.7903C198.597 75.8188 198.911 75.876 199.254 75.876C199.596 75.876 199.911 75.9331 200.225 75.9617C200.31 73.7905 200.396 71.6194 200.453 69.4482C200.539 67.2771 200.567 65.1345 200.567 62.9634C200.567 61.5064 200.567 60.078 200.51 58.6782C200.482 57.2498 200.425 55.85 200.396 54.393C200.025 54.393 199.653 54.393 199.282 54.393C198.911 54.393 198.511 54.4216 198.111 54.4502V50.0222C199.225 50.0793 200.31 50.1364 201.396 50.1936C202.481 50.2221 203.566 50.2507 204.68 50.2507H205.851C206.251 50.2507 206.65 50.2507 207.05 50.2221L206.936 54.4216C206.622 54.4216 206.279 54.4216 205.965 54.4216C205.651 54.4216 205.337 54.4216 204.994 54.4216C204.794 56.9641 204.651 59.4781 204.566 61.9635C204.48 64.4774 204.451 66.9914 204.451 69.5054C204.451 71.7051 204.48 73.9334 204.566 76.1045C205.023 76.1045 205.479 76.1045 205.936 76.1045C206.393 76.1045 206.879 76.076 207.364 76.0474L207.164 80.2468L207.193 80.1611Z" fill="white"/>
<path d="M224.642 49.9935C224.471 52.8218 224.328 55.6214 224.214 58.421C224.128 61.1921 224.071 63.9917 224.071 66.7914C224.071 68.9625 224.1 71.1337 224.157 73.2477C224.214 75.3617 224.328 77.5043 224.471 79.6754L220.216 79.5612C219.645 77.7328 219.102 75.9045 218.559 74.1047C218.017 72.305 217.474 70.5052 216.931 68.7054C216.389 66.9057 215.846 65.1345 215.304 63.3633C214.761 61.5921 214.161 59.8209 213.59 58.0497C213.619 61.7349 213.704 65.3916 213.79 69.0482C213.876 72.7049 214.047 76.333 214.276 79.9897L209.392 79.9326C209.563 75.4474 209.649 70.9337 209.649 66.3914C209.649 63.5918 209.649 60.8493 209.563 58.1068C209.506 55.3643 209.421 52.6218 209.306 49.8793L215.218 49.9935C215.932 53.0789 216.703 56.2499 217.531 59.4495C218.359 62.6491 219.216 65.7915 220.13 68.9054C220.016 65.7344 219.873 62.5348 219.702 59.3352C219.502 56.1356 219.302 53.0217 219.073 49.9364L224.614 49.9935H224.642Z" fill="white"/>
<path d="M235.866 69.1625C235.437 69.1625 234.981 69.1054 234.524 69.1054C234.067 69.1054 233.61 69.1054 233.181 69.1054C232.924 69.1054 232.667 69.1054 232.382 69.1054C232.096 69.1054 231.839 69.1054 231.554 69.1054L231.468 76.6473C232.61 76.6473 233.753 76.5616 234.838 76.4759C235.923 76.3902 237.094 76.2473 238.322 76.0759V80.5039C237.522 80.5039 236.78 80.4468 236.037 80.4468C235.295 80.4468 234.552 80.4468 233.838 80.4468C232.753 80.4468 231.668 80.4468 230.583 80.5039C229.497 80.5325 228.412 80.5896 227.27 80.6754C227.384 78.0471 227.498 75.4475 227.584 72.9049C227.67 70.3338 227.698 67.7342 227.698 65.1059C227.698 62.4777 227.67 60.1066 227.612 57.6497C227.555 55.1643 227.441 52.6789 227.298 50.1935C228.955 50.3078 230.554 50.3935 232.039 50.3935C233.01 50.3935 233.952 50.3935 234.895 50.3078C235.837 50.2507 236.865 50.1936 237.951 50.1078V54.9644C237.065 54.8215 236.209 54.6787 235.352 54.593C234.495 54.5073 233.638 54.4787 232.81 54.4787H231.982C231.839 56.2499 231.753 57.9925 231.696 59.7352C231.639 61.4778 231.611 63.249 231.582 64.9917C231.953 65.0202 232.325 65.0488 232.696 65.0488H234.838C235.18 65.0488 235.523 65.0488 235.866 64.9917V69.2197V69.1625Z" fill="white"/>
<g opacity="0.5">
<path d="M200.567 208.316C170.181 208.316 149.762 190.833 149.762 164.807C149.762 136.782 172.551 113.985 200.567 113.985C228.583 113.985 251.373 136.782 251.373 164.807C251.373 190.833 230.954 208.316 200.567 208.316ZM200.567 116.842C174.122 116.842 152.617 138.354 152.617 164.807C152.617 192.89 176.692 205.459 200.567 205.459C224.442 205.459 248.517 192.89 248.517 164.807C248.517 138.354 227.013 116.842 200.567 116.842Z" fill="white"/>
</g>
<g style="mix-blend-mode:soft-light">
<path d="M378.587 34.4768L15.389 37.3303L15.4002 38.7587L378.598 35.9051L378.587 34.4768Z" fill="white"/>
<path d="M378.596 61.1011L15.3981 63.9547L15.4093 65.383L378.607 62.5295L378.596 61.1011Z" fill="white"/>
<path d="M378.605 87.7255L15.4073 90.579L15.4185 92.0073L378.616 89.1538L378.605 87.7255Z" fill="white"/>
<path d="M378.586 114.378L15.3881 117.232L15.3993 118.66L378.597 115.807L378.586 114.378Z" fill="white"/>
<path d="M378.595 141.003L15.3972 143.856L15.4084 145.285L378.606 142.431L378.595 141.003Z" fill="white"/>
<path d="M378.604 167.627L15.4063 170.481L15.4175 171.909L378.615 169.055L378.604 167.627Z" fill="white"/>
<path d="M378.613 194.251L15.4155 197.105L15.4267 198.533L378.624 195.68L378.613 194.251Z" fill="white"/>
<path d="M378.594 220.876L15.3961 223.729L15.4073 225.158L378.605 222.304L378.594 220.876Z" fill="white"/>
<path d="M378.603 247.5L15.4052 250.354L15.4164 251.782L378.614 248.928L378.603 247.5Z" fill="white"/>
</g>
<defs>
<linearGradient id="paint0_linear_958_5995" x1="105.81" y1="512.163" x2="128.128" y2="334.387" gradientUnits="userSpaceOnUse">
<stop stop-color="#CBC1F7"/>
<stop offset="1" stop-color="#E8DCF7"/>
</linearGradient>
<linearGradient id="paint1_linear_958_5995" x1="135.254" y1="372.724" x2="117.89" y2="371.182" gradientUnits="userSpaceOnUse">
<stop stop-color="#8879EA"/>
<stop offset="1" stop-color="#9E8CEF"/>
</linearGradient>
<linearGradient id="paint2_linear_958_5995" x1="266.309" y1="514.134" x2="289.028" y2="333.302" gradientUnits="userSpaceOnUse">
<stop stop-color="#CBC1F7"/>
<stop offset="1" stop-color="#E8DCF7"/>
</linearGradient>
<linearGradient id="paint3_linear_958_5995" x1="252.773" y1="368.41" x2="269.708" y2="366.897" gradientUnits="userSpaceOnUse">
<stop stop-color="#8879EA"/>
<stop offset="1" stop-color="#9E8CEF"/>
</linearGradient>
<linearGradient id="paint4_linear_958_5995" x1="277.876" y1="511.277" x2="277.876" y2="403.091" gradientUnits="userSpaceOnUse">
<stop stop-color="#9D68C2"/>
<stop offset="1" stop-color="#CCEDFF"/>
</linearGradient>
<linearGradient id="paint5_linear_958_5995" x1="109.665" y1="516.334" x2="109.665" y2="387.493" gradientUnits="userSpaceOnUse">
<stop stop-color="#9D68C2"/>
<stop offset="1" stop-color="#CCEDFF"/>
</linearGradient>
<linearGradient id="paint6_linear_958_5995" x1="239.791" y1="605.195" x2="247.828" y2="475.941" gradientUnits="userSpaceOnUse">
<stop stop-color="#CBC1F7"/>
<stop offset="1" stop-color="#E8DCF7"/>
</linearGradient>
<linearGradient id="paint7_linear_958_5995" x1="246.921" y1="526.805" x2="243.931" y2="479.162" gradientUnits="userSpaceOnUse">
<stop stop-color="#BE9DEA"/>
<stop offset="1" stop-color="#9E8CEF"/>
</linearGradient>
<linearGradient id="paint8_linear_958_5995" x1="251.772" y1="601.409" x2="244.142" y2="479.835" gradientUnits="userSpaceOnUse">
<stop stop-color="#9D68C2"/>
<stop offset="1" stop-color="#CCEDFF"/>
</linearGradient>
<linearGradient id="paint9_linear_958_5995" x1="148.14" y1="605.275" x2="140.075" y2="476.019" gradientUnits="userSpaceOnUse">
<stop stop-color="#CBC1F7"/>
<stop offset="1" stop-color="#E8DCF7"/>
</linearGradient>
<linearGradient id="paint10_linear_958_5995" x1="141.01" y1="526.885" x2="143.996" y2="479.299" gradientUnits="userSpaceOnUse">
<stop stop-color="#BE9DEA"/>
<stop offset="1" stop-color="#9E8CEF"/>
</linearGradient>
<linearGradient id="paint11_linear_958_5995" x1="136.131" y1="601.488" x2="143.761" y2="479.914" gradientUnits="userSpaceOnUse">
<stop stop-color="#9D68C2"/>
<stop offset="1" stop-color="#CCEDFF"/>
</linearGradient>
<linearGradient id="paint12_linear_958_5995" x1="95.443" y1="200.889" x2="95.443" y2="101.816" gradientUnits="userSpaceOnUse">
<stop stop-color="#B9ACF4"/>
<stop offset="1" stop-color="#E1D1F5"/>
</linearGradient>
<linearGradient id="paint13_linear_958_5995" x1="88.3605" y1="163.465" x2="88.3605" y2="101.816" gradientUnits="userSpaceOnUse">
<stop stop-color="#BE9DEA"/>
<stop offset="1" stop-color="#9E8CEF"/>
</linearGradient>
<linearGradient id="paint14_linear_958_5995" x1="299.694" y1="200.889" x2="299.694" y2="101.816" gradientUnits="userSpaceOnUse">
<stop stop-color="#B9ACF4"/>
<stop offset="1" stop-color="#E1D1F5"/>
</linearGradient>
<linearGradient id="paint15_linear_958_5995" x1="306.891" y1="155.666" x2="306.891" y2="101.816" gradientUnits="userSpaceOnUse">
<stop stop-color="#BE9DEA"/>
<stop offset="1" stop-color="#9E8CEF"/>
</linearGradient>
<linearGradient id="paint16_linear_958_5995" x1="320.285" y1="205.631" x2="320.285" y2="108.3" gradientUnits="userSpaceOnUse">
<stop stop-color="#45FFCD"/>
<stop offset="1" stop-color="#22E0FF"/>
</linearGradient>
<linearGradient id="paint17_linear_958_5995" x1="74.8522" y1="205.631" x2="74.8522" y2="108.3" gradientUnits="userSpaceOnUse">
<stop stop-color="#45FFCD"/>
<stop offset="1" stop-color="#22E0FF"/>
</linearGradient>
<linearGradient id="paint18_linear_958_5995" x1="186.888" y1="341.385" x2="218.379" y2="90.648" gradientUnits="userSpaceOnUse">
<stop stop-color="#CBC1F7"/>
<stop offset="1" stop-color="#E8DCF7"/>
</linearGradient>
<linearGradient id="paint19_linear_958_5995" x1="197.169" y1="272.651" x2="197.169" y2="97.1876" gradientUnits="userSpaceOnUse">
<stop stop-color="#0665BD"/>
<stop offset="1" stop-color="#1A1F77"/>
</linearGradient>
<linearGradient id="paint20_linear_958_5995" x1="198.026" y1="339.071" x2="198.026" y2="189.604" gradientUnits="userSpaceOnUse">
<stop stop-color="#9D68C2"/>
<stop offset="1" stop-color="#CCEDFF"/>
</linearGradient>
<linearGradient id="paint21_linear_958_5995" x1="97.3279" y1="319.645" x2="292.041" y2="319.645" gradientUnits="userSpaceOnUse">
<stop stop-color="#8879EA"/>
<stop offset="1" stop-color="#9E8CEF"/>
</linearGradient>
<linearGradient id="paint22_linear_958_5995" x1="194.684" y1="328.329" x2="194.684" y2="300.247" gradientUnits="userSpaceOnUse">
<stop stop-color="#8DA4E5"/>
<stop offset="1" stop-color="#755CBB"/>
</linearGradient>
<linearGradient id="paint23_linear_958_5995" x1="193.885" y1="324.33" x2="197.542" y2="295.248" gradientUnits="userSpaceOnUse">
<stop stop-color="#5E36CC"/>
<stop offset="1" stop-color="#6C4A96"/>
</linearGradient>
<linearGradient id="paint24_linear_958_5995" x1="94.9861" y1="304.418" x2="94.9861" y2="265.023" gradientUnits="userSpaceOnUse">
<stop stop-color="#8DA4E5"/>
<stop offset="1" stop-color="#755CBB"/>
</linearGradient>
<linearGradient id="paint25_linear_958_5995" x1="254.001" y1="193.661" x2="254.001" y2="142.467" gradientUnits="userSpaceOnUse">
<stop stop-color="#45FFCD"/>
<stop offset="1" stop-color="#22E0FF"/>
</linearGradient>
<linearGradient id="paint26_linear_958_5995" x1="141.051" y1="193.861" x2="141.051" y2="142.439" gradientUnits="userSpaceOnUse">
<stop stop-color="#45FFCD"/>
<stop offset="1" stop-color="#22E0FF"/>
</linearGradient>
<linearGradient id="paint27_linear_958_5995" x1="41.5528" y1="278.678" x2="55.984" y2="163.752" gradientUnits="userSpaceOnUse">
<stop stop-color="#BE9DEA"/>
<stop offset="1" stop-color="#9E8CEF"/>
</linearGradient>
<linearGradient id="paint28_linear_958_5995" x1="112.007" y1="138.468" x2="291.441" y2="138.468" gradientUnits="userSpaceOnUse">
<stop/>
<stop offset="1" stop-color="#6A9BFF"/>
</linearGradient>
<linearGradient id="paint29_linear_958_5995" x1="137.367" y1="256.596" x2="264.881" y2="256.596" gradientUnits="userSpaceOnUse">
<stop/>
<stop offset="1" stop-color="#6A9BFF"/>
</linearGradient>
<linearGradient id="paint30_linear_958_5995" x1="94.6685" y1="236.368" x2="99.1188" y2="171.443" gradientUnits="userSpaceOnUse">
<stop/>
<stop offset="1" stop-color="#00E3FF"/>
</linearGradient>
<linearGradient id="paint31_linear_958_5995" x1="304.806" y1="132.64" x2="330.138" y2="132.64" gradientUnits="userSpaceOnUse">
<stop/>
<stop offset="1" stop-color="#D4E2FF"/>
</linearGradient>
<linearGradient id="paint32_linear_958_5995" x1="61.9723" y1="128.726" x2="89.8741" y2="128.726" gradientUnits="userSpaceOnUse">
<stop stop-color="#D4E2FF"/>
<stop offset="1"/>
</linearGradient>
<linearGradient id="paint33_linear_958_5995" x1="39.2692" y1="200.994" x2="39.8027" y2="168.831" gradientUnits="userSpaceOnUse">
<stop stop-color="#CBC1F7"/>
<stop offset="1" stop-color="#E8DCF7"/>
</linearGradient>
<linearGradient id="paint34_linear_958_5995" x1="183.261" y1="524.361" x2="210.637" y2="306.506" gradientUnits="userSpaceOnUse">
<stop stop-color="#CBC1F7"/>
<stop offset="1" stop-color="#E8DCF7"/>
</linearGradient>
<linearGradient id="paint35_linear_958_5995" x1="192.714" y1="521.162" x2="192.714" y2="383.122" gradientUnits="userSpaceOnUse">
<stop stop-color="#BE9DEA"/>
<stop offset="1" stop-color="#9E8CEF"/>
</linearGradient>
<linearGradient id="paint36_linear_958_5995" x1="191.372" y1="347.613" x2="191.372" y2="304.875" gradientUnits="userSpaceOnUse">
<stop stop-color="#8DA4E5"/>
<stop offset="1" stop-color="#755CBB"/>
</linearGradient>
</defs>
</svg>
