<svg width="397" height="503" viewBox="0 0 397 503" fill="none" xmlns="http://www.w3.org/2000/svg">
<path d="M192.336 492.214C188.845 493.528 69.6012 505.693 55.4718 492.214C41.678 479.038 135.952 420.371 149.78 421.415C153.169 421.651 155.854 425.021 160.922 432.401C176.595 455.045 192.336 492.214 192.336 492.214Z" fill="url(#paint0_linear_1101_263)"/>
<path d="M149.78 421.415C143.638 422.224 165.185 484.194 192.336 492.214C192.336 492.214 165.99 419.326 149.78 421.415Z" fill="url(#paint1_linear_1101_263)"/>
<path style="mix-blend-mode:multiply" opacity="0.3" d="M192.335 492.214C188.845 493.528 70.238 504.952 55.4709 492.214C55.4709 492.214 90.4421 498.078 122.359 486.991C154.31 475.871 154.88 447.935 154.88 447.935L156.827 424.347C172.5 446.992 192.335 492.248 192.335 492.248V492.214Z" fill="url(#paint2_linear_1101_263)"/>
<path d="M66.5453 389.133C66.5453 389.133 60.7391 361.399 85.9103 331.847C118.532 293.532 186.595 265.159 197.972 270.449C209.35 275.74 172.13 335.89 172.13 335.89C172.13 335.89 125.009 347.819 100.174 376.867C75.3384 405.88 66.5453 389.133 66.5453 389.133Z" fill="url(#paint3_linear_1101_263)"/>
<path d="M307.919 426.032C304.697 452.922 292.313 474.085 271.337 485.609C257.275 493.292 239.32 496.696 217.706 494.505C185.655 491.27 166.122 467.176 157.497 434.355C157.497 434.321 157.463 434.288 157.463 434.254C153.603 419.595 151.959 403.151 152.294 386.066C153.503 330.667 182.701 287.029 202.805 273.448C236.098 250.972 283.151 263.946 288.42 303.439C292.649 335.216 313.356 381.079 307.919 426.065V426.032Z" fill="url(#paint4_linear_1101_263)"/>
<path d="M278.254 282.042C272.649 279.784 269.393 331.982 292.383 362.444C292.383 362.444 302.854 355.739 298.357 330.128C293.86 304.518 285.805 285.108 278.254 282.042Z" fill="url(#paint5_linear_1101_263)"/>
<path d="M274.191 301.114C274.191 301.114 295.033 330.802 288.287 356.345C288.287 356.345 275.064 336.396 274.191 301.114Z" fill="#6340A2"/>
<path d="M271.337 485.576C257.275 493.259 239.32 496.662 217.706 494.472C185.655 491.237 166.122 467.143 157.497 434.322C157.497 434.288 157.463 434.254 157.463 434.22C148.502 397.995 164.746 349.707 213.544 349.707C262.343 349.707 286.272 400.017 288.689 435.299C289.628 449.384 288.017 477.32 271.371 485.576H271.337Z" fill="#121495"/>
<path d="M369.438 474.759C370.043 488.406 362.659 498.314 349.335 501.077C342.489 502.492 327.419 502.425 312.753 500.875C312.182 500.841 311.88 500.807 311.88 500.807C294.16 498.886 277.245 494.876 276.372 488.811C275.768 484.733 275.533 480.487 275.634 476.208C276.037 440.758 296.509 400.86 309.565 403.589C317.619 405.274 329.332 413.092 340.24 423.673C349.234 432.3 357.658 442.813 363.095 453.192C367.156 460.943 369.203 468.289 369.405 474.792L369.438 474.759Z" fill="url(#paint6_linear_1101_263)"/>
<path style="mix-blend-mode:multiply" opacity="0.5" d="M340.308 423.639C340.308 423.639 315.371 416.529 295.704 432.805C281.776 444.33 277.816 468.558 275.668 476.174C276.071 440.724 296.543 400.826 309.599 403.556C317.653 405.24 329.366 413.058 340.274 423.639H340.308Z" fill="url(#paint7_linear_1101_263)"/>
<path d="M363.064 369.723C360.781 382.258 334.033 400.657 288.825 397.389C288.825 397.389 267.245 379.933 269.36 360.793C269.36 360.793 271.306 360.018 273.991 358.67C279.294 356.008 296.142 349.538 297.82 343.809C301.008 332.959 289.564 317.896 282.684 302.092C276.307 287.5 281.173 274.729 284.529 274.021C287.886 273.314 309.701 280.929 331.314 301.114C333.529 303.17 335.61 305.259 337.523 307.315H337.557C361.52 332.925 365.178 358.097 363.064 369.689V369.723Z" fill="url(#paint8_linear_1101_263)"/>
<path d="M273.318 360.456C273.318 360.456 253.92 346.606 240.126 340.675C240.126 340.675 226.6 343.304 224.15 350.549C221.734 357.827 251.302 371.98 251.302 371.98L273.318 360.422V360.456Z" fill="url(#paint9_linear_1101_263)"/>
<path d="M79.1662 363.152C79.1662 363.152 90.8456 340.608 100.142 337.676C109.439 334.745 115.211 335.924 116.755 337.676C118.333 339.429 118.467 348.19 114.809 355.064C111.15 361.939 96.249 369.689 96.249 369.689L79.1662 363.118V363.152Z" fill="url(#paint10_linear_1101_263)"/>
<path d="M98.495 338.384C98.495 338.384 100.207 345.46 106.114 348.763C112.02 352.065 116.383 350.751 116.383 350.751C116.383 350.751 121.686 339.462 115.88 335.89C110.846 332.79 99.7704 336.227 98.5286 338.384H98.495Z" fill="url(#paint11_linear_1101_263)"/>
<path style="mix-blend-mode:multiply" opacity="0.5" d="M257.547 444.599C241.873 450.766 215.762 423.605 199.284 413.799C182.671 403.96 153.875 400.893 140.719 406.588C127.563 412.283 107.728 436.242 89.7723 433.142C86.5169 432.569 85.3758 424.246 86.0806 412.755L90.9135 404.364L123.636 384.348C123.636 384.348 123.905 396.209 126.992 397.793C130.046 399.343 141.424 396.883 162.769 396.681C184.114 396.445 200.76 407.431 210.829 401.062C220.931 394.693 228.18 379.226 228.18 379.226L237.577 378.181L261.171 407.97C263.621 426.537 262.614 442.577 257.547 444.599Z" fill="url(#paint12_linear_1101_263)"/>
<path d="M77.2514 356.345C77.2514 356.345 97.8917 354.997 122.056 372.79C122.056 372.79 128.802 397.625 114.874 413.092C114.874 413.092 104.47 419.057 89.5349 421.348C74.6 423.639 77.2514 356.345 77.2514 356.345Z" fill="url(#paint13_linear_1101_263)"/>
<path d="M269.391 360.793C269.391 360.793 287.95 360.793 298.153 376.631C306.711 389.941 293.521 397.658 293.521 397.658C293.521 397.658 270.867 396.108 269.391 360.827V360.793Z" fill="url(#paint14_linear_1101_263)"/>
<path d="M77.2516 356.345C67.7201 355.738 60.4708 401.365 70.0023 415.215C79.5338 429.064 103.128 417.843 107.423 412.89C111.719 407.936 118.331 386.167 115.847 377.271C113.364 368.375 100.61 357.827 77.2516 356.311V356.345Z" fill="url(#paint15_linear_1101_263)"/>
<path style="mix-blend-mode:multiply" opacity="0.5" d="M157.463 281.165C157.463 281.165 177.399 313.582 216.129 312.1C254.859 310.617 275.566 276.683 275.566 276.683L162.8 278.806L157.43 281.165H157.463Z" fill="url(#paint16_linear_1101_263)"/>
<path d="M314.769 35.4417C314.769 35.4417 335.745 17.245 361.453 14.1111C361.453 14.1111 369.306 17.9863 378.401 46.3935C387.496 74.8007 370.716 130.975 370.716 130.975L314.769 35.4754V35.4417Z" fill="url(#paint17_linear_1101_263)"/>
<path d="M361.418 14.1109C361.418 14.1109 340.644 36.4862 340.644 72.5428L348.665 77.6311L372.091 28.9716C372.091 28.9716 364.304 13.7065 361.418 14.1109Z" fill="url(#paint18_linear_1101_263)"/>
<path d="M347.925 75.1711C347.925 75.1711 342.387 44.3714 362.591 21.7603C362.591 21.7603 385.379 32.5435 394.844 72.5427C404.275 112.542 379.708 136.568 379.708 136.568L347.925 75.1711Z" fill="#121495"/>
<path d="M336.18 23.0747C332.287 25.1639 332.622 29.3762 340.643 28.3315C348.665 27.2869 353.028 20.9517 352.155 19.7386C351.282 18.5255 340.509 20.7158 336.18 23.0747Z" fill="white"/>
<path d="M138.636 39.9907C138.636 39.9907 117.661 21.7939 91.9524 18.66C91.9524 18.66 84.0989 22.5353 75.0038 50.9424C65.9086 79.3496 82.6894 135.524 82.6894 135.524L138.636 40.0244V39.9907Z" fill="url(#paint19_linear_1101_263)"/>
<path d="M91.9519 18.6599C91.9519 18.6599 112.727 41.0352 112.727 77.0917L104.705 82.18L81.2793 33.5206C81.2793 33.5206 89.0657 18.2555 91.9519 18.6599Z" fill="url(#paint20_linear_1101_263)"/>
<path d="M105.477 79.7203C105.477 79.7203 111.014 48.9206 90.81 26.3094C90.81 26.3094 68.0218 37.0927 58.5574 77.0919C49.0931 117.091 76.3115 143.712 76.3115 143.712L105.443 79.754L105.477 79.7203Z" fill="#121495"/>
<path d="M117.191 27.6236C121.084 29.7129 120.748 33.9251 112.727 32.8805C104.706 31.8359 100.343 25.5007 101.215 24.2876C102.088 23.0745 112.861 25.2648 117.191 27.6236Z" fill="white"/>
<path d="M79.6686 234.764C111.821 309.236 352.49 286.018 381.253 224.823C412.7 157.899 340.375 -7.45564 225.057 0.261142C127.628 6.7985 38.3543 139.028 79.6686 234.764Z" fill="url(#paint21_linear_1101_263)"/>
<path d="M92.9579 216.499C123.7 277.593 333.796 267.484 364.471 211.344C390.515 163.661 328.996 18.4579 223.445 23.6136C117.894 28.8031 63.4237 157.865 92.9579 216.499Z" fill="#121495"/>
<path d="M259.022 14.1111C256.84 16.7395 282.347 27.8598 285.77 26.3097C289.194 24.7596 266.372 5.31599 259.022 14.1111Z" fill="white"/>
<path style="mix-blend-mode:screen" opacity="0.5" d="M157.162 236.617C154.377 247.164 176.36 257.712 230.36 255.05C295.671 251.848 309.532 238.1 306.343 234.292C304.43 232 284.864 244.367 231.199 232.573C195.758 224.789 160.082 225.53 157.162 236.617Z" fill="url(#paint22_linear_1101_263)"/>
<path style="mix-blend-mode:screen" opacity="0.2" d="M98.7993 203.863C98.7993 203.863 96.5171 188.564 99.202 168.042C101.887 147.52 107.357 134.277 110.647 136.13C113.902 137.984 113.399 158.101 115.345 177.882C116.855 193.281 119.809 207.772 119.809 207.772C119.809 207.772 105.679 221.318 98.7993 203.863Z" fill="url(#paint23_linear_1101_263)"/>
<path style="mix-blend-mode:multiply" opacity="0.5" d="M103.328 259.868C103.328 259.868 106.584 256.33 124.002 246.052C135.681 239.144 147.965 230.99 149.71 227.99C152.294 220.948 99.6699 225.092 99.6699 225.092L79.6672 234.73C79.6672 234.73 87.6213 250.501 103.328 259.835V259.868Z" fill="url(#paint24_linear_1101_263)"/>
<path d="M63.089 104.084C63.089 104.084 76.6814 112.845 67.754 133.165C67.754 133.165 4.32272 167.84 8.01449 205.649C11.0686 237.19 98.6978 221.925 98.6978 221.925L101.853 232.438C101.853 232.438 27.4131 247.063 1.73849 229.473C1.73849 229.473 -6.98754 208.648 14.6597 171.108C36.3404 133.569 63.089 104.084 63.089 104.084Z" fill="url(#paint25_linear_1101_263)"/>
<path d="M87.6222 218.993C79.6345 228.058 96.5831 237.998 110.511 239.515C126.151 241.233 153.906 234.999 152.228 219.195C150.55 203.391 106.35 197.73 87.6222 218.993Z" fill="#5A39EB"/>
<path d="M88.6973 220.678C88.2274 223.273 144.04 223.879 145.349 213.972C146.658 204.065 92.3891 200.662 88.6973 220.678Z" fill="#7360FC"/>
<path style="mix-blend-mode:screen" opacity="0.72" d="M381.084 39.7887C381.084 39.7887 373.701 30.5892 363.599 33.0492C353.53 35.5091 352.859 67.3871 358.867 68.1622C364.908 68.9372 367.458 50.5383 372.056 47.6403C376.688 44.7423 384.743 45.8543 384.743 45.8543L381.051 39.7887H381.084Z" fill="url(#paint26_linear_1101_263)"/>
<path style="mix-blend-mode:screen" opacity="0.72" d="M67.0488 53.4024C67.0488 53.4024 70.942 48.988 79.668 50.4033C88.394 51.8523 93.4283 69.8469 97.9255 68.0272C102.389 66.2075 99.1337 37.059 87.2864 28.4661C87.2864 28.4661 72.0495 41.5071 67.0488 53.3687V53.4024Z" fill="url(#paint27_linear_1101_263)"/>
<path d="M50.9401 124.538C50.9401 124.538 20.6004 159.887 22.547 162.347C24.46 164.807 52.8531 128.11 50.9401 124.538Z" fill="url(#paint28_linear_1101_263)"/>
<path d="M268.183 159.078C273.687 170.772 321.613 172.288 329.332 153.822C336.279 137.242 314.766 93.3342 286.105 97.3106C264.424 100.343 258.886 139.332 268.149 159.078H268.183Z" fill="#1FA5E5"/>
<path d="M186.394 159.078C180.89 170.771 132.964 172.288 125.245 153.822C118.298 137.242 138.636 95.0527 168.472 97.3105C190.287 98.9617 195.691 139.332 186.428 159.078H186.394Z" fill="#1FA5E5"/>
<path style="mix-blend-mode:multiply" opacity="0.3" d="M363.062 369.723C360.78 382.258 334.031 400.657 288.824 397.389C288.824 397.389 267.244 379.933 269.358 360.793C269.358 360.793 267.177 362.276 269.862 360.928L278.823 362.478C278.823 362.478 307.115 369.824 337.656 364.567C368.197 359.277 346.751 320.187 337.522 307.382C361.485 332.959 365.143 358.131 363.029 369.723H363.062Z" fill="url(#paint29_linear_1101_263)"/>
<path d="M292.582 402.376C292.582 402.376 292.314 402.477 292.179 402.544C291.911 402.645 291.508 402.78 291.005 402.982C290.938 403.05 290.87 403.084 290.803 403.084C288.655 403.926 284.762 405.476 280.097 407.498C277.849 408.441 275.432 409.553 272.915 410.699C262.712 415.383 250.261 423.37 249.523 423.875C249.489 423.875 249.489 423.909 249.489 423.909C249.489 423.909 225.627 412.923 224.318 398.4C223.412 388.324 229.52 373.531 236.971 364.668C240.26 360.726 243.851 357.962 247.173 357.221C258.014 354.896 269.861 360.153 269.861 360.153C269.861 360.153 285.635 359.748 292.649 375.114C299.664 390.481 292.649 402.376 292.649 402.376H292.582Z" fill="url(#paint30_linear_1101_263)"/>
<path d="M292.584 402.376C292.584 402.376 292.315 402.477 292.181 402.545C291.845 402.679 291.409 402.814 291.006 402.983C290.939 403.05 290.872 403.084 290.805 403.084C288.657 404.095 285.737 405.611 282.549 407.431C270.936 413.901 255.263 423.909 255.263 423.909H249.457C249.457 423.909 249.457 423.875 249.491 423.875C254.592 414.844 262.009 409.554 269.225 406.487C281.139 401.399 292.584 402.342 292.584 402.342V402.376Z" fill="url(#paint31_linear_1101_263)"/>
<g style="mix-blend-mode:screen" opacity="0.72">
<path d="M183.104 472.096C183.104 472.096 195.589 489.114 221.197 490.933C246.804 492.753 258.417 485.542 258.417 485.542C258.417 485.542 254.255 477.555 243.314 475.736C232.373 473.916 219.888 483.284 207.839 481.667C195.791 480.049 183.104 472.096 183.104 472.096Z" fill="#7360FC"/>
</g>
<path style="mix-blend-mode:multiply" opacity="0.3" d="M369.438 474.759C370.043 488.406 362.659 498.314 349.335 501.077C342.489 502.492 327.419 502.425 312.753 500.875C317.217 501.212 337.958 502.559 342.623 497.033C347.892 490.866 348.194 480.589 354.134 476.174C360.075 471.76 365.713 475.028 367.592 474.725C367.928 474.658 368.599 474.691 369.472 474.759H369.438Z" fill="url(#paint32_linear_1101_263)"/>
<path d="M335.878 466.806C335.005 469.367 343.832 476.713 348.866 474.826C353.9 472.939 349.973 465.593 347.557 464.043C345.141 462.493 336.616 464.717 335.878 466.806Z" fill="white"/>
<path d="M73.6282 472.097C73.3262 474.456 87.1536 468.795 89.6036 464.346C92.0535 459.898 92.8926 454.743 92.0536 454.439C91.2481 454.136 74.0646 468.491 73.5947 472.097H73.6282Z" fill="white"/>
<path d="M246.939 360.793C246.167 363.084 255.8 373.531 258.216 372.014C260.632 370.464 258.652 362.983 253.853 360.793C249.02 358.603 247.409 359.512 246.973 360.793H246.939Z" fill="white"/>
<path d="M312.283 331.88C309.498 332.588 309.867 336.834 307.45 340.709C305.034 344.551 300.537 347.415 301.04 348.291C301.544 349.167 312.921 348.965 314.901 343.135C316.881 337.306 313.861 331.476 312.283 331.88Z" fill="white"/>
<path d="M309.298 327.499C308.391 327.297 305.438 321.501 306.143 319.614C306.848 317.727 310.036 319.917 310.607 321.804C311.177 323.692 310.741 327.803 309.298 327.499Z" fill="white"/>
<path d="M77.0504 359.917C77.3189 364.062 92.6229 364.904 94.1667 362.714C95.7105 360.524 92.8578 358.603 87.79 357.727C82.7222 356.851 76.9833 358.873 77.0504 359.917Z" fill="white"/>
<path style="mix-blend-mode:multiply" opacity="0.3" d="M282.513 407.464C270.901 413.934 255.228 423.943 255.228 423.943H249.422C249.422 423.943 225.559 412.957 224.25 398.433C223.344 388.358 229.453 373.564 236.903 364.702C238.716 369.386 248.817 394.794 259.188 402.342C262.108 404.465 265.598 405.779 269.189 406.554C272.915 407.363 276.674 407.599 280.03 407.565C280.902 407.565 281.741 407.532 282.48 407.498L282.513 407.464Z" fill="url(#paint33_linear_1101_263)"/>
<path style="mix-blend-mode:multiply" opacity="0.3" d="M155.349 341.754C155.349 341.754 156.825 346.505 171.492 346.943C186.158 347.381 198.408 337.137 198.408 337.137L170.183 334.34L155.349 341.72V341.754Z" fill="url(#paint34_linear_1101_263)"/>
<path d="M123.666 304.282C123.464 306.371 144.105 301.114 141.923 294.442C140.547 290.196 124.035 300.542 123.666 304.282Z" fill="white"/>
<g style="mix-blend-mode:screen" opacity="0.19">
<path d="M129.978 84.8085C127.561 99.3659 155.014 97.7147 198.947 96.232C251.705 94.4798 304.733 140.106 335.609 107.352C340.711 101.961 290.167 31.128 229.186 32.7118C168.204 34.2956 132.092 72.1719 130.011 84.8085H129.978Z" fill="white"/>
</g>
<path d="M201.478 184.415C201.478 184.415 234.876 188.41 254.279 185.159C254.279 185.159 247.171 216.323 225.408 214.504C203.646 212.686 201.45 184.415 201.45 184.415H201.478Z" fill="#1FA5E5"/>
<defs>
<linearGradient id="paint0_linear_1101_263" x1="121.588" y1="503.469" x2="132.211" y2="419.168" gradientUnits="userSpaceOnUse">
<stop stop-color="#DAD3F9"/>
<stop offset="1" stop-color="#BE9DEA"/>
</linearGradient>
<linearGradient id="paint1_linear_1101_263" x1="170.554" y1="492.18" x2="170.554" y2="421.348" gradientUnits="userSpaceOnUse">
<stop stop-color="#BE9DEA"/>
<stop offset="1" stop-color="#9E8CEF"/>
</linearGradient>
<linearGradient id="paint2_linear_1101_263" x1="123.936" y1="498.179" x2="123.936" y2="424.313" gradientUnits="userSpaceOnUse">
<stop stop-color="#9D68C2"/>
<stop offset="1" stop-color="#CCEDFF"/>
</linearGradient>
<linearGradient id="paint3_linear_1101_263" x1="123.902" y1="400.152" x2="141.189" y2="262.986" gradientUnits="userSpaceOnUse">
<stop stop-color="#DAD3F9"/>
<stop offset="1" stop-color="#BE9DEA"/>
</linearGradient>
<linearGradient id="paint4_linear_1101_263" x1="218.578" y1="494.606" x2="247.774" y2="263.132" gradientUnits="userSpaceOnUse">
<stop stop-color="#CBC1F7"/>
<stop offset="1" stop-color="#E8DCF7"/>
</linearGradient>
<linearGradient id="paint5_linear_1101_263" x1="281.677" y1="361.096" x2="291.42" y2="283.669" gradientUnits="userSpaceOnUse">
<stop stop-color="#BE9DEA"/>
<stop offset="1" stop-color="#9E8CEF"/>
</linearGradient>
<linearGradient id="paint6_linear_1101_263" x1="319.197" y1="501.751" x2="331.206" y2="406.263" gradientUnits="userSpaceOnUse">
<stop stop-color="#CBC1F7"/>
<stop offset="1" stop-color="#E8DCF7"/>
</linearGradient>
<linearGradient id="paint7_linear_1101_263" x1="307.988" y1="476.174" x2="307.988" y2="403.421" gradientUnits="userSpaceOnUse">
<stop stop-color="#8DA4E5"/>
<stop offset="1" stop-color="#755CBB"/>
</linearGradient>
<linearGradient id="paint8_linear_1101_263" x1="311.882" y1="400.287" x2="327.14" y2="279.26" gradientUnits="userSpaceOnUse">
<stop stop-color="#CBC1F7"/>
<stop offset="1" stop-color="#E8DCF7"/>
</linearGradient>
<linearGradient id="paint9_linear_1101_263" x1="246.737" y1="371.441" x2="250.425" y2="341.993" gradientUnits="userSpaceOnUse">
<stop stop-color="#DAD3F9"/>
<stop offset="1" stop-color="#BE9DEA"/>
</linearGradient>
<linearGradient id="paint10_linear_1101_263" x1="96.5175" y1="369.757" x2="100.949" y2="334.547" gradientUnits="userSpaceOnUse">
<stop stop-color="#CBC1F7"/>
<stop offset="1" stop-color="#E8DCF7"/>
</linearGradient>
<linearGradient id="paint11_linear_1101_263" x1="108.53" y1="351.021" x2="108.53" y2="334.643" gradientUnits="userSpaceOnUse">
<stop stop-color="#BE9DEA"/>
<stop offset="1" stop-color="#9E8CEF"/>
</linearGradient>
<linearGradient id="paint12_linear_1101_263" x1="174.213" y1="445.509" x2="174.213" y2="378.181" gradientUnits="userSpaceOnUse">
<stop stop-color="#8DA4E5"/>
<stop offset="1" stop-color="#755CBB"/>
</linearGradient>
<linearGradient id="paint13_linear_1101_263" x1="100.375" y1="421.415" x2="100.375" y2="356.345" gradientUnits="userSpaceOnUse">
<stop stop-color="#BE9DEA"/>
<stop offset="1" stop-color="#9E8CEF"/>
</linearGradient>
<linearGradient id="paint14_linear_1101_263" x1="285.232" y1="397.658" x2="285.232" y2="360.793" gradientUnits="userSpaceOnUse">
<stop stop-color="#BE9DEA"/>
<stop offset="1" stop-color="#9E8CEF"/>
</linearGradient>
<linearGradient id="paint15_linear_1101_263" x1="86.4139" y1="422.392" x2="94.4993" y2="358.375" gradientUnits="userSpaceOnUse">
<stop stop-color="#CBC1F7"/>
<stop offset="1" stop-color="#E8DCF7"/>
</linearGradient>
<linearGradient id="paint16_linear_1101_263" x1="216.532" y1="312.167" x2="216.532" y2="276.717" gradientUnits="userSpaceOnUse">
<stop stop-color="#8DA4E5"/>
<stop offset="1" stop-color="#755CBB"/>
</linearGradient>
<linearGradient id="paint17_linear_1101_263" x1="347.927" y1="130.941" x2="347.927" y2="14.1111" gradientUnits="userSpaceOnUse">
<stop stop-color="#B9ACF4"/>
<stop offset="1" stop-color="#E1D1F5"/>
</linearGradient>
<linearGradient id="paint18_linear_1101_263" x1="356.384" y1="77.6311" x2="356.384" y2="14.1109" gradientUnits="userSpaceOnUse">
<stop stop-color="#BE9DEA"/>
<stop offset="1" stop-color="#9E8CEF"/>
</linearGradient>
<linearGradient id="paint19_linear_1101_263" x1="105.478" y1="135.524" x2="105.478" y2="18.66" gradientUnits="userSpaceOnUse">
<stop stop-color="#B9ACF4"/>
<stop offset="1" stop-color="#E1D1F5"/>
</linearGradient>
<linearGradient id="paint20_linear_1101_263" x1="97.0197" y1="82.18" x2="97.0197" y2="18.6599" gradientUnits="userSpaceOnUse">
<stop stop-color="#BE9DEA"/>
<stop offset="1" stop-color="#9E8CEF"/>
</linearGradient>
<linearGradient id="paint21_linear_1101_263" x1="216.264" y1="285.243" x2="252.056" y2="1.51012" gradientUnits="userSpaceOnUse">
<stop stop-color="#CBC1F7"/>
<stop offset="1" stop-color="#E8DCF7"/>
</linearGradient>
<linearGradient id="paint22_linear_1101_263" x1="156.927" y1="241.436" x2="306.78" y2="241.436" gradientUnits="userSpaceOnUse">
<stop/>
<stop offset="1" stop-color="#6A9BFF"/>
</linearGradient>
<linearGradient id="paint23_linear_1101_263" x1="107.615" y1="212.685" x2="112.884" y2="136.104" gradientUnits="userSpaceOnUse">
<stop/>
<stop offset="1" stop-color="#00E3FF"/>
</linearGradient>
<linearGradient id="paint24_linear_1101_263" x1="114.739" y1="259.868" x2="114.739" y2="223.913" gradientUnits="userSpaceOnUse">
<stop stop-color="#8DA4E5"/>
<stop offset="1" stop-color="#755CBB"/>
</linearGradient>
<linearGradient id="paint25_linear_1101_263" x1="48.8253" y1="240.02" x2="65.9096" y2="104.438" gradientUnits="userSpaceOnUse">
<stop stop-color="#BE9DEA"/>
<stop offset="1" stop-color="#9E8CEF"/>
</linearGradient>
<linearGradient id="paint26_linear_1101_263" x1="355.041" y1="50.4035" x2="384.776" y2="50.4035" gradientUnits="userSpaceOnUse">
<stop/>
<stop offset="1" stop-color="#D4E2FF"/>
</linearGradient>
<linearGradient id="paint27_linear_1101_263" x1="67.0488" y1="48.314" x2="99.8385" y2="48.314" gradientUnits="userSpaceOnUse">
<stop stop-color="#D4E2FF"/>
<stop offset="1"/>
</linearGradient>
<linearGradient id="paint28_linear_1101_263" x1="36.7436" y1="162.482" x2="36.7436" y2="124.538" gradientUnits="userSpaceOnUse">
<stop stop-color="#CBC1F7"/>
<stop offset="1" stop-color="#E8DCF7"/>
</linearGradient>
<linearGradient id="paint29_linear_1101_263" x1="316.076" y1="397.759" x2="316.076" y2="307.348" gradientUnits="userSpaceOnUse">
<stop stop-color="#9D68C2"/>
<stop offset="1" stop-color="#CCEDFF"/>
</linearGradient>
<linearGradient id="paint30_linear_1101_263" x1="255.933" y1="424.751" x2="264.39" y2="357.769" gradientUnits="userSpaceOnUse">
<stop stop-color="#CBC1F7"/>
<stop offset="1" stop-color="#E8DCF7"/>
</linearGradient>
<linearGradient id="paint31_linear_1101_263" x1="271.004" y1="423.909" x2="271.004" y2="402.309" gradientUnits="userSpaceOnUse">
<stop stop-color="#BE9DEA"/>
<stop offset="1" stop-color="#9E8CEF"/>
</linearGradient>
<linearGradient id="paint32_linear_1101_263" x1="341.112" y1="502.088" x2="341.112" y2="473.849" gradientUnits="userSpaceOnUse">
<stop stop-color="#9D68C2"/>
<stop offset="1" stop-color="#CCEDFF"/>
</linearGradient>
<linearGradient id="paint33_linear_1101_263" x1="253.348" y1="423.909" x2="253.348" y2="364.668" gradientUnits="userSpaceOnUse">
<stop stop-color="#9D68C2"/>
<stop offset="1" stop-color="#CCEDFF"/>
</linearGradient>
<linearGradient id="paint34_linear_1101_263" x1="176.862" y1="346.943" x2="176.862" y2="334.34" gradientUnits="userSpaceOnUse">
<stop stop-color="#8DA4E5"/>
<stop offset="1" stop-color="#755CBB"/>
</linearGradient>
</defs>
</svg>
