<svg width="381" height="194" viewBox="0 0 381 194" fill="none" xmlns="http://www.w3.org/2000/svg">
<g clip-path="url(#clip0_1203_1291)">
<path d="M0 194.874L-8.47645e-06 97.9147C52.7069 97.9147 95.51 141.367 95.51 194.874L0 194.874Z" fill="#5A39EB"/>
<path d="M143.245 97.0407C116.871 97.0407 95.4902 118.746 95.4902 145.52C95.4902 172.295 116.871 194 143.245 194C169.62 194 191 172.295 191 145.52C191 118.746 169.62 97.0407 143.245 97.0407Z" fill="#2970EA"/>
</g>
<path opacity="0.9" d="M381 193.282L285.877 193.282C285.877 140.178 328.496 97.0723 381 97.0723L381 193.282Z" fill="#5A39EB"/>
<rect width="95.2655" height="95.8462" transform="translate(285.735 193.282) rotate(180)" fill="#141D9D"/>
<g clip-path="url(#clip1_1203_1291)">
<path d="M191 97.313L191 1.00007C243.577 1.00006 286.275 44.163 286.275 97.313L191 97.313Z" fill="#5A39EB"/>
<path d="M333.362 0.6861C307.053 0.686102 285.725 22.2465 285.725 48.8426C285.725 75.4386 307.053 96.999 333.362 96.999C359.672 96.999 381 75.4386 381 48.8426C381 22.2465 359.672 0.686097 333.362 0.6861Z" fill="#2970EA"/>
</g>
<defs>
<clipPath id="clip0_1203_1291">
<rect width="191" height="97" fill="white" transform="translate(191 194) rotate(180)"/>
</clipPath>
<clipPath id="clip1_1203_1291">
<rect width="190.531" height="96.3534" fill="white" transform="translate(381 96.999) rotate(180)"/>
</clipPath>
</defs>
</svg>
