<svg width="76" height="72" viewBox="0 0 76 72" fill="none" xmlns="http://www.w3.org/2000/svg">
<g opacity="0.1">
<path d="M75.0585 59.712L56.3659 71.3497L0.0693359 38.8471L19.4329 27.5955L75.0585 59.712Z" fill="black"/>
</g>
<path d="M55.672 48.1276L55.6684 49.6419L47.1567 54.5874L47.1596 53.0738L55.672 48.1276Z" fill="#4881FF"/>
<path d="M47.1595 53.0739L47.1566 54.5875L28.7085 43.9361L28.7121 42.4218L47.1595 53.0739Z" fill="#0F4BB7"/>
<path d="M55.6716 48.1276L47.1593 53.0739L28.7119 42.4217L37.2235 37.4769L55.6716 48.1276Z" fill="#6A96EF"/>
<path d="M23.6084 2.00867C24.3197 1.59456 25.0333 1.18045 25.7446 0.767066C26.0606 0.583819 26.4978 0.610513 26.9797 0.887548L24.8428 2.12915C24.3594 1.85284 23.9237 1.82615 23.6084 2.00867Z" fill="#85A9FF"/>
<mask id="mask0_729_503" style="mask-type:luminance" maskUnits="userSpaceOnUse" x="23" y="0" width="4" height="3">
<path d="M23.6084 2.00867C24.3197 1.59456 25.0333 1.18045 25.7446 0.767066C26.0606 0.583819 26.4978 0.610513 26.9797 0.887548L24.8428 2.12915C24.3594 1.85284 23.9237 1.82615 23.6084 2.00867Z" fill="white"/>
</mask>
<g mask="url(#mask0_729_503)">
<path d="M23.6084 2.00869L25.7446 0.767079C25.79 0.741107 25.8362 0.719463 25.8839 0.702148L23.7477 1.94376C23.7 1.96179 23.6524 1.98271 23.6084 2.00869Z" fill="#85A9FF"/>
<path d="M23.7476 1.94435L25.8838 0.702743C25.9242 0.689757 25.9631 0.677492 26.005 0.669556L23.8695 1.91116C23.8269 1.91982 23.788 1.93064 23.7476 1.94435Z" fill="#85A9FF"/>
<path d="M23.8696 1.91132L26.0051 0.669713C26.0369 0.663941 26.0722 0.65817 26.1054 0.656006L23.967 1.89617C23.936 1.89978 23.9021 1.90411 23.8696 1.91132Z" fill="#85A9FF"/>
<path d="M23.9668 1.8961L26.1052 0.65594C26.1347 0.652333 26.1643 0.651611 26.1946 0.651611L24.0599 1.89322C24.0274 1.89322 23.9978 1.89394 23.9668 1.8961Z" fill="#85A9FF"/>
<path d="M24.0601 1.89317L26.1948 0.651559C26.2208 0.650838 26.2496 0.652281 26.2763 0.653724L24.1387 1.89461C24.1127 1.89317 24.0868 1.89317 24.0601 1.89317Z" fill="#85A9FF"/>
<path d="M24.1387 1.89457L26.2763 0.653687C26.3016 0.655851 26.3254 0.658015 26.3513 0.661622L24.2166 1.90395C24.1906 1.89962 24.1639 1.89601 24.1387 1.89457Z" fill="#85A9FF"/>
<path d="M24.2173 1.90322L26.352 0.660889C26.3787 0.664496 26.4054 0.668103 26.4299 0.673874L24.293 1.91476C24.2671 1.91115 24.2411 1.9061 24.2173 1.90322Z" fill="#85A9FF"/>
<path d="M24.2925 1.91557L26.4294 0.674683C26.4539 0.67829 26.477 0.684062 26.5001 0.690555L24.3654 1.93144C24.3408 1.92567 24.317 1.92062 24.2925 1.91557Z" fill="#85A9FF"/>
<path d="M24.3652 1.93131L26.5 0.69043C26.5231 0.696201 26.5469 0.702693 26.5729 0.709908L24.4374 1.95079C24.41 1.9443 24.3883 1.93709 24.3652 1.93131Z" fill="#85A9FF"/>
<path d="M24.4365 1.95024L26.572 0.709351C26.5965 0.716565 26.6182 0.723059 26.6413 0.730994L24.5036 1.97404C24.4812 1.96611 24.4582 1.95817 24.4365 1.95024Z" fill="#85A9FF"/>
<path d="M24.5039 1.97401L26.6416 0.730957C26.6654 0.740336 26.6892 0.748993 26.7123 0.758372L24.5746 1.99998C24.5508 1.99132 24.5284 1.98194 24.5039 1.97401Z" fill="#85A9FF"/>
<path d="M24.5742 1.99991L26.7118 0.758301C26.7357 0.76768 26.758 0.777059 26.7804 0.78788L24.6449 2.03021C24.6204 2.01939 24.5973 2.00929 24.5742 1.99991Z" fill="#85A9FF"/>
<path d="M24.6445 2.02956L26.78 0.787231C26.8046 0.798053 26.8262 0.808874 26.8514 0.820418L24.7152 2.06275C24.6907 2.0512 24.6676 2.03966 24.6445 2.02956Z" fill="#85A9FF"/>
<path d="M24.7153 2.06276L26.8515 0.820435C26.8746 0.831978 26.8991 0.844242 26.923 0.85795L24.7868 2.10028C24.7622 2.08657 24.7384 2.07431 24.7153 2.06276Z" fill="#85A9FF"/>
<path d="M24.7866 2.10036L26.9228 0.858032C26.9416 0.868132 26.9625 0.878234 26.9798 0.888334L24.8429 2.12994C24.822 2.12056 24.8054 2.10974 24.7866 2.10036Z" fill="#85A9FF"/>
</g>
<path d="M62.9121 49.4726L62.9027 52.4637C62.9027 52.5979 62.8897 52.7198 62.8681 52.8338C62.8666 52.8388 62.8659 52.8446 62.8659 52.8489C62.8428 52.9593 62.8103 53.061 62.7685 53.1519C62.7671 53.1534 62.7671 53.1555 62.7671 53.1577C62.7288 53.2349 62.6812 53.3006 62.6322 53.3626C62.6177 53.3806 62.6026 53.4008 62.5881 53.4174C62.5311 53.4795 62.4677 53.5336 62.397 53.5754L64.5339 52.3338C64.6039 52.292 64.6666 52.2379 64.7222 52.178C64.7402 52.1585 64.7568 52.1369 64.7727 52.1152C64.7929 52.0907 64.8152 52.0691 64.8333 52.0395C64.8578 52.0027 64.8809 51.9637 64.8997 51.9212C64.9011 51.9204 64.9018 51.919 64.9018 51.9176C64.9033 51.9147 64.9033 51.9125 64.9047 51.9096C64.9177 51.8815 64.9293 51.8526 64.9415 51.8223C64.9545 51.7935 64.9639 51.7632 64.9711 51.7314C64.9819 51.7026 64.9877 51.673 64.9971 51.6427C64.9978 51.6304 64.9992 51.6181 65.0028 51.6059C65.0028 51.603 65.005 51.5979 65.005 51.5943C65.0079 51.5828 65.0093 51.5705 65.0129 51.5583C65.0173 51.5309 65.0223 51.5027 65.0259 51.4753C65.0281 51.4479 65.031 51.4205 65.0331 51.3931C65.0353 51.3664 65.0382 51.3382 65.0396 51.3115C65.0403 51.2841 65.0403 51.2567 65.0403 51.2279C65.0403 51.2257 65.0403 51.225 65.0403 51.2228L65.049 48.2317L62.9121 49.4726Z" fill="#4881FF"/>
<path d="M46.9155 49.6717L53.8125 49.2078L48.4472 46.1113L46.9155 49.6717Z" fill="#4881FF"/>
<path d="M45.8711 37.2794L47.6155 36.265L48.6631 48.6573L46.9157 49.6716L45.8711 37.2794Z" fill="#85A9FF"/>
<path d="M35.8335 31.4847L37.5801 30.4703L47.6154 36.265L45.871 37.2793L35.8335 31.4847Z" fill="#85A9FF"/>
<path d="M45.871 37.2794L46.9156 49.6716L35.0825 42.8381L35.8335 31.4847L45.871 37.2794Z" fill="#AECFFF"/>
<path d="M23.0371 26.4505L25.174 25.2081L65.0483 48.2309L62.9121 49.4725L23.0371 26.4505Z" fill="#DCC9A0"/>
<path d="M24.6612 4.0424L26.7996 2.80151L26.7375 24.3186L24.6006 25.5602L24.6612 4.0424Z" fill="#584245"/>
<path d="M24.6006 25.5602L26.7375 24.3186L63.2022 45.3711L61.0653 46.612L24.6006 25.5602Z" fill="#62494D"/>
<path d="M62.9122 49.4726L62.9028 52.4637C62.9014 53.5588 62.1259 54.0083 61.1656 53.455L24.755 32.4328C23.7976 31.8801 23.0257 30.5361 23.0293 29.4417L23.0365 26.4498L62.9122 49.4726Z" fill="#91BDF2"/>
<path d="M61.1259 25.0964L61.0653 46.6121L24.6006 25.5603L24.6612 4.04248L61.1259 25.0964Z" fill="#2263D6"/>
<path d="M61.126 25.0963L63.2622 23.854L63.2024 45.3711L61.0654 46.612L61.126 25.0963Z" fill="#82B3B8"/>
<path d="M24.6611 4.0424L26.7995 2.80151L63.2621 23.854L61.1259 25.0963L24.6611 4.0424Z" fill="#92C8CE"/>
<path d="M62.9799 26.1439L65.1154 24.9009L65.0483 48.231L62.9121 49.4726L62.9799 26.1439Z" fill="#4881FF"/>
<path d="M24.8428 2.12979L26.9797 0.888184L63.3881 21.9104L61.2527 23.152L24.8428 2.12979Z" fill="#85A9FF"/>
<path d="M61.2528 23.152C62.2108 23.7054 62.9821 25.0415 62.9792 26.1431L62.9114 49.4725L23.0356 26.4505L23.102 3.12181C23.1063 2.02088 23.8826 1.57792 24.8414 2.13054L61.2528 23.152ZM61.0652 46.612L61.1258 25.0963L24.6611 4.04237L24.6004 25.5602L61.0652 46.612Z" fill="#AECFFF"/>
<path d="M65.1157 24.9009C65.1157 24.8757 65.1157 24.849 65.1143 24.823C65.1128 24.7949 65.1128 24.7674 65.1107 24.7386C65.1092 24.7104 65.1056 24.6823 65.1035 24.6542C65.1006 24.6253 65.0984 24.5972 65.0955 24.569C65.0912 24.5402 65.0847 24.5106 65.0797 24.4818C65.0797 24.4796 65.0797 24.4774 65.079 24.4745C65.0761 24.4478 65.0703 24.4219 65.066 24.3945C65.0595 24.3642 65.053 24.3339 65.0472 24.3043C65.0407 24.274 65.0342 24.243 65.0263 24.2134C65.0205 24.1831 65.0104 24.1521 65.0032 24.1218C64.9974 24.0979 64.988 24.0734 64.9837 24.0496C64.9837 24.0496 64.9823 24.0489 64.9823 24.0474C64.9808 24.0424 64.9794 24.0366 64.9758 24.0301C64.9664 24.0013 64.957 23.9717 64.9469 23.9414C64.9375 23.9118 64.9282 23.8822 64.9166 23.8519C64.9051 23.8238 64.8964 23.7957 64.8849 23.769C64.8748 23.7408 64.8625 23.712 64.8502 23.6846C64.8423 23.6629 64.8322 23.6427 64.8243 23.6225C64.8235 23.6203 64.8236 23.6182 64.8207 23.616C64.8207 23.611 64.8178 23.6066 64.8149 23.6016C64.8033 23.5735 64.7904 23.546 64.7781 23.5186C64.7622 23.4883 64.7485 23.458 64.7341 23.4284C64.7168 23.3931 64.698 23.3592 64.6814 23.3238C64.6591 23.2842 64.6389 23.2445 64.6143 23.2055C64.6143 23.2041 64.6129 23.2019 64.6114 23.2005C64.6057 23.1904 64.6013 23.1817 64.5956 23.1716L64.5927 23.1731L64.5941 23.1716C64.5537 23.1038 64.5112 23.0345 64.4657 22.9667C64.4311 22.9169 64.3972 22.8657 64.3611 22.8188C64.3575 22.8138 64.3546 22.8102 64.3517 22.8058C64.3272 22.7741 64.3041 22.7416 64.2789 22.7113C64.2579 22.6839 64.2348 22.6558 64.2118 22.6291C64.1894 22.6024 64.1685 22.5757 64.1454 22.5512C64.123 22.5252 64.1014 22.4999 64.0783 22.4754C64.0732 22.4718 64.0689 22.4668 64.0639 22.4631C64.0617 22.4603 64.0588 22.4567 64.0574 22.4538C64.0379 22.4365 64.0227 22.4184 64.0069 22.4011C63.9831 22.3766 63.9578 22.3535 63.9347 22.3297C63.9095 22.3052 63.8835 22.2813 63.8575 22.2575C63.8316 22.2345 63.807 22.2121 63.7803 22.1904C63.7659 22.1803 63.7536 22.1681 63.7392 22.158C63.7363 22.1558 63.7342 22.1536 63.732 22.1515C63.7197 22.1435 63.7125 22.1349 63.7017 22.1277C63.675 22.1082 63.6519 22.0887 63.626 22.0692C63.6007 22.0512 63.5754 22.0324 63.5502 22.0151C63.5271 21.9985 63.5011 21.9812 63.4752 21.9661C63.4521 21.9509 63.4276 21.9351 63.403 21.9206C63.3958 21.9185 63.3908 21.9141 63.385 21.9105L61.2495 23.1521C61.3686 23.2199 61.4818 23.3 61.5929 23.3902C61.5973 23.3938 61.6016 23.3974 61.6066 23.401C61.7134 23.4898 61.8173 23.5879 61.9183 23.6939C61.9233 23.6968 61.9262 23.7004 61.9269 23.7033C62.0294 23.8115 62.1268 23.9277 62.2162 24.0496C62.2162 24.0511 62.2162 24.051 62.2162 24.0518C62.2177 24.0532 62.2191 24.0547 62.2191 24.0554C62.31 24.1766 62.3923 24.3057 62.4709 24.4385C62.4745 24.4414 62.476 24.4464 62.4774 24.4507C62.6311 24.7184 62.7566 25.0019 62.8425 25.2883C62.8425 25.289 62.8439 25.2912 62.8439 25.2919C62.8857 25.4341 62.9189 25.5769 62.942 25.7176C62.942 25.7205 62.942 25.7219 62.9435 25.7248C62.9651 25.8662 62.9781 26.0083 62.9781 26.1447L65.1157 24.9009Z" fill="#85A9FF"/>
<path d="M69.0943 57.3184L69.5892 57.1286C69.4399 56.7405 65.8911 47.6272 59.2336 47.8956C55.9258 48.0291 54.4374 45.2731 52.8546 42.3542C51.4168 39.7014 49.9284 36.9578 46.9705 36.1209C44.1792 35.3309 42.2991 30.9611 40.4782 26.7363C38.3608 21.8182 36.3602 17.1729 32.8799 17.1729C32.8742 17.1729 32.8669 17.1729 32.8597 17.1729C30.7798 17.1837 29.6161 18.9361 28.4914 20.63C26.9886 22.8917 25.4353 25.2328 21.6218 24.0699L14.6649 21.951L14.5112 22.4582L21.4681 24.577C25.6568 25.8518 27.3984 23.2344 28.9329 20.9244C30.0302 19.2715 31.0662 17.7125 32.8648 17.7031C32.8698 17.7031 32.8756 17.7031 32.8799 17.7031C36.0132 17.7031 38.0368 22.4019 39.9934 26.947C41.8612 31.2858 43.794 35.7731 46.8283 36.6309C49.5734 37.4072 51.0055 40.0513 52.3907 42.6074C53.9808 45.5401 55.6105 48.5817 59.2574 48.4251C65.5001 48.1842 69.0597 57.2282 69.0943 57.3184Z" fill="#24B8D1"/>
<path d="M61.6713 47.7477C61.2998 47.532 60.9946 47.7066 60.9932 48.1337C60.9917 48.5629 61.2933 49.0874 61.667 49.3024C62.04 49.5174 62.3452 49.345 62.3466 48.915C62.348 48.4872 62.0436 47.9634 61.6713 47.7477Z" fill="#1C8EA2"/>
<path d="M63.0204 49.3407C63.0189 50.1978 62.4122 50.5433 61.6648 50.1119C60.9181 49.6819 60.3142 48.6366 60.3164 47.7795C60.3193 46.9224 60.9282 46.5754 61.6727 47.0054C62.4194 47.4382 63.0233 48.4829 63.0204 49.3407ZM61.667 49.3024C62.04 49.5174 62.3451 49.345 62.3466 48.915C62.348 48.4872 62.0435 47.9627 61.6713 47.7477C61.2997 47.532 60.9946 47.7066 60.9931 48.1337C60.9917 48.563 61.2933 49.0875 61.667 49.3024Z" fill="#09AEBF"/>
<path d="M49.215 37.242C48.842 37.0263 48.5376 37.2002 48.5361 37.6272C48.5347 38.0565 48.8384 38.581 49.21 38.796C49.5837 39.0117 49.8867 38.8386 49.8874 38.4086C49.8889 37.9808 49.588 37.457 49.215 37.242Z" fill="#1C8EA2"/>
<path d="M50.5653 38.8342C50.5632 39.6913 49.9543 40.0376 49.2076 39.6061C48.4637 39.1754 47.8577 38.1308 47.8613 37.2737C47.8642 36.4152 48.471 36.0689 49.2169 36.4989C49.9651 36.9303 50.5675 37.9764 50.5653 38.8342ZM49.2097 38.796C49.5834 39.0117 49.8865 38.8385 49.8872 38.4085C49.8886 37.9807 49.587 37.4562 49.2141 37.242C48.8411 37.0263 48.5366 37.2001 48.5352 37.6272C48.5352 38.0558 48.8382 38.5803 49.2097 38.796Z" fill="#09AEBF"/>
<path d="M33.6843 16.994C33.3127 16.779 33.0076 16.9521 33.0068 17.38C33.0054 17.8092 33.3077 18.3337 33.6792 18.548C34.0529 18.7637 34.3581 18.5905 34.3603 18.1613C34.3617 17.7335 34.058 17.2097 33.6843 16.994Z" fill="#1C8EA2"/>
<path d="M35.0358 18.5876C35.0329 19.4439 34.4261 19.7902 33.6787 19.3588C32.9327 18.9281 32.3289 17.8827 32.3311 17.0271C32.3325 16.1678 32.9414 15.8215 33.6859 16.253C34.4333 16.6844 35.0379 17.729 35.0358 18.5876ZM33.6794 18.5479C34.0531 18.7636 34.3583 18.5904 34.3605 18.1612C34.3619 17.7334 34.0582 17.2089 33.6838 16.9939C33.3122 16.7789 33.007 16.952 33.0063 17.3799C33.0056 17.8084 33.3079 18.3336 33.6794 18.5479Z" fill="#09AEBF"/>
<path d="M14.5126 21.482C14.1396 21.2663 13.8345 21.4401 13.833 21.8679C13.8323 22.2972 14.1346 22.8217 14.5061 23.0367C14.8806 23.2524 15.1843 23.0785 15.1857 22.6493C15.1872 22.2215 14.8834 21.6977 14.5126 21.482Z" fill="#1C8EA2"/>
<path d="M15.861 23.0757C15.8588 23.9327 15.2514 24.279 14.5047 23.8483C13.7587 23.4176 13.1548 22.3715 13.1577 21.5152C13.1592 20.6567 13.7681 20.3104 14.5133 20.7403C15.26 21.1718 15.8632 22.2171 15.861 23.0757ZM14.5061 23.0367C14.8805 23.2524 15.1843 23.0785 15.1857 22.6493C15.1872 22.2215 14.8834 21.6977 14.5126 21.482C14.1396 21.2663 13.8344 21.4401 13.833 21.868C13.8323 22.2972 14.1346 22.8217 14.5061 23.0367Z" fill="#09AEBF"/>
<path d="M69.3432 56.8969C68.9709 56.6819 68.6665 56.8551 68.665 57.2829C68.6643 57.7122 68.9666 58.2367 69.3382 58.4517C69.7119 58.6674 70.0163 58.4935 70.0177 58.0642C70.0199 57.6379 69.7176 57.1127 69.3432 56.8969Z" fill="#1C8EA2"/>
<path d="M70.6937 58.4906C70.6916 59.3477 70.0827 59.694 69.3374 59.2633C68.5914 58.8319 67.9869 57.7865 67.9898 56.9301C67.9926 56.0723 68.6008 55.7246 69.3454 56.156C70.0928 56.5867 70.6952 57.6321 70.6937 58.4906ZM69.3382 58.4517C69.7119 58.6674 70.0163 58.4935 70.0177 58.0642C70.0192 57.6379 69.7169 57.1119 69.3432 56.897C68.9709 56.682 68.6665 56.8551 68.665 57.2829C68.665 57.7122 68.9673 58.2367 69.3382 58.4517Z" fill="#09AEBF"/>
<g opacity="0.5">
<path d="M14.5143 20.024C13.417 19.3906 12.5224 19.8999 12.5181 21.1617C12.5145 22.4257 13.4047 23.9653 14.5006 24.5994C15.6015 25.235 16.4961 24.7249 16.5004 23.4602C16.5048 22.1984 15.616 20.6589 14.5143 20.024Z" fill="#85A9FF"/>
</g>
<g opacity="0.5">
<path d="M14.4701 25.1715C13.0972 24.3793 11.9847 22.4509 11.9898 20.8724C11.9934 19.7772 12.5518 19.0702 13.4146 19.0702C13.7703 19.0702 14.1519 19.1871 14.5473 19.415C15.9209 20.2079 17.0348 22.1363 17.0305 23.7134C17.0262 24.81 16.4678 25.5185 15.6042 25.5185C15.25 25.5185 14.8669 25.4009 14.4701 25.1715ZM12.1117 20.8731C12.1059 22.4126 13.1917 24.2935 14.5307 25.0668C14.9095 25.2854 15.2709 25.3958 15.6035 25.3958C16.405 25.3958 16.9057 24.7508 16.9086 23.712C16.9122 22.1746 15.8257 20.2945 14.4867 19.5197C14.1086 19.3018 13.7487 19.1914 13.4146 19.1914C12.6138 19.1914 12.1139 19.8364 12.1117 20.8731Z" fill="#85A9FF"/>
</g>
<g opacity="0.6">
<path d="M14.5126 21.0572C13.9109 20.7102 13.4197 20.9894 13.4175 21.6813C13.4146 22.3738 13.903 23.2179 14.5047 23.5657C15.1086 23.9141 15.5984 23.6342 15.6013 22.9409C15.6027 22.2498 15.1158 21.4057 14.5126 21.0572Z" fill="#85A9FF"/>
</g>
<path d="M14.5125 21.2583C14.0198 20.9748 13.6201 21.2028 13.6187 21.7684C13.6165 22.3333 14.014 23.0223 14.5053 23.3072C14.9995 23.5908 15.3985 23.3628 15.4006 22.7972C15.4021 22.2323 15.0045 21.5433 14.5125 21.2583Z" fill="#85A9FF"/>
<path d="M14.5111 21.7214C14.2405 21.5663 14.0205 21.6911 14.0205 22.0006C14.0198 22.3109 14.2369 22.6882 14.5067 22.8433C14.7766 22.9991 14.9966 22.8743 14.9981 22.5648C14.9995 22.2546 14.7802 21.8773 14.5111 21.7214Z" fill="#6E97EA"/>
<g opacity="0.5">
<path d="M33.6874 15.5358C32.5901 14.9017 31.6962 15.411 31.6919 16.6728C31.6869 17.9368 32.5771 19.4764 33.6737 20.1105C34.7754 20.7461 35.6692 20.236 35.6714 18.9721C35.6772 17.711 34.7891 16.1707 33.6874 15.5358Z" fill="#85A9FF"/>
</g>
<g opacity="0.5">
<path d="M33.6427 20.6841C32.2705 19.8913 31.1587 17.9636 31.1616 16.385C31.1652 15.2899 31.7236 14.5814 32.5879 14.5814C32.9414 14.5814 33.3245 14.6976 33.7191 14.9263C35.0928 15.7199 36.2081 17.6483 36.2031 19.2246C36.1995 20.3205 35.6404 21.029 34.7775 21.029C34.4226 21.0304 34.0409 20.9135 33.6427 20.6841ZM31.285 16.385C31.2807 17.9253 32.3657 19.8061 33.704 20.5781C34.082 20.7974 34.4435 20.9085 34.7782 20.9085C35.5783 20.9085 36.0783 20.2628 36.0804 19.2254C36.0855 17.688 34.9983 15.8072 33.6593 15.0338C33.2819 14.8144 32.9205 14.7048 32.5886 14.7048C31.7878 14.7041 31.2864 15.3483 31.285 16.385Z" fill="#85A9FF"/>
</g>
<g opacity="0.6">
<path d="M33.685 16.5697C33.0841 16.2212 32.5935 16.5012 32.5913 17.193C32.5892 17.8863 33.0761 18.7304 33.6785 19.0774C34.2824 19.4259 34.773 19.1467 34.7751 18.4534C34.7766 17.7608 34.2881 16.9174 33.685 16.5697Z" fill="#85A9FF"/>
</g>
<path d="M33.6852 16.771C33.1939 16.4875 32.7934 16.7155 32.792 17.2804C32.7898 17.8467 33.1881 18.5343 33.6794 18.8185C34.1729 19.1035 34.5711 18.8748 34.5732 18.3084C34.5747 17.7443 34.1779 17.0546 33.6852 16.771Z" fill="#85A9FF"/>
<path d="M33.6844 17.2328C33.4153 17.0777 33.1953 17.2025 33.1953 17.5127C33.1939 17.8222 33.4125 18.2002 33.6801 18.3553C33.9521 18.5112 34.1714 18.3864 34.1714 18.0754C34.1722 17.7674 33.955 17.39 33.6844 17.2328Z" fill="#6E97EA"/>
<g opacity="0.5">
<path d="M49.2187 35.7477C48.1206 35.1136 47.226 35.6236 47.2232 36.8847C47.2188 38.1494 48.1084 39.689 49.205 40.3224C50.3059 40.9587 51.2005 40.4479 51.2041 39.184C51.2084 37.9229 50.3189 36.3833 49.2187 35.7477Z" fill="#85A9FF"/>
</g>
<g opacity="0.5">
<path d="M49.1732 40.8968C47.801 40.1039 46.6886 38.1762 46.6929 36.5977C46.6965 35.5011 47.2556 34.7948 48.1185 34.7948C48.4734 34.7948 48.8543 34.9102 49.2511 35.1396C50.624 35.9332 51.7372 37.8602 51.7336 39.4373C51.73 40.5346 51.1709 41.2431 50.3073 41.2431C49.9517 41.2424 49.5714 41.1255 49.1732 40.8968ZM46.8155 36.5977C46.8105 38.1373 47.897 40.0181 49.2345 40.7907C49.6133 41.0093 49.974 41.1204 50.3081 41.1204C51.1089 41.1204 51.6095 40.4747 51.6117 39.4366C51.616 37.8985 50.5288 36.0184 49.1905 35.2443C48.8125 35.0271 48.4518 34.9167 48.1192 34.9167C47.3162 34.9167 46.8191 35.561 46.8155 36.5977Z" fill="#85A9FF"/>
</g>
<g opacity="0.6">
<path d="M49.2167 36.7809C48.6151 36.4339 48.1245 36.7131 48.1216 37.4057C48.1201 38.0983 48.6078 38.9424 49.2095 39.2894C49.8126 39.6379 50.3025 39.3594 50.3047 38.6654C50.3076 37.9742 49.8199 37.1294 49.2167 36.7809Z" fill="#85A9FF"/>
</g>
<path d="M49.2167 36.9829C48.7239 36.6993 48.3257 36.9273 48.3242 37.4915C48.3221 38.0571 48.7188 38.7461 49.2109 39.0296C49.7043 39.3146 50.1026 39.0866 50.1047 38.5195C50.1055 37.9554 49.7087 37.2671 49.2167 36.9829Z" fill="#85A9FF"/>
<path d="M49.2154 37.4453C48.9456 37.2902 48.7256 37.415 48.7256 37.7252C48.7242 38.0347 48.942 38.4127 49.2111 38.5679C49.4824 38.7237 49.7017 38.5989 49.7024 38.2879C49.7039 37.9792 49.4838 37.6018 49.2154 37.4453Z" fill="#6E97EA"/>
<g opacity="0.5">
<path d="M61.6745 46.255C60.5764 45.6209 59.6818 46.1309 59.6782 47.3927C59.6746 48.6567 60.5627 50.1956 61.6615 50.8304C62.7603 51.4653 63.6548 50.9552 63.6599 49.6913C63.6642 48.4295 62.7747 46.8892 61.6745 46.255Z" fill="#85A9FF"/>
</g>
<g opacity="0.5">
<path d="M61.629 51.4032C60.2575 50.6111 59.1451 48.6827 59.148 47.1034C59.1523 46.0083 59.7107 45.3005 60.5735 45.3005C60.9292 45.3005 61.3101 45.4167 61.7062 45.6461C63.0791 46.439 64.1945 48.3667 64.1894 49.9445C64.1851 51.0404 63.6274 51.7488 62.7638 51.7488C62.4103 51.7495 62.0272 51.6334 61.629 51.4032ZM59.2713 47.1041C59.267 48.6437 60.3528 50.5245 61.6889 51.2972C62.0691 51.5165 62.4313 51.6269 62.7646 51.6269C63.5646 51.6269 64.0646 50.9819 64.0668 49.9438C64.0718 48.4056 62.9853 46.5248 61.6456 45.7514C61.2683 45.5336 60.9083 45.4232 60.5742 45.4232C59.7734 45.4232 59.2742 46.0674 59.2713 47.1041Z" fill="#85A9FF"/>
</g>
<g opacity="0.6">
<path d="M61.6721 47.2889C61.0689 46.9419 60.5791 47.2211 60.5776 47.9122C60.5755 48.6048 61.0639 49.4489 61.6663 49.7967C62.2687 50.1444 62.7593 49.8659 62.7607 49.1719C62.7629 48.4807 62.2745 47.6374 61.6721 47.2889Z" fill="#85A9FF"/>
</g>
<path d="M61.6717 47.4894C61.1804 47.2052 60.7807 47.4338 60.7793 47.998C60.7779 48.5636 61.1754 49.2526 61.6667 49.5361C62.1594 49.8211 62.5591 49.5931 62.5598 49.0268C62.562 48.4626 62.1638 47.7744 61.6717 47.4894Z" fill="#85A9FF"/>
<path d="M61.671 47.9518C61.4019 47.7974 61.1819 47.9215 61.1812 48.231C61.1797 48.542 61.3976 48.9193 61.6681 49.0737C61.9372 49.2295 62.158 49.104 62.1587 48.7945C62.1587 48.4857 61.9416 48.1084 61.671 47.9518Z" fill="#6E97EA"/>
<g opacity="0.5">
<path d="M69.3481 55.4052C68.2493 54.7704 67.354 55.2812 67.3526 56.543C67.3482 57.8069 68.2363 59.3458 69.3336 59.9806C70.4331 60.6155 71.3277 60.1055 71.3328 58.8415C71.3378 57.5797 70.4476 56.0394 69.3481 55.4052Z" fill="#85A9FF"/>
</g>
<g opacity="0.5">
<path d="M69.3021 60.5525C67.9299 59.7604 66.8182 57.8313 66.8218 56.2527C66.8254 55.1576 67.3838 54.4506 68.2474 54.4506C68.6023 54.4506 68.9847 54.5667 69.3807 54.7961C70.7544 55.589 71.8669 57.5167 71.8632 59.0938C71.8604 60.1904 71.2998 60.8981 70.437 60.8981C70.082 60.8981 69.7003 60.7827 69.3021 60.5525ZM66.943 56.2535C66.9394 57.7937 68.0259 59.6745 69.3634 60.4472C69.7429 60.6658 70.1036 60.7769 70.4362 60.7769C71.2378 60.7769 71.7384 60.1312 71.7399 59.0931C71.7449 57.5557 70.6577 55.6749 69.3194 54.9007C68.9421 54.6836 68.5814 54.5732 68.2474 54.5732C67.4458 54.5732 66.9473 55.216 66.943 56.2535Z" fill="#85A9FF"/>
</g>
<g opacity="0.6">
<path d="M69.3454 56.4382C68.743 56.0905 68.2524 56.3712 68.251 57.0623C68.2481 57.7556 68.7365 58.5997 69.3382 58.9467C69.9406 59.2944 70.4319 59.016 70.4334 58.3219C70.4355 57.6301 69.9478 56.786 69.3454 56.4382Z" fill="#85A9FF"/>
</g>
<path d="M69.3448 56.6394C68.8528 56.3552 68.4538 56.5839 68.4517 57.148C68.4509 57.7144 68.8477 58.4026 69.3383 58.6869C69.8311 58.9711 70.2315 58.7432 70.2322 58.1768C70.2343 57.6127 69.8361 56.9244 69.3448 56.6394Z" fill="#85A9FF"/>
<path d="M69.3441 57.1019C69.0743 56.9468 68.8542 57.0716 68.8535 57.3811C68.8521 57.6906 69.0707 58.0694 69.3405 58.2238C69.6096 58.3796 69.8304 58.2548 69.8304 57.9453C69.8311 57.6351 69.6125 57.2578 69.3441 57.1019Z" fill="#6E97EA"/>
<path d="M15.5261 35.605C15.4482 35.5754 15.366 35.5523 15.2888 35.5415C15.2844 35.5415 15.2808 35.5415 15.2743 35.5408C15.1899 35.5299 15.1062 35.5307 15.0233 35.5458C15.0233 35.5458 15.0204 35.5465 15.019 35.5473C14.936 35.5631 14.8537 35.5927 14.7715 35.6389L15.169 35.4073L16.2209 34.7962C16.249 34.7804 16.2786 34.7667 16.3067 34.7544C16.3327 34.7428 16.3587 34.7335 16.3875 34.7255C16.4128 34.7183 16.4344 34.7125 16.4597 34.7082C16.4597 34.7082 16.4633 34.7082 16.464 34.7068C16.4669 34.7068 16.4683 34.7068 16.4712 34.7061C16.4994 34.7017 16.5268 34.6974 16.5549 34.6967C16.5874 34.6945 16.6148 34.6945 16.6444 34.696C16.6667 34.6967 16.6912 34.6996 16.7114 34.7032C16.7187 34.7032 16.7237 34.7032 16.7288 34.7039C16.7345 34.7053 16.7396 34.7053 16.7439 34.7053C16.7858 34.7118 16.8254 34.7205 16.8666 34.732C16.8976 34.7407 16.9337 34.7544 16.9668 34.7667C16.9805 34.7724 16.9935 34.7753 17.0087 34.7811C17.0166 34.7832 17.0238 34.7869 17.0311 34.7905C17.1111 34.8215 17.1912 34.8626 17.2699 34.9081C17.6529 35.1288 18.0541 35.4917 18.4638 35.8596C18.8751 36.2269 19.2942 36.5977 19.7112 36.8394C19.8014 36.8906 19.888 36.9339 19.9782 36.9721C20.0222 36.9923 20.0683 37.0082 20.1145 37.0241C20.1426 37.0334 20.1715 37.0457 20.2011 37.0536C20.2696 37.0717 20.3374 37.0868 20.406 37.0962C20.4161 37.0969 20.4269 37.0984 20.4384 37.0998C20.5091 37.107 20.5806 37.1099 20.6513 37.1027C20.7912 37.0911 20.9211 37.0616 21.0423 37.0226C21.0553 37.019 21.0697 37.0132 21.0805 37.0075C21.1988 36.9685 21.3085 36.9187 21.4109 36.8588C20.9305 37.138 20.45 37.4172 19.9717 37.6972C19.9645 37.7 19.9565 37.7051 19.9471 37.7094C19.8844 37.7455 19.8173 37.7787 19.7473 37.8068C19.7155 37.8212 19.6795 37.8321 19.6434 37.8436C19.629 37.8494 19.616 37.8544 19.603 37.8595C19.5878 37.8638 19.5734 37.8696 19.5597 37.8746C19.4998 37.8927 19.4349 37.9071 19.3685 37.9186C19.3173 37.928 19.2661 37.9338 19.2127 37.9396C19.2004 37.9403 19.1939 37.9417 19.1867 37.9417C19.1456 37.9439 19.1066 37.9446 19.0662 37.9417C19.0439 37.9417 19.0215 37.9374 18.9999 37.936C18.9905 37.9338 18.9761 37.9338 18.9624 37.9316C18.9544 37.9309 18.9465 37.9309 18.9357 37.9287C18.8837 37.9215 18.8332 37.9107 18.7798 37.8963C18.7733 37.8941 18.7654 37.8912 18.7611 37.8898C18.7315 37.8826 18.7012 37.8696 18.6716 37.8595C18.637 37.8472 18.5987 37.8371 18.5648 37.822C18.5576 37.8191 18.549 37.8133 18.5396 37.809C18.4508 37.7708 18.3628 37.7275 18.2727 37.6762C17.8542 37.4338 17.4358 37.0637 17.0246 36.6965C16.6162 36.3279 16.2115 35.9643 15.8313 35.7449C15.7447 35.693 15.6545 35.6511 15.568 35.6172C15.5557 35.6129 15.542 35.61 15.5261 35.605Z" fill="#2A70EA"/>
<path d="M23.0386 36.0524C22.9895 36.038 22.9433 36.0228 22.9001 36.0127C22.8618 36.0034 22.825 35.9954 22.789 35.9889C22.7341 35.9781 22.6779 35.9687 22.6216 35.9637C22.5999 35.9615 22.5783 35.9586 22.5545 35.9565C22.4845 35.9529 22.4124 35.9529 22.3438 35.9579C22.3294 35.9586 22.3135 35.9615 22.2984 35.9637C22.2428 35.9687 22.1894 35.9781 22.1361 35.9897C22.1195 35.994 22.1021 35.9969 22.0863 36.0005C22.0264 36.0171 21.9701 36.0358 21.9131 36.0582C21.9095 36.0611 21.903 36.0625 21.8987 36.0632C21.8309 36.0914 21.7696 36.1231 21.7075 36.1585C21.7111 36.1549 21.7162 36.152 21.7212 36.1498L22.7774 35.5359C22.9008 35.4637 23.0249 35.3923 23.1468 35.3209C23.154 35.3187 23.1583 35.3151 23.1619 35.3122C23.2161 35.2812 23.2716 35.2538 23.3308 35.2293C23.3308 35.2293 23.3315 35.2285 23.3329 35.2278C23.3466 35.2235 23.3567 35.2199 23.3676 35.217C23.408 35.1997 23.4447 35.186 23.4873 35.1723C23.5003 35.1694 23.5111 35.1672 23.5241 35.1643C23.54 35.16 23.5573 35.1557 23.5753 35.1513C23.5991 35.147 23.6201 35.1412 23.6417 35.1376C23.6749 35.1304 23.7074 35.1283 23.7434 35.1246C23.7571 35.1232 23.7687 35.1203 23.7824 35.1196C23.7867 35.1196 23.7954 35.1182 23.8004 35.1182C23.8531 35.1145 23.9122 35.1145 23.9671 35.1167C23.9779 35.1174 23.9851 35.1189 23.9967 35.1196C24.0161 35.1196 24.0392 35.1239 24.0601 35.1261C24.0926 35.1297 24.1265 35.1304 24.1612 35.1369C24.1835 35.1398 24.2073 35.147 24.2304 35.1513C24.2657 35.1578 24.3018 35.1643 24.3365 35.1737C24.361 35.1795 24.3826 35.1824 24.4072 35.1889C24.4303 35.1961 24.4584 35.2076 24.4808 35.2156C24.5486 35.2365 24.6135 35.2596 24.6835 35.2863C24.7087 35.2978 24.7347 35.3021 24.7607 35.3137C24.7765 35.3202 24.7953 35.3324 24.8119 35.3396C24.9518 35.4017 25.099 35.4724 25.2549 35.5626C26.4337 36.2797 27.9927 37.4412 29.4039 38.255C29.598 38.3668 29.787 38.4693 29.9753 38.5667C30.0258 38.5934 30.0763 38.6179 30.1275 38.6417C30.2725 38.7167 30.4146 38.7817 30.5568 38.8415C30.6 38.8603 30.644 38.8812 30.6859 38.9C30.8662 38.9728 31.0372 39.0334 31.2032 39.0789C31.2796 39.0998 31.3511 39.1164 31.4247 39.1316C31.4651 39.1409 31.5069 39.1518 31.5473 39.159C31.6541 39.1756 31.7551 39.1849 31.8525 39.1857C31.8676 39.1864 31.8813 39.1857 31.8965 39.1857C31.991 39.1849 32.0819 39.1763 32.1692 39.1568C32.1757 39.1554 32.1836 39.1532 32.1908 39.1518C32.2832 39.1294 32.3698 39.0969 32.4484 39.0515C32.4426 39.0536 32.439 39.0558 32.4376 39.0572L30.9968 39.8948C30.9651 39.9122 30.9341 39.9273 30.9002 39.941C30.8648 39.9562 30.8309 39.9677 30.7934 39.9792C30.7804 39.9843 30.7667 39.985 30.7501 39.9886C30.7436 39.9915 30.7357 39.9922 30.7277 39.9951C30.7097 39.9987 30.6938 40.0038 30.6758 40.0067C30.6289 40.0153 30.5798 40.0204 30.5308 40.0233C30.5077 40.0247 30.4832 40.0233 30.4579 40.0233C30.4413 40.024 30.4262 40.0247 30.4103 40.024C30.3923 40.0233 30.3771 40.0261 30.3576 40.0247C30.2848 40.0204 30.2112 40.0139 30.134 40.0016C30.1253 40.0002 30.1174 39.9973 30.1102 39.9966C30.0705 39.9894 30.0265 39.9778 29.9832 39.9691C29.924 39.9562 29.8642 39.9468 29.8028 39.9295C29.7899 39.9266 29.7769 39.9194 29.7632 39.9158C29.5987 39.8696 29.4255 39.809 29.2452 39.7361C29.2344 39.7318 29.225 39.7296 29.2163 39.7253C29.1838 39.7123 29.1507 39.6943 29.1218 39.6813C28.9818 39.62 28.8368 39.5543 28.6882 39.4807C28.637 39.454 28.5858 39.4302 28.5338 39.4028C28.3484 39.3061 28.1594 39.2044 27.9646 39.0919C26.5527 38.2774 24.9944 37.1166 23.8163 36.4009C23.6605 36.3093 23.5147 36.2393 23.3748 36.1787C23.3293 36.1592 23.2868 36.1404 23.2435 36.1246C23.1713 36.0957 23.1035 36.0726 23.0386 36.0524Z" fill="#2A70EA"/>
<path d="M36.4444 31.7937C36.4271 31.7909 36.4061 31.7894 36.3903 31.788C36.3174 31.7793 36.2474 31.7735 36.1753 31.7735C36.1507 31.7735 36.1255 31.7735 36.1002 31.775C36.0346 31.7764 35.9704 31.7822 35.9054 31.7901C35.8824 31.793 35.8593 31.7945 35.8362 31.7988C35.7503 31.8125 35.6652 31.8313 35.5794 31.8565C35.5757 31.8579 35.57 31.8594 35.5664 31.8608C35.4848 31.8861 35.4026 31.9157 35.3247 31.9503C35.2821 31.9683 35.2424 31.9907 35.1999 32.0102C35.1501 32.0361 35.101 32.0585 35.0498 32.0859L36.492 31.2498C36.5021 31.2433 36.51 31.2382 36.5208 31.2317C36.5634 31.2094 36.6045 31.1899 36.6493 31.1704C36.686 31.1502 36.7264 31.13 36.7654 31.1127C36.7683 31.1105 36.7733 31.1091 36.777 31.1069C36.844 31.0788 36.9111 31.0557 36.9768 31.0355C36.9926 31.0297 37.0078 31.0225 37.023 31.0189C37.023 31.0189 37.0237 31.0182 37.0251 31.0182C37.0973 30.9958 37.1709 30.9785 37.2488 30.9655C37.2567 30.9634 37.2654 30.9626 37.2769 30.9605C37.2971 30.9576 37.3209 30.9561 37.3447 30.9533C37.3866 30.9482 37.4277 30.941 37.4681 30.9381C37.4926 30.9367 37.5164 30.9381 37.5395 30.9374C37.5662 30.9367 37.5936 30.9367 37.6181 30.9367C37.6391 30.9374 37.66 30.9352 37.6824 30.9367C37.7285 30.9381 37.7754 30.9453 37.8209 30.9496C37.844 30.9525 37.8642 30.9533 37.8873 30.9569C37.8952 30.9576 37.9017 30.9576 37.9096 30.9583C37.9911 30.9713 38.0741 30.99 38.1592 31.0131C38.1607 31.0139 38.1657 31.0146 38.1657 31.0146C38.2703 31.0456 38.3757 31.0824 38.4839 31.1293C38.4839 31.1293 38.4839 31.1307 38.4868 31.1307C38.5878 31.1733 38.6895 31.2252 38.7912 31.2844C38.9211 31.3594 39.0524 31.4511 39.1844 31.5513C39.2241 31.5809 39.2602 31.6119 39.2984 31.6422C39.4081 31.7295 39.517 31.8262 39.6266 31.9323C39.649 31.9532 39.6692 31.9683 39.6923 31.99C39.7017 31.9994 39.7103 32.0102 39.7197 32.0196C39.7962 32.0982 39.8755 32.1848 39.9563 32.2728C39.9888 32.3096 40.0213 32.3399 40.053 32.3781C40.0581 32.3824 40.0631 32.3882 40.0675 32.3933C40.1057 32.438 40.1447 32.4892 40.1843 32.5361C40.2457 32.6104 40.3077 32.684 40.3697 32.7641C40.377 32.7735 40.3849 32.785 40.3928 32.7937C40.434 32.8478 40.4758 32.9077 40.5176 32.9646C40.5703 33.0375 40.6258 33.1053 40.6807 33.1825C40.6922 33.2027 40.7081 33.2251 40.7189 33.2438C40.7723 33.3189 40.8257 33.3997 40.8762 33.4812C40.9173 33.5425 40.9584 33.5988 40.9996 33.6623C41.0147 33.6868 41.0299 33.7142 41.0457 33.7373C41.1128 33.8426 41.1785 33.9516 41.2434 34.0627C41.2788 34.1204 41.3127 34.1709 41.3466 34.2308C41.387 34.3 41.4267 34.3693 41.4692 34.4414C41.7802 34.9905 42.0687 35.5236 42.3487 36.0495C42.3746 36.0957 42.4013 36.1448 42.4266 36.1902C42.4655 36.2609 42.4944 36.323 42.5312 36.393C43.1956 37.6576 43.7865 38.8488 44.3225 39.9576C44.3442 40.0031 44.368 40.0536 44.3911 40.0976C44.4351 40.1899 44.4776 40.2772 44.5209 40.3688C44.6068 40.5456 44.6869 40.7159 44.7713 40.8876C44.8882 41.135 45.0057 41.376 45.1183 41.6119C45.1955 41.772 45.2698 41.9279 45.3441 42.0837C45.4718 42.3463 45.5959 42.5995 45.7207 42.8499C45.7864 42.9812 45.8491 43.1139 45.9126 43.2409C46.0728 43.5591 46.2286 43.8664 46.3844 44.1607C46.4053 44.2019 46.4284 44.2452 46.4487 44.2848C46.6052 44.5777 46.7603 44.8555 46.914 45.1232C47.0193 45.3064 47.1268 45.4803 47.2307 45.6513C47.2624 45.7018 47.2927 45.7566 47.3266 45.8049C47.4579 46.0134 47.5892 46.2104 47.727 46.4008C47.7566 46.442 47.7876 46.4809 47.8158 46.5228C47.929 46.675 48.043 46.8214 48.1577 46.96C48.1888 46.9982 48.2198 47.0364 48.2501 47.0732C48.3965 47.242 48.5416 47.4015 48.6923 47.5494C48.807 47.6605 48.9275 47.7593 49.0458 47.8582C49.0978 47.9007 49.1476 47.9512 49.1988 47.9902C49.3712 48.1258 49.5509 48.2456 49.737 48.3531C49.8993 48.4461 50.0645 48.5277 50.2355 48.5998C50.3026 48.6272 50.3733 48.6489 50.4426 48.6741C50.5472 48.7116 50.6475 48.7499 50.7542 48.7794C50.861 48.8097 50.9721 48.8314 51.0825 48.8538C51.1488 48.8667 51.2109 48.8841 51.2758 48.8942C51.454 48.9223 51.6387 48.9425 51.8306 48.9511C51.9129 48.9555 51.9937 48.9634 52.0773 48.9764C52.0975 48.9793 52.1192 48.9865 52.1408 48.9894C52.1812 48.9966 52.2224 49.0067 52.2635 49.0161C52.3003 49.0255 52.3385 49.0298 52.3746 49.0399C52.4006 49.0471 52.4287 49.0594 52.4561 49.068C52.529 49.0897 52.6004 49.1156 52.6776 49.1438C52.7101 49.1568 52.7404 49.1632 52.775 49.177C52.7916 49.1842 52.8089 49.1957 52.8277 49.2037C52.9799 49.2686 53.1328 49.3414 53.2858 49.4302C53.8045 49.7303 54.3297 50.1516 54.8513 50.6581C54.8744 50.6805 54.8982 50.7014 54.922 50.7245L54.9227 50.7259C55.1897 50.9863 55.4537 51.2699 55.7149 51.5707C55.7228 51.5779 55.7271 51.5844 55.7344 51.5916C55.7372 51.5945 55.7387 51.5981 55.7408 51.601C55.9796 51.8752 56.2163 52.1681 56.4529 52.4689C56.4652 52.4862 56.4811 52.5021 56.4926 52.5187C56.5005 52.5274 56.5049 52.5367 56.5121 52.5454C56.7667 52.8744 57.0185 53.2185 57.2667 53.5706C57.2775 53.585 57.2862 53.5972 57.2956 53.6095C57.3006 53.616 57.3042 53.6225 57.3071 53.6283C57.6029 54.0496 57.8908 54.4846 58.1714 54.9233C58.1779 54.9334 58.1865 54.942 58.1909 54.9514C58.2002 54.9651 58.2068 54.9788 58.2154 54.9933C58.5595 55.5329 58.8921 56.0797 59.2088 56.6252C59.2124 56.6295 59.2153 56.6338 59.2182 56.6381C59.229 56.6562 59.2384 56.6728 59.2485 56.6908C59.4447 57.027 59.6345 57.3625 59.8185 57.6936C59.8264 57.7088 59.8358 57.7246 59.8444 57.7405C60.0219 58.0616 60.1922 58.3761 60.3574 58.6856C60.3747 58.7181 60.3942 58.7527 60.4115 58.7837C60.4245 58.8061 60.4331 58.8277 60.4461 58.8501C60.5543 59.0535 60.659 59.2541 60.7592 59.4503C60.7939 59.516 60.8263 59.5788 60.8595 59.6437C60.936 59.7937 61.0124 59.9409 61.086 60.0852C61.1156 60.1487 61.1488 60.2115 61.1798 60.2735C61.2549 60.4236 61.3284 60.5686 61.3977 60.7114C61.4222 60.759 61.4453 60.8067 61.467 60.8521C61.5557 61.0296 61.6408 61.202 61.7209 61.365C61.7231 61.3737 61.731 61.3845 61.7332 61.3932C61.7808 61.4935 61.8255 61.5865 61.871 61.681C61.8861 61.7135 61.9013 61.7496 61.9171 61.7813C61.9575 61.8628 61.9922 61.9379 62.0275 62.0144C62.0521 62.0612 62.0715 62.111 62.0946 62.1558C62.1163 62.2041 62.1372 62.2459 62.1581 62.2921C62.4496 62.9183 62.6335 63.3346 62.6761 63.4356L61.2375 64.271C61.1935 64.1693 61.0045 63.7386 60.703 63.0929C60.6856 63.0597 60.6734 63.0287 60.6575 62.9948C60.6258 62.9284 60.5904 62.857 60.5579 62.787C60.5334 62.7322 60.5074 62.681 60.4829 62.624C60.4519 62.5627 60.4223 62.4963 60.3898 62.4313C60.3566 62.3585 60.3213 62.2899 60.2852 62.2142C60.2037 62.0439 60.1157 61.8657 60.0248 61.6818C60.006 61.6428 59.9858 61.6017 59.9664 61.5627C59.8913 61.4105 59.8141 61.2525 59.7326 61.0923C59.7066 61.0411 59.6828 60.9906 59.6569 60.9401C59.5667 60.7612 59.4722 60.578 59.3762 60.3918C59.3611 60.3658 59.3495 60.3413 59.3365 60.3154C59.2211 60.0939 59.1028 59.8659 58.9801 59.6365C58.9737 59.6228 58.965 59.6083 58.9592 59.5953C58.781 59.262 58.5978 58.9194 58.403 58.5731C58.3965 58.5608 58.3893 58.5485 58.3835 58.5363C58.201 58.2073 58.0105 57.8733 57.815 57.5378C57.7998 57.5111 57.7869 57.4844 57.7703 57.4584C57.4521 56.9123 57.1203 56.3647 56.774 55.8251C56.7617 55.8049 56.7487 55.784 56.735 55.7638C56.4529 55.3208 56.1629 54.8858 55.8664 54.4637C55.8556 54.4464 55.8433 54.4298 55.8318 54.4132C55.5821 54.059 55.3304 53.7156 55.0742 53.383C55.0533 53.3556 55.0309 53.3296 55.01 53.3015C54.7727 52.9985 54.5332 52.7041 54.2908 52.4278C54.0267 52.119 53.7554 51.8283 53.4842 51.5621C53.4777 51.5556 53.4712 51.5512 53.4661 51.5455C53.2014 51.2829 52.9315 51.0426 52.6639 50.8312C52.6394 50.811 52.6163 50.7944 52.5903 50.7757C52.4792 50.6884 52.3666 50.6033 52.2555 50.5261C52.1192 50.433 51.9843 50.3457 51.8472 50.2671C51.6957 50.1783 51.5413 50.1055 51.3898 50.0398C51.3393 50.0182 51.2874 49.998 51.2362 49.9785C51.164 49.9503 51.0918 49.9244 51.0168 49.9027C50.9519 49.884 50.887 49.8674 50.822 49.8515C50.7809 49.8421 50.7405 49.8328 50.7001 49.8255C50.5977 49.8068 50.4923 49.7924 50.3906 49.7873C50.2081 49.7779 50.0313 49.7606 49.8618 49.7346C49.851 49.7332 49.8452 49.7317 49.8387 49.7296C49.7731 49.7195 49.7103 49.7022 49.6461 49.6885C49.5458 49.669 49.4462 49.6531 49.3503 49.6271C49.3395 49.6235 49.3287 49.6178 49.3157 49.6149C49.2075 49.5846 49.1021 49.5456 48.9982 49.5074C48.9398 49.485 48.8763 49.4699 48.82 49.4468C48.8114 49.4432 48.8056 49.4388 48.7998 49.4352C48.6274 49.3631 48.46 49.283 48.2999 49.1885C48.1137 49.0824 47.9363 48.9605 47.7617 48.8271C47.6967 48.7766 47.634 48.7152 47.5705 48.6611C47.4644 48.5709 47.3569 48.4844 47.2531 48.3848C47.2516 48.3819 47.2494 48.3805 47.2466 48.379C47.1138 48.2499 46.9847 48.1114 46.8592 47.9664C46.8426 47.9469 46.826 47.9245 46.8086 47.9051C46.7812 47.8719 46.7524 47.8372 46.7257 47.8048C46.6636 47.7283 46.5994 47.6547 46.5367 47.5746C46.4833 47.5046 46.4306 47.4282 46.375 47.3553C46.3476 47.3163 46.3188 47.2788 46.2899 47.2384C46.2683 47.2096 46.2466 47.1829 46.2272 47.154C46.1189 46.996 46.0071 46.8323 45.8989 46.6606C45.8953 46.6533 45.891 46.6469 45.8852 46.6404C45.8506 46.5877 45.8203 46.5314 45.7871 46.4773C45.6947 46.3287 45.601 46.1815 45.5093 46.025C45.4985 46.004 45.487 45.9802 45.4747 45.9593C45.3225 45.6974 45.171 45.424 45.0195 45.1383C45.0108 45.1217 45.0014 45.1066 44.992 45.0907C44.974 45.0568 44.9553 45.0178 44.9372 44.9839C44.7843 44.691 44.6284 44.388 44.4704 44.0742C44.412 43.9551 44.3521 43.8296 44.2908 43.7084C44.1573 43.4393 44.0224 43.1644 43.8868 42.8816C43.8687 42.8441 43.8522 42.8102 43.8327 42.7734C43.7937 42.6897 43.7519 42.6024 43.7122 42.518C43.5535 42.1912 43.3933 41.8579 43.2296 41.5138C43.1884 41.4294 43.1473 41.3435 43.1047 41.2569C43.029 41.0946 42.9446 40.9236 42.8645 40.7584C42.6149 40.2447 42.358 39.7152 42.0839 39.1662C42.0615 39.1207 42.042 39.0782 42.0182 39.0327C41.7354 38.4635 41.4267 37.8705 41.1099 37.2681C41.0385 37.1332 40.97 36.999 40.8964 36.8626C40.6194 36.3461 40.3344 35.8194 40.0271 35.279C39.947 35.1355 39.8669 35.0042 39.7861 34.8721C39.7291 34.7769 39.6721 34.6795 39.6137 34.5893C39.5494 34.4855 39.4845 34.3873 39.4196 34.2899C39.3742 34.2236 39.3302 34.1543 39.2869 34.0887C39.214 33.9855 39.144 33.8881 39.0711 33.7914C39.0315 33.7373 38.9918 33.6818 38.9536 33.6313C38.8872 33.544 38.8201 33.4646 38.7523 33.3852C38.7104 33.3333 38.6693 33.2792 38.626 33.2294C38.5907 33.1905 38.5589 33.1558 38.5236 33.119C38.4413 33.0281 38.3598 32.938 38.2804 32.8571C38.2472 32.8254 38.2191 32.8002 38.1866 32.7706C38.0777 32.6638 37.9673 32.5664 37.8562 32.4784C37.8194 32.4481 37.7826 32.4192 37.748 32.3904C37.6138 32.2894 37.4833 32.197 37.3527 32.122C37.2495 32.0628 37.1456 32.0109 37.0424 31.9662C36.9364 31.9207 36.8318 31.8832 36.7279 31.8536C36.6319 31.8255 36.5389 31.806 36.4444 31.7937Z" fill="#2A70EA"/>
<path d="M37.3523 32.1202C34.0488 30.2127 31.9249 36.6249 31.5375 38.9674C31.2698 40.5907 29.7339 40.1138 27.9642 39.0915C26.5523 38.277 24.994 37.1162 23.8159 36.4005C21.1552 34.8624 21.122 37.7734 19.213 37.9415C18.9035 37.969 18.589 37.8615 18.2723 37.6782C17.8538 37.4358 17.4354 37.0657 17.0242 36.6985C16.6158 36.3298 16.2111 35.9662 15.8309 35.7469C15.0777 35.3119 14.4031 35.4309 13.8945 37.1516L61.235 64.2692C60.9833 63.695 56.1986 52.7795 51.844 50.2653C51.3491 49.9789 50.8599 49.8093 50.3881 49.7862C49.5952 49.748 48.9091 49.5438 48.2966 49.1881C45.3481 47.4863 44.0105 42.3128 40.026 35.2765C39.0679 33.5826 38.1741 32.5949 37.3523 32.1202Z" fill="#131395"/>
<path d="M11.9177 39.6583C11.7085 39.5724 11.5087 39.4938 11.3124 39.4187C11.2554 39.3956 11.1999 39.374 11.1436 39.3538C11.0015 39.2983 10.8601 39.247 10.7237 39.1958C10.6754 39.1785 10.6235 39.1597 10.5751 39.1417C10.3984 39.0768 10.2259 39.0176 10.0643 38.9613C10.0492 38.957 10.0391 38.9541 10.0261 38.9498C9.87458 38.8979 9.72958 38.8502 9.58817 38.8048C9.54344 38.7904 9.50016 38.7767 9.45543 38.7629C9.34289 38.7283 9.2325 38.6944 9.12789 38.6619C9.09182 38.6518 9.05575 38.641 9.02256 38.6309C8.88693 38.5905 8.75347 38.5544 8.62793 38.5198C8.48725 38.4823 8.35162 38.4477 8.22609 38.4174C8.18496 38.408 8.15179 38.3993 8.11572 38.3914C8.02914 38.3712 7.94184 38.3503 7.86248 38.3337C7.81847 38.3243 7.77879 38.3171 7.73551 38.3077C7.67058 38.2947 7.6071 38.281 7.54649 38.2709C7.50826 38.2637 7.47073 38.2558 7.43322 38.2493C7.37839 38.2406 7.32355 38.2312 7.27377 38.2233C7.23842 38.2175 7.2074 38.2125 7.17421 38.2081C7.14175 38.2031 7.10713 38.1981 7.07683 38.1937C7.04365 38.1894 7.01334 38.1865 6.98593 38.1822C6.95995 38.1793 6.93542 38.1764 6.91089 38.175C6.88059 38.1714 6.85463 38.1677 6.82793 38.1663C6.81278 38.1656 6.79618 38.1641 6.78247 38.1627C6.75505 38.1613 6.73269 38.1584 6.71105 38.1584C6.70239 38.1569 6.69158 38.1569 6.68436 38.1555C6.6317 38.154 6.59922 38.154 6.58984 38.154L8.28813 37.1664C8.29751 37.1664 8.32493 37.1664 8.37254 37.1693C8.37543 37.1693 8.37831 37.1693 8.38119 37.1707C8.39057 37.1707 8.40211 37.1714 8.41149 37.1722C8.43313 37.1729 8.4555 37.1743 8.48075 37.1765C8.49518 37.1772 8.51034 37.1794 8.52476 37.1801C8.55146 37.1823 8.57887 37.1851 8.61133 37.1888C8.63226 37.1909 8.65822 37.1931 8.68203 37.1967C8.71161 37.2003 8.74408 37.2025 8.77582 37.2075C8.80612 37.2118 8.83788 37.2162 8.87107 37.2212C8.89343 37.2234 8.91074 37.227 8.93311 37.2299C8.9461 37.232 8.96196 37.2349 8.97567 37.2371C9.02473 37.245 9.07668 37.2537 9.13223 37.2631C9.16902 37.2696 9.2051 37.2753 9.24766 37.2833C9.3061 37.2948 9.37101 37.3092 9.43522 37.3222C9.47707 37.3309 9.51676 37.3381 9.56149 37.3482C9.64229 37.3648 9.73031 37.3857 9.81977 37.4066C9.85584 37.4146 9.88685 37.4218 9.92364 37.4312C10.0506 37.4622 10.187 37.4961 10.332 37.5365C10.3349 37.5365 10.3378 37.5372 10.3435 37.5387C10.4626 37.5704 10.5874 37.6065 10.718 37.6454C10.7562 37.6562 10.7951 37.6678 10.8348 37.6801C10.9373 37.7104 11.0405 37.7414 11.1508 37.776C11.1977 37.7897 11.2425 37.8056 11.2908 37.82C11.4264 37.864 11.5657 37.9095 11.71 37.9578C11.7287 37.965 11.7475 37.9701 11.7648 37.9766C11.9271 38.0321 12.0952 38.0913 12.2683 38.154C12.3239 38.1735 12.378 38.1944 12.4321 38.2132C12.5627 38.2623 12.6983 38.3113 12.8347 38.3647C12.8953 38.3871 12.9537 38.4102 13.0172 38.434C13.212 38.509 13.4097 38.5884 13.6167 38.672C13.8454 38.7658 14.0633 38.8423 14.2761 38.9123C14.336 38.931 14.3915 38.9484 14.4478 38.9642C14.5798 39.0053 14.7068 39.0378 14.8309 39.0688C14.9579 39.0999 15.0813 39.1258 15.2025 39.1475C15.3042 39.1662 15.4059 39.1843 15.5076 39.1965C15.5899 39.2066 15.6736 39.216 15.7544 39.2211C15.8662 39.2297 15.9766 39.2348 16.0833 39.2355C16.1461 39.2355 16.2082 39.2362 16.2688 39.2333C16.39 39.229 16.509 39.2175 16.6251 39.2023C16.667 39.1965 16.7096 39.1944 16.75 39.1872C16.9051 39.1619 17.0558 39.1287 17.2001 39.0861C17.2449 39.0724 17.2867 39.0537 17.3314 39.04C17.4353 39.0046 17.5392 38.9693 17.6395 38.926C17.7282 38.8885 17.8134 38.8423 17.8985 38.7983C17.9707 38.7629 18.0413 38.7305 18.112 38.6886L16.4138 39.6763C16.3986 39.6857 16.3799 39.6958 16.3633 39.7059C16.3106 39.7355 16.2565 39.7578 16.2031 39.7845C16.1158 39.8285 16.0292 39.8747 15.9412 39.9136C15.9297 39.918 15.9203 39.9245 15.9088 39.9288C15.8208 39.9656 15.7291 39.9937 15.6397 40.024C15.5935 40.0392 15.5495 40.0594 15.5026 40.0724C15.4983 40.0738 15.4947 40.076 15.4918 40.076C15.3605 40.1149 15.227 40.1474 15.0849 40.1698C15.0755 40.1719 15.0639 40.1726 15.0524 40.1741C15.0091 40.182 14.9644 40.1842 14.9197 40.1892C14.8367 40.2008 14.7537 40.2145 14.665 40.2203C14.6361 40.2224 14.6029 40.2188 14.5719 40.2203C14.5099 40.2231 14.4449 40.2224 14.3793 40.2224C14.3216 40.2224 14.2646 40.226 14.2047 40.2231C14.1585 40.2217 14.1059 40.2123 14.0583 40.2087C13.9753 40.2022 13.8909 40.195 13.8043 40.1827C13.7574 40.177 13.7134 40.177 13.6643 40.169C13.6138 40.1611 13.5583 40.1445 13.5063 40.1351C13.3844 40.1128 13.2582 40.0868 13.1297 40.0551C13.0771 40.0421 13.0273 40.0363 12.9718 40.0211C12.9025 40.0017 12.8275 39.9757 12.7531 39.9533C12.6933 39.9353 12.6334 39.9173 12.5728 39.8978C12.3621 39.8271 12.145 39.7506 11.9177 39.6583Z" fill="#5A39EA"/>
<path d="M20.5767 36.8633C20.5507 36.8546 20.5247 36.8453 20.4966 36.838C20.4749 36.8323 20.4511 36.8287 20.4288 36.8243C20.3876 36.8157 20.3472 36.807 20.3061 36.802C20.2881 36.7998 20.2708 36.7984 20.252 36.7969C20.2073 36.7933 20.1626 36.7912 20.1178 36.7933C20.1027 36.7933 20.0904 36.7926 20.0774 36.7933C20.0219 36.7955 19.9663 36.8034 19.9108 36.8135C19.8978 36.8164 19.8841 36.8207 19.8696 36.8236C19.8256 36.8344 19.7802 36.8474 19.7355 36.864C19.7217 36.8691 19.7066 36.8734 19.6922 36.8792C19.633 36.903 19.5746 36.9297 19.5176 36.9636C19.5219 36.96 19.5277 36.9578 19.5327 36.9542L20.2304 36.5487L21.2137 35.9759C21.2209 35.9738 21.2267 35.9694 21.2303 35.9665C21.2757 35.9406 21.3226 35.9189 21.371 35.898C21.3775 35.8951 21.384 35.8937 21.3905 35.8908C21.4034 35.8857 21.4164 35.8821 21.4294 35.8771C21.4539 35.8691 21.4778 35.8583 21.503 35.8518C21.5232 35.8453 21.5456 35.841 21.5665 35.836C21.5816 35.8331 21.5946 35.8295 21.6091 35.8273C21.6163 35.8251 21.6256 35.823 21.6329 35.8222C21.6769 35.8143 21.7187 35.8085 21.7627 35.8064C21.7663 35.8064 21.7714 35.8064 21.775 35.8064C21.7894 35.8057 21.8017 35.8064 21.8161 35.8057C21.8421 35.8049 21.8709 35.8035 21.8969 35.8049C21.9157 35.8057 21.933 35.8085 21.9496 35.81C21.9683 35.8114 21.9878 35.8129 22.0044 35.8158C22.0195 35.8172 22.0325 35.8172 22.0462 35.8194C22.0737 35.823 22.1003 35.8309 22.1292 35.836C22.1508 35.841 22.1739 35.8453 22.1977 35.8511C22.2035 35.8533 22.2122 35.854 22.2216 35.8569C22.2389 35.8619 22.2591 35.8706 22.2771 35.8764C22.3247 35.8915 22.3745 35.9074 22.4228 35.9269C22.4337 35.9312 22.4459 35.9341 22.4567 35.9391C22.4683 35.9442 22.4791 35.9507 22.4907 35.9557C22.5837 35.9961 22.6768 36.0401 22.7713 36.095C22.9141 36.1779 23.057 36.2775 23.2027 36.3857C23.2503 36.4247 23.3023 36.4658 23.3521 36.5062C23.4473 36.5834 23.5454 36.662 23.6421 36.7479C23.6969 36.7976 23.7517 36.8481 23.8095 36.8994C23.9054 36.9874 24.0006 37.0768 24.0966 37.1692C24.1493 37.2211 24.2034 37.2738 24.2596 37.3265C24.2834 37.3524 24.3101 37.377 24.3361 37.4022C24.435 37.4996 24.5345 37.5992 24.6333 37.6987C24.7466 37.812 24.8599 37.9245 24.9746 38.0356C25.0417 38.1027 25.1102 38.1669 25.1773 38.2326C25.2653 38.3177 25.3526 38.3978 25.4378 38.4793C25.4991 38.5342 25.5597 38.5883 25.6196 38.6409C25.7155 38.7268 25.8115 38.804 25.9045 38.8797C25.9536 38.9194 26.0019 38.9613 26.0524 38.9995C26.1946 39.107 26.3389 39.2065 26.4788 39.2874C26.5683 39.34 26.6606 39.3833 26.7494 39.423C26.7732 39.4331 26.7962 39.4432 26.8186 39.4518C26.8662 39.4706 26.9138 39.4857 26.9622 39.5009C26.9845 39.5081 27.0076 39.5168 27.0322 39.5225C27.0531 39.5283 27.0769 39.5319 27.0978 39.537C27.1382 39.5449 27.175 39.5528 27.2132 39.5579C27.2313 39.5593 27.2479 39.5615 27.2659 39.5629C27.3092 39.5666 27.3517 39.568 27.3936 39.5673C27.4073 39.5673 27.4217 39.568 27.434 39.5673C27.4874 39.5637 27.5401 39.5579 27.5942 39.5485C27.6064 39.5449 27.618 39.542 27.6317 39.5391C27.6742 39.529 27.7168 39.5168 27.7586 39.5016C27.7731 39.4973 27.7875 39.493 27.8019 39.4872C27.8575 39.4655 27.9116 39.441 27.9657 39.4093L26.2689 40.3969C26.2667 40.3984 26.2645 40.3984 26.2631 40.3984C26.2176 40.4251 26.1722 40.4474 26.1274 40.4662C26.1188 40.4698 26.1094 40.4727 26.1044 40.4749C26.0892 40.4806 26.0755 40.485 26.0611 40.49C26.0394 40.4965 26.02 40.5044 26.0005 40.5109C25.9788 40.5174 25.9565 40.5217 25.9341 40.5268C25.9204 40.5297 25.9074 40.534 25.8951 40.5362C25.8901 40.5369 25.8814 40.5391 25.8771 40.5398C25.8353 40.547 25.7941 40.552 25.7523 40.5549C25.7473 40.5549 25.7415 40.5549 25.7364 40.5549C25.722 40.5557 25.7098 40.5557 25.6982 40.5557C25.673 40.5564 25.6477 40.5571 25.6246 40.5571C25.6059 40.5557 25.5864 40.552 25.5691 40.5506C25.551 40.5492 25.5337 40.5477 25.5171 40.5456C25.5027 40.5441 25.494 40.5434 25.481 40.5419C25.4551 40.5369 25.4284 40.5297 25.401 40.5239C25.3786 40.5196 25.3555 40.516 25.336 40.5109C25.3274 40.5095 25.3216 40.508 25.3158 40.5066C25.2992 40.5015 25.2812 40.4943 25.2639 40.4886C25.2155 40.4734 25.1687 40.4583 25.1203 40.4395C25.1095 40.4344 25.1008 40.433 25.0893 40.428C25.077 40.4229 25.0662 40.4157 25.0547 40.4114C24.9638 40.371 24.8736 40.3277 24.782 40.2757C24.6398 40.1935 24.4992 40.0946 24.3542 39.9872C24.3073 39.9496 24.2539 39.9064 24.2041 39.8667C24.111 39.7909 24.0172 39.7137 23.9213 39.6293C23.8628 39.5766 23.8037 39.5233 23.7445 39.4677C23.6558 39.3855 23.5685 39.3047 23.4798 39.2195C23.4119 39.1532 23.3448 39.089 23.277 39.0219C23.2575 39.0024 23.2381 38.9836 23.2171 38.9649C23.1248 38.8718 23.0303 38.7787 22.9365 38.6849C22.8081 38.5565 22.6797 38.4296 22.5527 38.3047C22.5036 38.2571 22.4553 38.2117 22.407 38.1655C22.3067 38.0667 22.2042 37.9714 22.1018 37.8784C22.052 37.8315 21.9993 37.7853 21.9488 37.7406C21.8471 37.6511 21.7476 37.5681 21.6458 37.4873C21.599 37.4498 21.5528 37.4102 21.5066 37.3755C21.3623 37.2666 21.2166 37.1663 21.0737 37.0833C20.9807 37.0285 20.8862 36.9838 20.7931 36.9434C20.7715 36.934 20.7498 36.9246 20.726 36.9152C20.6733 36.8936 20.6264 36.8777 20.5767 36.8633Z" fill="#5A39EA"/>
<mask id="mask1_729_503" style="mask-type:luminance" maskUnits="userSpaceOnUse" x="29" y="26" width="4" height="3">
<path d="M31.6123 27.0623L29.9141 28.0499C29.9631 28.0211 30.0165 27.9944 30.0684 27.9727C30.2741 27.8862 30.4732 27.9071 30.668 28.0204L32.3662 27.0327C32.1707 26.9194 31.9702 26.8992 31.7667 26.9873C31.7126 27.0082 31.6628 27.0341 31.6123 27.0623Z" fill="white"/>
</mask>
<g mask="url(#mask1_729_503)">
<path d="M30.6675 28.0204L32.3657 27.0327C32.3325 27.014 32.2994 26.9988 32.2676 26.9844L30.5693 27.972C30.6025 27.9843 30.6372 28.0009 30.6675 28.0204Z" fill="#972CB1"/>
<path d="M30.57 27.9713L32.2683 26.9837C32.2401 26.9721 32.2105 26.962 32.1824 26.9541L30.4834 27.9418C30.5115 27.9497 30.5418 27.9591 30.57 27.9713Z" fill="#932BAC"/>
<path d="M30.4826 27.9418L32.1816 26.9541C32.1578 26.9483 32.1347 26.9433 32.1102 26.939L30.4126 27.9259C30.4364 27.9302 30.4602 27.9353 30.4826 27.9418Z" fill="#902AA8"/>
<path d="M30.4133 27.9259L32.1109 26.939C32.0907 26.9368 32.0669 26.9332 32.0452 26.9325L30.3477 27.9209C30.3686 27.9216 30.3902 27.923 30.4133 27.9259Z" fill="#8C29A4"/>
<path d="M30.3476 27.9207L32.0452 26.9324C32.0257 26.9316 32.0026 26.9316 31.9817 26.9331L30.2827 27.9207C30.3065 27.9193 30.3253 27.9193 30.3476 27.9207Z" fill="#88289F"/>
<path d="M30.2829 27.9209L31.982 26.9332C31.9603 26.9354 31.9372 26.9376 31.917 26.9404L30.2173 27.9288C30.2404 27.9245 30.2606 27.9216 30.2829 27.9209Z" fill="#84279B"/>
<path d="M30.2169 27.9288L31.9167 26.9404C31.8921 26.9455 31.8683 26.9505 31.8445 26.9585L30.1455 27.9447C30.17 27.9382 30.1953 27.9324 30.2169 27.9288Z" fill="#812596"/>
<path d="M30.1458 27.9446L31.8448 26.9584C31.8188 26.9663 31.7914 26.9742 31.7683 26.9858L30.0693 27.972C30.096 27.9619 30.1191 27.9525 30.1458 27.9446Z" fill="#7D2492"/>
<path d="M30.069 27.9721L31.768 26.9858C31.7665 26.9858 31.7658 26.9866 31.7658 26.9866C31.7146 27.0075 31.6648 27.032 31.615 27.0609L29.9175 28.0478C29.9651 28.0204 30.0163 27.9944 30.0668 27.9728L30.069 27.9721Z" fill="#79238D"/>
<path d="M29.9184 28.0471L31.6159 27.0602L31.6123 27.0623L29.9141 28.05C29.9162 28.0486 29.9169 28.0478 29.9184 28.0471Z" fill="#5A39EA"/>
</g>
<path d="M35.0582 40.6687C35.012 40.5215 34.9673 40.3729 34.9225 40.2228C34.8879 40.116 34.8562 40.0071 34.823 39.8989C34.779 39.7474 34.735 39.5937 34.6902 39.4408C34.6563 39.3275 34.6231 39.2164 34.5907 39.1024C34.5625 39.0007 34.5337 38.8975 34.5041 38.7958C34.4601 38.6356 34.4146 38.4769 34.3685 38.3153C34.3454 38.2309 34.3223 38.1465 34.2992 38.0628C34.2357 37.8319 34.1722 37.6011 34.1102 37.3709C34.0705 37.2252 34.0316 37.0816 33.994 36.9373C33.9298 36.6993 33.8656 36.4634 33.8007 36.2267C33.7055 35.866 33.6081 35.5089 33.5136 35.1539C33.4941 35.0789 33.4724 35.006 33.4537 34.9303C33.3772 34.6496 33.3007 34.3712 33.225 34.097C33.2098 34.04 33.194 33.9816 33.1774 33.9253C33.1333 33.7666 33.0901 33.6093 33.0446 33.4542C33.0208 33.3647 32.9948 33.276 32.9696 33.1873C32.9313 33.0516 32.8924 32.9211 32.8542 32.789C32.8231 32.6837 32.7928 32.5769 32.7618 32.4738C32.7293 32.3641 32.6962 32.2573 32.663 32.1506C32.6269 32.033 32.5916 31.9132 32.5548 31.7985C32.5266 31.7076 32.497 31.6196 32.4682 31.5301C32.4285 31.4053 32.3896 31.2798 32.3492 31.1607C32.3318 31.1131 32.3145 31.0677 32.2986 31.0193C32.2525 30.8815 32.2056 30.7466 32.1587 30.6146C32.137 30.554 32.1161 30.497 32.093 30.4386C32.0526 30.3289 32.0122 30.2221 31.9704 30.1182C31.9379 30.0338 31.9033 29.9523 31.8701 29.8715C31.8326 29.782 31.7973 29.6948 31.7619 29.6118C31.7388 29.5577 31.7128 29.5057 31.689 29.4538C31.6356 29.3362 31.583 29.2229 31.5274 29.1183C31.526 29.1118 31.5217 29.1053 31.5188 29.0981C31.4531 28.974 31.3882 28.8593 31.3233 28.7526C31.3153 28.7425 31.3103 28.7316 31.3045 28.7215C31.2374 28.6148 31.1689 28.5159 31.1032 28.4293C31.0996 28.425 31.096 28.4221 31.0931 28.4192C31.0448 28.3565 30.995 28.306 30.9459 28.2555C30.9149 28.2216 30.8832 28.1898 30.8521 28.1624C30.7908 28.1076 30.7288 28.0571 30.666 28.0224L32.3643 27.0348C32.4134 27.0629 32.4631 27.0983 32.5108 27.138C32.5237 27.1481 32.5353 27.1639 32.5483 27.1748C32.5793 27.2029 32.6117 27.2368 32.6457 27.27C32.668 27.2945 32.6918 27.3125 32.7156 27.3385C32.7409 27.3688 32.7676 27.4013 32.7928 27.4352C32.7943 27.4381 32.7979 27.4395 32.8008 27.4424C32.8029 27.4453 32.8036 27.4475 32.8044 27.4489C32.834 27.4871 32.865 27.5275 32.8938 27.5708C32.9249 27.6134 32.9537 27.6574 32.984 27.705C32.9905 27.7158 32.997 27.7274 33.0035 27.7382C33.0078 27.7461 33.0129 27.7562 33.0194 27.7649C33.0374 27.7981 33.0598 27.8305 33.0793 27.8652C33.1211 27.938 33.1637 28.0145 33.2055 28.0939C33.2091 28.0989 33.2106 28.1054 33.2127 28.1097C33.2192 28.122 33.2257 28.135 33.2315 28.1473C33.2639 28.21 33.2971 28.2757 33.331 28.3435C33.3498 28.3868 33.3685 28.4329 33.3902 28.4762C33.4126 28.5246 33.4342 28.5715 33.4558 28.622C33.4724 28.6573 33.4876 28.6905 33.5027 28.7259C33.5251 28.7785 33.546 28.8355 33.5706 28.8889C33.6037 28.9726 33.6384 29.0563 33.6723 29.1443C33.6853 29.176 33.6975 29.2056 33.7119 29.2388C33.7358 29.3001 33.7574 29.3672 33.7819 29.43C33.8079 29.5021 33.836 29.5736 33.862 29.6464C33.901 29.7575 33.9385 29.8722 33.9803 29.9891C34.0034 30.0562 34.0265 30.1226 34.0503 30.1933C34.0583 30.2091 34.0618 30.2229 34.0669 30.2387C34.0922 30.3181 34.1181 30.4018 34.1441 30.4826C34.1816 30.5973 34.2191 30.7098 34.2566 30.8289C34.2869 30.9284 34.3201 31.033 34.3512 31.1362C34.3865 31.2538 34.424 31.3714 34.4586 31.4926C34.4933 31.6044 34.5257 31.7191 34.5597 31.8331C34.5943 31.95 34.6275 32.0669 34.6628 32.1852C34.6989 32.3129 34.735 32.442 34.771 32.5712C34.8013 32.6794 34.8324 32.7898 34.8627 32.9009C34.8713 32.9326 34.8821 32.9636 34.8894 32.9954C34.9081 33.0639 34.9276 33.1353 34.9478 33.2039C35.012 33.4376 35.0762 33.675 35.1426 33.9138C35.1671 34.0097 35.1931 34.1035 35.2183 34.1995C35.2977 34.4938 35.3785 34.791 35.4586 35.0897C35.5437 35.4093 35.6296 35.7318 35.7169 36.0521C35.7414 36.143 35.7674 36.2354 35.7919 36.327C35.8785 36.6444 35.9657 36.964 36.0516 37.2793C36.0581 37.3002 36.0632 37.3204 36.0689 37.3414C36.1432 37.6097 36.2175 37.8767 36.2933 38.1407C36.3164 38.2172 36.3366 38.2929 36.3611 38.3687C36.4145 38.5541 36.4679 38.7402 36.5234 38.9235C36.5523 39.0252 36.5833 39.124 36.6143 39.2236C36.6598 39.3802 36.7074 39.5374 36.755 39.6918C36.7896 39.7971 36.8214 39.9003 36.856 40.0049C36.9 40.1507 36.9491 40.2964 36.9953 40.4407C37.0335 40.5539 37.0696 40.6643 37.1071 40.7754C37.1432 40.88 37.1792 40.9847 37.2138 41.0857C37.255 41.2025 37.2954 41.3165 37.3365 41.4305C37.3726 41.5257 37.4058 41.621 37.4418 41.7133C37.4743 41.8013 37.5082 41.8872 37.5421 41.973C37.6114 42.1505 37.6799 42.3222 37.7513 42.4889C37.7852 42.5682 37.8177 42.6483 37.8523 42.7255C37.8834 42.7991 37.9187 42.8691 37.9497 42.9412C37.9981 43.0444 38.045 43.1454 38.0926 43.2428C38.1207 43.3005 38.1481 43.3568 38.1784 43.413C38.2405 43.5328 38.3011 43.6504 38.3638 43.7608C38.3754 43.7803 38.3848 43.8004 38.3963 43.8192C38.472 43.952 38.5492 44.0768 38.6257 44.1936C38.6409 44.2138 38.6539 44.234 38.6683 44.2535C38.7433 44.3653 38.8205 44.4685 38.897 44.5645C38.9107 44.5811 38.923 44.5962 38.9374 44.6128C38.9965 44.6835 39.0535 44.7448 39.1163 44.8061C39.1466 44.8393 39.1783 44.8747 39.2115 44.9057C39.2988 44.9865 39.3861 45.0586 39.4749 45.1185C39.5679 45.1799 39.6588 45.2491 39.7497 45.3234C39.78 45.3501 39.8103 45.3797 39.8413 45.4078C39.8983 45.4569 39.9539 45.5038 40.0073 45.5572C40.0094 45.5608 40.0145 45.5644 40.0181 45.568C40.1097 45.6582 40.1992 45.7541 40.2901 45.8558C40.2915 45.858 40.293 45.8602 40.2951 45.8623C40.3752 45.9547 40.456 46.0542 40.5354 46.1567C40.5375 46.1574 40.5383 46.1589 40.539 46.1603C40.5592 46.1863 40.5801 46.2173 40.6018 46.244C40.6551 46.3183 40.7129 46.3919 40.767 46.4705C40.7713 46.4756 40.7756 46.4828 40.7792 46.4878C40.8254 46.5535 40.8701 46.6235 40.9149 46.6913C40.9488 46.7418 40.9805 46.7872 41.0137 46.8385C41.0173 46.8435 41.0195 46.85 41.0216 46.855C41.1104 46.9914 41.1955 47.1321 41.2799 47.2771C41.2814 47.2793 41.2821 47.2807 41.2835 47.2821C41.2886 47.2908 41.2936 47.3009 41.298 47.3096C41.3889 47.4661 41.4769 47.6263 41.5656 47.7922C41.5764 47.811 41.5858 47.8283 41.5988 47.8485C41.6067 47.8694 41.6183 47.8918 41.6269 47.912C41.7553 48.1515 41.878 48.3975 41.9999 48.6507C42.005 48.6587 42.01 48.6659 42.0144 48.6753C42.0223 48.6947 42.0324 48.7164 42.0418 48.7359C42.1536 48.9718 42.2661 49.212 42.3765 49.4573C42.3787 49.4631 42.3823 49.4688 42.3852 49.4746C42.5035 49.7358 42.6196 50.0013 42.7343 50.2682C42.7372 50.2761 42.7416 50.2834 42.7452 50.2913C42.7473 50.2978 42.7524 50.3057 42.7546 50.3122C42.9227 50.7011 43.0886 51.0943 43.2545 51.486C43.4103 51.8532 43.5654 52.2168 43.7198 52.5754C43.7393 52.6237 43.761 52.6706 43.7819 52.7175C43.8829 52.9541 43.9882 53.1901 44.0914 53.4202C44.1008 53.4426 44.1116 53.4628 44.1202 53.4844C44.2162 53.6972 44.3129 53.9036 44.4088 54.107C44.429 54.1503 44.45 54.1943 44.4709 54.2354C44.5805 54.4649 44.6931 54.6856 44.8049 54.8999C44.8301 54.9461 44.8547 54.9929 44.8785 55.0398C44.9449 55.1632 45.0127 55.283 45.0783 55.4006C45.1 55.4381 45.1209 55.4763 45.1432 55.5131C45.1995 55.6127 45.258 55.7065 45.3171 55.7988C45.3381 55.8342 45.3604 55.8709 45.3806 55.9049C45.4044 55.9402 45.4282 55.9734 45.4499 56.0073C45.5025 56.0888 45.5559 56.1675 45.61 56.2447C45.6288 56.2713 45.6497 56.2973 45.6685 56.3247C45.7233 56.3998 45.7789 56.4748 45.833 56.5462C45.8575 56.5758 45.882 56.6047 45.9058 56.6328C45.9542 56.6912 46.0047 56.7497 46.0515 56.8045C46.0984 56.8579 46.1482 56.9077 46.1966 56.9574C46.2334 56.995 46.2701 57.0325 46.3069 57.0685C46.3675 57.1248 46.4267 57.1739 46.4873 57.2244C46.5169 57.2503 46.5479 57.2785 46.5811 57.303C46.6706 57.373 46.7643 57.4365 46.8603 57.4906C46.9375 57.536 47.0161 57.575 47.0948 57.6082C47.1272 57.6219 47.1575 57.632 47.19 57.6435C47.2318 57.6587 47.2722 57.6746 47.3155 57.6868C47.3689 57.7013 47.4216 57.7135 47.4735 57.7236C47.4908 57.7258 47.506 57.7308 47.5219 57.733C47.5955 57.7453 47.6683 57.7525 47.7441 57.7546C47.7643 57.7546 47.783 57.7554 47.8047 57.7561C47.9165 57.7611 48.0312 57.772 48.1452 57.79C48.1582 57.7922 48.1733 57.7972 48.1877 57.7994C48.2332 57.8073 48.2794 57.8181 48.3255 57.8275C48.3926 57.8419 48.459 57.8528 48.5275 57.8715C48.555 57.878 48.5795 57.891 48.6091 57.8982C48.6971 57.9249 48.7866 57.9581 48.8767 57.9906C48.9222 58.0079 48.9713 58.0194 49.0174 58.0382C49.0362 58.0461 49.0535 58.0584 49.0722 58.0663C49.2526 58.1442 49.4308 58.2301 49.6054 58.3311C49.762 58.4205 49.9127 58.5201 50.0621 58.6225C50.1082 58.6536 50.1501 58.6882 50.1948 58.7207C50.298 58.7957 50.4033 58.8722 50.5029 58.9537C50.5563 58.997 50.6089 59.0417 50.6601 59.0864C50.7503 59.1615 50.8383 59.2372 50.9249 59.3158C50.9783 59.3649 51.0331 59.4161 51.0872 59.4659C51.1363 59.5157 51.1897 59.5626 51.2409 59.6124C51.2597 59.6318 51.2763 59.652 51.2965 59.6715C51.4913 59.867 51.6788 60.0683 51.8599 60.2732C51.8729 60.2876 51.8844 60.2999 51.8974 60.3122C51.9219 60.3432 51.9443 60.3742 51.9717 60.4045C52.1146 60.5712 52.2502 60.7371 52.3801 60.9052C52.4003 60.929 52.4226 60.955 52.4428 60.9795C52.4522 60.991 52.4594 61.0048 52.4688 61.0163C52.621 61.214 52.7646 61.4088 52.9002 61.5999C52.9147 61.6201 52.9298 61.6403 52.9428 61.6591C52.9623 61.6865 52.9781 61.7096 52.9969 61.7363C53.1398 61.9448 53.2739 62.1461 53.3959 62.3344C53.4016 62.3416 53.4067 62.3495 53.4096 62.3553C53.442 62.4044 53.4658 62.4462 53.4961 62.4924C53.5373 62.558 53.5791 62.6244 53.6159 62.6864C53.6484 62.7377 53.6751 62.7831 53.7046 62.8314C53.74 62.8913 53.7761 62.949 53.8078 63.0039C53.8129 63.0147 53.8201 63.0262 53.8266 63.0363C53.8648 63.102 53.8994 63.1619 53.9297 63.2189C53.9398 63.2355 53.9463 63.2477 53.9557 63.2629C53.9867 63.3228 54.0192 63.3747 54.0437 63.423C54.0517 63.4353 54.0567 63.4468 54.0632 63.4584C54.087 63.5031 54.1072 63.5442 54.1267 63.5753C54.1267 63.5753 54.1267 63.5753 54.1281 63.576C54.1512 63.6207 54.1678 63.6532 54.175 63.6669L52.4767 64.6538C52.4702 64.6423 52.4558 64.612 52.4363 64.5766C52.4183 64.5442 52.3952 64.5002 52.3678 64.4518C52.3584 64.4352 52.349 64.4172 52.3389 64.3991C52.3173 64.358 52.2913 64.3111 52.2625 64.2606C52.2516 64.2419 52.2415 64.2238 52.2307 64.2029C52.1954 64.1409 52.1557 64.0709 52.1124 63.998C52.0785 63.9417 52.0395 63.8783 52.0049 63.8162C51.9746 63.7686 51.9472 63.7224 51.9169 63.6705C51.8794 63.6135 51.8419 63.5507 51.8043 63.4901C51.7676 63.4346 51.7344 63.379 51.6961 63.3206C51.5742 63.128 51.4342 62.9209 51.2856 62.7074C51.2604 62.672 51.2351 62.6367 51.2106 62.6013C51.0721 62.4051 50.9249 62.2031 50.7691 61.9989C50.7424 61.965 50.7157 61.9318 50.6897 61.8986C50.557 61.7305 50.4177 61.5603 50.2727 61.3914C50.2359 61.3474 50.1999 61.3041 50.1623 61.2609C49.9827 61.0567 49.7944 60.8547 49.5989 60.6592C49.5304 60.5906 49.4618 60.5235 49.3904 60.4565C49.3363 60.4038 49.2829 60.3518 49.2266 60.3028C49.1437 60.2277 49.0578 60.1534 48.9727 60.0813C48.9157 60.0337 48.8616 59.9846 48.8031 59.9399C48.7101 59.8634 48.6127 59.7927 48.5167 59.722C48.467 59.6845 48.4165 59.6455 48.3638 59.6095C48.2173 59.507 48.0651 59.4082 47.91 59.3195C47.7361 59.2192 47.5558 59.1319 47.3754 59.0547C47.3119 59.0258 47.2455 59.0027 47.1799 58.9789C47.0919 58.9457 47.0024 58.914 46.9115 58.8873C46.817 58.8592 46.7232 58.8361 46.6287 58.8166C46.5825 58.8065 46.5364 58.795 46.4902 58.787C46.343 58.7625 46.1973 58.7452 46.0487 58.7423C46.0386 58.7423 46.0277 58.7423 46.0169 58.7416C45.9563 58.738 45.8957 58.7322 45.8351 58.7228C45.8322 58.7228 45.8293 58.7221 45.8257 58.7207C45.8084 58.7185 45.7933 58.7134 45.776 58.7098C45.732 58.7019 45.6872 58.6947 45.6432 58.6824C45.6353 58.6803 45.6281 58.6766 45.6209 58.6745C45.5797 58.6629 45.5379 58.6463 45.4982 58.6326C45.4693 58.6225 45.4434 58.616 45.4167 58.6052C45.4102 58.6023 45.4037 58.5987 45.3994 58.5958C45.3207 58.5619 45.2414 58.5244 45.1635 58.4797C45.0682 58.4249 44.9752 58.3599 44.8814 58.2892C44.8568 58.2683 44.8273 58.2431 44.8006 58.22C44.7371 58.1673 44.6729 58.1146 44.6108 58.0555C44.6007 58.0461 44.5906 58.0382 44.5812 58.0288C44.556 58.0057 44.5329 57.9754 44.5077 57.9523C44.455 57.8975 44.4023 57.8441 44.3489 57.7849C44.3381 57.7712 44.3244 57.759 44.3129 57.7453C44.2818 57.7106 44.2537 57.6709 44.222 57.6363C44.1938 57.6002 44.1643 57.5663 44.1354 57.5303C44.1239 57.5166 44.1152 57.5057 44.1044 57.492C44.0683 57.4444 44.0308 57.3918 43.994 57.3427C43.9659 57.303 43.9356 57.2641 43.9067 57.2222C43.9038 57.2172 43.8995 57.2128 43.8952 57.2071C43.862 57.158 43.8273 57.1046 43.7941 57.0534C43.7545 56.9993 43.7198 56.9473 43.6852 56.8911C43.683 56.8882 43.6816 56.8853 43.6794 56.8831C43.6643 56.86 43.6499 56.8348 43.6362 56.8117C43.5727 56.7107 43.5092 56.6068 43.4457 56.5C43.4399 56.4914 43.4363 56.4849 43.4313 56.4762C43.4154 56.4503 43.401 56.4214 43.388 56.3969C43.318 56.2757 43.2487 56.1509 43.1802 56.0232C43.1687 56.0001 43.1549 55.9792 43.1441 55.9568C43.1319 55.9359 43.121 55.9128 43.1102 55.8926C42.997 55.6747 42.8844 55.4518 42.7726 55.2202C42.7661 55.2087 42.7603 55.1986 42.756 55.187C42.743 55.1589 42.7293 55.1286 42.7156 55.0997C42.616 54.8934 42.5194 54.6834 42.4227 54.4677C42.4119 54.4483 42.4054 54.4288 42.396 54.4093C42.2914 54.1784 42.1882 53.9418 42.0843 53.703C42.0735 53.6814 42.0649 53.6597 42.0548 53.6381C42.0447 53.6135 42.0353 53.5897 42.0237 53.5652C41.8665 53.2016 41.7113 52.8329 41.5548 52.4628C41.3975 52.0906 41.2395 51.719 41.0808 51.3489C41.0592 51.3013 41.0382 51.2508 41.0151 51.2018C40.9091 50.9557 40.8023 50.7133 40.6956 50.4731C40.6855 50.4543 40.6782 50.4356 40.6688 50.4161C40.5664 50.1903 40.4647 49.9703 40.3601 49.7524C40.3406 49.7113 40.3204 49.668 40.2995 49.6261C40.1819 49.3808 40.0614 49.1435 39.9395 48.9112C39.9157 48.8643 39.8911 48.8174 39.8673 48.7712C39.775 48.6009 39.6826 48.435 39.5889 48.2741C39.5889 48.2727 39.5881 48.272 39.5874 48.2705C39.5023 48.1219 39.4143 47.9783 39.3248 47.8384C39.3003 47.8001 39.2772 47.7633 39.2519 47.7273C39.1935 47.6407 39.1387 47.5548 39.081 47.4726C39.0377 47.4113 38.9958 47.3536 38.9511 47.2944C38.9157 47.2446 38.8768 47.192 38.8429 47.1443C38.8385 47.1415 38.8364 47.1393 38.8342 47.1364C38.757 47.0354 38.6784 46.9395 38.5976 46.8478C38.5067 46.7432 38.4143 46.6458 38.3205 46.5528C38.27 46.503 38.2188 46.4597 38.1669 46.4142C38.1286 46.3796 38.0926 46.3428 38.0543 46.3125C37.9642 46.2382 37.8733 46.1704 37.7809 46.1069C37.6994 46.0514 37.6186 45.9893 37.5392 45.9165C37.5306 45.9092 37.5233 45.8999 37.5154 45.8919C37.4865 45.8652 37.4591 45.8335 37.4288 45.8032C37.3834 45.7577 37.3394 45.7159 37.2946 45.6639C37.2766 45.6437 37.2586 45.6207 37.2405 45.5997C37.2283 45.5853 37.2175 45.5702 37.2052 45.555C37.1872 45.5341 37.1706 45.5139 37.1533 45.4937C37.1071 45.4331 37.0609 45.3703 37.0147 45.3039C36.9989 45.283 36.9852 45.2607 36.97 45.2412C36.9577 45.2217 36.9476 45.2037 36.9346 45.1849C36.9137 45.1539 36.8921 45.1236 36.8719 45.0911C36.8178 45.0045 36.763 44.9151 36.7096 44.822C36.706 44.8162 36.6995 44.8083 36.6973 44.8033C36.6908 44.7917 36.685 44.7809 36.68 44.7694C36.6367 44.6929 36.5912 44.6135 36.5472 44.5306C36.5249 44.4865 36.5011 44.4382 36.478 44.392C36.4527 44.343 36.4267 44.2932 36.4022 44.242C36.3835 44.2023 36.3633 44.1662 36.3431 44.1244C36.312 44.0609 36.2817 43.9895 36.2529 43.9231C36.2197 43.8524 36.1887 43.7839 36.1562 43.711C36.1432 43.6814 36.131 43.6547 36.1165 43.6244C36.0992 43.5811 36.0797 43.5321 36.061 43.4873C35.9874 43.3142 35.9153 43.136 35.8438 42.9513C35.828 42.9095 35.8106 42.8712 35.7948 42.8301C35.7796 42.7897 35.7637 42.7479 35.7508 42.7089C35.714 42.6166 35.6793 42.5206 35.644 42.4254C35.6007 42.3042 35.5581 42.1837 35.5141 42.0603C35.4817 41.9709 35.4506 41.8821 35.4211 41.7912C35.3951 41.7162 35.3691 41.6477 35.346 41.5719C35.328 41.52 35.3114 41.463 35.2926 41.4103C35.2501 41.279 35.2075 41.147 35.1657 41.0128C35.1296 40.8945 35.0928 40.7826 35.0582 40.6687Z" fill="#83239B"/>
<path d="M30.6671 28.0205C30.4716 27.9072 30.2732 27.8863 30.0676 27.9729C27.3924 29.0983 28.4616 39.1502 26.267 40.3969C25.7915 40.6689 25.2923 40.5715 24.7794 40.275C24.1777 39.9272 23.5565 39.3053 22.9332 38.6842C22.3092 38.0594 21.6822 37.4346 21.0704 37.0818C20.4096 36.6995 19.7646 36.6374 19.1615 37.2406C16.9676 39.4294 15.6221 41.1667 11.916 39.6574C8.21138 38.1496 6.66967 38.1532 6.58887 38.1539L52.4749 64.6461C52.3747 64.4542 50.4837 60.7994 47.906 59.311C47.3108 58.9683 46.6839 58.7497 46.0447 58.7346C45.7345 58.7259 45.4408 58.635 45.1587 58.4727C42.3386 56.8444 40.7926 48.125 37.7776 46.0999C34.7216 44.0445 33.0132 29.3739 30.6671 28.0205Z" fill="#922BAB"/>
<path d="M19.2141 45.4274C19.1644 45.4058 19.1138 45.3841 19.0626 45.3647C18.8801 45.2896 18.686 45.216 18.4761 45.1453C18.2279 45.0631 17.9667 44.978 17.6926 44.8921C17.6623 44.882 17.6298 44.8719 17.5974 44.8625C17.3427 44.781 17.0758 44.6995 16.8016 44.6151C16.7735 44.6071 16.7461 44.5978 16.7186 44.5898C16.438 44.5047 16.1487 44.4189 15.8572 44.3316C15.8067 44.3171 15.7562 44.302 15.7036 44.2875C15.4345 44.2075 15.161 44.1288 14.8891 44.0502C14.8429 44.0365 14.7974 44.0235 14.752 44.0098C14.4598 43.9261 14.1676 43.8431 13.8761 43.7609C13.8192 43.7443 13.7614 43.7292 13.703 43.7133C13.4462 43.6404 13.1915 43.5697 12.9412 43.4997C12.8755 43.481 12.8099 43.4629 12.7457 43.4449C12.4996 43.3764 12.2587 43.3107 12.0213 43.2458C11.9174 43.2169 11.8172 43.1895 11.7133 43.1614C11.5502 43.1174 11.3922 43.0741 11.2385 43.0322C9.86491 42.66 8.8181 42.3873 8.549 42.3173C8.52952 42.3129 8.50354 42.3057 8.49561 42.3036L10.1939 41.3159C10.2696 41.3361 10.6809 41.4422 11.302 41.6067C11.3273 41.6139 11.3518 41.6204 11.3771 41.6276C11.4781 41.6536 11.582 41.6824 11.6931 41.712C11.7652 41.7307 11.8424 41.7517 11.9182 41.7719C11.9506 41.7805 11.9802 41.7885 12.0134 41.7964C12.2392 41.8577 12.4744 41.9205 12.7262 41.9883C12.7752 42.002 12.8322 42.0172 12.882 42.0316C13.0681 42.0814 13.2607 42.134 13.4584 42.1874C13.5284 42.2069 13.5955 42.2257 13.6655 42.2451C13.9303 42.3158 14.2001 42.3909 14.4771 42.4681C14.5175 42.4789 14.5565 42.4904 14.5969 42.5013C14.8804 42.5799 15.169 42.6607 15.459 42.7415C15.4871 42.7494 15.5124 42.7574 15.5391 42.7646C15.85 42.8511 16.1631 42.9406 16.4755 43.0308C16.5008 43.0373 16.5231 43.0438 16.5477 43.051C16.8449 43.1368 17.1436 43.2227 17.435 43.3093C17.4675 43.3186 17.5007 43.328 17.5317 43.3367C17.8398 43.4283 18.142 43.5178 18.4371 43.6072C18.4479 43.6101 18.458 43.6137 18.471 43.6173C18.7589 43.7053 19.0388 43.7912 19.3079 43.8756C19.3324 43.885 19.3577 43.8929 19.3837 43.9001C19.6593 43.9881 19.9248 44.074 20.1715 44.157C20.3223 44.2067 20.4637 44.2587 20.6015 44.3114C20.6404 44.3265 20.6772 44.3409 20.7147 44.3568C20.7494 44.3705 20.7883 44.3842 20.8208 44.3979C20.854 44.4116 20.8807 44.4261 20.9117 44.439C21.0358 44.4932 21.1563 44.5458 21.2681 44.5999C21.3114 44.6209 21.3547 44.6418 21.3965 44.6627C21.5415 44.7356 21.6793 44.8077 21.8027 44.8806C22.2233 45.123 22.5436 45.3603 22.8149 45.5696C23.0876 45.7809 23.3083 45.9613 23.5255 46.0868C23.5846 46.1207 23.6431 46.151 23.7044 46.1763C23.7412 46.1914 23.778 46.2044 23.8169 46.2167C23.8328 46.2217 23.8501 46.229 23.8674 46.234C23.9165 46.247 23.9663 46.2564 24.0211 46.2629C24.0334 46.265 24.0478 46.2658 24.0622 46.2679C24.1077 46.2715 24.1546 46.2722 24.2008 46.2708C24.2145 46.2708 24.2267 46.2715 24.239 46.2701C24.2953 46.2679 24.3559 46.26 24.4179 46.2477C24.4475 46.2427 24.4807 46.234 24.5095 46.2268C24.5492 46.2167 24.5896 46.2073 24.6343 46.1943C24.7057 46.1727 24.7822 46.1445 24.8602 46.1135C24.8796 46.1063 24.8962 46.1005 24.9157 46.0926C25.0095 46.0529 25.1062 46.0075 25.2115 45.9548C25.3298 45.8949 25.4467 45.8408 25.5628 45.7918C25.5715 45.7882 25.5787 45.7867 25.5866 45.7824C25.7295 45.7247 25.8702 45.6749 26.008 45.6338C26.0094 45.633 26.0116 45.6316 26.0145 45.6316C26.1241 45.5991 26.2338 45.5753 26.3406 45.5559C26.3535 45.553 26.3673 45.5486 26.381 45.5457C26.4877 45.5277 26.5931 45.5147 26.6969 45.5082C26.7092 45.5068 26.7186 45.5082 26.7316 45.5068C26.7604 45.5053 26.7871 45.5068 26.8174 45.5068C26.8722 45.5053 26.9293 45.5025 26.9834 45.5046C27.0115 45.5053 27.0382 45.5111 27.0663 45.5126C27.1009 45.5154 27.1356 45.5191 27.1688 45.5234C27.1983 45.5263 27.2279 45.527 27.2546 45.532C27.3087 45.54 27.3629 45.5544 27.417 45.5652C27.4444 45.5717 27.4703 45.576 27.4978 45.5825C27.5079 45.5854 27.5187 45.5869 27.5302 45.5898C27.6132 45.6128 27.6969 45.6431 27.7798 45.6749C27.7979 45.6814 27.8166 45.6857 27.8347 45.6936C27.839 45.6936 27.8412 45.6951 27.8448 45.6965C27.9551 45.742 28.0663 45.7961 28.1759 45.8603C28.2892 45.9267 28.4046 46.0068 28.5193 46.0926C28.5561 46.12 28.5936 46.1525 28.629 46.1835C28.7069 46.247 28.7848 46.3148 28.862 46.3891C28.8836 46.4086 28.9031 46.4237 28.9248 46.4439C28.9507 46.4692 28.976 46.5002 29.0012 46.5269C29.0431 46.5702 29.0856 46.6149 29.1282 46.6611C29.1506 46.6864 29.1737 46.7087 29.1975 46.7354C29.2335 46.7765 29.2689 46.8234 29.305 46.8674C29.3295 46.8985 29.3562 46.928 29.3807 46.9605C29.3951 46.9771 29.4074 46.9922 29.4226 47.0103C29.4926 47.1012 29.5633 47.1971 29.634 47.2967C29.6347 47.2989 29.6376 47.3017 29.6383 47.3032C29.6513 47.3227 29.6642 47.3443 29.6787 47.3645C29.7349 47.4446 29.7898 47.5268 29.8446 47.6141C29.8612 47.6401 29.8785 47.669 29.8944 47.6957C29.9233 47.7397 29.9507 47.7873 29.9795 47.8335C30.0077 47.8811 30.0373 47.9265 30.0668 47.9763C30.095 48.0261 30.1231 48.0802 30.1519 48.13C30.1851 48.1898 30.2205 48.2519 30.2544 48.3154C30.2724 48.3471 30.2897 48.376 30.3071 48.4099C30.3698 48.5268 30.4326 48.648 30.4954 48.7728C30.5762 48.9401 30.662 49.0974 30.7479 49.2511C30.7659 49.2807 30.7818 49.3117 30.7998 49.3405C30.8842 49.4884 30.9694 49.6291 31.0588 49.7633C31.079 49.7972 31.1028 49.8297 31.1237 49.8622C31.2024 49.979 31.2832 50.0916 31.3633 50.1998C31.3799 50.2214 31.395 50.2452 31.4123 50.2669C31.5068 50.391 31.6049 50.5078 31.7009 50.6189C31.7586 50.6853 31.8163 50.743 31.8755 50.8051C31.926 50.8599 31.9794 50.9169 32.0306 50.9681C32.1843 51.1175 32.3394 51.2509 32.4959 51.3743C32.5327 51.4039 32.5702 51.4313 32.6085 51.4609C32.7672 51.5792 32.9281 51.6889 33.089 51.7819C33.2513 51.8743 33.4136 51.9522 33.5767 52.0214C33.6257 52.0424 33.6733 52.0611 33.7195 52.0799C33.8429 52.1268 33.9655 52.1686 34.0889 52.204C34.1336 52.2177 34.1776 52.2328 34.2216 52.2436C34.35 52.2768 34.4763 52.3042 34.604 52.3244C34.6249 52.3281 34.6458 52.3338 34.6667 52.3367C34.819 52.3591 34.9669 52.3728 35.1148 52.3807C35.1508 52.3836 35.1869 52.3814 35.2252 52.3836C35.3435 52.3858 35.4618 52.385 35.5779 52.3793C35.6227 52.3771 35.666 52.3742 35.71 52.3706C35.8499 52.3598 35.9921 52.3432 36.1298 52.3208C36.1565 52.3165 36.1847 52.3143 36.2121 52.3093C36.2142 52.3086 36.2164 52.3079 36.2164 52.3079C36.2417 52.3042 36.2669 52.3014 36.2922 52.2985C36.3181 52.2978 36.3448 52.2978 36.3708 52.2985C36.3722 52.2985 36.3723 52.2985 36.3723 52.2985C36.3751 52.2985 36.378 52.2985 36.3795 52.2992C36.4069 52.3006 36.4336 52.3035 36.4595 52.3064C36.4841 52.3115 36.5057 52.3165 36.5302 52.3216C36.536 52.323 36.5454 52.3244 36.5512 52.3266C36.5555 52.3273 36.5613 52.3281 36.567 52.3295C36.6139 52.3418 36.6601 52.3584 36.7099 52.3786C36.7099 52.3786 36.7121 52.3807 36.7142 52.3814C36.7741 52.406 36.8361 52.437 36.8989 52.4731C36.9941 52.5286 37.0944 52.5986 37.1925 52.6765C37.2055 52.6873 37.2185 52.696 37.2322 52.7068C37.3267 52.7833 37.4234 52.8699 37.5186 52.9629C37.5294 52.9709 37.5367 52.9774 37.5453 52.986C37.554 52.9939 37.5612 53.004 37.5684 53.012C37.6672 53.1094 37.7661 53.2154 37.8642 53.3287C37.8714 53.3359 37.8794 53.3417 37.8844 53.3489C37.8945 53.3604 37.9017 53.3727 37.9125 53.3835C38.0099 53.4968 38.108 53.6166 38.2069 53.7428C38.2112 53.7493 38.2155 53.7536 38.2191 53.7594C38.2271 53.7702 38.2379 53.7832 38.2444 53.7933C38.3562 53.939 38.4666 54.0891 38.5784 54.2457C38.5813 54.25 38.5835 54.2543 38.5871 54.2594C38.5936 54.2673 38.6001 54.2767 38.6044 54.2839C38.7379 54.4744 38.8684 54.672 38.9983 54.874C39.0041 54.8834 39.0091 54.8928 39.0164 54.9022C39.0236 54.9101 39.0272 54.9202 39.0315 54.9289C39.2025 55.1965 39.3684 55.4699 39.5293 55.7455C39.5329 55.7499 39.5351 55.7542 39.5372 55.7585C39.5423 55.7665 39.5459 55.7737 39.5502 55.7809C39.6548 55.9605 39.7566 56.1409 39.8554 56.3176C39.8691 56.3407 39.8821 56.3631 39.8929 56.3847C39.9917 56.5586 40.0841 56.731 40.1728 56.8999C40.1793 56.9092 40.1837 56.9186 40.1887 56.928C40.1945 56.9403 40.2002 56.9511 40.206 56.9633C40.2738 57.0881 40.3387 57.213 40.4008 57.3334C40.4073 57.3464 40.4116 57.3572 40.4174 57.3695C40.4744 57.4806 40.5299 57.5867 40.5826 57.6927C40.5963 57.7172 40.6079 57.7411 40.6208 57.7663C40.675 57.8738 40.7262 57.9784 40.776 58.0794C40.7882 58.1011 40.7969 58.1213 40.8084 58.1436C40.8539 58.2345 40.895 58.3218 40.9347 58.4048C40.939 58.4113 40.9419 58.4192 40.9455 58.425C40.9484 58.4286 40.9491 58.4315 40.9513 58.4351C41.0046 58.5476 41.0544 58.6515 41.0984 58.7475C41.1049 58.7583 41.1092 58.7677 41.1129 58.7785C41.1576 58.8701 41.1958 58.9524 41.2276 59.0238C41.2312 59.0296 41.2341 59.0353 41.2362 59.0404C41.3026 59.1854 41.3473 59.2828 41.3618 59.3145L39.6635 60.3022C39.6584 60.2921 39.6469 60.2654 39.6375 60.243C39.626 60.2199 39.6123 60.1896 39.5964 60.155C39.5841 60.129 39.5718 60.1002 39.5581 60.0684C39.5452 60.0425 39.5322 60.0136 39.517 59.9833C39.4911 59.927 39.46 59.8628 39.4283 59.7936C39.416 59.7662 39.4038 59.7373 39.3893 59.7084C39.3482 59.6262 39.3071 59.5353 39.2588 59.4379C39.2479 59.4141 39.2364 59.3888 39.2241 59.3643C39.1866 59.2893 39.1498 59.2128 39.1116 59.1334C39.1 59.1104 39.0885 59.088 39.0762 59.0649C39.0279 58.9639 38.9767 58.8586 38.9204 58.7504C38.9103 58.7273 38.8966 58.7027 38.885 58.6797C38.8331 58.5758 38.7797 58.4712 38.7213 58.3629C38.7162 58.3471 38.7083 58.3326 38.7011 58.3175C38.6398 58.1992 38.5748 58.0787 38.5099 57.9553C38.4969 57.9308 38.4839 57.9063 38.4709 57.881C38.3822 57.7151 38.2891 57.5448 38.1939 57.3738C38.1809 57.3493 38.1701 57.3248 38.1549 57.3017C38.0583 57.1249 37.9565 56.9467 37.8527 56.7693C37.8447 56.7556 37.8361 56.7426 37.8296 56.7303C37.6701 56.4547 37.5028 56.182 37.3332 55.9144C37.3202 55.8963 37.3101 55.8783 37.2964 55.8595C37.168 55.6575 37.0367 55.4598 36.9047 55.2701C36.8953 55.2571 36.8859 55.2441 36.878 55.2311C36.7683 55.0746 36.6565 54.9253 36.5461 54.7795C36.5324 54.7622 36.5201 54.7442 36.5057 54.7276C36.4083 54.602 36.3102 54.4823 36.2128 54.369C36.1969 54.3503 36.1818 54.3315 36.1659 54.3128C36.0664 54.1995 35.9675 54.0949 35.868 53.996C35.8528 53.9802 35.8355 53.9636 35.8211 53.9477C35.7244 53.8546 35.627 53.7681 35.5325 53.6916C35.5209 53.6808 35.5072 53.6721 35.4935 53.6613C35.3947 53.5841 35.2959 53.5134 35.1999 53.4578C35.1379 53.421 35.0765 53.3915 35.0167 53.3662C34.9604 53.3438 34.9063 53.3258 34.8536 53.3114C34.8442 53.3092 34.8385 53.3085 34.8298 53.3063C34.7793 53.2955 34.7302 53.2869 34.6812 53.284C34.679 53.284 34.6761 53.2832 34.6747 53.2832C34.6199 53.2811 34.565 53.284 34.5124 53.2941C34.5001 53.2955 34.4907 53.2977 34.4792 53.2998C34.4626 53.3027 34.446 53.3034 34.4287 53.3056C34.2916 53.3287 34.1516 53.3446 34.0095 53.3561C33.9879 53.3576 33.9655 53.3626 33.9453 53.364C33.9222 53.3648 33.8999 53.3626 33.8782 53.364C33.7606 53.3698 33.6445 53.3713 33.524 53.3677C33.4966 53.3669 33.4713 53.3698 33.4432 53.3684C33.4324 53.3684 33.4244 53.3662 33.4143 53.3655C33.2679 53.3583 33.1164 53.3453 32.9678 53.3222C32.9641 53.3222 32.962 53.3222 32.9584 53.3215C32.9425 53.3193 32.9237 53.3135 32.9086 53.3107C32.7802 53.2897 32.6496 53.2616 32.5197 53.2284C32.5046 53.2248 32.4887 53.2226 32.4728 53.2183C32.4469 53.2111 32.4187 53.1981 32.3906 53.1909C32.2665 53.1541 32.1424 53.1108 32.0191 53.0639C31.9895 53.0531 31.9613 53.0459 31.9339 53.0351C31.9159 53.0271 31.8978 53.0149 31.8805 53.0077C31.7168 52.937 31.553 52.8598 31.3892 52.766C31.2269 52.6729 31.0667 52.5618 30.9073 52.4435C30.8712 52.4161 30.8344 52.3887 30.7984 52.3598C30.6396 52.2357 30.4845 52.1022 30.3316 51.9529C30.3258 51.9486 30.32 51.945 30.3164 51.9392C30.2645 51.888 30.214 51.8303 30.1621 51.7754C30.1108 51.7199 30.056 51.6672 30.0041 51.6081C29.9983 51.6016 29.9918 51.5936 29.9853 51.5864C29.9002 51.4897 29.8165 51.3866 29.7335 51.2798C29.727 51.2704 29.7205 51.261 29.7126 51.2509C29.6953 51.2293 29.6794 51.2069 29.6628 51.1846C29.6145 51.1182 29.5654 51.054 29.5171 50.9854C29.4853 50.94 29.455 50.8931 29.4218 50.8462C29.4031 50.8159 29.3814 50.7856 29.3612 50.7553C29.3482 50.7315 29.3324 50.7106 29.3158 50.686C29.2509 50.5836 29.1859 50.479 29.1232 50.3701C29.116 50.3563 29.1073 50.3426 29.1008 50.3289C29.0842 50.2993 29.0662 50.2683 29.0503 50.2387C29.0106 50.1688 28.9709 50.1002 28.9327 50.0281C28.8851 49.9401 28.8404 49.8506 28.7949 49.7583C28.7148 49.5974 28.6326 49.4459 28.5532 49.2973C28.5208 49.2374 28.4876 49.1789 28.4558 49.1212C28.3952 49.0152 28.3361 48.912 28.2755 48.8132C28.2495 48.7699 28.2242 48.7259 28.199 48.6848C28.1218 48.5636 28.0453 48.4467 27.9681 48.3363C27.9587 48.3211 27.9501 48.3067 27.9393 48.2916C27.8549 48.1711 27.7712 48.0578 27.6846 47.9489C27.6572 47.9157 27.6305 47.884 27.6038 47.8515C27.5468 47.7793 27.4869 47.7122 27.427 47.6459C27.3852 47.599 27.3426 47.5528 27.2993 47.5088C27.2553 47.4634 27.2106 47.4201 27.1659 47.3775C27.0865 47.3017 27.0043 47.2325 26.9257 47.1661C26.891 47.138 26.8542 47.107 26.8203 47.0795C26.7071 46.993 26.5923 46.9136 26.4762 46.8465C26.3622 46.7809 26.2497 46.7268 26.1349 46.6799C26.1169 46.6719 26.0967 46.6676 26.0794 46.6604C25.9856 46.6243 25.8925 46.5926 25.7973 46.568C25.7721 46.5615 25.7439 46.5579 25.7194 46.5529C25.635 46.5341 25.552 46.5197 25.4676 46.5096C25.433 46.5053 25.402 46.5017 25.3702 46.4995C25.2844 46.493 25.1978 46.4908 25.1127 46.493C25.0852 46.4937 25.06 46.4923 25.0311 46.4937C24.7945 46.506 24.5521 46.5486 24.3054 46.6207C24.1661 46.6611 24.0233 46.7123 23.8819 46.7715C23.7585 46.822 23.6344 46.8775 23.5103 46.9417C23.4072 46.9937 23.309 47.0399 23.2181 47.0781C23.216 47.0795 23.2102 47.0817 23.2066 47.0824C23.1871 47.0911 23.1691 47.0954 23.1496 47.1033C23.0753 47.1329 23.0024 47.1603 22.9361 47.1813C22.9252 47.1834 22.9159 47.1885 22.9065 47.1914C22.8682 47.2022 22.8322 47.208 22.7968 47.2166C22.7716 47.2231 22.7456 47.2296 22.7218 47.2346C22.7153 47.2354 22.7088 47.2383 22.7016 47.239C22.6496 47.2476 22.5955 47.2541 22.5472 47.2577C22.5422 47.2585 22.5378 47.2577 22.5335 47.2577C22.5248 47.2585 22.5162 47.2577 22.5082 47.2585C22.4772 47.2599 22.444 47.2606 22.4137 47.2599C22.3964 47.2585 22.3769 47.2556 22.3596 47.2541C22.3466 47.2534 22.3329 47.2512 22.3185 47.2498C22.3084 47.2476 22.3005 47.2476 22.2911 47.2469C22.25 47.2404 22.2088 47.2318 22.167 47.2217C22.1648 47.2202 22.1641 47.2202 22.1612 47.2195C22.1526 47.2166 22.1446 47.213 22.1345 47.2101C22.0956 47.1979 22.0552 47.1849 22.0169 47.169C22.0119 47.1668 22.0076 47.1639 22.0032 47.1625C21.9426 47.1373 21.8827 47.1077 21.8236 47.073C21.6057 46.9468 21.3857 46.7657 21.1122 46.5558C20.8417 46.3465 20.5207 46.1078 20.1015 45.8668C19.976 45.7932 19.8382 45.7211 19.6917 45.6475C19.6528 45.628 19.6102 45.6092 19.5691 45.589C19.4594 45.5356 19.3404 45.4815 19.2141 45.4274Z" fill="#09B4C6"/>
<path d="M26.4793 46.8479C25.5624 46.3198 24.5906 46.397 23.5149 46.9431C22.6997 47.3572 22.2704 47.3305 21.8289 47.0751C21.611 46.9489 21.391 46.7678 21.1175 46.5579C20.847 46.3486 20.526 46.1098 20.1068 45.8689C19.6797 45.6221 19.1538 45.3725 18.4771 45.146C15.1108 44.0241 8.827 42.3915 8.49658 42.3057L39.6659 60.3007C39.5368 60.0135 37.0831 54.545 35.2045 53.4599C34.9613 53.32 34.7298 53.2572 34.5177 53.2962C33.5387 53.4736 32.4428 53.3741 31.3938 52.7688C30.4552 52.2263 29.552 51.2783 28.7995 49.7604C28.0499 48.2533 27.2859 47.3147 26.4793 46.8479Z" fill="#0BE1F7"/>
<g opacity="0.1">
<path d="M9.14488 52.245C5.40418 54.405 5.38254 57.9069 9.10086 60.067C12.8199 62.2306 18.8663 62.2291 22.6077 60.067C26.3513 57.9069 26.3715 54.4058 22.6518 52.245C18.9327 50.0829 12.887 50.0829 9.14488 52.245Z" fill="black"/>
</g>
<path d="M22.1354 23.7897C22.1354 23.7897 21.7704 24.6879 22.8908 25.2903C22.8908 25.2903 23.183 24.2629 22.1354 23.7897Z" fill="#3D93FF"/>
<path d="M22.0326 24.1973C22.0326 24.1973 22.1488 23.8381 22.6928 23.3742C23.236 22.911 23.4943 22.942 23.9373 22.8331C24.3759 22.7227 24.6522 22.7083 24.7756 22.8843C24.9401 23.1166 24.7482 23.5957 23.8745 23.8951C22.9727 24.2017 22.9272 25.0941 22.7599 25.2052C22.5925 25.3199 21.9252 24.4066 22.0326 24.1973Z" fill="#FFAA83"/>
<path d="M22.8659 24.2521C22.9193 24.1453 23.3031 24.3487 24.1933 23.9801C24.883 23.6944 24.1457 24.3985 23.9848 24.4728C23.8232 24.5479 22.7266 25.2058 22.7266 25.2058C22.7266 25.2058 22.6834 24.6243 22.8659 24.2521Z" fill="#FFAA83"/>
<path d="M12.5269 21.8253C12.3912 21.1536 13.249 19.9784 14.2547 20.557C15.1616 21.0786 17.1333 25.4318 17.9435 25.8098C18.1981 25.9296 22.1351 23.7898 22.1351 23.7898C22.1351 23.7898 21.8119 24.566 22.8904 25.2904C22.8904 25.2904 18.4788 28.4972 17.3591 27.8674C15.4386 26.7874 12.9172 23.7472 12.5269 21.8253Z" fill="#3D93FF"/>
<path d="M13.1852 34.2646C13.1852 34.2646 14.1873 35.8474 15.1944 35.6519C16.203 35.4578 16.3386 35.24 15.9108 34.9672C15.4837 34.6945 14.3575 33.924 14.5732 33.8533C14.7882 33.7805 15.2608 33.8865 15.211 33.6802C15.1612 33.4746 13.7342 33.1997 13.7342 33.1997L12.7437 33.6824L13.1852 34.2646Z" fill="#FFAA83"/>
<path d="M12.4922 54.2268C12.5507 54.2391 15.632 54.1374 14.943 55.2571C14.4979 55.9807 13.8825 56.1084 13.4222 56.1213C12.9619 56.1351 12.12 55.8739 11.9108 56.003C11.7023 56.1343 10.6591 56.8356 10.0617 56.1314C9.93978 55.9879 9.86113 55.5745 9.93977 55.3112C10.0191 55.0471 12.1539 54.1626 12.4922 54.2268Z" fill="#5BB0FF"/>
<path d="M14.9429 55.2572C14.4978 55.9808 13.8824 56.1085 13.4221 56.1215C12.9618 56.1352 12.1199 55.874 11.9107 56.0031C11.7022 56.1345 10.659 56.8357 10.0616 56.1316C9.99525 56.0536 9.94256 55.8971 9.92236 55.7283C10.3379 56.3256 11.3595 56.1619 11.6474 55.9635C11.9677 55.742 12.4359 55.6294 12.8377 55.7095C13.2403 55.7903 14.1154 55.6929 14.5519 55.281C14.8174 55.0306 14.8051 54.7442 14.7532 54.5574C15.023 54.7089 15.142 54.9296 14.9429 55.2572Z" fill="#3D93FF"/>
<path d="M10.955 31.0894C10.955 31.0894 8.34911 33.429 10.2783 38.9322C10.6996 40.1319 11.5343 42.6837 11.2565 43.9376C10.9232 45.4439 10.4355 45.0176 10.0835 50.002C9.77108 54.4028 9.82736 53.4491 9.72275 55.2325C9.69317 55.7426 11.6194 56.2743 11.9095 55.4857C13.1814 52.0358 14.946 44.8091 14.586 40.8231C14.2274 36.8378 13.9988 33.1108 13.9988 33.1108C13.9988 33.1108 12.2081 32.2249 10.955 31.0894Z" fill="#0E007A"/>
<path d="M18.437 56.9098C18.4984 56.9098 21.6511 56.2281 21.1353 57.5086C20.8027 58.3368 20.1916 58.585 19.7191 58.6846C19.248 58.7849 18.3368 58.6738 18.1427 58.8476C17.9508 59.0208 16.9985 59.9384 16.2648 59.3252C16.1147 59.2004 15.9603 58.7906 15.9986 58.5042C16.0339 58.2192 18.0756 56.9084 18.437 56.9098Z" fill="#5BB0FF"/>
<path d="M21.1353 57.5088C20.8027 58.337 20.1916 58.5852 19.7191 58.6847C19.248 58.785 18.3368 58.6739 18.1427 58.8478C17.9508 59.0209 16.9985 59.9386 16.2648 59.3254C16.1833 59.2576 16.1017 59.1075 16.0498 58.9372C16.5808 59.474 17.6074 59.114 17.865 58.8572C18.1571 58.5686 18.6196 58.3644 19.0474 58.3716C19.4774 58.3803 20.3597 58.1155 20.7392 57.6091C20.9701 57.3039 20.9044 57.0103 20.8207 56.827C21.123 56.9309 21.2853 57.1358 21.1353 57.5088Z" fill="#3D93FF"/>
<path d="M11.8959 33.8583C11.8959 33.8583 9.73156 36.0912 13.6043 41.7466C13.6043 41.7466 15.4829 45.7715 15.418 47.0571C15.3393 48.6003 14.6987 48.7417 15.3264 53.7803C15.8718 58.1544 15.6438 58.2489 15.9923 58.6139C16.3609 59.0021 18.1977 58.6255 18.2612 57.8478C18.606 53.5667 19.295 47.2743 18.8968 43.2933C18.4387 38.7194 18.1032 34.9628 18.1032 34.9628C18.1032 34.9628 13.3179 34.7507 11.8959 33.8583Z" fill="#160F96"/>
<path d="M20.2263 25.7103C20.2263 25.7103 21.0523 23.8237 18.0143 21.9479C14.977 20.0722 12.9483 19.6913 12.527 21.5259C12.105 23.3605 12.263 26.2434 12.0473 27.0738C11.522 29.0874 11.3366 29.6797 10.644 30.6572C9.48107 32.2985 9.23218 34.3864 14.3645 35.7874C15.2635 36.0334 18.3274 36.9006 18.357 34.6778C18.4515 27.8039 19.3966 27.8248 20.2263 25.7103Z" fill="url(#paint0_linear_729_503)"/>
<path d="M27.3881 24.322C27.3881 24.322 27.2734 25.2852 28.5114 25.5716C28.5114 25.5716 28.5243 24.5031 27.3881 24.322Z" fill="#3D93FF"/>
<path d="M28.3016 25.4771C28.3016 25.4771 28.6674 25.3833 29.1623 24.8689C29.6587 24.3546 29.6428 24.0948 29.7784 23.6612C29.9162 23.2291 29.9472 22.9542 29.7792 22.8193C29.5569 22.6411 29.0685 22.8042 28.715 23.6584C28.3536 24.5385 27.4611 24.5284 27.3399 24.6907C27.2144 24.8502 28.0859 25.5724 28.3016 25.4771Z" fill="#FFAA83"/>
<path d="M28.2955 24.6418C28.4073 24.5949 28.2269 24.1995 28.6497 23.3352C28.978 22.6636 28.2291 23.3569 28.1447 23.5127C28.061 23.6685 27.3374 24.7233 27.3374 24.7233C27.3374 24.7233 27.9146 24.8019 28.2955 24.6418Z" fill="#FFAA83"/>
<path d="M17.6038 24.9519C17.2943 24.3387 17.8138 22.9809 18.9371 23.2745C19.9485 23.5393 22.9952 27.2201 23.8775 27.3738C24.1538 27.4214 27.3888 24.3228 27.3888 24.3228C27.3888 24.3228 27.2806 25.1561 28.5121 25.5724C28.5121 25.5724 25.0996 29.826 23.8537 29.5122C21.7153 28.974 18.484 26.7036 17.6038 24.9519Z" fill="#5BB0FF"/>
<path d="M18.1799 19.6703C18.1799 19.6703 17.431 20.9372 17.8985 21.9804C18.1517 22.5439 14.0864 22.3382 14.8699 21.0534C15.5596 19.9228 15.4052 18.9006 14.7271 17.8126L18.1799 19.6703Z" fill="#FFAA83"/>
<path d="M17.8132 20.6283C17.8132 20.6283 16.9871 20.2431 16.5514 19.8427L16.4864 19.8607L16.1394 19.8722L15.4028 19.4985C15.4028 19.4985 15.8754 21.4024 17.7887 21.6347C17.7887 21.6347 17.7086 21.2019 17.8132 20.6283Z" fill="#EF916C"/>
<path d="M19.4085 14.064C19.4085 14.064 20.0643 15.0675 20.2187 16.8531C20.3723 18.6437 20.3731 20.008 19.3356 20.5491C18.8501 20.8016 15.771 20.8636 15.1765 17.1756C14.7956 14.8273 16.8777 12.2856 19.4085 14.064Z" fill="#FFAA83"/>
<path d="M19.9779 14.4362C20.8306 15.0134 21.4878 15.3467 19.7708 15.926C18.4051 16.3863 18.597 18.2873 18.0927 18.5304C17.8092 18.6668 17.9391 18.174 17.5315 17.788C17.3396 17.6062 16.8425 17.4829 16.7364 18.2411C16.639 18.9402 17.2061 19.9949 16.8338 20.1674C16.2718 20.4264 15.0641 19.6696 14.5656 18.8767C13.8521 17.7347 13.3341 14.6534 15.73 13.4211C17.7861 12.3628 19.2932 13.973 19.9779 14.4362Z" fill="#994E17"/>
<defs>
<linearGradient id="paint0_linear_729_503" x1="16.8666" y1="19.6214" x2="13.9212" y2="35.235" gradientUnits="userSpaceOnUse">
<stop stop-color="#5AB0FF"/>
<stop offset="1" stop-color="#3C84F7"/>
</linearGradient>
</defs>
</svg>
