<svg width="76" height="72" viewBox="0 0 76 72" fill="none" xmlns="http://www.w3.org/2000/svg">
<path opacity="0.1" d="M69.4386 60.0744C69.0193 59.3131 68.3623 58.5994 67.4689 57.9874C65.4068 56.5759 62.5675 56.0314 59.9072 56.35C58.227 56.5514 56.6177 57.096 55.3244 57.9874C53.8269 59.019 53.0065 60.3386 52.856 61.6873C52.6699 63.3485 53.5052 65.0548 55.3632 66.3277C58.183 68.2576 62.4603 68.5709 65.7395 67.2628C66.3726 67.0116 66.9695 66.6991 67.5089 66.3277C69.9612 64.6382 70.6027 62.1736 69.4386 60.0744Z" fill="black"/>
<g opacity="0.1">
<path d="M0.0688477 59.1801L13.0673 68.7748L52.2088 41.9842L38.7471 32.7096L0.0688477 59.1801Z" fill="black"/>
</g>
<path d="M16.0416 69.5864C15.8246 69.4394 15.6069 69.2931 15.3891 69.1468C15.1992 69.0166 15.008 68.8887 14.8181 68.7608C14.6824 68.6681 14.5467 68.577 14.4098 68.4851C14.1146 68.2867 13.9292 67.8579 13.9233 67.2467L15.5545 68.3488C15.5604 68.9592 15.7451 69.3865 16.0416 69.5864Z" fill="#88B5EA"/>
<mask id="mask0_729_721" style="mask-type:luminance" maskUnits="userSpaceOnUse" x="13" y="67" width="4" height="3">
<path d="M16.0416 69.5864C15.8246 69.4394 15.6069 69.2931 15.3891 69.1468C15.1992 69.0166 15.008 68.8887 14.8181 68.7608C14.6824 68.6681 14.5467 68.577 14.4098 68.4851C14.1146 68.2867 13.9292 67.8579 13.9233 67.2467L15.5545 68.3488C15.5604 68.9592 15.7451 69.3865 16.0416 69.5864Z" fill="white"/>
</mask>
<g mask="url(#mask0_729_721)">
<path d="M16.0416 69.5864L14.4098 68.4851C14.1146 68.2867 13.9292 67.8579 13.9233 67.2467L15.5545 68.3488C15.5604 68.9592 15.7451 69.3865 16.0416 69.5864Z" fill="#88B5EA"/>
</g>
<mask id="mask1_729_721" style="mask-type:luminance" maskUnits="userSpaceOnUse" x="20" y="27" width="3" height="2">
<path d="M20.3594 27.5941C20.5209 27.7037 20.7431 27.686 20.9854 27.5153L22.6178 28.6166C22.3749 28.7866 22.1527 28.8042 21.9919 28.6954C21.5028 28.3646 20.8503 27.9258 20.3594 27.5941Z" fill="white"/>
</mask>
<g mask="url(#mask1_729_721)">
<path d="M21.9925 28.6953L20.3594 27.594L20.3652 27.5971L21.997 28.6991L21.9925 28.6953Z" fill="#2A70EA"/>
<path d="M21.9971 28.6991L20.3652 27.597C20.3794 27.6078 20.3956 27.6154 20.4105 27.6231L22.041 28.7244C22.0261 28.7175 22.0106 28.7075 21.9971 28.6991Z" fill="#131395"/>
<path d="M22.0412 28.7238L20.4106 27.6224C20.4261 27.6309 20.441 27.6355 20.4572 27.6408L22.089 28.7421C22.0728 28.7383 22.0567 28.7314 22.0412 28.7238Z" fill="#3055A8"/>
<path d="M22.0889 28.7428L20.457 27.6415C20.4732 27.6468 20.4893 27.6522 20.5068 27.6545L22.138 28.7566C22.1205 28.7535 22.1037 28.7474 22.0889 28.7428Z" fill="#3158AD"/>
<path d="M22.138 28.7567L20.5068 27.6547C20.5243 27.6593 20.5424 27.6608 20.5598 27.6615L22.1923 28.7636C22.1736 28.7629 22.1555 28.7598 22.138 28.7567Z" fill="#325AB3"/>
<path d="M22.1916 28.7628L20.5591 27.6608C20.5785 27.6615 20.5978 27.663 20.6185 27.6615L22.2497 28.7628C22.2297 28.7644 22.2096 28.7636 22.1916 28.7628Z" fill="#345DB8"/>
<path d="M22.2498 28.7636L20.6187 27.6623C20.6406 27.6607 20.6619 27.6577 20.6845 27.6531L22.3164 28.7551C22.2938 28.759 22.2725 28.7621 22.2498 28.7636Z" fill="#355FBD"/>
<path d="M22.3159 28.7551L20.6841 27.653C20.7093 27.6476 20.7345 27.6415 20.761 27.6323L22.3928 28.7344C22.365 28.7428 22.3405 28.7497 22.3159 28.7551Z" fill="#3762C2"/>
<path d="M22.3926 28.7343L20.7607 27.6322C20.795 27.6208 20.8286 27.6077 20.8635 27.5894L22.4959 28.6907C22.4611 28.7075 22.4255 28.7221 22.3926 28.7343Z" fill="#3865C7"/>
<path d="M22.4958 28.6899L20.8633 27.5886C20.9046 27.5671 20.946 27.5434 20.9854 27.5143L22.6179 28.6156C22.5778 28.6455 22.5352 28.67 22.4958 28.6899Z" fill="#131395"/>
</g>
<path d="M15.2324 35.8501L13.6006 34.748L54.3235 6.30005L55.9553 7.40214L15.2324 35.8501Z" fill="#96B2DB"/>
<mask id="mask2_729_721" style="mask-type:luminance" maskUnits="userSpaceOnUse" x="20" y="25" width="4" height="4">
<path d="M21.8473 25.7125C21.8441 25.3839 21.7427 25.1534 21.5857 25.0454L23.2175 26.1467C23.3758 26.2539 23.4759 26.4837 23.4798 26.813C23.4862 27.4701 23.1019 28.2804 22.6193 28.6166L20.9868 27.5153C21.47 27.1791 21.8531 26.3704 21.8473 25.7125Z" fill="white"/>
</mask>
<g mask="url(#mask2_729_721)">
<path d="M22.6183 28.6173L20.9858 27.516C21.0892 27.444 21.1867 27.3521 21.2765 27.2449L22.909 28.3454C22.8192 28.4534 22.7204 28.5445 22.6183 28.6173Z" fill="#131395"/>
<path d="M22.9093 28.3445L21.2769 27.244C21.3092 27.2049 21.3408 27.1643 21.3718 27.1215L23.0037 28.2228C22.9739 28.2672 22.9416 28.3062 22.9093 28.3445Z" fill="#3865C7"/>
<path d="M23.0044 28.2228L21.3726 27.1215C21.3971 27.0885 21.421 27.0533 21.443 27.0181L23.0742 28.1194C23.0516 28.1562 23.0283 28.1906 23.0044 28.2228Z" fill="#3762C2"/>
<path d="M23.0731 28.1194L21.4419 27.0181C21.4606 26.9867 21.48 26.9545 21.4994 26.9231L23.1299 28.0244C23.1118 28.0581 23.0938 28.0887 23.0731 28.1194Z" fill="#355FBD"/>
<path d="M23.1305 28.0254L21.5 26.9241C21.5174 26.895 21.5336 26.8651 21.5497 26.8345L23.1809 27.9343C23.1654 27.9664 23.1493 27.9963 23.1305 28.0254Z" fill="#345DB8"/>
<path d="M23.181 27.9342L21.5498 26.8344C21.5653 26.8045 21.5808 26.7754 21.5957 26.7463L23.2269 27.8476C23.2114 27.8752 23.1965 27.9051 23.181 27.9342Z" fill="#325AB3"/>
<path d="M23.2264 27.8469L21.5952 26.7456C21.6088 26.7157 21.6217 26.6866 21.6359 26.6567L23.2665 27.758C23.2535 27.7871 23.24 27.817 23.2264 27.8469Z" fill="#3158AD"/>
<path d="M23.2663 27.758L21.6357 26.6567C21.6487 26.6284 21.6603 26.5977 21.6719 26.5686L23.3044 27.6699C23.2921 27.7006 23.2792 27.7289 23.2663 27.758Z" fill="#3055A8"/>
<path d="M23.3044 27.6692L21.6719 26.5679C21.6848 26.5373 21.6958 26.5059 21.7068 26.4775L23.3386 27.5788C23.327 27.6087 23.316 27.6401 23.3044 27.6692Z" fill="#131395"/>
<path d="M23.3389 27.5788L21.707 26.4775C21.718 26.4469 21.7284 26.4147 21.7387 26.3833L23.3699 27.4831C23.3602 27.5168 23.3499 27.5474 23.3389 27.5788Z" fill="#2A70EA"/>
<path d="M23.369 27.484L21.7378 26.3842C21.7488 26.3513 21.7585 26.3192 21.7662 26.287L23.3981 27.3868C23.389 27.4189 23.3793 27.4511 23.369 27.484Z" fill="#2B4D99"/>
<path d="M23.3984 27.3866L21.7666 26.2868C21.7769 26.25 21.7853 26.2156 21.7944 26.1796L23.4249 27.2793C23.4178 27.3169 23.4088 27.3521 23.3984 27.3866Z" fill="#2A4B94"/>
<path d="M23.425 27.2801L21.7944 26.1803C21.8028 26.1397 21.8119 26.0999 21.8177 26.0601L23.4489 27.1621C23.4418 27.2012 23.434 27.241 23.425 27.2801Z" fill="#28488F"/>
<path d="M23.4486 27.1615L21.8174 26.0594C21.8251 26.0112 21.8322 25.9637 21.8374 25.9147L23.468 27.0167C23.4647 27.065 23.457 27.1125 23.4486 27.1615Z" fill="#27468A"/>
<path d="M23.4679 27.0168L21.8374 25.9147C21.8451 25.8465 21.8477 25.7784 21.8471 25.7117C21.8439 25.3832 21.7424 25.1527 21.5854 25.0447L23.2173 26.146C23.3756 26.2532 23.4757 26.483 23.4796 26.8123C23.4796 26.8797 23.475 26.9486 23.4679 27.0168Z" fill="#254385"/>
</g>
<mask id="mask3_729_721" style="mask-type:luminance" maskUnits="userSpaceOnUse" x="20" y="24" width="4" height="3">
<path d="M21.585 25.0454L23.2168 26.1467C23.0573 26.0379 22.8376 26.0563 22.5947 26.2248L20.9629 25.1235C21.2045 24.9558 21.4248 24.9366 21.585 25.0454Z" fill="white"/>
</mask>
<g mask="url(#mask3_729_721)">
<path d="M22.5947 26.225L20.9629 25.1237C21.0042 25.0946 21.0456 25.0716 21.0856 25.0502L22.7162 26.1522C22.6768 26.1722 22.6361 26.1967 22.5947 26.225Z" fill="#B760CC"/>
<path d="M22.716 26.1524L21.0854 25.0504C21.1203 25.032 21.1533 25.0182 21.1875 25.0067L22.82 26.108C22.7864 26.1195 22.7515 26.1348 22.716 26.1524Z" fill="#B35EC7"/>
<path d="M22.82 26.1089L21.1875 25.0076C21.214 24.9992 21.2398 24.9915 21.265 24.9869L22.8962 26.0882C22.871 26.0928 22.8445 26.1005 22.82 26.1089Z" fill="#AE5BC2"/>
<path d="M22.8958 26.0869L21.2646 24.9856C21.2873 24.9826 21.3079 24.9795 21.3305 24.9764L22.9611 26.0785C22.9404 26.08 22.9185 26.0831 22.8958 26.0869Z" fill="#A959BD"/>
<path d="M22.9611 26.0787L21.3306 24.9766C21.3493 24.9766 21.3693 24.9759 21.3868 24.9774L23.0186 26.0787C23.0012 26.0779 22.9818 26.0787 22.9611 26.0787Z" fill="#A556B8"/>
<path d="M23.0186 26.0795L21.3867 24.9781C21.4048 24.9797 21.4222 24.9827 21.441 24.985L23.0715 26.0864C23.0547 26.0825 23.0366 26.081 23.0186 26.0795Z" fill="#A054B3"/>
<path d="M23.0715 26.0858L21.4409 24.9845C21.4571 24.9883 21.4732 24.9914 21.4894 24.9975L23.1212 26.0988C23.1051 26.0935 23.0889 26.0897 23.0715 26.0858Z" fill="#9C52AD"/>
<path d="M23.1211 26.0995L21.4893 24.9982C21.5061 25.0051 21.5209 25.0104 21.5351 25.0173L23.1663 26.1186C23.1515 26.111 23.1372 26.1049 23.1211 26.0995Z" fill="#974FA8"/>
<path d="M23.1663 26.1179L21.5352 25.0166C21.5513 25.0243 21.5662 25.0327 21.5797 25.0411L23.2116 26.1432C23.1974 26.1355 23.1818 26.1248 23.1663 26.1179Z" fill="#934DA3"/>
<path d="M23.2114 26.143L21.5796 25.0417L21.5848 25.0456L23.2166 26.1469L23.2114 26.143Z" fill="#8E4A9E"/>
</g>
<mask id="mask4_729_721" style="mask-type:luminance" maskUnits="userSpaceOnUse" x="20" y="25" width="3" height="4">
<path d="M21.9926 28.6956C21.5585 28.4015 21.1224 28.1082 20.687 27.8149C20.6062 27.7597 20.5235 27.7038 20.4434 27.651C20.4182 27.6326 20.3853 27.6104 20.3601 27.5943C20.2038 27.4878 20.103 27.2573 20.1017 26.9326C20.0933 26.2716 20.4803 25.4614 20.9635 25.1244L22.5953 26.2257C22.1115 26.5627 21.7251 27.3745 21.7322 28.0354C21.7348 28.3594 21.833 28.5891 21.9926 28.6956Z" fill="white"/>
</mask>
<g mask="url(#mask4_729_721)">
<path d="M21.9925 28.6958L20.36 27.5945C20.2037 27.488 20.1029 27.2575 20.1016 26.9328C20.0997 26.8661 20.1029 26.7987 20.1094 26.7283L21.7412 27.8303C21.7354 27.9 21.7322 27.969 21.7322 28.0356C21.7348 28.3596 21.833 28.5893 21.9925 28.6958Z" fill="#773E85"/>
<path d="M21.7407 27.8303L20.1089 26.7283C20.1153 26.6816 20.1212 26.6325 20.1302 26.5858L21.7614 27.6856C21.7517 27.7354 21.7465 27.7829 21.7407 27.8303Z" fill="#7C418A"/>
<path d="M21.7616 27.6856L20.1304 26.5858C20.1368 26.5445 20.1452 26.5054 20.1543 26.4648L21.7855 27.5669C21.7771 27.606 21.768 27.6466 21.7616 27.6856Z" fill="#80438F"/>
<path d="M21.7855 27.5661L20.1543 26.464C20.1614 26.4288 20.1717 26.3928 20.1808 26.3575L21.812 27.4604C21.8016 27.4948 21.7932 27.5293 21.7855 27.5661Z" fill="#854694"/>
<path d="M21.8119 27.4603L20.1807 26.3575C20.1897 26.3253 20.1988 26.2916 20.2104 26.2579L21.8416 27.36C21.8312 27.3945 21.8209 27.4266 21.8119 27.4603Z" fill="#894899"/>
<path d="M21.8416 27.361L20.2104 26.2589C20.2201 26.2283 20.2298 26.1969 20.2415 26.1655L21.8726 27.2676C21.861 27.2982 21.8507 27.3289 21.8416 27.361Z" fill="#8E4A9E"/>
<path d="M21.8719 27.2675L20.2407 26.1655C20.2517 26.1356 20.262 26.1049 20.2756 26.0751L21.9068 27.1749C21.8952 27.2063 21.8835 27.2369 21.8719 27.2675Z" fill="#934DA3"/>
<path d="M21.9066 27.1746L20.2754 26.0748C20.2864 26.045 20.2993 26.0151 20.3129 25.9875L21.9434 27.0873C21.9305 27.1164 21.9189 27.1455 21.9066 27.1746Z" fill="#974FA8"/>
<path d="M21.9435 27.0874L20.313 25.9877C20.3259 25.9555 20.3388 25.9256 20.3543 25.8981L21.9842 26.9979C21.9707 27.0277 21.9577 27.0576 21.9435 27.0874Z" fill="#9C52AD"/>
<path d="M21.9834 26.9979L20.3535 25.8981C20.3658 25.8682 20.3813 25.8391 20.3968 25.8085L22.0286 26.9105C22.0131 26.9396 21.9976 26.9703 21.9834 26.9979Z" fill="#A054B3"/>
<path d="M22.0293 26.909L20.3975 25.8069C20.4136 25.7755 20.4304 25.7472 20.4466 25.7173L22.0803 26.8194C22.0622 26.8477 22.0448 26.8783 22.0293 26.909Z" fill="#A556B8"/>
<path d="M22.0805 26.8196L20.4468 25.7175C20.4668 25.6861 20.4862 25.6532 20.5069 25.6233L22.1368 26.7238C22.1187 26.7552 22.0986 26.7866 22.0805 26.8196Z" fill="#A959BD"/>
<path d="M22.1367 26.7237L20.5068 25.6231C20.5282 25.5856 20.5521 25.5519 20.576 25.5182L22.2084 26.6187C22.1832 26.6539 22.1593 26.6884 22.1367 26.7237Z" fill="#AE5BC2"/>
<path d="M22.2082 26.6188L20.5757 25.5183C20.6073 25.4754 20.639 25.434 20.6726 25.3958L22.3038 26.4971C22.2708 26.5353 22.2385 26.5782 22.2082 26.6188Z" fill="#B35EC7"/>
<path d="M22.304 26.4968L20.6729 25.3955C20.7633 25.2868 20.8608 25.1949 20.9636 25.1237L22.5954 26.225C22.492 26.2962 22.3945 26.3889 22.304 26.4968Z" fill="#B760CC"/>
</g>
<mask id="mask5_729_721" style="mask-type:luminance" maskUnits="userSpaceOnUse" x="18" y="26" width="4" height="5">
<path d="M19.6105 27.2749C19.6086 26.9456 19.5084 26.715 19.3495 26.6071L20.9814 27.7076C21.1403 27.8156 21.2404 28.0469 21.2423 28.377C21.2494 29.0325 20.8657 29.8413 20.3818 30.1798L18.752 29.0785C19.2326 28.74 19.6176 27.9305 19.6105 27.2749Z" fill="white"/>
</mask>
<g mask="url(#mask5_729_721)">
<path d="M20.3818 30.179L18.752 29.0777C18.8527 29.0049 18.9516 28.9138 19.0407 28.8058L20.6726 29.9063C20.5828 30.0143 20.4852 30.1062 20.3818 30.179Z" fill="#131395"/>
<path d="M20.6733 29.9065L19.0415 28.8059C19.0745 28.7661 19.1061 28.7255 19.1358 28.6826L20.7683 29.7847C20.7373 29.8283 20.705 29.8682 20.6733 29.9065Z" fill="#3865C7"/>
<path d="M20.7682 29.7853L19.1357 28.6832C19.1609 28.6503 19.1836 28.6166 19.2075 28.5806L20.8386 29.6819C20.8147 29.7171 20.7915 29.7516 20.7682 29.7853Z" fill="#3762C2"/>
<path d="M20.8377 29.6821L19.2065 28.5808C19.2259 28.5501 19.2453 28.5172 19.2647 28.4866L20.8952 29.5886C20.8771 29.6193 20.8578 29.6507 20.8377 29.6821Z" fill="#355FBD"/>
<path d="M20.8952 29.5878L19.2646 28.4858C19.2808 28.4559 19.2982 28.426 19.3144 28.3954L20.9462 29.4959C20.9294 29.5273 20.9126 29.5564 20.8952 29.5878Z" fill="#345DB8"/>
<path d="M20.9463 29.4959L19.3145 28.3953C19.3293 28.3654 19.3448 28.3371 19.3584 28.3073L20.9902 29.407C20.976 29.4392 20.9618 29.4668 20.9463 29.4959Z" fill="#325AB3"/>
<path d="M20.9902 29.4077L19.3584 28.308C19.3726 28.2773 19.3862 28.249 19.3997 28.2191L21.0303 29.3212C21.018 29.3503 21.0038 29.3801 20.9902 29.4077Z" fill="#3158AD"/>
<path d="M21.0304 29.3214L19.3999 28.2194C19.4128 28.1903 19.4245 28.1611 19.4374 28.1305L21.0679 29.2326C21.0563 29.2625 21.0427 29.2923 21.0304 29.3214Z" fill="#3055A8"/>
<path d="M21.068 29.2318L19.4375 28.1297C19.4491 28.1006 19.4601 28.0707 19.4711 28.0393L21.1029 29.1414C21.0919 29.1712 21.0803 29.2011 21.068 29.2318Z" fill="#131395"/>
<path d="M21.103 29.1414L19.4712 28.0394C19.4828 28.0095 19.4925 27.9773 19.5035 27.9459L21.1353 29.0472C21.1243 29.0786 21.1134 29.1108 21.103 29.1414Z" fill="#2A70EA"/>
<path d="M21.1343 29.0472L19.5024 27.9459C19.5121 27.9122 19.5218 27.8816 19.5302 27.8479L21.1627 28.95C21.1543 28.9814 21.1453 29.0143 21.1343 29.0472Z" fill="#2B4D99"/>
<path d="M21.1628 28.9498L19.5303 27.8477C19.5406 27.8117 19.5503 27.7765 19.5581 27.7405L21.1892 28.8426C21.1808 28.8778 21.1731 28.9138 21.1628 28.9498Z" fill="#2A4B94"/>
<path d="M21.1893 28.8432L19.5581 27.7411C19.5665 27.7013 19.5755 27.6622 19.5827 27.6232L21.2132 28.723C21.2067 28.7628 21.1983 28.8018 21.1893 28.8432Z" fill="#28488F"/>
<path d="M21.2131 28.7224L19.5825 27.6226C19.5903 27.5736 19.5967 27.5254 19.6013 27.4779L21.2331 28.5785C21.2279 28.6259 21.2202 28.6749 21.2131 28.7224Z" fill="#27468A"/>
<path d="M21.2334 28.5784L19.6016 27.4779C19.6087 27.4082 19.6119 27.34 19.6106 27.2742C19.6087 26.9448 19.5085 26.7143 19.3496 26.6063L20.9814 27.7069C21.1404 27.8149 21.2405 28.0461 21.2424 28.3762C21.2431 28.4413 21.2405 28.5095 21.2334 28.5784Z" fill="#254385"/>
</g>
<mask id="mask6_729_721" style="mask-type:luminance" maskUnits="userSpaceOnUse" x="18" y="26" width="3" height="2">
<path d="M19.3492 26.607L20.981 27.7091C20.8208 27.5996 20.6018 27.6187 20.3595 27.7864L18.7271 26.6859C18.9687 26.5174 19.1896 26.499 19.3492 26.607Z" fill="white"/>
</mask>
<g mask="url(#mask6_729_721)">
<path d="M20.3595 27.7857L18.7271 26.6851C18.7697 26.6545 18.8097 26.6308 18.8504 26.6108L20.4816 27.7121C20.4409 27.7328 20.4009 27.7573 20.3595 27.7857Z" fill="#752289"/>
<path d="M20.4818 27.7123L18.8506 26.611C18.8848 26.5934 18.9184 26.5796 18.952 26.5674L20.5838 27.6695C20.5509 27.6802 20.5167 27.6955 20.4818 27.7123Z" fill="#722285"/>
<path d="M20.5835 27.6703L18.9517 26.5683C18.9781 26.5606 19.004 26.5545 19.0298 26.5483L20.6604 27.6512C20.6365 27.6542 20.6093 27.6619 20.5835 27.6703Z" fill="#6F2182"/>
<path d="M20.6608 27.6508L19.0303 26.5479C19.0522 26.5441 19.0736 26.541 19.0949 26.5403L20.7274 27.6401C20.7041 27.6416 20.6828 27.6447 20.6608 27.6508Z" fill="#6C207F"/>
<path d="M20.7262 27.64L19.0938 26.5403C19.1131 26.5387 19.1325 26.5395 19.1519 26.5395L20.7844 27.6416C20.765 27.64 20.745 27.6393 20.7262 27.64Z" fill="#691F7B"/>
<path d="M20.7848 27.6409L19.1523 26.5388C19.1698 26.5396 19.1885 26.5419 19.206 26.5449L20.8378 27.647C20.8204 27.644 20.8029 27.6417 20.7848 27.6409Z" fill="#661E78"/>
<path d="M20.8369 27.648L19.2051 26.5459C19.2219 26.5505 19.238 26.5543 19.2548 26.5605L20.8854 27.6618C20.8705 27.6564 20.8543 27.6518 20.8369 27.648Z" fill="#631D74"/>
<path d="M20.8854 27.6608L19.2549 26.5594C19.2704 26.5648 19.2859 26.5709 19.3014 26.5771L20.9313 27.6791C20.9177 27.6715 20.9016 27.6669 20.8854 27.6608Z" fill="#601C71"/>
<path d="M20.9312 27.6793L19.3013 26.5773C19.3161 26.5865 19.3297 26.5934 19.3452 26.6033L20.977 27.7031C20.9622 27.6962 20.948 27.6862 20.9312 27.6793Z" fill="#5D1C6D"/>
<path d="M20.9772 27.7039L19.3447 26.6041L19.3493 26.6072L20.9817 27.7085L20.9772 27.7039Z" fill="#5B1B6A"/>
</g>
<mask id="mask7_729_721" style="mask-type:luminance" maskUnits="userSpaceOnUse" x="17" y="26" width="4" height="5">
<path d="M19.757 30.2578L18.1252 29.1557C17.9669 29.0492 17.8681 28.8203 17.8649 28.4955C17.8571 27.8331 18.2454 27.022 18.7273 26.6858L20.3598 27.7863C19.8766 28.1241 19.4902 28.9359 19.4954 29.5968C19.4993 29.9208 19.5981 30.1506 19.757 30.2578Z" fill="white"/>
</mask>
<g mask="url(#mask7_729_721)">
<path d="M19.7572 30.2579L18.1253 29.1558C17.9671 29.0493 17.8682 28.8203 17.865 28.4956C17.8637 28.4275 17.8676 28.3593 17.8747 28.2911L19.5052 29.3917C19.4988 29.4606 19.4955 29.5303 19.4955 29.5969C19.4994 29.9209 19.5983 30.1506 19.7572 30.2579Z" fill="#4C1659"/>
<path d="M19.5051 29.3917L17.8745 28.2911C17.879 28.2429 17.8855 28.1954 17.8939 28.1456L19.5264 29.2477C19.5167 29.2967 19.5109 29.3442 19.5051 29.3917Z" fill="#4F175C"/>
<path d="M19.526 29.2478L17.8936 28.1457C17.9013 28.1074 17.9091 28.0661 17.9175 28.0262L19.5493 29.1283C19.5409 29.1689 19.5331 29.208 19.526 29.2478Z" fill="#521860"/>
<path d="M19.5493 29.1282L17.9175 28.0261C17.9259 27.9916 17.9349 27.9549 17.944 27.9204L19.5765 29.0217C19.5668 29.0569 19.5584 29.0929 19.5493 29.1282Z" fill="#551963"/>
<path d="M19.5763 29.021L17.9438 27.9196C17.9529 27.8867 17.9639 27.8546 17.9742 27.8193L19.6054 28.9214C19.5944 28.9559 19.5847 28.988 19.5763 29.021Z" fill="#581A67"/>
<path d="M19.6053 28.9222L17.9741 27.8201C17.9832 27.7895 17.9942 27.7588 18.0051 27.7274L19.6363 28.8287C19.6253 28.8586 19.615 28.89 19.6053 28.9222Z" fill="#5B1B6A"/>
<path d="M19.6366 28.8287L18.0054 27.7274C18.0164 27.6975 18.028 27.6669 18.0403 27.6355L19.6714 28.7376C19.6585 28.7674 19.6475 28.7981 19.6366 28.8287Z" fill="#5D1C6D"/>
<path d="M19.6707 28.7375L18.0396 27.6354C18.0505 27.6063 18.0641 27.5757 18.077 27.5474L19.7082 28.6487C19.6946 28.6778 19.6824 28.7061 19.6707 28.7375Z" fill="#601C71"/>
<path d="M19.7083 28.6488L18.0771 27.5475C18.0894 27.5176 18.1036 27.487 18.1172 27.4579L19.7497 28.5592C19.7348 28.5891 19.7206 28.6189 19.7083 28.6488Z" fill="#631D74"/>
<path d="M19.7497 28.5592L18.1172 27.4579C18.132 27.4288 18.1469 27.3989 18.1618 27.3713L19.7942 28.4719C19.7787 28.5002 19.7632 28.5301 19.7497 28.5592Z" fill="#661E78"/>
<path d="M19.7941 28.4703L18.1616 27.3698C18.1791 27.3384 18.1939 27.3085 18.2127 27.2794L19.8445 28.3815C19.827 28.4106 19.8102 28.4397 19.7941 28.4703Z" fill="#691F7B"/>
<path d="M19.8438 28.3815L18.2119 27.2794C18.2306 27.2465 18.2494 27.2144 18.2701 27.1837L19.9006 28.285C19.8819 28.3164 19.8625 28.3478 19.8438 28.3815Z" fill="#6C207F"/>
<path d="M19.9011 28.285L18.2705 27.1837C18.2931 27.1469 18.317 27.1125 18.3403 27.078L19.9721 28.1808C19.9482 28.2145 19.9243 28.2498 19.9011 28.285Z" fill="#6F2182"/>
<path d="M19.9722 28.1817L18.3403 27.0789C18.3707 27.0368 18.403 26.9962 18.4359 26.9579L20.0678 28.06C20.0342 28.0983 20.0032 28.1396 19.9722 28.1817Z" fill="#722285"/>
<path d="M20.0679 28.059L18.436 26.9569C18.5265 26.8482 18.6253 26.7563 18.7267 26.6851L20.3592 27.7856C20.2565 27.8591 20.1577 27.9503 20.0679 28.059Z" fill="#752289"/>
</g>
<mask id="mask8_729_721" style="mask-type:luminance" maskUnits="userSpaceOnUse" x="15" y="30" width="4" height="2">
<path d="M15.8892 30.7189C16.0513 30.8269 16.2729 30.8101 16.5152 30.6393L18.1463 31.7406C17.9034 31.9106 17.6819 31.9275 17.5216 31.8195C17.032 31.4894 16.3795 31.0483 15.8892 30.7189Z" fill="white"/>
</mask>
<g mask="url(#mask8_729_721)">
<path d="M17.5216 31.8193L15.8892 30.7188L15.895 30.7211L17.5268 31.8224L17.5216 31.8193Z" fill="#2A70EA"/>
<path d="M17.5269 31.8225L15.895 30.7205C15.9086 30.7296 15.9241 30.7381 15.9396 30.7457L17.5714 31.8455C17.5559 31.8401 17.5411 31.8325 17.5269 31.8225Z" fill="#131395"/>
<path d="M17.5713 31.847L15.9395 30.7472C15.9543 30.7541 15.9705 30.761 15.986 30.7656L17.6184 31.8676C17.601 31.86 17.5861 31.8546 17.5713 31.847Z" fill="#3055A8"/>
<path d="M17.6183 31.8677L15.9858 30.7656C16.002 30.7718 16.0188 30.7756 16.0349 30.7794L17.6687 31.8807C17.6506 31.8761 17.6345 31.8723 17.6183 31.8677Z" fill="#3158AD"/>
<path d="M17.6684 31.88L16.0347 30.7787C16.0528 30.781 16.0702 30.7848 16.0883 30.7864L17.7201 31.8861C17.702 31.8846 17.6852 31.8823 17.6684 31.88Z" fill="#325AB3"/>
<path d="M17.7207 31.8861L16.0889 30.7863C16.107 30.7855 16.1276 30.7871 16.147 30.7855L17.7795 31.8876C17.7588 31.8884 17.7407 31.8876 17.7207 31.8861Z" fill="#345DB8"/>
<path d="M17.7795 31.8869L16.147 30.7848C16.1689 30.7825 16.1916 30.7802 16.2129 30.7756L17.8447 31.8769C17.8214 31.8823 17.7995 31.8838 17.7795 31.8869Z" fill="#355FBD"/>
<path d="M17.8447 31.8785L16.2129 30.7772C16.2381 30.7718 16.2646 30.7657 16.2904 30.7557L17.9222 31.8586C17.8958 31.8655 17.8699 31.8724 17.8447 31.8785Z" fill="#3762C2"/>
<path d="M17.9224 31.8576L16.2905 30.7547C16.3248 30.7448 16.3584 30.7302 16.3939 30.7134L18.0251 31.8147C17.9902 31.8315 17.956 31.8468 17.9224 31.8576Z" fill="#3865C7"/>
<path d="M18.0247 31.8149L16.3936 30.7136C16.433 30.6929 16.4743 30.6676 16.5156 30.6393L18.1468 31.7406C18.1042 31.7705 18.0648 31.795 18.0247 31.8149Z" fill="#131395"/>
</g>
<mask id="mask9_729_721" style="mask-type:luminance" maskUnits="userSpaceOnUse" x="16" y="28" width="4" height="4">
<path d="M17.3759 28.8357C17.3721 28.5064 17.2726 28.2751 17.113 28.1671L18.7461 29.27C18.9038 29.3787 19.0026 29.6085 19.0065 29.9378C19.013 30.5941 18.6286 31.4037 18.1453 31.7406L16.5142 30.6393C16.998 30.3008 17.3811 29.4928 17.3759 28.8357Z" fill="white"/>
</mask>
<g mask="url(#mask9_729_721)">
<path d="M18.1463 31.7407L16.5151 30.6393C16.6179 30.5666 16.7154 30.4747 16.8071 30.3667L18.437 31.4688C18.3466 31.5768 18.249 31.6687 18.1463 31.7407Z" fill="#131395"/>
<path d="M18.4375 31.4687L16.8076 30.3666C16.8393 30.3283 16.8709 30.2877 16.9019 30.2463L18.5325 31.3461C18.5015 31.3882 18.4705 31.4296 18.4375 31.4687Z" fill="#3865C7"/>
<path d="M18.5314 31.3461L16.9009 30.2464C16.9248 30.2119 16.9487 30.1782 16.97 30.1422L18.6025 31.2428C18.5786 31.2788 18.556 31.3117 18.5314 31.3461Z" fill="#3762C2"/>
<path d="M18.6027 31.2428L16.9702 30.1422C16.9902 30.1108 17.0103 30.0802 17.0277 30.0472L18.6595 31.1493C18.6421 31.1822 18.624 31.2129 18.6027 31.2428Z" fill="#355FBD"/>
<path d="M18.6597 31.1491L17.0278 30.047C17.0453 30.0179 17.0627 29.9881 17.0802 29.9567L18.7101 31.0587C18.6946 31.0894 18.6771 31.1192 18.6597 31.1491Z" fill="#345DB8"/>
<path d="M18.7095 31.0591L17.0796 29.957C17.0951 29.9287 17.1087 29.8989 17.1222 29.8698L18.7554 30.9718C18.7405 31.0009 18.7256 31.03 18.7095 31.0591Z" fill="#325AB3"/>
<path d="M18.7557 30.9708L17.1226 29.8687C17.1381 29.8381 17.151 29.809 17.1639 29.7799L18.7957 30.882C18.7822 30.9111 18.7693 30.9409 18.7557 30.9708Z" fill="#3158AD"/>
<path d="M18.7954 30.882L17.1636 29.7799C17.1765 29.7515 17.1894 29.7217 17.2017 29.691L18.8335 30.7923C18.8212 30.8237 18.8083 30.8536 18.7954 30.882Z" fill="#3055A8"/>
<path d="M18.8335 30.7932L17.2017 29.6919C17.2133 29.6605 17.2243 29.633 17.2353 29.6016L18.8671 30.7044C18.8561 30.7335 18.8445 30.7634 18.8335 30.7932Z" fill="#131395"/>
<path d="M18.8667 30.7035L17.2349 29.6006C17.2465 29.57 17.2568 29.5386 17.2672 29.5072L18.899 30.6093C18.8893 30.6399 18.8777 30.6706 18.8667 30.7035Z" fill="#2A70EA"/>
<path d="M18.8994 30.6087L17.2676 29.5067C17.2766 29.4745 17.287 29.4415 17.2966 29.4078L18.9285 30.5107C18.9181 30.5428 18.9091 30.5766 18.8994 30.6087Z" fill="#2B4D99"/>
<path d="M18.9282 30.5113L17.2964 29.4085C17.3061 29.3732 17.3138 29.338 17.3216 29.302L18.9534 30.4033C18.947 30.4393 18.9366 30.4753 18.9282 30.5113Z" fill="#2A4B94"/>
<path d="M18.9536 30.4034L17.3218 29.3021C17.3308 29.2622 17.3392 29.2224 17.3457 29.1833L18.9775 30.2847C18.9711 30.323 18.964 30.3651 18.9536 30.4034Z" fill="#28488F"/>
<path d="M18.978 30.2845L17.3462 29.1832C17.3546 29.1349 17.3617 29.0859 17.3662 29.0392L18.9981 30.139C18.9929 30.1887 18.9858 30.2362 18.978 30.2845Z" fill="#27468A"/>
<path d="M18.9972 30.14L17.3654 29.0402C17.3731 28.9697 17.3757 28.9024 17.3757 28.8357C17.3718 28.5064 17.2724 28.2751 17.1128 28.1671L18.7459 29.27C18.9035 29.3787 19.0024 29.6085 19.0063 29.9378C19.0069 30.0029 19.0037 30.0703 18.9972 30.14Z" fill="#254385"/>
</g>
<mask id="mask10_729_721" style="mask-type:luminance" maskUnits="userSpaceOnUse" x="16" y="28" width="3" height="2">
<path d="M17.113 28.167L18.7461 29.2698C18.5853 29.1611 18.3643 29.1794 18.1234 29.3487L16.4922 28.2466C16.7338 28.0789 16.9528 28.0597 17.113 28.167Z" fill="white"/>
</mask>
<g mask="url(#mask10_729_721)">
<path d="M18.1234 29.3488L16.4922 28.2467C16.5329 28.2183 16.5729 28.1938 16.6136 28.1716L18.2461 29.2737C18.2061 29.2951 18.1647 29.3196 18.1234 29.3488Z" fill="#BEB612"/>
<path d="M18.2462 29.2743L16.6138 28.1722C16.6493 28.1561 16.6835 28.1416 16.7171 28.1285L18.3477 29.2314C18.3141 29.2429 18.2798 29.2574 18.2462 29.2743Z" fill="#B9B211"/>
<path d="M18.3473 29.2317L16.7168 28.1288C16.7426 28.1219 16.7685 28.115 16.793 28.1112L18.4255 29.2125C18.4003 29.2156 18.3745 29.2225 18.3473 29.2317Z" fill="#B4AD11"/>
<path d="M18.4259 29.2117L16.7935 28.1104C16.8154 28.1043 16.8387 28.1012 16.86 28.1005L18.4912 29.2026C18.4692 29.2026 18.4485 29.2071 18.4259 29.2117Z" fill="#AFA910"/>
<path d="M18.4901 29.2026L16.8589 28.1005C16.8789 28.0997 16.897 28.0997 16.9157 28.1012L18.5476 29.201C18.5295 29.201 18.5101 29.2018 18.4901 29.2026Z" fill="#ABA410"/>
<path d="M18.5479 29.202L16.916 28.1022C16.9348 28.1029 16.9528 28.1037 16.969 28.1098L18.6008 29.2111C18.584 29.2065 18.5666 29.2035 18.5479 29.202Z" fill="#A6A00F"/>
<path d="M18.6016 29.2102L16.9697 28.1089C16.9865 28.1112 17.0027 28.1165 17.0188 28.1211L18.6507 29.2217C18.6339 29.2171 18.6177 29.2133 18.6016 29.2102Z" fill="#A19B0F"/>
<path d="M18.6499 29.2216L17.0181 28.1211C17.0342 28.1257 17.0504 28.1326 17.0646 28.1387L18.6971 29.2416C18.6816 29.2347 18.6661 29.2285 18.6499 29.2216Z" fill="#9C960F"/>
<path d="M18.6969 29.2415L17.0645 28.1387C17.08 28.1471 17.0955 28.1548 17.109 28.1647L18.7402 29.2645C18.7266 29.2568 18.7118 29.2484 18.6969 29.2415Z" fill="#98920E"/>
<path d="M18.7406 29.2661L17.1094 28.1655L17.1132 28.167L18.747 29.2691L18.7406 29.2661Z" fill="#938D0E"/>
</g>
<mask id="mask11_729_721" style="mask-type:luminance" maskUnits="userSpaceOnUse" x="15" y="28" width="4" height="4">
<path d="M17.5213 31.8195L15.8888 30.719C15.7306 30.611 15.6324 30.382 15.6285 30.0565C15.622 29.3964 16.009 28.5838 16.4922 28.2476L18.1234 29.3496C17.6402 29.6866 17.2539 30.4977 17.2597 31.1578C17.2642 31.4826 17.3631 31.7131 17.5213 31.8195Z" fill="white"/>
</mask>
<g mask="url(#mask11_729_721)">
<path d="M17.5215 31.8194L15.889 30.7188C15.7307 30.6109 15.6325 30.3819 15.6287 30.0564C15.6274 29.989 15.6312 29.9208 15.6384 29.8527L17.2702 30.954C17.2624 31.0237 17.2586 31.091 17.2599 31.1577C17.2644 31.4824 17.3632 31.7129 17.5215 31.8194Z" fill="#7B770B"/>
<path d="M17.271 30.9542L15.6392 29.8529C15.6443 29.8031 15.6508 29.7564 15.6579 29.7081L17.2917 30.8094C17.282 30.8577 17.2749 30.9059 17.271 30.9542Z" fill="#807B0C"/>
<path d="M17.291 30.8093L15.6572 29.708C15.6656 29.6682 15.6734 29.6276 15.6818 29.5878L17.3143 30.6906C17.3052 30.7297 17.2968 30.7695 17.291 30.8093Z" fill="#85800C"/>
<path d="M17.3141 30.6909L15.6816 29.588C15.69 29.552 15.6997 29.5168 15.7088 29.4816L17.34 30.5821C17.3303 30.6189 17.3219 30.6541 17.3141 30.6909Z" fill="#89840D"/>
<path d="M17.3402 30.582L15.709 29.4814C15.7187 29.4477 15.7284 29.4148 15.7381 29.3818L17.3699 30.4832C17.3602 30.5169 17.3486 30.5506 17.3402 30.582Z" fill="#8E890D"/>
<path d="M17.3696 30.484L15.7378 29.3826C15.7468 29.3505 15.7585 29.3183 15.7701 29.2892L17.4019 30.389C17.3897 30.4211 17.3793 30.4518 17.3696 30.484Z" fill="#938D0E"/>
<path d="M17.4019 30.3889L15.77 29.2892C15.781 29.2578 15.7926 29.2287 15.803 29.1973L17.4354 30.2993C17.4232 30.33 17.4122 30.3598 17.4019 30.3889Z" fill="#98920E"/>
<path d="M17.4347 30.2993L15.8022 29.1972C15.8165 29.1689 15.8274 29.139 15.8404 29.1091L17.4728 30.2104C17.4599 30.2388 17.4464 30.2679 17.4347 30.2993Z" fill="#9C960F"/>
<path d="M17.4733 30.2096L15.8408 29.1083C15.855 29.0792 15.8667 29.0493 15.8815 29.021L17.5134 30.1208C17.4998 30.1506 17.4856 30.1805 17.4733 30.2096Z" fill="#A19B0F"/>
<path d="M17.5137 30.1217L15.8818 29.0219C15.896 28.992 15.9109 28.9606 15.9271 28.9315L17.5576 30.0336C17.5427 30.0627 17.5272 30.0918 17.5137 30.1217Z" fill="#A6A00F"/>
<path d="M17.5578 30.0327L15.9272 28.9306C15.9434 28.9007 15.9602 28.8708 15.9783 28.8402L17.6088 29.9423C17.5914 29.9722 17.5739 30.0013 17.5578 30.0327Z" fill="#ABA410"/>
<path d="M17.6081 29.9417L15.9775 28.8396C15.9956 28.8074 16.0144 28.776 16.0344 28.7446L17.6669 29.8467C17.6468 29.8781 17.6268 29.9088 17.6081 29.9417Z" fill="#AFA910"/>
<path d="M17.6667 29.8476L16.0342 28.7455C16.0574 28.7095 16.0813 28.6774 16.1052 28.6414L17.7358 29.7442C17.7125 29.7771 17.6893 29.8108 17.6667 29.8476Z" fill="#B4AD11"/>
<path d="M17.7365 29.7448L16.106 28.6419C16.1363 28.5998 16.1686 28.5592 16.2003 28.5201L17.8321 29.6222C17.7992 29.6598 17.7675 29.7003 17.7365 29.7448Z" fill="#B9B211"/>
<path d="M17.832 29.6205L16.2002 28.5185C16.2913 28.4097 16.3888 28.3186 16.4922 28.2466L18.1234 29.3487C18.022 29.4206 17.9231 29.5126 17.832 29.6205Z" fill="#BEB612"/>
</g>
<path d="M54.2668 2.02513C55.1654 1.39789 55.9019 1.88881 55.9135 3.11802L55.9555 7.40227L15.2326 35.851L15.1906 31.5683C15.1777 30.3383 15.8973 28.8311 16.7921 28.2046L54.2668 2.02513ZM22.6185 28.6174C23.1011 28.2812 23.4854 27.4709 23.479 26.8138C23.4719 26.1544 23.0778 25.8879 22.5946 26.2249C22.1107 26.5618 21.7244 27.3736 21.7315 28.0346C21.738 28.6925 22.1366 28.9544 22.6185 28.6174ZM20.382 30.179C20.8658 29.8413 21.2496 29.0325 21.2425 28.3762C21.236 27.7145 20.8407 27.4487 20.3594 27.7857C19.8761 28.1234 19.4898 28.9352 19.495 29.5962C19.5028 30.2533 19.9001 30.5152 20.382 30.179ZM18.1461 31.7406C18.6293 31.4036 19.0137 30.5941 19.0073 29.9378C19.0014 29.2761 18.6061 29.0111 18.1235 29.3488C17.6403 29.6858 17.254 30.4968 17.2598 31.157C17.2675 31.8149 17.6642 32.0768 18.1461 31.7406Z" fill="#4881FF"/>
<path d="M22.5945 26.2248C23.0777 25.8879 23.4711 26.1536 23.4789 26.8138C23.4853 27.4709 23.101 28.2812 22.6197 28.6174C22.1365 28.9551 21.7379 28.6924 21.732 28.0345C21.7243 27.3736 22.1113 26.5618 22.5945 26.2248Z" fill="#E578FF"/>
<path d="M20.3594 27.7858C20.8407 27.4488 21.236 27.7146 21.2425 28.3763C21.2496 29.0319 20.8659 29.8406 20.382 30.1791C19.9001 30.5154 19.5028 30.2534 19.4957 29.5963C19.4905 28.9354 19.8762 28.1236 20.3594 27.7858Z" fill="#922BAB"/>
<path d="M18.1235 29.3486C18.6061 29.0109 19.0015 29.2751 19.0073 29.9376C19.0137 30.5939 18.6294 31.4035 18.1461 31.7404C17.6642 32.0766 17.2669 31.8147 17.2598 31.1569C17.2546 30.4967 17.6403 29.6848 18.1235 29.3486Z" fill="#131395"/>
<path d="M15.5543 68.3479L13.9225 67.2458L13.5581 30.4661L15.1906 31.5674L15.5543 68.3479Z" fill="#88B5EA"/>
<path d="M15.1904 31.5674L15.2324 35.8501L55.9553 7.40137L56.2757 39.8992C56.2893 41.1276 55.5729 42.6326 54.6756 43.2613L17.2015 69.4416C16.3048 70.0657 15.5671 69.5779 15.5548 68.3479L15.1904 31.5674Z" fill="#D7E9FF"/>
<path d="M54.6271 1.8329C54.7182 1.79614 54.808 1.77238 54.8927 1.76166C54.8991 1.76013 54.9062 1.7586 54.9133 1.7586C55.0057 1.74788 55.0929 1.75324 55.1756 1.77162C55.1808 1.77238 55.1866 1.77546 55.1924 1.77699C55.2744 1.7969 55.3545 1.82906 55.4263 1.87808C55.4237 1.87578 55.4204 1.87425 55.4172 1.87195L55.1614 1.7004C55.1407 1.68585 55.1207 1.67207 55.1 1.65828C54.9908 1.584 54.8817 1.51122 54.7719 1.4377L53.786 0.770629C53.7595 0.754546 53.7311 0.736933 53.7033 0.724679C53.6749 0.709362 53.6458 0.697876 53.6174 0.688686C53.598 0.681793 53.5774 0.678738 53.5567 0.673377C53.5535 0.672611 53.5509 0.671076 53.547 0.669544C53.5392 0.668778 53.5321 0.665723 53.5257 0.664192C53.4934 0.658065 53.4598 0.653471 53.4268 0.651173C53.3926 0.649641 53.3558 0.649641 53.319 0.651173C53.3054 0.651939 53.2931 0.653457 53.2808 0.655754C53.2744 0.65652 53.2679 0.658068 53.2615 0.658068C53.2395 0.660366 53.2188 0.662658 53.1962 0.667253C53.1503 0.676444 53.1019 0.688688 53.0528 0.705537C53.0328 0.71243 53.0127 0.723144 52.9927 0.730802C52.9733 0.737695 52.954 0.746901 52.9326 0.756091C52.9087 0.766813 52.8868 0.772941 52.8622 0.785961C52.7879 0.822722 52.7117 0.868658 52.6355 0.922268L15.1601 27.1017C15.0561 27.1753 14.9553 27.261 14.8571 27.3568C14.8235 27.3889 14.7919 27.4257 14.7602 27.4609C14.7137 27.5092 14.6659 27.5544 14.62 27.608C14.6 27.6317 14.58 27.6608 14.5593 27.6869C14.5419 27.7083 14.5231 27.7321 14.5063 27.7558C14.4856 27.7818 14.4656 27.8063 14.4449 27.8339C14.4004 27.8967 14.3571 27.9618 14.3132 28.0269C14.2977 28.0522 14.2822 28.0782 14.266 28.105C14.2608 28.115 14.255 28.1234 14.2498 28.1311C14.2343 28.1556 14.2195 28.1809 14.2066 28.2054C14.1743 28.2597 14.1426 28.3164 14.1129 28.3731C14.0832 28.4267 14.0554 28.4826 14.0302 28.5393C14.0276 28.5446 14.0237 28.55 14.0218 28.553C14.0199 28.5576 14.0186 28.5622 14.0166 28.5661C13.9953 28.6112 13.9747 28.6572 13.954 28.7024C13.9288 28.7583 13.9068 28.8135 13.8842 28.8694C13.8629 28.9176 13.8448 28.9697 13.8274 29.0218C13.8261 29.0233 13.8248 29.0271 13.8235 29.0302C13.8222 29.0325 13.8215 29.0356 13.8203 29.0379C13.8002 29.0953 13.7808 29.1543 13.7621 29.2125C13.7427 29.273 13.7246 29.335 13.7085 29.3963C13.6994 29.4269 13.6923 29.4598 13.6839 29.4912C13.6807 29.5035 13.6781 29.515 13.6755 29.5272C13.6697 29.5502 13.6633 29.5717 13.6581 29.5946C13.6419 29.6689 13.6271 29.744 13.6142 29.8183C13.6064 29.8619 13.6032 29.9063 13.5961 29.9515C13.5929 29.9745 13.5896 29.999 13.5864 30.022C13.5845 30.0434 13.5799 30.0656 13.5767 30.0871C13.5638 30.2157 13.558 30.3429 13.5593 30.467L13.6019 34.7489L15.2331 35.851L15.1911 31.5683C15.1892 31.4227 15.1995 31.2742 15.2182 31.1248C15.2215 31.1003 15.2234 31.0766 15.2279 31.0513C15.2473 30.9119 15.2718 30.7717 15.3067 30.6293C15.3106 30.6155 15.3138 30.601 15.3177 30.5872C15.3565 30.4325 15.4011 30.2801 15.4566 30.13C15.4566 30.1277 15.4573 30.1246 15.4579 30.1231C15.5128 29.9707 15.5755 29.8221 15.6446 29.6773C15.6491 29.6666 15.6536 29.6582 15.6575 29.649C15.7247 29.5073 15.799 29.3741 15.8772 29.2416C15.8862 29.2263 15.8959 29.2117 15.9049 29.1956C15.9779 29.0807 16.0535 28.9689 16.133 28.8655C16.155 28.8372 16.1763 28.8096 16.1976 28.7828C16.2583 28.7047 16.3216 28.6381 16.3875 28.5699C16.4224 28.5316 16.4547 28.4918 16.4915 28.4581C16.591 28.3624 16.6905 28.2766 16.7932 28.2046L54.2679 2.02511C54.37 1.95465 54.4695 1.90258 54.5658 1.85816C54.5845 1.8505 54.6058 1.84132 54.6271 1.8329Z" fill="#131395"/>
<path d="M47.1911 35.5606L44.8467 33.9454L55.7954 8.5647L58.1404 10.1807L47.1911 35.5606Z" fill="#691F7B"/>
<path d="M41.0094 39.7918L38.665 38.1758L44.8468 33.9452L47.1912 35.5604L41.0094 39.7918Z" fill="#7E2593"/>
<path d="M36.8141 48.1229L34.4697 46.5077L38.6649 38.1759L41.0093 39.7919L36.8141 48.1229Z" fill="#6D2080"/>
<path d="M29.9616 53.0766L27.6172 51.4622L34.4695 46.5078L36.8139 48.123L29.9616 53.0766Z" fill="#7E2593"/>
<path d="M23.9861 63.1193L21.6411 61.5034L27.6174 51.4622L29.9618 53.0766L23.9861 63.1193Z" fill="#722285"/>
<path d="M23.9991 68.5501L21.6534 66.9349L21.6411 61.5034L23.9861 63.1194L23.9991 68.5501Z" fill="#4E175B"/>
<path d="M58.1405 10.1807L58.2239 45.1262L23.9993 68.5501L23.9863 63.1193L29.962 53.0766L36.8143 48.123L41.0095 39.792L47.1912 35.5606L58.1405 10.1807Z" fill="#922BAB"/>
<path opacity="0.6" d="M11.1253 14.5494L10.5342 13.337L11.1253 12.127H12.3049L12.8947 13.337L12.3049 14.5494H11.1253Z" fill="#2A70EA"/>
<path opacity="0.5" d="M11.1253 16.4381L10.5342 15.225L11.1253 14.0149H12.3049L12.8947 15.225L12.3049 16.4381H11.1253Z" fill="#2A70EA"/>
<path opacity="0.4" d="M11.1253 18.3258L10.5342 17.1134L11.1253 15.9033H12.3049L12.8947 17.1134L12.3049 18.3258H11.1253Z" fill="#2A70EA"/>
<path opacity="0.3" d="M11.1253 20.2146L10.5342 19.0022L11.1253 17.7914H12.3049L12.8947 19.0022L12.3049 20.2146H11.1253Z" fill="#2A70EA"/>
<path opacity="0.2" d="M11.1253 22.1039L10.5342 20.8915L11.1253 19.6799H12.3049L12.8947 20.8915L12.3049 22.1039H11.1253Z" fill="#2A70EA"/>
<path opacity="0.1" d="M11.1253 23.9927L10.5342 22.7803L11.1253 21.5687H12.3049L12.8947 22.7803L12.3049 23.9927H11.1253Z" fill="#1FB2C0"/>
<path opacity="0.5" d="M11.1253 14.5494L10.5342 13.337L11.1253 12.127H12.3049L12.8947 13.337L12.3049 14.5494H11.1253Z" fill="#18A6B5"/>
<path opacity="0.6" d="M8.12058 35.0996L7.53076 33.8872L8.12058 32.6757H9.30085L9.89066 33.8872L9.30085 35.0996H8.12058Z" fill="#2A70EA"/>
<path opacity="0.5" d="M8.12058 36.9882L7.53076 35.7758L8.12058 34.5635H9.30085L9.89066 35.7758L9.30085 36.9882H8.12058Z" fill="#2A70EA"/>
<path opacity="0.4" d="M8.12058 38.876L7.53076 37.6636L8.12058 36.452H9.30085L9.89066 37.6636L9.30085 38.876H8.12058Z" fill="#2A70EA"/>
<path opacity="0.3" d="M8.12058 40.7638L7.53076 39.5522L8.12058 38.3398H9.30085L9.89066 39.5522L9.30085 40.7638H8.12058Z" fill="#2A70EA"/>
<path opacity="0.2" d="M8.12058 42.6526L7.53076 41.441L8.12058 40.2286H9.30085L9.89066 41.441L9.30085 42.6526H8.12058Z" fill="#2A70EA"/>
<path opacity="0.1" d="M8.12058 44.5411L7.53076 43.3296L8.12058 42.1172H9.30085L9.89066 43.3296L9.30085 44.5411H8.12058Z" fill="#1FB2C0"/>
<path opacity="0.5" d="M8.12058 35.0996L7.53076 33.8872L8.12058 32.6757H9.30085L9.89066 33.8872L9.30085 35.0996H8.12058Z" fill="#18A6B5"/>
<path d="M48.8006 50.4369C48.8555 50.4094 48.911 50.3802 48.9692 50.3534C49.172 50.2554 49.3872 50.1589 49.621 50.0662C49.8949 49.9575 50.1869 49.8449 50.4912 49.7316C50.5248 49.7178 50.5616 49.7048 50.5965 49.6917C50.8795 49.5845 51.1766 49.4773 51.4815 49.367C51.5119 49.3563 51.5423 49.3441 51.5739 49.3333C51.8853 49.2215 52.207 49.1082 52.5313 48.9948C52.5869 48.9749 52.6431 48.955 52.7006 48.9366C53.001 48.8317 53.304 48.7275 53.6069 48.6241C53.6586 48.6073 53.7084 48.5889 53.7594 48.5721C54.0837 48.461 54.408 48.3515 54.7323 48.2427C54.7962 48.2221 54.8596 48.2006 54.9248 48.1792C55.211 48.0834 55.4933 47.9908 55.7717 47.8981C55.8447 47.8736 55.9164 47.8498 55.9894 47.8261C56.2621 47.7373 56.5302 47.6507 56.7944 47.5642C56.9081 47.5266 57.0224 47.4899 57.1374 47.4539C57.317 47.3957 57.4934 47.3383 57.6639 47.2831C59.1911 46.793 60.3546 46.4338 60.6524 46.3396C60.6743 46.3334 60.7034 46.3243 60.7131 46.322L58.8254 45.0208C58.7415 45.0483 58.2847 45.1892 57.5935 45.4052C57.5651 45.4152 57.5386 45.4236 57.5108 45.432C57.3991 45.4665 57.2834 45.504 57.16 45.5431C57.0799 45.5683 56.9953 45.5944 56.9087 45.622C56.8738 45.6342 56.8409 45.6449 56.8047 45.6549C56.5534 45.7345 56.2931 45.818 56.0114 45.9076C55.9571 45.9252 55.8945 45.9459 55.8383 45.9643C55.6322 46.0309 55.4177 46.0991 55.1974 46.1703C55.1205 46.1948 55.0456 46.2201 54.9687 46.2454C54.6741 46.3396 54.3744 46.4384 54.0656 46.5395C54.021 46.5548 53.9758 46.5686 53.9332 46.5846C53.6173 46.688 53.2968 46.7937 52.9751 46.9009C52.9441 46.9117 52.9157 46.9201 52.8873 46.9293C52.5404 47.0457 52.1922 47.1629 51.8459 47.2823C51.8181 47.2908 51.7923 47.2992 51.7658 47.3076C51.435 47.421 51.1036 47.5351 50.7793 47.6484C50.7432 47.6614 50.7076 47.6729 50.6714 47.6844C50.3297 47.8054 49.9925 47.9249 49.6662 48.0421C49.6546 48.0459 49.641 48.0513 49.6288 48.0559C49.309 48.1707 48.9989 48.2841 48.6979 48.3959C48.6714 48.4074 48.6417 48.4181 48.6139 48.4281C48.3083 48.5437 48.0118 48.6571 47.7379 48.7651C47.5712 48.8325 47.4136 48.8991 47.2611 48.9688C47.2185 48.9894 47.1765 49.0078 47.1339 49.0285C47.0964 49.0461 47.0537 49.0653 47.0176 49.0829C46.9801 49.1013 46.9504 49.1196 46.9161 49.1373C46.7779 49.207 46.6448 49.2774 46.5201 49.3479C46.473 49.3754 46.4239 49.4038 46.3774 49.4298C46.2172 49.5263 46.0641 49.6205 45.9258 49.7178C45.4587 50.0356 45.1028 50.3489 44.8011 50.6253C44.4988 50.9018 44.2526 51.1392 44.0117 51.307C43.9445 51.3521 43.8799 51.3897 43.8114 51.4241C43.7713 51.444 43.7293 51.4609 43.6874 51.4762C43.6699 51.4846 43.6499 51.493 43.6312 51.4992C43.5756 51.516 43.52 51.5283 43.46 51.5375C43.4458 51.5405 43.4296 51.5421 43.4147 51.5436C43.3624 51.549 43.3127 51.5512 43.2597 51.549C43.2442 51.549 43.2319 51.549 43.2184 51.5474C43.155 51.5436 43.0879 51.5336 43.0187 51.5176C42.9864 51.5114 42.9496 51.5015 42.9173 51.4915C42.8734 51.477 42.8275 51.4655 42.7791 51.4494C42.7003 51.4195 42.615 51.3828 42.5271 51.3414C42.5058 51.3299 42.4871 51.3246 42.4657 51.3131C42.3617 51.2618 42.2545 51.2013 42.1376 51.1316C42.0064 51.0519 41.8766 50.9822 41.7474 50.9179C41.737 50.9125 41.7299 50.911 41.7196 50.9049C41.562 50.8283 41.4063 50.7624 41.2525 50.7073C41.2512 50.7073 41.2486 50.7058 41.2454 50.7058C41.1233 50.6629 41.0025 50.6315 40.883 50.6039C40.8682 50.6001 40.8526 50.5955 40.8371 50.5924C40.7196 50.5679 40.602 50.5518 40.487 50.5426C40.4741 50.5411 40.4625 50.5426 40.4495 50.5411C40.4153 50.5388 40.3856 50.5411 40.3539 50.5411C40.2913 50.5388 40.2292 50.5357 40.1679 50.5388C40.1375 50.5388 40.1065 50.5472 40.0748 50.5495C40.0374 50.5533 39.9999 50.5572 39.9624 50.5625C39.9295 50.5671 39.8965 50.5686 39.8662 50.5748C39.8067 50.5847 39.748 50.6031 39.6866 50.62C39.6569 50.6269 39.6272 50.633 39.5974 50.6414C39.5858 50.6445 39.5735 50.646 39.5613 50.6514C39.4676 50.6812 39.3759 50.7211 39.2841 50.7639C39.2641 50.7731 39.2441 50.7785 39.2234 50.7885C39.2195 50.7885 39.2156 50.79 39.2118 50.7923C39.0884 50.8528 38.9663 50.924 38.8442 51.0083C38.7176 51.0956 38.5897 51.2005 38.463 51.3131C38.4217 51.3498 38.381 51.3927 38.3409 51.4318C38.2544 51.516 38.1684 51.6056 38.0812 51.7029C38.0573 51.7289 38.036 51.7489 38.0121 51.7749C37.9837 51.8094 37.9553 51.8499 37.9268 51.8836C37.8803 51.9426 37.8332 52.0008 37.7866 52.0613C37.7608 52.0958 37.7356 52.1241 37.7098 52.1586C37.6704 52.2137 37.631 52.275 37.5896 52.3332C37.5618 52.3746 37.5321 52.4144 37.505 52.4557C37.4895 52.478 37.4759 52.4986 37.4598 52.5216C37.381 52.6411 37.3021 52.7674 37.2246 52.8992C37.2233 52.9022 37.2201 52.9053 37.2195 52.9076C37.2046 52.9336 37.1904 52.9604 37.1749 52.988C37.1122 53.0945 37.0508 53.2017 36.9901 53.3166C36.9707 53.351 36.9514 53.3893 36.9339 53.4246C36.901 53.482 36.8706 53.5448 36.8396 53.6061C36.8066 53.6704 36.7743 53.7301 36.7427 53.7945C36.711 53.8588 36.6794 53.9316 36.6484 53.9974C36.6103 54.0778 36.5715 54.159 36.534 54.241C36.5153 54.2831 36.4953 54.3214 36.4759 54.3658C36.4068 54.5197 36.337 54.679 36.2666 54.8445C36.1761 55.0635 36.0799 55.2718 35.9868 55.4748C35.9675 55.5131 35.9487 55.5529 35.9287 55.592C35.8344 55.7873 35.7394 55.971 35.6412 56.1487C35.618 56.1939 35.5915 56.2353 35.5689 56.2782C35.481 56.4321 35.3925 56.5807 35.3027 56.7239C35.284 56.7515 35.2665 56.7836 35.2485 56.8112C35.1419 56.9743 35.034 57.1283 34.9261 57.2753C34.8628 57.3619 34.7988 57.4384 34.7329 57.5211C34.6761 57.5908 34.6179 57.6667 34.5605 57.7348C34.3893 57.9316 34.2181 58.1063 34.0436 58.2686C34.0029 58.3077 33.9609 58.3444 33.9183 58.382C33.7426 58.5374 33.563 58.6837 33.3853 58.8047C33.2051 58.9273 33.0236 59.0299 32.842 59.1218C32.7884 59.1494 32.7355 59.1731 32.6831 59.1999C32.5468 59.2612 32.4105 59.3163 32.2748 59.363C32.2251 59.3814 32.1754 59.4006 32.1263 59.4144C31.9841 59.4596 31.8427 59.4948 31.7012 59.5208C31.6779 59.5262 31.654 59.5346 31.6314 59.5384C31.4634 59.5668 31.2987 59.5851 31.134 59.5943C31.0926 59.5982 31.0539 59.5951 31.0106 59.5982C30.8801 59.602 30.7496 59.5997 30.6185 59.5928C30.5694 59.589 30.5216 59.5859 30.4725 59.5813C30.3168 59.566 30.1585 59.5453 30.0067 59.5155C29.9757 59.5101 29.9447 59.5063 29.9143 59.4994C29.9117 59.4986 29.9104 59.4986 29.9091 59.4986C29.882 59.4932 29.8529 59.4886 29.8258 59.4848C29.7961 59.484 29.7664 59.4833 29.7366 59.4848C29.7354 59.4848 29.7354 59.4848 29.7354 59.4848C29.7334 59.4848 29.7302 59.4848 29.7276 59.4856C29.6979 59.4879 29.6682 59.4933 29.6385 59.4963C29.6126 59.5032 29.5868 59.5101 29.5609 59.5162C29.5532 59.5185 29.5435 59.5193 29.5357 59.5208C29.5319 59.5231 29.5254 59.5247 29.5196 59.5262C29.4673 59.543 29.4149 59.5645 29.3607 59.592C29.3607 59.592 29.3574 59.5936 29.3555 59.5943C29.2883 59.628 29.2192 59.6686 29.1494 59.7146C29.0441 59.7881 28.9337 59.8815 28.8238 59.9834C28.8096 59.9979 28.7954 60.0094 28.7805 60.024C28.6759 60.1243 28.568 60.2384 28.4621 60.361C28.4511 60.3732 28.4427 60.3801 28.4323 60.3924C28.4233 60.4031 28.4149 60.4146 28.4078 60.4245C28.298 60.5555 28.1881 60.6934 28.0777 60.8427C28.0706 60.8534 28.0622 60.8603 28.0551 60.8703C28.0447 60.8856 28.0344 60.9017 28.0247 60.9155C27.9162 61.0648 27.8064 61.2226 27.6965 61.388C27.692 61.398 27.6881 61.4033 27.6836 61.4094C27.6739 61.424 27.6629 61.4416 27.6539 61.4577C27.5305 61.6476 27.4084 61.846 27.2844 62.052C27.2805 62.0581 27.2773 62.0627 27.274 62.0689C27.2676 62.0803 27.2611 62.0911 27.2547 62.1018C27.1074 62.353 26.962 62.6134 26.818 62.8791C26.8115 62.8921 26.805 62.9036 26.7966 62.9159C26.7902 62.9266 26.7857 62.9396 26.7792 62.9511C26.5899 63.3034 26.4058 63.6641 26.2262 64.0271C26.2223 64.0325 26.2204 64.0379 26.2184 64.0432C26.2133 64.0532 26.2088 64.0631 26.2029 64.0731C26.0873 64.309 25.9742 64.5464 25.8651 64.7808C25.8509 64.8099 25.8354 64.8382 25.8224 64.8688C25.7139 65.0986 25.6118 65.3253 25.5123 65.5474C25.5059 65.5604 25.5001 65.5727 25.4949 65.5857C25.4878 65.6018 25.4813 65.6156 25.4749 65.6301C25.3999 65.7971 25.3276 65.9617 25.2578 66.1195C25.252 66.1379 25.2455 66.1509 25.2391 66.1662C25.1764 66.3117 25.1151 66.4542 25.0569 66.5928C25.0414 66.6242 25.0278 66.6564 25.0136 66.6893C24.9535 66.8317 24.8967 66.9681 24.8418 67.1013C24.8289 67.1304 24.8179 67.1565 24.8063 67.1863C24.7552 67.3058 24.7087 67.4199 24.6648 67.5302C24.6603 67.5402 24.6577 67.5494 24.6538 67.557C24.6506 67.5616 24.6499 67.5654 24.6473 67.57C24.5885 67.7186 24.5336 67.8557 24.4833 67.9813C24.4774 67.9951 24.4716 68.0081 24.4677 68.0219C24.4174 68.1429 24.3754 68.2509 24.3405 68.3458C24.3372 68.3535 24.334 68.3604 24.3308 68.3665C24.2565 68.5572 24.208 68.6867 24.1919 68.7295L26.0783 70.0284C26.0847 70.017 26.0983 69.981 26.108 69.9519C26.1209 69.9205 26.1351 69.8806 26.1532 69.8355C26.1661 69.8018 26.1803 69.7635 26.1958 69.7221C26.2101 69.6876 26.2243 69.6493 26.2411 69.6103C26.2695 69.5352 26.3044 69.4502 26.3386 69.3606C26.3528 69.3254 26.367 69.2863 26.3825 69.2496C26.4277 69.14 26.4736 69.0206 26.5272 68.8911C26.5389 68.8605 26.5531 68.8276 26.566 68.7954C26.608 68.6989 26.6474 68.5955 26.6907 68.4921C26.703 68.4615 26.7152 68.4324 26.7301 68.401C26.7837 68.2693 26.8412 68.1299 26.9032 67.9867C26.9142 67.9576 26.9297 67.9254 26.9426 67.894C26.9995 67.7577 27.0602 67.6198 27.1235 67.4766C27.13 67.4567 27.1397 67.4375 27.1474 67.4176C27.2152 67.2614 27.2876 67.1021 27.3587 66.9413C27.3735 66.9068 27.3884 66.8746 27.4019 66.8425C27.5008 66.6234 27.6029 66.3998 27.7094 66.1739C27.7243 66.1425 27.7379 66.1103 27.7521 66.0789C27.8613 65.8461 27.975 65.6133 28.0887 65.3781C28.0977 65.3605 28.1061 65.3429 28.1151 65.3268C28.2922 64.9638 28.4782 64.6038 28.6643 64.2523C28.6785 64.2293 28.6927 64.2041 28.705 64.1796C28.849 63.9146 28.9944 63.6534 29.141 63.4045C29.1507 63.3869 29.1623 63.3693 29.1707 63.3524C29.2935 63.1464 29.4162 62.9496 29.5403 62.7589C29.5545 62.7359 29.57 62.7129 29.5848 62.6907C29.6927 62.5238 29.8012 62.3675 29.9098 62.2174C29.9292 62.1937 29.9453 62.1684 29.9628 62.1447C30.0739 61.9953 30.1824 61.8559 30.2935 61.7257C30.311 61.7058 30.3297 61.6836 30.3471 61.6637C30.4544 61.5389 30.5623 61.4248 30.6676 61.3244C30.6805 61.3106 30.696 61.2999 30.7102 61.2854C30.8207 61.1835 30.9298 61.0908 31.0371 61.0173C31.1056 60.9691 31.174 60.93 31.2399 60.8955C31.3039 60.8664 31.362 60.8435 31.4215 60.8236C31.4318 60.822 31.4389 60.8205 31.4473 60.8167C31.5041 60.8021 31.5578 60.7922 31.612 60.7876C31.6146 60.7876 31.6178 60.7876 31.6198 60.7876C31.6812 60.7837 31.7412 60.7876 31.8 60.8014C31.8123 60.8036 31.8252 60.8067 31.8375 60.809C31.8556 60.8128 31.8743 60.8136 31.8924 60.8174C32.0455 60.8465 32.2006 60.8672 32.3588 60.8833C32.384 60.8856 32.4079 60.8909 32.4312 60.8925C32.457 60.8948 32.4803 60.8917 32.5048 60.8933C32.6353 60.9024 32.7652 60.904 32.8983 60.8986C32.9286 60.8986 32.9577 60.9024 32.9893 60.9009C33.001 60.8994 33.01 60.8963 33.0203 60.8955C33.1844 60.8864 33.3518 60.8695 33.5178 60.8396C33.5217 60.8389 33.5229 60.8389 33.5268 60.8389C33.5456 60.835 33.5662 60.8282 33.5843 60.8236C33.7258 60.796 33.8711 60.7592 34.0152 60.7163C34.032 60.711 34.0501 60.7079 34.0675 60.7025C34.0979 60.6926 34.1289 60.6765 34.1593 60.6658C34.2975 60.6175 34.4358 60.5616 34.5734 60.498C34.6044 60.4843 34.638 60.4751 34.667 60.4613C34.6884 60.4506 34.7077 60.4353 34.7271 60.4245C34.9093 60.3326 35.0908 60.23 35.2724 60.1067C35.4526 59.9834 35.6315 59.8387 35.8085 59.6809C35.8492 59.6457 35.8899 59.6089 35.93 59.5714C36.1051 59.4075 36.2776 59.2329 36.4481 59.0337C36.4552 59.0276 36.4604 59.0238 36.4655 59.0161C36.5237 58.9479 36.5799 58.8721 36.6374 58.8001C36.6942 58.7274 36.7543 58.6577 36.8125 58.5803C36.8183 58.5711 36.826 58.562 36.8331 58.552C36.9268 58.4241 37.0205 58.2893 37.1129 58.1484C37.1206 58.1346 37.1277 58.1231 37.1368 58.1093C37.1561 58.0818 37.1736 58.0511 37.1917 58.022C37.2459 57.9347 37.2996 57.8497 37.3538 57.7593C37.39 57.7004 37.4217 57.6368 37.4591 57.5763C37.4811 57.5365 37.5043 57.4974 37.5263 57.4561C37.5418 57.4254 37.5599 57.3978 37.5761 57.3657C37.6491 57.2309 37.7201 57.093 37.7912 56.9491C37.7989 56.9315 37.8086 56.9138 37.8151 56.8962C37.8351 56.8556 37.8551 56.8158 37.8739 56.776C37.9165 56.6848 37.9591 56.5945 38.0031 56.4995C38.0554 56.3846 38.1058 56.2651 38.1555 56.1441C38.2453 55.9335 38.3358 55.7329 38.4236 55.5368C38.4598 55.4571 38.4966 55.3813 38.5322 55.304C38.5993 55.1646 38.6659 55.0298 38.7324 54.8981C38.7621 54.8422 38.7912 54.7847 38.8196 54.7296C38.9043 54.5703 38.9889 54.4164 39.0748 54.2708C39.0864 54.2502 39.0961 54.2295 39.1084 54.2111C39.2021 54.0518 39.2951 53.9032 39.3907 53.7592C39.423 53.7156 39.4514 53.675 39.4811 53.6313C39.5451 53.5379 39.6116 53.4475 39.6782 53.3618C39.7241 53.299 39.7719 53.24 39.8197 53.181C39.8681 53.1213 39.9172 53.0646 39.9676 53.0072C40.0568 52.9068 40.1465 52.8157 40.2351 52.7284C40.2732 52.6909 40.3145 52.6503 40.3513 52.615C40.4786 52.5017 40.6065 52.3968 40.7351 52.3087C40.861 52.2229 40.9864 52.1502 41.1136 52.0881C41.1343 52.0782 41.1563 52.0728 41.1763 52.0636C41.2803 52.0146 41.3837 51.974 41.489 51.9434C41.518 51.9342 41.5484 51.9281 41.5755 51.9212C41.6699 51.8974 41.7629 51.8783 41.8559 51.8637C41.8934 51.8591 41.9283 51.8545 41.9638 51.8522C42.0581 51.843 42.1544 51.84 42.2487 51.843C42.279 51.843 42.3081 51.8415 42.3398 51.843C42.6021 51.8607 42.8721 51.9158 43.1454 52.0115C43.3004 52.0659 43.4587 52.1333 43.6169 52.2114C43.7539 52.2773 43.8915 52.3508 44.0291 52.4343C44.1447 52.5032 44.2533 52.5645 44.3553 52.6143C44.3573 52.6158 44.3631 52.6196 44.367 52.6204C44.3896 52.6319 44.4083 52.638 44.4309 52.648C44.5136 52.687 44.595 52.723 44.6693 52.7506C44.6796 52.7544 44.6919 52.7598 44.701 52.7636C44.7442 52.7789 44.7824 52.7858 44.8231 52.7973C44.8502 52.805 44.8793 52.8157 44.9057 52.8218C44.9129 52.8218 44.9206 52.8256 44.9277 52.8264C44.9865 52.8387 45.0466 52.8463 45.1008 52.8509C45.1054 52.8517 45.1099 52.8509 45.1157 52.8509C45.1241 52.8517 45.1344 52.8509 45.1435 52.8517C45.1777 52.854 45.2132 52.8563 45.2481 52.854C45.2682 52.8517 45.2882 52.8471 45.3082 52.8456C45.3231 52.8448 45.3386 52.8425 45.3534 52.8402C45.3651 52.8379 45.3741 52.8379 45.3844 52.8364C45.4303 52.8272 45.4768 52.8172 45.5221 52.8019C45.5246 52.8011 45.5253 52.8004 45.5285 52.7996C45.5382 52.7965 45.5485 52.7912 45.5582 52.7874C45.6002 52.7705 45.6461 52.7552 45.6887 52.7345C45.6952 52.7307 45.6997 52.7276 45.7049 52.7253C45.7714 52.6916 45.8379 52.6526 45.9045 52.6074C46.1461 52.442 46.3903 52.2038 46.6946 51.925C46.995 51.6508 47.3528 51.3376 47.818 51.0167C47.9582 50.9217 48.1113 50.826 48.2734 50.7287C48.3174 50.7035 48.3645 50.6782 48.4104 50.6521C48.5286 50.5794 48.6604 50.5081 48.8006 50.4369Z" fill="#09B4C6"/>
<path d="M40.7275 52.3079C41.7456 51.6117 42.8257 51.7136 44.0215 52.4327C44.9279 52.9795 45.4046 52.9435 45.8962 52.6066C46.1378 52.4411 46.382 52.203 46.6863 51.9242C46.9867 51.65 47.3446 51.3368 47.8097 51.0159C48.2839 50.6927 48.8698 50.3634 49.6218 50.0654C53.3622 48.5873 60.3444 46.4352 60.712 46.3219L26.0732 70.0292C26.2173 69.6508 28.9435 62.4471 31.0327 61.0173C31.3027 60.8327 31.5599 60.7492 31.7957 60.8013C32.8835 61.0356 34.1006 60.9054 35.2667 60.1066C36.3107 59.3921 37.3152 58.143 38.1499 56.1425C38.9819 54.1597 39.8295 52.9228 40.7275 52.3079Z" fill="#1FA4E5"/>
<path d="M44.389 28.5907L41.394 26.5275L49.7561 9.69458L52.7523 11.7586L44.389 28.5907Z" fill="#1FA4E5"/>
<path d="M39.706 25.8306L36.7104 23.7673L41.3941 26.5275L44.389 28.5907L39.706 25.8306Z" fill="#1FA4E5"/>
<path d="M34.4339 35.8006L31.439 33.7373L36.7104 23.7673L39.706 25.8306L34.4339 35.8006Z" fill="#1FA4E5"/>
<path d="M31.1189 35.367L28.124 33.303L31.4387 33.7372L34.4337 35.8004L31.1189 35.367Z" fill="#1FA4E5"/>
<path d="M23.3095 47.5794L20.314 45.5162L28.1243 33.303L31.1192 35.367L23.3095 47.5794Z" fill="#1FA4E5"/>
<path d="M23.288 47.8577L20.2931 45.7945L15.0132 42.0815L18.0081 44.144L23.288 47.8577Z" fill="#1FA4E5"/>
<path d="M12.6933 55.4358L9.69775 53.3734L15.0074 41.7859L18.0023 43.8484L12.6933 55.4358Z" fill="#1FA4E5"/>
<path d="M52.7522 11.7587L52.8575 11.8345L44.3921 28.8719L39.7013 26.1101L34.4518 36.0426L31.121 35.6076L23.288 47.8576L18.0081 44.1439L12.8058 55.4986L12.6934 55.4358L18.0023 43.8483L23.3093 47.5796L31.119 35.3671L34.4337 35.8006L39.7059 25.8306L44.3888 28.5908L52.7522 11.7587Z" fill="#1FA4E5"/>
<path d="M45.064 13.0344L52.8575 7.0293V17.7062L45.064 13.0344Z" fill="#1FA4E5"/>
<g opacity="0.7">
<path d="M71.1049 55.6524C76.3532 59.2443 76.3796 65.0663 71.1682 68.6567C65.9542 72.2478 57.4766 72.2478 52.2283 68.6567C46.9795 65.0648 46.9517 59.2427 52.1663 55.6508C57.3784 52.0605 65.8567 52.0605 71.1049 55.6524Z" fill="#55FBFF"/>
<g opacity="0.8333">
<path opacity="0.8333" d="M71.1049 49.3172C76.3532 52.9091 76.3796 58.7312 71.1682 62.3215C65.9542 65.9127 57.4766 65.9127 52.2283 62.3215C46.9795 58.7296 46.9517 52.9076 52.1663 49.3157C57.3784 45.7261 65.8567 45.7261 71.1049 49.3172Z" fill="#71FCFF"/>
</g>
<g opacity="0.6667">
<path opacity="0.6667" d="M71.1049 42.9827C76.3532 46.5738 76.3796 52.3967 71.1682 55.9863C65.9542 59.5789 57.4766 59.5789 52.2283 55.9863C46.9795 52.3951 46.9517 46.5723 52.1663 42.9812C57.3784 39.3908 65.8567 39.3908 71.1049 42.9827Z" fill="#8EFCFF"/>
</g>
<g opacity="0.5">
<path opacity="0.5" d="M71.1049 36.6474C76.3532 40.2385 76.3796 46.0613 71.1682 49.6509C65.9542 53.2436 57.4766 53.2436 52.2283 49.6509C46.9795 46.0598 46.9517 40.237 52.1663 36.6451C57.3784 33.0562 65.8567 33.0562 71.1049 36.6474Z" fill="#AAFDFF"/>
</g>
<g opacity="0.3333">
<path opacity="0.3333" d="M71.1049 30.3132C76.3532 33.9043 76.3796 39.7272 71.1682 43.3176C65.9542 46.9102 57.4766 46.9102 52.2283 43.3176C46.9795 39.7257 46.9517 33.9036 52.1663 30.3117C57.3784 26.7206 65.8567 26.7206 71.1049 30.3132Z" fill="#C6FEFF"/>
</g>
<g opacity="0.1667">
<path opacity="0.1667" d="M71.1049 23.9778C76.3532 27.5689 76.3796 33.3918 71.1682 36.9806C65.9542 40.574 57.4766 40.574 52.2283 36.9806C46.9795 33.3902 46.9517 27.5666 52.1663 23.9763C57.3784 20.3859 65.8567 20.3859 71.1049 23.9778Z" fill="#E3FEFF"/>
</g>
</g>
<path d="M59.1505 36.9498C59.1505 36.9498 58.4366 45.5688 58.6918 47.4207C58.9464 49.2733 59.5614 58.8803 59.5614 58.8803C59.5614 58.8803 59.7164 59.1606 60.1557 59.205C60.9774 59.2862 61.0905 58.9783 61.0905 58.9783C61.0905 58.9783 62.5686 51.0593 61.6764 48.316L62.6732 39.121V37.8436C62.6732 37.8436 60.0691 37.4599 59.1505 36.9498Z" fill="#FFAA83"/>
<path d="M59.3369 59.0227C59.3369 59.0227 59.4383 58.6582 59.408 58.181C59.408 58.181 60.5056 58.7095 61.2226 58.2201C61.2226 58.2201 61.1348 58.8045 61.2614 59.2196C61.3874 59.6316 59.4939 59.5795 59.3369 59.0227Z" fill="#615A8E"/>
<path d="M61.0919 58.8936C61.0919 58.8936 61.734 60.1404 61.0118 60.5256C60.2889 60.9139 60.2889 60.3112 58.9465 61.6859C57.6034 63.0645 56.376 62.4992 56.1996 62.209C55.7739 61.5097 56.489 60.7898 59.4729 58.9004L61.0919 58.8936Z" fill="#5A39EA"/>
<path d="M61.0109 60.5254C60.3171 60.9826 60.2873 60.311 58.9436 61.6857C57.6025 63.0643 56.3906 62.4837 56.1961 62.2088C56.1735 62.1743 56.1567 62.1177 56.1528 62.0372C57.4074 62.5902 58.087 61.8098 58.6368 61.2813C59.204 60.7368 59.682 60.5201 60.5425 60.2888C61.4036 60.056 61.0877 59.2273 61.0877 59.2273C61.0852 59.0634 61.1129 58.2301 61.2086 58.2209C61.2105 59.1898 61.7719 60.0253 61.0109 60.5254Z" fill="#3D93FF"/>
<path d="M58.5769 35.0077C58.5769 35.0077 57.8999 42.6663 58.2881 47.0639C58.6751 51.4622 59.0491 56.337 58.9548 58.8367C58.9238 59.6639 61.5615 60.5814 61.7462 58.8367C61.9672 56.7551 62.7379 50.9108 61.6758 48.3161L63.4136 37.0571C63.4136 37.0571 60.314 36.4919 58.5769 35.0077Z" fill="#1FA4E5"/>
<path d="M62.9298 37.6261C62.9298 37.6261 62.2469 46.7713 62.4905 48.7342C62.7347 50.6994 63.3691 60.9949 63.3691 60.9949H64.7838C64.7838 60.9949 66.2955 52.1193 65.3433 49.6831L66.2962 39.9283V38.5735C66.2962 38.5735 63.809 38.1691 62.9298 37.6261Z" fill="#FFAA83"/>
<path d="M63.1514 60.745C63.1514 60.745 63.2534 60.3797 63.2224 59.9026C63.2224 59.9026 64.32 60.431 65.0364 59.9416C65.0364 59.9416 64.9505 60.526 65.0765 60.9411C65.2025 61.3547 63.3083 61.301 63.1514 60.745Z" fill="#615A8E"/>
<path d="M64.9034 60.619C64.9034 60.619 65.552 61.8773 64.8233 62.2709C64.0926 62.6592 64.0926 62.0542 62.7373 63.4412C61.3813 64.8281 60.1422 64.2599 59.9633 63.9665C59.5343 63.2619 60.2527 62.1231 63.2657 60.2123L64.9034 60.619Z" fill="#5A39EA"/>
<path d="M64.8207 62.2706C64.1217 62.7317 64.092 62.0539 62.7348 63.4409C61.3801 64.8279 60.1578 64.245 59.9614 63.9663C59.9388 63.9326 59.9207 63.8728 59.9175 63.7932C61.1837 64.3545 61.8697 63.5665 62.4247 63.0319C62.9964 62.4828 63.4803 62.263 64.3498 62.0301C65.218 61.7943 64.8996 60.9564 64.8996 60.9564C64.8963 60.7933 64.9241 59.9524 65.0217 59.9417C65.0242 60.9197 65.5876 61.7629 64.8207 62.2706Z" fill="#3D93FF"/>
<path d="M66.6404 36.1941C66.6404 36.1941 67.8711 38.3813 66.9628 43.5961C66.0545 48.8101 65.7431 50.3403 65.7431 50.3403C65.7431 50.3403 65.9595 50.9982 65.7431 55.1721C65.5409 59.0918 65.5351 58.836 65.4601 60.73C65.4304 61.479 62.8741 61.8267 62.7682 60.2498C62.5434 56.8953 62.2946 48.1629 62.2946 48.1629L61.679 39.825L58.5762 35.007C58.5762 35.007 64.9698 37.5688 66.6404 36.1941Z" fill="#1FA4E5"/>
<path d="M51.9777 27.8193C51.9777 27.8193 51.6805 27.4976 50.9654 27.3245C50.2502 27.1491 50.0493 27.3375 49.6146 27.483C49.1804 27.6285 48.8652 27.7901 48.9317 28.0452C48.9963 28.3033 49.9143 28.8179 50.5015 28.7161C50.864 28.6494 51.7115 29.3272 51.915 29.3487C52.1192 29.3732 52.1838 27.9824 51.9777 27.8193Z" fill="#FFAA83"/>
<path d="M51.915 29.3494C51.7115 29.3279 50.8639 28.6502 50.5015 28.7168C50.0809 28.7903 49.4892 28.5437 49.1636 28.3063C49.1687 28.2948 49.1733 28.2825 49.1797 28.2733C49.2792 28.1401 49.5764 28.2772 49.7747 28.2381C49.9743 28.2006 50.5667 28.3101 50.9589 28.2726C51.3484 28.2366 52.019 28.8225 52.019 28.8225L52.0829 28.8807C52.0532 29.148 51.9951 29.3593 51.915 29.3494Z" fill="#F29C79"/>
<path d="M61.3515 21.4334C61.3515 21.4334 60.3295 19.5463 59.0343 21.3783C58.1919 22.5684 56.5536 27.4914 56.0426 27.869C55.7906 28.0558 51.8493 27.4607 51.8493 27.4607C51.8493 27.4607 52.3887 28.2136 51.5146 29.4681C51.5146 29.4681 56.5148 31.9648 57.4574 30.8022C59.0717 28.8071 61.9149 23.6422 61.3515 21.4334Z" fill="#E84CBE"/>
<path d="M66.2677 22.3816C65.747 21.8378 60.3043 20.0411 59.6725 20.6025C59.2571 20.9724 59.1415 21.0038 58.4186 23.4308C58.1008 24.5888 58.1279 25.9941 58.6014 27.2157C59.5401 29.6381 59.3838 30.8742 59.336 31.5351C59.2617 32.5139 58.4167 34.1314 58.5775 35.0068C58.7952 36.1962 65.3213 38.6668 66.6392 36.1954C66.6547 36.1648 66.968 36.0185 66.2684 33.3625C64.7786 27.7028 68.1612 24.3636 66.2677 22.3816Z" fill="#5A39EA"/>
<path d="M66.6387 36.1955C66.6412 36.2048 66.6412 36.1938 66.6412 36.1938L66.6387 36.1955Z" fill="url(#paint0_linear_729_721)"/>
<path d="M61.5448 19.5226C61.5448 19.5226 61.8426 21.127 61.5448 21.9718C61.2463 22.8173 62.3303 23.0884 62.8458 22.8778C63.3607 22.6664 64.1747 22.2437 64.0655 21.7007C63.9583 21.1561 63.4977 19.374 63.7942 18.7391C64.0933 18.1049 61.5448 19.5226 61.5448 19.5226Z" fill="#F79F7C"/>
<path d="M64.1649 14.5804C64.1649 14.5804 65.716 16.4031 65.2967 18.327C65.0674 19.3885 64.0331 20.0831 63.4485 20.6269C62.8625 21.1714 61.6803 22.4198 60.7513 21.5252C59.7946 20.6031 59.5717 16.4062 60.7765 14.5812C61.9536 12.7975 64.1649 14.5804 64.1649 14.5804Z" fill="#FFAA83"/>
<path d="M60.7753 15.3694C60.7753 15.3694 60.6267 16.6155 62.9905 17.0076C63.57 17.1041 63.4653 19.201 63.9195 18.6726C64.0926 18.4719 64.5422 18.0775 64.5965 18.3777C64.8556 19.8168 63.1313 20.4164 63.2657 21.4059C63.5926 23.8215 66.7781 23.9961 66.1121 16.1782C65.9396 14.1609 64.7606 12.4936 62.3568 12.9914C59.9529 13.49 60.108 16.2662 60.108 16.2662C60.108 16.2662 60.3677 15.3189 60.7753 15.3694Z" fill="#994E17"/>
<path d="M61.6881 33.6742C61.6881 33.6742 61.2966 33.5816 60.6073 33.8657C59.9187 34.1537 59.8256 34.4416 59.5162 34.833C59.2074 35.2243 59.0078 35.5583 59.1725 35.7405C59.3392 35.9213 60.3521 35.8064 60.8102 35.3576C61.0931 35.0804 62.1138 35.1478 62.2973 35.0413C62.4833 34.9364 61.9381 33.6903 61.6881 33.6742Z" fill="#FFAA83"/>
<path d="M62.2973 35.0406C62.1138 35.1471 61.0931 35.0797 60.8102 35.3569C60.482 35.6786 59.867 35.8287 59.4852 35.821C59.4845 35.808 59.4826 35.795 59.4852 35.7827C59.5117 35.6073 59.8256 35.5438 59.9807 35.3875C60.1331 35.2328 60.6919 34.9633 61.0104 34.6929C61.3302 34.4226 62.1584 34.5183 62.1584 34.5183L62.2398 34.5321C62.3302 34.7825 62.3722 34.9993 62.2973 35.0406Z" fill="#F29C79"/>
<path d="M66.4072 22.5769C66.4072 22.5769 65.174 21.857 64.8787 23.3826C64.5835 24.9082 65.4743 30.5879 65.2011 31.2281C65.0667 31.5436 61.4238 33.4415 61.4238 33.4415C61.4238 33.4415 62.2126 33.7669 62.0052 35.3875C62.0052 35.3875 67.3769 34.4884 67.6837 32.9038C68.2089 30.1842 67.8485 24.1454 66.4072 22.5769Z" fill="#F98CDA"/>
<defs>
<linearGradient id="paint0_linear_729_721" x1="67.5709" y1="15.4919" x2="66.5558" y2="38.0251" gradientUnits="userSpaceOnUse">
<stop stop-color="#FA5FC8"/>
<stop offset="1" stop-color="#B161CB"/>
</linearGradient>
</defs>
</svg>
