<svg width="87" height="80" viewBox="0 0 87 80" fill="none" xmlns="http://www.w3.org/2000/svg">
<path opacity="0.1" d="M51.8 58.4599C50.493 56.4649 48.4529 54.5949 45.674 52.9899C39.268 49.2889 30.441 47.8619 22.172 48.6959C16.949 49.2209 11.947 50.6509 7.92597 52.9899C3.27197 55.6919 0.721945 59.1529 0.254945 62.6879C-0.324055 67.0449 2.27295 71.5188 8.04895 74.8548C16.815 79.9158 30.1069 80.7339 40.2979 77.3089C42.2689 76.6469 44.1209 75.8308 45.799 74.8548C53.4269 70.4238 55.419 63.9679 51.8 58.4599Z" fill="black"/>
<path d="M43.267 20.7798L43.1559 59.4038L38.002 62.3988L38.112 23.7758L43.267 20.7798Z" fill="#BD37DD"/>
<path d="M38.112 23.7758L38.002 62.3988L32.814 59.4038L32.9229 20.7798L38.112 23.7758Z" fill="#E578FF"/>
<path d="M43.2669 20.7798L38.1119 23.7758L32.9229 20.7798L38.0769 17.7838L43.2669 20.7798Z" fill="#EEA6FF"/>
<path d="M33.535 36.0178V64.9608L28.272 68.0818L28.381 38.9348L33.535 36.0178Z" fill="#1FA4E5"/>
<path d="M28.381 38.9348L28.272 68.0818L23.084 65.0868L23.194 35.9398L28.381 38.9348Z" fill="#1FA4E5"/>
<path d="M33.5348 35.9398L28.3808 38.9348L23.1938 35.9398L28.3478 32.9438L33.5348 35.9398Z" fill="#9DF0F9"/>
<path d="M23.7508 51.4188L23.7528 70.4898L18.4888 73.6128L18.5978 54.4138L23.7508 51.4188Z" fill="#6632C9"/>
<path d="M18.5978 54.4138L18.4888 73.6128L13.2998 70.6148L13.4108 51.4188L18.5978 54.4138Z" fill="#9761FF"/>
<path d="M23.7506 51.4188L18.5977 54.4138L13.4106 51.4188L18.5637 48.4238L23.7506 51.4188Z" fill="#A684F7"/>
<path opacity="0.1" d="M85.7794 60.9389C84.9034 59.6039 83.5374 58.3498 81.6764 57.2728C77.3824 54.7938 71.4664 53.8368 65.9244 54.3968C62.4254 54.7498 59.0724 55.7078 56.3784 57.2738C53.2594 59.0848 51.5494 61.4048 51.2364 63.7718C50.8494 66.6938 52.5904 69.6928 56.4604 71.9278C62.3354 75.3198 71.2424 75.8658 78.0724 73.5708C79.3904 73.1288 80.6354 72.5818 81.7584 71.9278C86.8704 68.9568 88.2044 64.6289 85.7794 60.9389Z" fill="black"/>
<path d="M78.327 64.2788C78.327 64.2788 79.162 66.0048 77.913 66.5428C76.662 67.0778 76.662 66.2458 74.342 68.1498C72.02 70.0538 69.925 69.2528 69.588 68.8678C69.34 68.5838 69.318 66.6778 74.477 64.0588L78.327 64.2788Z" fill="#5BB0FF"/>
<path d="M77.9102 66.5428C76.6612 67.0778 76.6612 66.2458 74.3382 68.1498C72.0182 70.0538 69.9232 69.2528 69.5872 68.8678C69.5482 68.8228 69.5172 68.7428 69.5112 68.6338C71.6802 69.4018 72.8552 68.3198 73.8072 67.5888C74.7852 66.8338 75.6162 66.5328 77.1022 66.2118C78.5912 65.8928 78.0462 64.7438 78.0462 64.7438C78.1382 64.6568 78.2832 64.6148 78.4502 64.6008C78.6262 65.1268 78.8232 66.1518 77.9102 66.5428Z" fill="#3D93FF"/>
<path d="M66.8791 60.9639C66.8791 60.9639 67.573 62.7489 66.286 63.1879C64.999 63.6239 65.065 62.7919 62.601 64.5099C60.138 66.2289 58.111 65.2649 57.808 64.8569C57.58 64.5509 57.7051 62.6518 63.0551 60.4438L66.8791 60.9639Z" fill="#5BB0FF"/>
<path d="M66.2852 63.1879C65.0002 63.6229 65.0652 62.7919 62.6012 64.5099C60.1372 66.2289 58.1102 65.2649 57.8082 64.8569C57.7702 64.8069 57.7452 64.7239 57.7472 64.6159C59.8502 65.5519 61.1042 64.5639 62.1112 63.9089C63.1492 63.2339 63.9962 62.9999 65.5042 62.7979C67.0132 62.5929 66.5592 61.4059 66.5592 61.4059C66.6602 61.3259 66.8092 61.2959 66.9762 61.2959C67.1102 61.8309 67.2262 62.8699 66.2852 63.1879Z" fill="#3D93FF"/>
<path d="M62.6371 25.1729C62.6371 25.1729 61.8381 38.0299 61.9611 42.7179C62.0841 47.4059 61.3481 56.2779 62.0971 60.6609C62.3381 62.0759 67.7211 62.4859 68.0091 60.9379C68.8101 56.6399 68.0861 46.6599 68.0861 46.6599L70.5471 28.5329C70.5471 28.5329 65.4231 28.6959 62.6371 25.1729Z" fill="#131395"/>
<path d="M65.376 29.7339C65.376 29.7339 68.131 43.4509 69.19 47.9929C70.253 52.5339 70.818 60.1169 72.712 64.9229C73.24 66.2619 78.679 65.7449 78.76 64.3539C78.99 60.3719 75.393 49.2349 75.393 49.2349L74.741 32.1629C74.741 32.1609 68.807 32.5199 65.376 29.7339Z" fill="#131395"/>
<path d="M52.6452 22.5999C52.6452 22.5999 48.5612 22.5719 48.2762 20.1709C48.2402 19.8769 48.4542 19.7769 49.3922 20.1109C50.0102 20.3319 50.3502 20.6969 50.7632 20.4109C51.2322 20.0849 50.0922 19.0179 50.4542 18.8069C50.8142 18.5949 53.0412 20.2129 53.0412 20.2129L53.6942 20.5589L53.7142 22.7359L52.6452 22.5999Z" fill="#FFAA83"/>
<path d="M67.0582 11.4039C67.0582 11.4039 65.8332 9.62389 64.4402 11.1619C63.0482 12.6989 60.5912 19.9529 59.8002 20.4819C59.4102 20.7449 53.1882 20.1439 53.1882 20.1439C53.1882 20.1439 54.0602 21.1219 52.7212 22.8389C52.7212 22.8389 60.6702 25.9249 62.1182 24.3259C64.5982 21.5869 68.0172 14.3239 67.0582 11.4039Z" fill="#E84CBE"/>
<path d="M74.38 14.3308C74.132 14.1518 66.204 9.73178 65.19 10.4928C64.175 11.2548 61.838 14.9398 62.536 20.3388C63.039 24.2288 62.167 30.0828 62.167 30.0828C62.167 30.0828 70.063 36.0808 74.741 32.1608C74.741 32.1608 74.741 32.1608 74.383 29.2218C73.41 21.2388 77.68 16.6998 74.38 14.3308Z" fill="url(#paint0_linear_729_1052)"/>
<path d="M67.0753 9.98286C67.0753 9.98286 67.5543 12.1569 67.0753 13.3029C66.5953 14.4489 68.3403 14.8199 69.1673 14.5319C69.9923 14.2439 71.3033 13.6719 71.1283 12.9329C70.9543 12.1989 70.2133 9.77986 70.6923 8.91786C71.1713 8.05986 67.0753 9.98286 67.0753 9.98286Z" fill="#F79F7C"/>
<path d="M71.2891 2.83689C71.2891 2.83689 73.3961 4.28188 72.7221 6.89188C72.3521 8.33088 70.9191 10.0849 69.9801 10.8259C69.0381 11.5619 65.9041 13.3819 64.9201 11.6629C63.9381 9.94291 63.7111 5.0489 65.8401 2.8379C67.9701 0.623899 71.2891 2.83689 71.2891 2.83689Z" fill="#FFAA83"/>
<path d="M65.3762 3.95086C65.3762 3.95086 67.8472 5.45886 69.9802 5.49886C72.1082 5.53886 71.1602 6.29183 70.9622 6.60283C70.7932 6.86883 70.3352 8.56985 71.0632 7.85485C71.3402 7.58085 72.0252 6.93083 72.2312 7.50383C72.4352 8.07783 70.8782 9.52785 70.8262 10.0188C70.7882 10.3688 74.4432 7.25984 74.3202 4.51384C74.1972 1.76984 72.2802 0.151836 68.5272 0.736836C65.4432 1.21884 64.1982 2.27984 64.1982 2.27984C64.1982 2.27984 64.5072 3.11386 65.3762 3.95086Z" fill="#994E17"/>
<path d="M51.605 19.2609C51.605 19.2609 49.623 18.2239 50.058 18.7859C50.493 19.3499 51.285 20.3798 51.798 20.3798C52.311 20.3798 51.605 19.2609 51.605 19.2609Z" fill="#FFAA83"/>
<path d="M59.9058 11.7389L59.7928 51.9559L54.4238 55.0749L54.5378 14.8569L59.9058 11.7389Z" fill="#6632C9"/>
<path d="M54.538 14.8569L54.424 55.0749L49.021 51.9559L49.136 11.7389L54.538 14.8569Z" fill="#9761FF"/>
<path d="M59.9057 11.7389L54.5378 14.8569L49.1357 11.7389L54.5007 8.6189L59.9057 11.7389Z" fill="#A684F7"/>
<path d="M60.7101 26.8379C60.7101 26.8379 56.6311 26.6919 56.4101 24.2859C56.3851 23.9919 56.5991 23.8989 57.5281 24.2579C58.1401 24.4939 58.4711 24.8689 58.8901 24.5979C59.3681 24.2839 58.5911 23.5499 58.9611 23.3469C59.3271 23.1449 61.1721 24.4609 61.1721 24.4609L61.8161 24.8259L61.7751 27.0019L60.7101 26.8379Z" fill="#FFAA83"/>
<path d="M75.6562 15.8409C75.3833 15.2439 74.2543 14.2329 72.8203 15.7289C71.3843 17.2269 68.7283 24.4119 67.9243 24.9189C67.5243 25.1699 61.3213 24.3969 61.3213 24.3969C61.3213 24.3969 62.1673 25.3999 60.7812 27.0789C60.7812 27.0789 68.6423 30.3829 70.1353 28.8249C72.6893 26.1539 76.9463 18.6319 75.6562 15.8409Z" fill="#F98CDA"/>
<path opacity="0.6" d="M22.8972 9.63083L21.7432 7.63083L22.8972 5.63184H25.2052L26.3602 7.63083L25.2052 9.63083H22.8972Z" fill="#40EBF4"/>
<path opacity="0.5" d="M22.8972 12.7468L21.7432 10.7468L22.8972 8.7478H25.2052L26.3602 10.7468L25.2052 12.7468H22.8972Z" fill="#39E0EA"/>
<path opacity="0.4" d="M22.8972 15.8638L21.7432 13.8638L22.8972 11.8638H25.2052L26.3602 13.8638L25.2052 15.8638H22.8972Z" fill="#33D4DF"/>
<path opacity="0.3" d="M22.8972 18.9789L21.7432 16.9799L22.8972 14.9799H25.2052L26.3602 16.9799L25.2052 18.9789H22.8972Z" fill="#2CC9D5"/>
<path opacity="0.2" d="M22.8972 22.0948L21.7432 20.0958L22.8972 18.0958H25.2052L26.3602 20.0958L25.2052 22.0948H22.8972Z" fill="#25BDCA"/>
<path opacity="0.1" d="M22.8972 25.2108L21.7432 23.2118L22.8972 21.2108H25.2052L26.3602 23.2118L25.2052 25.2108H22.8972Z" fill="#1FB2C0"/>
<path opacity="0.5" d="M22.8972 9.63083L21.7432 7.63083L22.8972 5.63184H25.2052L26.3602 7.63083L25.2052 9.63083H22.8972Z" fill="#18A6B5"/>
<defs>
<linearGradient id="paint0_linear_729_1052" x1="69.3191" y1="11.5046" x2="68.3145" y2="32.6015" gradientUnits="userSpaceOnUse">
<stop stop-color="#FA5FC8"/>
<stop offset="1" stop-color="#B161CB"/>
</linearGradient>
</defs>
</svg>
