<svg width="83" height="78" viewBox="0 0 83 78" fill="none" xmlns="http://www.w3.org/2000/svg">
<g opacity="0.7">
<g opacity="0.5">
<path d="M20.0105 10.0066C20.1497 10.0739 20.2715 10.2334 20.2889 10.3798L20.7064 11.8287C20.7238 11.9429 20.7899 12.0644 20.8839 12.1595C21.2057 12.379 21.5137 12.6264 21.8094 12.8972C21.8477 12.8942 21.886 12.884 21.9155 12.862L22.9159 12.461C22.9716 12.4171 23.0585 12.4215 23.1438 12.4639C23.2047 12.4932 23.2638 12.54 23.316 12.603L24.3999 13.9275C24.5269 14.0812 24.5513 14.2656 24.4538 14.3402L23.838 15.2111C23.7718 15.2652 23.7527 15.3647 23.784 15.4789C23.9615 15.8243 24.1111 16.1785 24.2277 16.5327C24.259 16.5546 24.2886 16.5751 24.3216 16.5912C24.3373 16.5985 24.3512 16.6044 24.3651 16.6088L25.7151 17.3215C25.8961 17.4064 26.0179 17.566 26.037 17.7138L26.2197 19.11C26.2423 19.271 26.1309 19.3574 25.9744 19.3032L24.6869 19.0866C24.5773 19.0486 24.4852 19.069 24.4347 19.1349C24.3686 19.413 24.2659 19.6647 24.1355 19.8872C24.1563 19.9355 24.1859 19.9853 24.2242 20.0321L25.1375 21.4415C25.2611 21.5937 25.2872 21.7781 25.1897 21.8542L24.3634 22.5055C24.306 22.5494 24.2207 22.5465 24.1337 22.5026C24.0746 22.4733 24.0137 22.4265 23.9615 22.3636L22.7576 21.1868C22.6967 21.1122 22.6236 21.0566 22.5523 21.0215C22.5192 21.0054 22.4862 20.9937 22.4531 20.9878C22.1834 21.0288 21.8929 21.0332 21.585 20.998C21.5728 21.0346 21.5676 21.0771 21.5746 21.1254L21.5119 22.4045C21.5345 22.5655 21.4232 22.6519 21.2666 22.5963L19.9148 22.1206C19.9026 22.1162 19.8887 22.1104 19.8765 22.1045C19.7374 22.0372 19.6156 21.8777 19.5964 21.7298L19.1789 20.2824C19.1632 20.1667 19.0954 20.0467 19.0015 19.9516C18.6796 19.7321 18.3717 19.4832 18.0759 19.2139C18.0359 19.2169 17.9994 19.2271 17.9698 19.2491L16.9694 19.6486C16.9138 19.6925 16.8285 19.6896 16.7415 19.6472C16.6824 19.6194 16.6232 19.5711 16.5693 19.5081L15.4854 18.1836C15.3602 18.0314 15.3358 17.8455 15.4315 17.7709L16.0474 16.9C16.1135 16.8459 16.1309 16.7449 16.0996 16.6322C15.9238 16.2868 15.776 15.9326 15.6577 15.5784C15.6246 15.555 15.595 15.536 15.562 15.5199C15.548 15.514 15.5324 15.5067 15.5202 15.5023L14.1684 14.7896C14.1545 14.7852 14.1406 14.7793 14.1284 14.772C13.9892 14.7047 13.8674 14.5451 13.8483 14.3973L13.6656 12.9996C13.6448 12.8386 13.7543 12.7522 13.9109 12.8064L15.1984 13.0245C15.3097 13.0625 15.4002 13.042 15.4523 12.9762C15.5202 12.6981 15.6211 12.4464 15.7533 12.2239C15.7307 12.1741 15.7029 12.1258 15.6629 12.079L14.7512 10.6696C14.6277 10.5159 14.6016 10.3315 14.699 10.2569L15.5254 9.60556C15.5811 9.56165 15.6663 9.56604 15.7533 9.60849C15.8125 9.63776 15.8734 9.6846 15.9256 9.74753L17.1312 10.9257C17.1921 10.9989 17.2634 11.056 17.3348 11.0911C17.3696 11.1072 17.4009 11.1189 17.4339 11.1247C17.7036 11.0838 17.9941 11.0794 18.3021 11.113C18.3142 11.0779 18.3195 11.034 18.3142 10.9857L18.3751 9.70655C18.3543 9.54556 18.4639 9.4592 18.6204 9.51335L19.9722 9.99048C19.9827 9.99341 19.9966 9.99926 20.0105 10.0066Z" fill="#131395"/>
</g>
<g opacity="0.5">
<path d="M20.8506 6.79542C20.8663 6.90958 20.7898 6.97105 20.6784 6.93153L19.7685 6.77785C19.6902 6.75004 19.6259 6.76615 19.5893 6.81152C19.5423 7.0091 19.471 7.18619 19.3771 7.3428C19.3927 7.37646 19.4136 7.41158 19.4397 7.44525L20.0852 8.44048C20.1721 8.54732 20.1913 8.67905 20.1217 8.73174L19.5371 9.1913C19.4971 9.22349 19.4362 9.22057 19.3753 9.18983C19.3336 9.16934 19.2901 9.13568 19.2536 9.09177L18.4028 8.26046C18.361 8.20777 18.3089 8.16826 18.2584 8.14338C18.2341 8.13167 18.2114 8.12434 18.1888 8.11849C17.9975 8.14776 17.7939 8.1507 17.5764 8.12582C17.5677 8.1507 17.5642 8.18143 17.5677 8.21509L17.5242 9.11959C17.5399 9.23375 17.4634 9.29521 17.352 9.25569L16.3951 8.92054C16.3864 8.91615 16.376 8.91322 16.3656 8.90736C16.2664 8.86053 16.1829 8.74783 16.169 8.64245L15.875 7.61942C15.8628 7.53746 15.8158 7.45256 15.7497 7.38524C15.5235 7.2301 15.3043 7.05594 15.0956 6.86421C15.066 6.86568 15.0416 6.87299 15.0207 6.88909L14.3144 7.17156C14.2744 7.2023 14.2135 7.19937 14.1526 7.1701C14.1126 7.14961 14.0673 7.11594 14.0326 7.0735L13.2671 6.13681C13.1783 6.02851 13.1609 5.89679 13.2288 5.8441L13.6655 5.22939C13.7124 5.19134 13.7246 5.11962 13.702 5.04059C13.5785 4.79617 13.4724 4.54736 13.3889 4.29709C13.3662 4.28099 13.3471 4.26635 13.3227 4.25611C13.3123 4.25172 13.3019 4.24733 13.2914 4.24294L12.3346 3.73801C12.3259 3.73508 12.3154 3.73069 12.305 3.72629C12.2058 3.678 12.1223 3.56676 12.1084 3.46139L11.9797 2.47348C11.9657 2.35932 12.0423 2.29931 12.1536 2.33736L13.0635 2.49104C13.1418 2.51885 13.2062 2.50275 13.241 2.45738C13.2879 2.25979 13.3593 2.0827 13.4532 1.9261C13.4376 1.89097 13.4167 1.85731 13.3906 1.82365L12.7451 0.828416C12.6564 0.720111 12.639 0.589846 12.7086 0.537157L13.2932 0.0761372C13.3332 0.0454021 13.3941 0.0483285 13.455 0.0776C13.4967 0.0980901 13.5402 0.131754 13.5767 0.175662L14.4275 1.00844C14.4692 1.06113 14.5214 1.10063 14.5719 1.12552C14.5962 1.13722 14.6189 1.14455 14.6415 1.14894C14.8311 1.11967 15.0381 1.1182 15.2556 1.14162C15.2643 1.11527 15.2678 1.08601 15.2626 1.05088L15.306 0.146384C15.2904 0.0322248 15.3687 -0.0292377 15.48 0.0102789L16.4369 0.346896C16.5622 0.406902 16.6491 0.518139 16.663 0.623516L16.9571 1.64802C16.9693 1.72851 17.0162 1.81341 17.0806 1.88073C17.3085 2.03587 17.5277 2.21149 17.7365 2.4003C17.7643 2.39883 17.7887 2.39152 17.8096 2.37542L18.5176 2.09295C18.5559 2.06221 18.6185 2.06514 18.6777 2.09441C18.7194 2.1149 18.7629 2.14856 18.7995 2.19247L19.5667 3.12916C19.6554 3.23746 19.6728 3.36918 19.6032 3.42041L19.17 4.03658C19.1213 4.07463 19.1091 4.14488 19.1318 4.22538C19.2553 4.4698 19.3614 4.71861 19.4449 4.97034C19.4675 4.98644 19.4884 5.00108 19.511 5.01132C19.5215 5.01572 19.5319 5.0201 19.5424 5.02449L20.4975 5.52796C20.5079 5.53089 20.5166 5.53529 20.527 5.53968C20.6262 5.58797 20.7132 5.70067 20.7254 5.80605L20.8506 6.79542ZM16.4073 7.24181C17.9052 7.96482 19.1126 7.37646 19.1126 5.93484C19.1109 4.49614 17.9105 2.75009 16.4247 2.03001C14.9268 1.30847 13.7194 1.8939 13.7194 3.33698C13.7229 4.77568 14.9233 6.52027 16.4073 7.24181Z" fill="#131395"/>
</g>
<g opacity="0.5">
<path d="M27.1781 11.0076C27.1886 11.0837 27.1364 11.1232 27.0633 11.0983L26.4579 10.9958C26.4057 10.9783 26.3622 10.9885 26.3396 11.0193C26.3083 11.151 26.2595 11.2681 26.1986 11.372C26.2091 11.3954 26.223 11.4188 26.2387 11.4393L26.6684 12.1008C26.7258 12.174 26.738 12.2604 26.6927 12.2955L26.1395 12.6351C26.1117 12.657 26.0716 12.6541 26.0334 12.6351C26.0038 12.6204 25.976 12.5985 25.9516 12.5692L25.3862 12.016C25.3462 11.9691 25.3601 11.9208 25.327 11.9047C25.1896 11.9208 25.1461 11.9106 25.0017 11.8945C24.9947 11.912 24.993 11.9311 24.9965 11.953L24.9756 12.537C24.986 12.6131 24.9339 12.6526 24.8608 12.6277L24.2258 12.4038C24.2188 12.4023 24.2119 12.3994 24.2049 12.395C24.1388 12.3643 24.0814 12.297 24.0727 12.2282L23.8709 11.5579C23.8639 11.5037 23.8326 11.4481 23.7873 11.4027C23.636 11.2988 23.4916 11.1832 23.3524 11.0559C23.3333 11.0573 23.3176 11.0617 23.3037 11.0734L22.6809 11.3544C22.653 11.3749 22.6148 11.3735 22.573 11.353C22.5434 11.3398 22.5173 11.3178 22.4912 11.2871L21.9815 10.6651C21.9241 10.5934 21.9119 10.5055 21.9554 10.4704L22.399 9.96841C22.4304 9.94353 22.4373 9.89523 22.4251 9.84254C22.3416 9.68009 22.272 9.51471 22.2164 9.34786C22.2024 9.33761 22.1885 9.32884 22.1746 9.32152C22.1676 9.31859 22.1607 9.31419 22.1537 9.31273L21.5187 8.97758C21.4335 8.93806 21.3761 8.86342 21.3674 8.79317L21.2821 8.13748C21.2717 8.06137 21.3221 8.02039 21.3952 8.04674L22.0006 8.14919C22.0528 8.16821 22.0963 8.15651 22.1207 8.12577C22.152 7.99405 22.199 7.87696 22.2616 7.77304C22.2494 7.74816 22.2355 7.72621 22.2198 7.70426L21.5396 6.82465C21.4805 6.75294 21.4683 6.66658 21.5135 6.62999L21.9015 6.3241C21.9293 6.30361 21.9693 6.30508 22.0076 6.32557C22.0372 6.33874 22.065 6.36069 22.0894 6.39143L22.9088 7.16127C22.9366 7.19493 22.9714 7.22274 23.0045 7.23884C23.0219 7.24616 23.0375 7.25201 23.0515 7.25494C23.1767 7.23592 23.3124 7.23299 23.4568 7.24909C23.4638 7.23299 23.4655 7.2125 23.462 7.18908L23.4951 6.57731C23.4846 6.50267 23.5577 6.45729 23.6308 6.48364L24.2432 6.69879C24.3284 6.7383 24.3841 6.81441 24.3928 6.8832L24.5894 7.58717C24.5981 7.64132 24.6277 7.69841 24.6729 7.74231C24.8242 7.84476 24.7964 7.83599 24.9356 7.96185C24.953 7.96039 25.3688 7.70572 25.3897 7.69255C25.4175 7.67206 25.4575 7.67352 25.4975 7.69255C25.5271 7.70718 25.5532 7.72768 25.5793 7.75842L26.3274 8.57216C26.3848 8.64388 26.397 8.73023 26.3517 8.76535L26.0629 9.17515C26.0316 9.20003 26.0247 9.24688 26.0368 9.30103C26.1204 9.46349 26.19 9.63033 26.2456 9.79571C26.2596 9.80742 26.2752 9.8162 26.2891 9.82498C26.2961 9.82791 26.303 9.83084 26.31 9.83231L26.945 10.1675C27.0285 10.207 27.0859 10.2816 27.0946 10.3504L27.1781 11.0076ZM24.224 11.3047C25.2209 11.7847 26.0229 11.3939 26.0229 10.4353C26.0229 9.47958 25.2226 8.31897 24.2379 7.84038C23.2393 7.35886 22.4373 7.74816 22.4373 8.70827C22.4373 9.66545 23.2359 10.8246 24.224 11.3047Z" fill="#131395"/>
</g>
</g>
<g opacity="0.3">
<path d="M53.3389 60.0243L51.0529 61.1411L50.5327 60.8893L52.3438 60.0024L51.6879 59.8882L52.0011 59.6497L52.8918 59.8063L53.3389 60.0243Z" fill="#2A70EA"/>
<path d="M51.0476 58.8726C51.6634 59.1726 51.3572 59.5561 50.7309 59.862C50.0246 60.2074 49.2539 60.3084 48.6641 60.0201C48.0674 59.7317 48.337 59.3453 48.9807 59.0263C49.6418 58.7014 50.4526 58.5828 51.0476 58.8726ZM49.0834 59.8298C49.2904 59.9308 49.6662 59.8591 50.1864 59.6044C50.6944 59.357 50.8527 59.1741 50.6335 59.0673C50.4369 58.9721 50.0542 59.0277 49.5218 59.2883C48.9964 59.5429 48.8729 59.7288 49.0834 59.8298Z" fill="#2A70EA"/>
<path d="M49.0816 57.9168C49.6974 58.2154 49.393 58.6003 48.7667 58.9062C48.0586 59.2516 47.2879 59.3497 46.6964 59.0628C46.1014 58.7745 46.3728 58.3881 47.0165 58.0705C47.6776 57.7471 48.4848 57.6285 49.0816 57.9168ZM47.1174 58.8755C47.3227 58.9765 47.7002 58.9048 48.2204 58.6501C48.7267 58.4013 48.885 58.2183 48.6675 58.113C48.4709 58.0178 48.0864 58.0735 47.5541 58.3354C47.0287 58.5886 46.9069 58.773 47.1174 58.8755Z" fill="#2A70EA"/>
<path d="M59.2401 62.8901L56.9523 64.0068L56.4321 63.755L58.2415 62.8681L57.5873 62.7539L57.9022 62.5154L58.793 62.672L59.2401 62.8901Z" fill="#2A70EA"/>
<path d="M60.8823 63.6481C61.4965 63.9482 61.192 64.3316 60.564 64.6375C59.8576 64.9829 59.0834 65.0824 58.4954 64.7956C57.9004 64.5073 58.1718 64.1194 58.812 63.8004C59.4766 63.4784 60.2856 63.3598 60.8823 63.6481ZM58.9164 64.6068C59.1234 64.7078 59.4992 64.6346 60.0194 64.3799C60.5274 64.1326 60.684 63.9496 60.4665 63.8428C60.2717 63.7477 59.8872 63.8033 59.3548 64.0653C58.8294 64.3199 58.7076 64.5043 58.9164 64.6068Z" fill="#2A70EA"/>
<path d="M54.9813 60.7825C55.5972 61.081 55.291 61.4645 54.663 61.7704C53.9566 62.1173 53.1824 62.2153 52.5944 61.9299C51.9994 61.6416 52.2673 61.2537 52.9128 60.9361C53.5756 60.6127 54.3863 60.4927 54.9813 60.7825ZM53.0154 61.7411C53.2242 61.8421 53.5982 61.7704 54.1184 61.5157C54.6264 61.2684 54.7847 61.084 54.5655 60.9786C54.3707 60.8849 53.9862 60.9391 53.4538 61.2011C52.9302 61.4543 52.8066 61.6387 53.0154 61.7411Z" fill="#2A70EA"/>
<path d="M56.9472 61.7383C57.5631 62.0383 57.2586 62.4203 56.6306 62.7262C55.9225 63.0716 55.1518 63.1726 54.5637 62.8843C53.9687 62.596 54.2367 62.2096 54.8804 61.8905C55.5432 61.5671 56.3539 61.4485 56.9472 61.7383ZM54.983 62.6969C55.19 62.7965 55.5658 62.7247 56.086 62.4701C56.594 62.2227 56.7506 62.0398 56.5331 61.933C56.3383 61.8378 55.9538 61.8934 55.4214 62.1554C54.8978 62.4101 54.7742 62.5945 54.983 62.6969Z" fill="#2A70EA"/>
<path d="M62.8485 64.6041C63.4644 64.9041 63.1581 65.2861 62.5318 65.592C61.8238 65.9374 61.0496 66.0369 60.4633 65.7501C59.87 65.4617 60.1397 65.0753 60.7817 64.7563C61.4428 64.4343 62.2535 64.3157 62.8485 64.6041ZM60.8843 65.5627C61.0913 65.6622 61.4671 65.5905 61.9873 65.3359C62.4953 65.0885 62.6519 64.9056 62.4344 64.7987C62.2378 64.7036 61.8533 64.7592 61.3227 65.0197C60.7956 65.2759 60.6738 65.4603 60.8843 65.5627Z" fill="#2A70EA"/>
<path d="M69.0733 67.6658L66.7873 68.784L66.2671 68.5308L68.0782 67.6453L67.4223 67.5312L67.7354 67.2926L68.6262 67.4492L69.0733 67.6658Z" fill="#2A70EA"/>
<path d="M64.8161 65.5596C65.432 65.8582 65.1258 66.2431 64.4995 66.549C63.7914 66.8944 63.0172 66.9924 62.4327 66.707C61.8359 66.4172 62.1056 66.0309 62.7493 65.7118C63.4104 65.3883 64.2211 65.2698 64.8161 65.5596ZM62.8519 66.5168C63.059 66.6177 63.4348 66.546 63.9549 66.2914C64.4595 66.0426 64.6178 65.8596 64.402 65.7542C64.2054 65.6606 63.8227 65.7147 63.2903 65.9752C62.7632 66.2299 62.6414 66.4158 62.8519 66.5168Z" fill="#2A70EA"/>
<path d="M67.1055 66.7099L64.8195 67.8281L64.2993 67.5763L66.1104 66.6894L65.4562 66.5752L65.7711 66.3367L66.6601 66.4947L67.1055 66.7099Z" fill="#2A70EA"/>
<path d="M70.7155 68.4254C71.3314 68.7254 71.0252 69.1074 70.3989 69.4147C69.6908 69.7601 68.9166 69.8597 68.3321 69.5728C67.7353 69.2845 68.005 68.8981 68.6487 68.5776C69.3116 68.2556 70.1205 68.137 70.7155 68.4254ZM68.7479 69.3811C68.9566 69.4835 69.3324 69.4118 69.8543 69.1571C70.3606 68.9098 70.5189 68.7269 70.3015 68.62C70.1049 68.5249 69.7186 68.5805 69.1898 68.8425C68.6643 69.0971 68.5408 69.2815 68.7479 69.3811Z" fill="#2A70EA"/>
<path d="M49.1129 62.0895L46.8268 63.2077L46.3066 62.9545L48.1177 62.069L47.4618 61.9534L47.7767 61.7148L48.6657 61.8714L49.1129 62.0895Z" fill="#2A70EA"/>
<path d="M51.0789 63.0437L48.7946 64.1619L48.2744 63.9102L50.0855 63.0247L49.4296 62.9076L49.7445 62.6705L50.6335 62.8271L51.0789 63.0437Z" fill="#2A70EA"/>
<path d="M53.0465 63.9995L50.7604 65.1177L50.2402 64.8645L52.0513 63.9791L51.3954 63.8649L51.7086 63.6249L52.6011 63.7829L53.0465 63.9995Z" fill="#2A70EA"/>
<path d="M54.6892 64.7592C55.305 65.0578 55.0006 65.4427 54.3725 65.7486C53.6644 66.094 52.8903 66.1921 52.3057 65.9067C51.709 65.6169 51.9786 65.232 52.6223 64.9115C53.2852 64.5895 54.0942 64.4695 54.6892 64.7592ZM52.725 65.7164C52.932 65.8174 53.3078 65.7457 53.828 65.491C54.336 65.2437 54.4926 65.0593 54.2751 64.9539C54.0785 64.8588 53.6958 64.9144 53.1634 65.1764C52.6397 65.4296 52.5145 65.614 52.725 65.7164Z" fill="#2A70EA"/>
<path d="M62.5577 68.5791C63.1753 68.8791 62.8674 69.2626 62.2411 69.5684C61.533 69.9153 60.7588 70.0134 60.1725 69.7265C59.5758 69.4382 59.8454 69.0518 60.4874 68.7327C61.152 68.4093 61.961 68.2908 62.5577 68.5791ZM60.5918 69.5377C60.8005 69.6387 61.1763 69.5655 61.6965 69.3123C62.2028 69.065 62.3594 68.882 62.1437 68.7767C61.9471 68.6815 61.5626 68.7357 61.0319 68.9977C60.5065 69.2509 60.383 69.4353 60.5918 69.5377Z" fill="#2A70EA"/>
<path d="M60.9154 67.8208L58.6276 68.939L58.1074 68.6873L59.9185 67.8003L59.2626 67.6862L59.5775 67.4462L60.4683 67.6042L60.9154 67.8208Z" fill="#2A70EA"/>
<path d="M58.6225 66.669C59.2401 66.9691 58.9339 67.3525 58.3059 67.6584C57.5978 68.0038 56.8271 68.1019 56.239 67.8165C55.644 67.5267 55.9137 67.1418 56.5557 66.8227C57.2185 66.4993 58.0275 66.3807 58.6225 66.669ZM56.6583 67.6262C56.8654 67.7272 57.2411 67.6555 57.7613 67.4008C58.2693 67.1535 58.4259 66.9705 58.2084 66.8637C58.0136 66.7686 57.6291 66.8242 57.0967 67.0862C56.5713 67.3408 56.4496 67.5252 56.6583 67.6262Z" fill="#2A70EA"/>
<path d="M56.6564 65.7135C57.2722 66.0135 56.966 66.397 56.338 66.7028C55.6317 67.0483 54.8575 67.1478 54.2712 66.8609C53.6762 66.5726 53.9458 66.1862 54.5895 65.8671C55.2524 65.5437 56.0596 65.4252 56.6564 65.7135ZM54.6904 66.6721C54.8992 66.7731 55.2733 66.6999 55.7952 66.4453C56.3015 66.1979 56.4598 66.0135 56.2406 65.9081C56.0457 65.8115 55.6612 65.8686 55.1306 66.1306C54.6052 66.3853 54.4817 66.5697 54.6904 66.6721Z" fill="#2A70EA"/>
<path d="M66.4912 70.4904C67.1088 70.7904 66.8026 71.1739 66.1746 71.4797C65.4665 71.8251 64.6923 71.9232 64.106 71.6393C63.5093 71.3509 63.7807 70.9646 64.4226 70.6455C65.0855 70.3206 65.8962 70.202 66.4912 70.4904ZM64.5235 71.4461C64.7341 71.5485 65.1098 71.4768 65.63 71.2222C66.138 70.9748 66.2946 70.7904 66.0771 70.685C65.8823 70.5884 65.4961 70.6455 64.9654 70.9075C64.44 71.1621 64.3165 71.3466 64.5235 71.4461Z" fill="#2A70EA"/>
<path d="M64.5236 69.5348C65.1413 69.8348 64.8333 70.2182 64.207 70.5241C63.5007 70.8695 62.7282 70.9676 62.1402 70.6822C61.5434 70.3924 61.8131 70.006 62.4568 69.687C63.1179 69.365 63.9287 69.245 64.5236 69.5348ZM62.5577 70.4919C62.7682 70.5944 63.1423 70.5212 63.6625 70.268C64.1705 70.0192 64.327 69.8362 64.1096 69.7309C63.913 69.6357 63.5303 69.6914 62.9979 69.9533C62.4725 70.2065 62.3507 70.391 62.5577 70.4919Z" fill="#2A70EA"/>
<path d="M58.3322 70.6455C58.948 70.9455 58.6418 71.3275 58.0155 71.6334C57.3075 71.9788 56.5332 72.0784 55.947 71.793C55.352 71.5032 55.6234 71.1182 56.2653 70.7992C56.9282 70.4757 57.7372 70.3557 58.3322 70.6455ZM56.3662 71.6042C56.575 71.7037 56.9508 71.6334 57.471 71.3773C57.9773 71.13 58.1356 70.947 57.9181 70.8402C57.7215 70.745 57.337 70.8007 56.8064 71.0612C56.2792 71.3173 56.1575 71.5017 56.3662 71.6042Z" fill="#2A70EA"/>
<path d="M62.2656 72.5554C62.8832 72.8554 62.5753 73.2389 61.949 73.5448C61.2426 73.8902 60.4667 73.9897 59.8804 73.7028C59.2837 73.4145 59.5533 73.0281 60.1971 72.7091C60.8599 72.3856 61.6706 72.2671 62.2656 72.5554ZM60.2997 73.5126C60.5084 73.615 60.8843 73.5418 61.4044 73.2886C61.9124 73.0413 62.069 72.8584 61.8516 72.7515C61.655 72.6564 61.2705 72.712 60.7416 72.974C60.2145 73.2272 60.0909 73.4116 60.2997 73.5126Z" fill="#2A70EA"/>
<path d="M60.2994 71.6014C60.9153 71.8999 60.6091 72.2834 59.981 72.5893C59.2747 72.9362 58.5005 73.0342 57.9142 72.7488C57.3192 72.459 57.5889 72.0741 58.2326 71.7536C58.8937 71.4316 59.7027 71.3131 60.2994 71.6014ZM58.3317 72.5571C58.5423 72.6595 58.918 72.5878 59.4382 72.3332C59.9445 72.0844 60.1028 71.9014 59.8854 71.796C59.6888 71.7009 59.3043 71.7565 58.7719 72.0185C58.2465 72.2732 58.1247 72.4576 58.3317 72.5571Z" fill="#2A70EA"/>
<path d="M56.3645 69.6898C56.9821 69.9898 56.6741 70.3733 56.0478 70.6792C55.3398 71.0246 54.5656 71.1241 53.9793 70.8372C53.3843 70.5475 53.6557 70.1625 54.2959 69.8435C54.9605 69.52 55.7695 69.4015 56.3645 69.6898ZM54.4003 70.647C54.6073 70.748 54.9831 70.6762 55.5033 70.4216C56.0113 70.1742 56.1696 69.9898 55.9504 69.8845C55.7556 69.7893 55.3711 69.8449 54.8387 70.1069C54.3151 70.3616 54.1915 70.546 54.4003 70.647Z" fill="#2A70EA"/>
<path d="M54.7235 68.9318L52.4357 70.0485L51.9155 69.7953L53.7266 68.9113L53.0725 68.7957L53.3856 68.5571L54.2764 68.7137L54.7235 68.9318Z" fill="#2A70EA"/>
<path d="M52.7562 67.976L50.4702 69.0942L49.9482 68.841L51.7611 67.9555L51.1052 67.8399L51.4201 67.6013L52.3091 67.7594L52.7562 67.976Z" fill="#2A70EA"/>
<path d="M50.7904 67.0203L48.5026 68.1385L47.9824 67.8853L49.7935 66.9998L49.1376 66.8856L49.4525 66.6471L50.3433 66.8037L50.7904 67.0203Z" fill="#2A70EA"/>
<path d="M44.2731 67.9351C44.8889 68.2351 44.5827 68.6171 43.9547 68.923C43.2484 69.2699 42.4759 69.3679 41.8879 69.0825C41.2929 68.7927 41.5625 68.4078 42.2062 68.0873C42.8673 67.7638 43.6763 67.6453 44.2731 67.9351ZM42.3071 68.8922C42.5142 68.9918 42.8917 68.9215 43.4119 68.6654C43.9181 68.4166 44.0765 68.2336 43.859 68.1283C43.6624 68.0331 43.2779 68.0888 42.7473 68.3507C42.2202 68.6069 42.0984 68.7913 42.3071 68.8922Z" fill="#2A70EA"/>
<path d="M42.3054 66.9793C42.9213 67.2793 42.615 67.6613 41.9887 67.9687C41.2807 68.3141 40.5082 68.4121 39.9219 68.1267C39.3252 67.837 39.5948 67.452 40.2386 67.133C40.9014 66.8081 41.7121 66.6895 42.3054 66.9793ZM40.3412 67.9379C40.5482 68.0375 40.924 67.9657 41.4442 67.7111C41.9522 67.4637 42.1105 67.2793 41.8913 67.174C41.6965 67.0788 41.312 67.1344 40.7796 67.395C40.2559 67.6511 40.1324 67.8355 40.3412 67.9379Z" fill="#2A70EA"/>
<path d="M40.3379 66.0237C40.9555 66.3237 40.6476 66.7071 40.0213 67.013C39.3132 67.3584 38.5407 67.458 37.9527 67.1711C37.356 66.8828 37.6291 66.4964 38.2693 66.1773C38.9357 65.8539 39.7446 65.7353 40.3379 66.0237ZM38.3737 66.9823C38.5807 67.0833 38.9583 67.0116 39.4785 66.7569C39.9847 66.5096 40.143 66.3252 39.9256 66.2198C39.729 66.1246 39.3445 66.1803 38.8139 66.4422C38.2885 66.6954 38.1649 66.8798 38.3737 66.9823Z" fill="#2A70EA"/>
<path d="M38.6971 65.2656L36.4111 66.3823L35.8892 66.1305L37.7002 65.2451L37.0461 65.1294L37.3575 64.8909L38.25 65.0475L38.6971 65.2656Z" fill="#2A70EA"/>
<path d="M48.2068 69.8464C48.8226 70.145 48.5164 70.5285 47.8901 70.8358C47.182 71.1798 46.4078 71.2793 45.8233 70.9939C45.2265 70.7041 45.4962 70.3177 46.1399 70.0001C46.801 69.6737 47.6118 69.5552 48.2068 69.8464ZM46.2426 70.8036C46.4496 70.9031 46.8254 70.8314 47.3456 70.5768C47.8536 70.3294 48.0119 70.1465 47.7927 70.0396C47.5978 69.9445 47.2134 70.0001 46.681 70.2606C46.1556 70.5167 46.0321 70.7012 46.2426 70.8036Z" fill="#2A70EA"/>
<path d="M46.5643 69.0868L44.2765 70.2036L43.7563 69.9503L45.5674 69.0649L44.9115 68.9507L45.2264 68.7122L46.1189 68.8702L46.5643 69.0868Z" fill="#2A70EA"/>
<path d="M50.1725 70.8006C50.7902 71.1006 50.484 71.4826 49.8559 71.79C49.1496 72.1354 48.3754 72.2334 47.7891 71.948C47.1924 71.6582 47.462 71.2733 48.1057 70.9543C48.7686 70.6293 49.5776 70.5108 50.1725 70.8006ZM48.2101 71.7578C48.4154 71.8587 48.7929 71.787 49.3131 71.5324C49.8194 71.2836 49.9777 71.1006 49.7602 70.9952C49.5636 70.9001 49.1809 70.9557 48.6485 71.2177C48.1231 71.4724 47.9996 71.6568 48.2101 71.7578Z" fill="#2A70EA"/>
<path d="M58.0395 74.6222C58.6571 74.9222 58.3509 75.3042 57.7229 75.6101C57.0165 75.9555 56.2406 76.055 55.656 75.7696C55.061 75.4799 55.3307 75.0935 55.9727 74.7744C56.6372 74.451 57.4445 74.3324 58.0395 74.6222ZM56.0736 75.5779C56.2823 75.6804 56.6581 75.6072 57.18 75.3525C57.6863 75.1052 57.8429 74.9222 57.6254 74.8154C57.4306 74.7203 57.0461 74.7759 56.5155 75.0379C55.9883 75.2925 55.8665 75.4769 56.0736 75.5779Z" fill="#2A70EA"/>
<path d="M52.1404 71.7564C52.7562 72.0564 52.4518 72.4384 51.8237 72.7443C51.1174 73.0897 50.3432 73.1892 49.7552 72.9023C49.1602 72.614 49.4316 72.2276 50.0718 71.9086C50.7364 71.5851 51.5454 71.4666 52.1404 71.7564ZM50.1762 72.7135C50.3832 72.8131 50.759 72.7413 51.2792 72.4867C51.7872 72.2393 51.9455 72.0564 51.7263 71.9496C51.5297 71.8544 51.1469 71.91 50.6146 72.172C50.0892 72.4267 49.9674 72.6111 50.1762 72.7135Z" fill="#2A70EA"/>
<path d="M54.4317 72.9067L52.1439 74.0248L51.6255 73.7716L53.4366 72.8862L52.7807 72.772L53.0938 72.5334L53.9863 72.6901L54.4317 72.9067Z" fill="#2A70EA"/>
<path d="M56.0741 73.6664C56.69 73.9664 56.3838 74.3484 55.7557 74.6557C55.0494 75.0011 54.2752 75.0992 53.6872 74.8138C53.0922 74.5255 53.3636 74.1391 54.0056 73.82C54.6684 73.4966 55.4791 73.378 56.0741 73.6664ZM54.1082 74.6221C54.3187 74.7245 54.6945 74.6528 55.2147 74.3981C55.721 74.1508 55.8793 73.9679 55.6601 73.861C55.4652 73.7659 55.0807 73.82 54.5501 74.0835C54.0247 74.3381 53.8994 74.5225 54.1082 74.6221Z" fill="#2A70EA"/>
<path d="M22.347 61.4031C22.9628 61.7016 22.6601 62.0866 22.0321 62.3924C21.3257 62.7379 20.5515 62.8359 19.9618 62.5491C19.365 62.2593 19.6347 61.8729 20.2819 61.5567C20.9447 61.2333 21.752 61.1133 22.347 61.4031ZM20.3828 62.3603C20.5898 62.4598 20.9656 62.3881 21.4858 62.1349C21.9938 61.8861 22.1521 61.7031 21.9329 61.5977C21.7363 61.5026 21.3535 61.5582 20.8212 61.8187C20.2958 62.0734 20.1722 62.2593 20.3828 62.3603Z" fill="#2A70EA"/>
<path d="M28.5719 64.465L26.2841 65.5832L25.7622 65.33L27.5768 64.4431L26.9191 64.3289L27.234 64.0903L28.1248 64.2469L28.5719 64.465Z" fill="#2A70EA"/>
<path d="M26.2806 63.3131C26.8964 63.6131 26.592 63.998 25.9657 64.3039C25.2576 64.6493 24.4834 64.7488 23.8936 64.4605C23.2986 64.1722 23.57 63.7858 24.2137 63.4682C24.8783 63.1448 25.6856 63.0248 26.2806 63.3131ZM24.3147 64.2717C24.5217 64.3727 24.8975 64.301 25.4194 64.0449C25.9257 63.7975 26.084 63.6146 25.8665 63.5077C25.6699 63.4126 25.2854 63.4682 24.7548 63.7302C24.2294 63.9849 24.1059 64.1693 24.3147 64.2717Z" fill="#2A70EA"/>
<path d="M24.638 62.5534L22.3503 63.6716L21.8301 63.4184L23.6429 62.5329L22.987 62.4173L23.3002 62.1802L24.1909 62.3368L24.638 62.5534Z" fill="#2A70EA"/>
<path d="M30.5397 65.4206L28.2519 66.5373L27.73 66.2841L29.5411 65.4001L28.8869 65.2845L29.2001 65.0459L30.0926 65.204L30.5397 65.4206Z" fill="#2A70EA"/>
<path d="M32.18 66.1788C32.7976 66.4773 32.4931 66.8622 31.8668 67.1681C31.1605 67.515 30.3846 67.6131 29.7948 67.3262C29.198 67.0364 29.4712 66.65 30.1149 66.3324C30.7777 66.0104 31.585 65.8904 32.18 66.1788ZM30.2158 67.1374C30.4228 67.2369 30.8003 67.1652 31.3205 66.9106C31.8268 66.6632 31.9851 66.4803 31.7659 66.3749C31.5711 66.2797 31.1866 66.3339 30.6542 66.5959C30.1288 66.8505 30.007 67.035 30.2158 67.1374Z" fill="#2A70EA"/>
<path d="M34.4713 67.3306L32.1852 68.4488L31.665 68.1956L33.4761 67.3101L32.822 67.196L33.1351 66.9559L34.0259 67.114L34.4713 67.3306Z" fill="#2A70EA"/>
<path d="M36.4388 68.2863L34.1528 69.4045L33.6309 69.1513L35.4419 68.2658L34.7878 68.1502L35.1027 67.9116L35.9917 68.0682L36.4388 68.2863Z" fill="#2A70EA"/>
<path d="M38.0811 69.0445C38.6969 69.3446 38.3907 69.728 37.7627 70.0339C37.0563 70.3793 36.2822 70.4774 35.6941 70.192C35.0991 69.9022 35.3705 69.5173 36.0107 69.1982C36.6771 68.8748 37.4861 68.7562 38.0811 69.0445ZM36.1169 70.0032C36.3239 70.1042 36.6997 70.031 37.2199 69.7763C37.7279 69.529 37.8862 69.346 37.667 69.2392C37.4704 69.144 37.0877 69.1997 36.5553 69.4616C36.0299 69.7163 35.9064 69.9007 36.1169 70.0032Z" fill="#2A70EA"/>
<path d="M43.9807 71.9101C44.5983 72.2101 44.2904 72.5936 43.664 72.8995C42.9577 73.2449 42.1835 73.3429 41.5972 73.0575C41.0005 72.7678 41.2719 72.3814 41.9139 72.0623C42.5767 71.7403 43.3857 71.6218 43.9807 71.9101ZM42.0165 72.8687C42.2235 72.9697 42.6011 72.898 43.1212 72.6434C43.6275 72.396 43.7858 72.2116 43.5684 72.1062C43.3718 72.0111 42.9873 72.0667 42.4549 72.3287C41.9295 72.5819 41.8077 72.7663 42.0165 72.8687Z" fill="#2A70EA"/>
<path d="M42.34 71.1519L40.0522 72.2686L39.5303 72.0154L41.3431 71.1314L40.6889 71.0158L41.0004 70.7772L41.8929 70.9353L42.34 71.1519Z" fill="#2A70EA"/>
<path d="M40.3724 70.1963L38.0864 71.3145L37.5645 71.0613L39.3773 70.1758L38.7214 70.0602L39.0345 69.8217L39.9253 69.9797L40.3724 70.1963Z" fill="#2A70EA"/>
<path d="M46.272 73.0621L43.986 74.1802L43.4658 73.9285L45.2769 73.0416L44.621 72.9274L44.9359 72.6888L45.8267 72.8454L46.272 73.0621Z" fill="#2A70EA"/>
<path d="M48.2396 74.0176L45.9536 75.1358L45.4316 74.8826L47.2427 73.9971L46.5886 73.8815L46.9035 73.6429L47.7942 73.801L48.2396 74.0176Z" fill="#2A70EA"/>
<path d="M51.8496 75.7315C52.4672 76.0316 52.1593 76.415 51.533 76.7209C50.8249 77.0663 50.0507 77.1658 49.4644 76.879C48.8677 76.5907 49.1391 76.2043 49.781 75.8852C50.4456 75.5618 51.2546 75.4432 51.8496 75.7315ZM49.8819 76.6887C50.0925 76.7912 50.4682 76.718 50.9884 76.4648C51.4964 76.2175 51.653 76.033 51.4355 75.9277C51.2407 75.8325 50.8562 75.8881 50.3238 76.1501C49.7984 76.4033 49.6767 76.5877 49.8819 76.6887Z" fill="#2A70EA"/>
<path d="M50.2056 74.9735L47.9196 76.0917L47.3994 75.8385L49.2105 74.9531L48.5546 74.8374L48.8695 74.5989L49.7602 74.7555L50.2056 74.9735Z" fill="#2A70EA"/>
<path d="M53.8155 76.6873C54.4332 76.9873 54.1252 77.3707 53.4972 77.6766C52.7908 78.022 52.0166 78.1201 51.4303 77.8347C50.8353 77.5449 51.105 77.16 51.7487 76.8409C52.4116 76.5175 53.2205 76.3975 53.8155 76.6873ZM51.8496 77.6444C52.0584 77.7454 52.4342 77.6737 52.9561 77.4205C53.4624 77.1717 53.6207 76.9887 53.4032 76.8834C53.2066 76.7882 52.8221 76.8439 52.2915 77.1058C51.7644 77.3576 51.6408 77.542 51.8496 77.6444Z" fill="#2A70EA"/>
</g>
<g opacity="0.1">
<path d="M82.2885 54.0879L64.9675 62.5562L24.9741 43.1316L42.7144 34.3604L82.2885 54.0879Z" fill="black"/>
</g>
<path d="M66.271 52.7211L66.2657 54.3339L56.9268 58.8988L56.9355 57.286L66.271 52.7211Z" fill="#95C4DE"/>
<path d="M56.9353 57.2861L56.9266 58.899L34.8057 48.1563L34.8126 46.5405L56.9353 57.2861Z" fill="#A9D6EA"/>
<path d="M66.2712 52.7212L56.9357 57.2861L34.813 46.5405L44.1468 41.9771L66.2712 52.7212Z" fill="#DEF6FF"/>
<path opacity="0.5" d="M66.2712 52.7212L34.813 46.5405L44.1468 41.9771L66.2712 52.7212Z" fill="#DEF6FF"/>
<path d="M57.6479 54.2813L59.3077 53.469L59.3564 38.9503L57.6984 39.7597L57.6479 54.2813Z" fill="#95C4DE"/>
<path d="M57.6986 39.7597L59.3566 38.9503L44.3269 31.6486L42.6689 32.4608L57.6986 39.7597Z" fill="#C0C5D1"/>
<path d="M42.6689 32.4608L42.6167 46.9824L57.6482 54.2813L57.6986 39.7597L42.6689 32.4608Z" fill="#A9D6EA"/>
<path d="M79.6477 27.4598L81.2483 27.0837L36.5993 5.39783L35.0005 5.7725L79.6477 27.4598Z" fill="#A9D6EA"/>
<path d="M35.0004 5.77234L28.1318 34.2521L72.7808 55.9379L79.6476 27.4596L35.0004 5.77234Z" fill="#DEF6FF"/>
<path d="M36.1975 8.04248L30.0962 33.6946L71.4396 53.8173L77.7741 27.8315L36.1975 8.04248Z" fill="#1FA4E5"/>
<g opacity="0.1">
<path d="M22.4895 57.6987C16.3343 60.6888 16.3047 65.5361 22.4182 68.5248C28.5352 71.5149 38.4831 71.5163 44.6366 68.5262C50.7918 65.5361 50.8283 60.6873 44.7114 57.6972C38.5979 54.7086 28.6483 54.7086 22.4895 57.6987Z" fill="black"/>
</g>
<g opacity="0.1">
<path d="M22.4895 57.6987C16.3343 60.6888 16.3047 65.5361 22.4182 68.5248C28.5352 71.5149 38.4831 71.5163 44.6366 68.5262C50.7918 65.5361 50.8283 60.6873 44.7114 57.6972C38.5979 54.7086 28.6483 54.7086 22.4895 57.6987Z" fill="black"/>
</g>
<path d="M22.5157 56.1708C16.8215 58.9369 16.7919 63.4228 22.4496 66.1875C28.109 68.9536 37.314 68.9551 43.0082 66.1889C48.7059 63.4228 48.7355 58.9355 43.076 56.1693C37.4219 53.4031 28.2134 53.4031 22.5157 56.1708Z" fill="#5A39EA"/>
<path d="M22.5157 53.9709C16.8215 56.7385 16.7919 61.223 22.4496 63.9877C28.109 66.7538 37.314 66.7553 43.0082 63.9891C48.7059 61.223 48.7355 56.7342 43.076 53.9695C37.4219 51.2048 28.2134 51.2048 22.5157 53.9709Z" fill="white"/>
<path d="M72.7803 55.9335L74.386 55.5574L81.2476 27.0776L79.6471 27.4538L72.7803 55.9335Z" fill="#95C4DE"/>
<g opacity="0.6">
<g opacity="0.5">
<path d="M44.2538 28.957L44.2486 30.0591L41.2354 28.594L41.2406 27.4919L44.2538 28.957Z" fill="#5A39EA"/>
</g>
<path d="M47.2549 34.0357L47.2531 35.1421L41.2231 32.2135L41.2266 31.1071L47.2549 34.0357Z" fill="#5A39EA"/>
<path d="M49.3668 36.875L49.3633 37.9771L41.2178 34.021L41.2195 32.9189L49.3668 36.875Z" fill="#5A39EA"/>
<path d="M50.6593 35.688L50.6558 36.7945L48.0845 35.546L48.0862 34.4381L50.6593 35.688Z" fill="#5A39EA"/>
<path d="M47.2754 28.6073L47.2702 29.7153L41.2402 26.7866L41.2454 25.6787L47.2754 28.6073Z" fill="#5A39EA"/>
<path d="M51.0472 34.065L51.0437 35.167L41.228 30.4002L41.2315 29.2996L51.0472 34.065Z" fill="#5A39EA"/>
<path d="M50.6784 30.261L50.6732 31.3675L48.1001 30.119L48.1053 29.0111L50.6784 30.261Z" fill="#5A39EA"/>
<path d="M54.0067 33.6917L54.0015 34.7938L45.2036 30.5216L45.2088 29.4196L54.0067 33.6917Z" fill="#5A39EA"/>
<path d="M50.684 28.4536L50.6805 29.5542L41.2476 24.9732L41.2528 23.8726L50.684 28.4536Z" fill="#5A39EA"/>
<path d="M54.7635 32.2457L54.76 33.3522L51.8477 31.9369L51.8511 30.8304L54.7635 32.2457Z" fill="#5A39EA"/>
<path d="M53.0135 27.776L53.01 28.8766L44.2695 24.6308L44.2713 23.5287L53.0135 27.776Z" fill="#5A39EA"/>
<path d="M56.1746 31.1217L56.1694 32.2223L51.853 30.125L51.8565 29.0229L56.1746 31.1217Z" fill="#5A39EA"/>
<path d="M57.6899 28.2325L57.6864 29.3375L51.8652 26.5114L51.8687 25.4034L57.6899 28.2325Z" fill="#5A39EA"/>
<path d="M56.1988 23.8858L56.1953 24.9878L51.8755 22.8905L51.8807 21.7899L56.1988 23.8858Z" fill="#5A39EA"/>
<path d="M58.2204 26.6782L58.2152 27.7847L51.8721 24.7039L51.8738 23.5959L58.2204 26.6782Z" fill="#5A39EA"/>
<path d="M57.7087 22.8042L57.7053 23.9107L51.8823 21.083L51.8876 19.9766L57.7087 22.8042Z" fill="#5A39EA"/>
<g opacity="0.5">
<path d="M43.5474 23.1774L43.5439 24.2794L41.2544 23.1657L41.2579 22.0651L43.5474 23.1774Z" fill="#5A39EA"/>
<path d="M47.2912 23.1818L47.2895 24.2883L41.2612 21.3611L41.263 20.2532L47.2912 23.1818Z" fill="#5A39EA"/>
<path d="M49.4156 22.4032L49.4121 23.5097L41.2666 19.5522L41.2701 18.4457L49.4156 22.4032Z" fill="#5A39EA"/>
</g>
<g opacity="0.5">
<path d="M47.3049 19.5668L47.2997 20.6689L41.2715 17.7388L41.2732 16.6382L47.3049 19.5668Z" fill="#5A39EA"/>
</g>
<g opacity="0.5">
<path d="M50.7064 21.219L50.7046 22.3211L48.1333 21.0712L48.1368 19.9706L50.7064 21.219Z" fill="#5A39EA"/>
</g>
<path d="M44.3022 14.4821L44.3004 15.5886L41.2837 14.125L41.2872 13.0186L44.3022 14.4821Z" fill="#5A39EA"/>
<path d="M47.3225 14.1397L47.319 15.2418L41.2891 12.3131L41.2943 11.2096L47.3225 14.1397Z" fill="#5A39EA"/>
<path d="M51.0943 19.5915L51.0925 20.6994L41.2769 15.9325L41.2821 14.826L51.0943 19.5915Z" fill="#5A39EA"/>
<path d="M43.5962 8.70399L43.5927 9.81046L41.3032 8.69813L41.3067 7.59167L43.5962 8.70399Z" fill="#5A39EA"/>
<path d="M50.7257 15.7921L50.7222 16.8942L48.1509 15.6443L48.1544 14.5437L50.7257 15.7921Z" fill="#5A39EA"/>
<path d="M54.0536 19.2198L54.0501 20.3263L45.2539 16.0526L45.2574 14.9462L54.0536 19.2198Z" fill="#5A39EA"/>
<path d="M50.7323 13.9787L50.7271 15.0866L41.2959 10.5056L41.2994 9.39917L50.7323 13.9787Z" fill="#5A39EA"/>
<path d="M47.3433 8.7128L47.3381 9.81341L41.3081 6.88479L41.3133 5.78418L47.3433 8.7128Z" fill="#5A39EA"/>
<path d="M54.8138 17.7767L54.8103 18.8788L51.8945 17.4635L51.8998 16.3629L54.8138 17.7767Z" fill="#5A39EA"/>
<path d="M53.0621 13.3011L53.0587 14.4076L44.3164 10.1618L44.3216 9.0553L53.0621 13.3011Z" fill="#5A39EA"/>
<path d="M56.2212 16.6455L56.2177 17.7534L51.9014 15.6576L51.9048 14.5482L56.2212 16.6455Z" fill="#5A39EA"/>
<path d="M57.7382 13.7622L57.7348 14.8643L51.9136 12.0366L51.9188 10.9346L57.7382 13.7622Z" fill="#5A39EA"/>
<g opacity="0.5">
<path d="M50.7445 10.3651L50.7411 11.4672L48.168 10.2173L48.1714 9.1167L50.7445 10.3651Z" fill="#5A39EA"/>
</g>
<g opacity="0.5">
<path d="M66.5068 21.6406L66.5033 22.7485L61.7764 20.4536L61.7816 19.3457L66.5068 21.6406Z" fill="#5A39EA"/>
</g>
<g opacity="0.5">
<path d="M66.4965 25.2615L66.493 26.3694L63.0518 24.6965L63.0535 23.5901L66.4965 25.2615Z" fill="#5A39EA"/>
</g>
<g opacity="0.5">
<path d="M66.5 23.4541L66.4966 24.5561L57.7178 20.2913L57.723 19.1892L66.5 23.4541Z" fill="#5A39EA"/>
</g>
<g opacity="0.5">
<path d="M66.5136 19.8345L66.5101 20.9425L63.4951 19.4774L63.4986 18.371L66.5136 19.8345Z" fill="#5A39EA"/>
</g>
<g opacity="0.5">
<path d="M66.5188 18.027L66.5153 19.1291L60.4854 16.2005L60.4888 15.0984L66.5188 18.027Z" fill="#5A39EA"/>
</g>
<g opacity="0.5">
<path d="M56.1484 38.3546L56.1449 39.4611L51.8286 37.3638L51.8321 36.2573L56.1484 38.3546Z" fill="#5A39EA"/>
<path d="M58.1681 41.1516L58.1664 42.2537L51.8232 39.1729L51.8267 38.0708L58.1681 41.1516Z" fill="#5A39EA"/>
<path d="M57.6582 37.2776L57.6547 38.3797L51.8335 35.5535L51.8387 34.4514L57.6582 37.2776Z" fill="#5A39EA"/>
</g>
<g opacity="0.5">
<path d="M66.4529 37.9229L66.4477 39.0294L57.6689 34.766L57.6724 33.6581L66.4529 37.9229Z" fill="#5A39EA"/>
</g>
<g opacity="0.5">
<path d="M66.465 34.3078L66.4615 35.4099L63.4482 33.9463L63.45 32.8428L66.465 34.3078Z" fill="#5A39EA"/>
</g>
<g opacity="0.5">
<path d="M66.4705 32.4959L66.4687 33.6038L60.437 30.6752L60.4405 29.5673L66.4705 32.4959Z" fill="#5A39EA"/>
<path d="M66.4773 30.6886L66.4738 31.7966L60.4438 28.8679L60.4491 27.76L66.4773 30.6886Z" fill="#5A39EA"/>
<path d="M66.4825 28.8808L66.4791 29.9829L64.1147 28.8355L64.1182 27.7334L66.4825 28.8808Z" fill="#5A39EA"/>
</g>
<path d="M66.4909 27.069L66.4857 28.1755L58.7769 24.4317L58.7803 23.3252L66.4909 27.069Z" fill="#5A39EA"/>
<g opacity="0.5">
<path d="M50.6942 24.8341L50.6925 25.9406L48.1211 24.6907L48.1228 23.5842L50.6942 24.8341Z" fill="#5A39EA"/>
</g>
<g opacity="0.5">
<path d="M66.4582 36.1154L66.4547 37.2175L61.7261 34.9212L61.7313 33.8191L66.4582 36.1154Z" fill="#5A39EA"/>
</g>
<path d="M66.4477 39.7349L66.4424 40.837L63.0029 39.1655L63.0064 38.0635L66.4477 39.7349Z" fill="#5A39EA"/>
<g opacity="0.5">
<path d="M66.4285 45.1618L66.425 46.2638L60.395 43.3352L60.3985 42.2332L66.4285 45.1618Z" fill="#5A39EA"/>
<path d="M66.4337 43.35L66.4302 44.4579L64.0659 43.309L64.0711 42.2025L66.4337 43.35Z" fill="#5A39EA"/>
<path d="M66.4408 41.5438L66.4356 42.6444L58.7285 38.9005L58.732 37.7985L66.4408 41.5438Z" fill="#5A39EA"/>
</g>
</g>
<g opacity="0.1">
<path d="M7.33447 45.7457L11.5151 47.7903L15.7236 45.7457L11.5429 43.7025L7.33447 45.7457Z" fill="black"/>
</g>
<g opacity="0.1429">
<path d="M7.89111 43.6205L11.5168 45.3929L15.1667 43.6205L11.5411 41.8481L7.89111 43.6205Z" fill="#131395"/>
</g>
<g opacity="0.2857">
<path d="M8.44775 41.6286L11.5184 43.1288L14.61 41.6286L11.5393 40.1284L8.44775 41.6286Z" fill="#131395"/>
</g>
<g opacity="0.4286">
<path d="M9.00488 39.6368L11.5206 40.8662L14.0536 39.6368L11.5379 38.4073L9.00488 39.6368Z" fill="#131395"/>
</g>
<g opacity="0.5714">
<path d="M9.56152 37.6463L11.5222 38.6034L13.4969 37.6463L11.5362 36.6876L9.56152 37.6463Z" fill="#131395"/>
</g>
<g opacity="0.7143">
<path d="M10.1196 35.6542L11.5253 36.3406L12.9397 35.6542L11.534 34.9678L10.1196 35.6542Z" fill="#131395"/>
</g>
<g opacity="0.8571">
<path d="M10.6768 33.6625L11.5275 34.0781L12.3835 33.6625L11.5327 33.2468L10.6768 33.6625Z" fill="#131395"/>
</g>
<path d="M11.2334 31.6719L11.5292 31.8153L11.8266 31.6719L11.5309 31.527L11.2334 31.6719Z" fill="#131395"/>
<g opacity="0.1">
<path d="M15.8486 41.1046L20.659 43.4552L25.499 41.1046L20.6886 38.7542L15.8486 41.1046Z" fill="black"/>
</g>
<g opacity="0.1429">
<path d="M16.4888 38.6591L20.6607 40.6979L24.8587 38.6591L20.6868 36.6189L16.4888 38.6591Z" fill="#FDCDE7"/>
</g>
<g opacity="0.2857">
<path d="M17.1309 36.367L20.6626 38.0955L24.2169 36.367L20.6852 34.64L17.1309 36.367Z" fill="#FDCDE7"/>
</g>
<g opacity="0.4286">
<path d="M17.771 34.0765L20.6642 35.4918L23.5766 34.0765L20.6833 32.6613L17.771 34.0765Z" fill="#FDCDE7"/>
</g>
<g opacity="0.5714">
<path d="M18.4111 31.786L20.6659 32.8881L22.9362 31.786L20.6798 30.6825L18.4111 31.786Z" fill="#FDCDE7"/>
</g>
<g opacity="0.7143">
<path d="M19.0513 29.4955L20.6675 30.2859L22.2959 29.4955L20.678 28.7037L19.0513 29.4955Z" fill="#FDCDE7"/>
</g>
<g opacity="0.8571">
<path d="M19.6919 27.2036L20.6696 27.6822L21.6543 27.2036L20.6766 26.725L19.6919 27.2036Z" fill="#FDCDE7"/>
</g>
<path d="M20.332 24.9131L20.6713 25.0785L21.014 24.9131L20.6747 24.7462L20.332 24.9131Z" fill="#FDCDE7"/>
<g opacity="0.1">
<path d="M0.839844 49.1835L4.50203 50.9749L8.18856 49.1835L4.52464 47.395L0.839844 49.1835Z" fill="black"/>
</g>
<g opacity="0.1429">
<path d="M1.63672 47.7815L4.50382 49.1851L7.39181 47.7815L4.52471 46.3794L1.63672 47.7815Z" fill="#1FA4E5"/>
</g>
<g opacity="0.2857">
<path d="M2.07666 46.2067L4.50535 47.3952L6.95142 46.2067L4.52273 45.0198L2.07666 46.2067Z" fill="#1FA4E5"/>
</g>
<g opacity="0.4286">
<path d="M2.51709 44.6317L4.50736 45.605L6.51157 44.6317L4.5213 43.6584L2.51709 44.6317Z" fill="#1FA4E5"/>
</g>
<g opacity="0.5714">
<path d="M2.95703 43.0555L4.50889 43.8151L6.06945 43.0555L4.52107 42.2974L2.95703 43.0555Z" fill="#1FA4E5"/>
</g>
<g opacity="0.7143">
<path d="M3.39746 41.4807L4.50917 42.0237L5.62957 41.4807L4.51961 40.9377L3.39746 41.4807Z" fill="#1FA4E5"/>
</g>
<g opacity="0.8571">
<path d="M3.83936 39.9061L4.51088 40.2339L5.1894 39.9061L4.51786 39.5768L3.83936 39.9061Z" fill="#1FA4E5"/>
</g>
<path d="M4.2793 38.3296L4.51243 38.4438L4.74728 38.3296L4.51766 38.2155L4.2793 38.3296Z" fill="#1FA4E5"/>
<path opacity="0.6" d="M40.7654 55.0378C45.4105 57.0648 45.3931 60.314 40.8141 62.3234C36.2333 64.3315 28.8011 64.3505 24.1543 62.3234C19.5474 60.3154 19.5196 57.0458 24.0986 55.0378C28.6759 53.0297 36.1551 53.0297 40.7654 55.0378Z" fill="#FFEBC4"/>
<g opacity="0.8571">
<path opacity="0.6571" d="M41.6563 49.5422C46.8547 51.8093 46.8355 55.4463 41.712 57.6929C36.5884 59.9395 28.2707 59.96 23.0706 57.6929C17.9139 55.4463 17.8843 51.7874 23.0079 49.5422C28.1315 47.2942 36.4979 47.2942 41.6563 49.5422Z" fill="#FAE9C7"/>
</g>
<g opacity="0.7143">
<path opacity="0.7143" d="M42.5468 44.045C48.2984 46.5536 48.2758 50.577 42.6094 53.0636C36.9413 55.5487 27.738 55.5722 21.9881 53.0636C16.2835 50.5784 16.2504 46.5316 21.9186 44.045C27.5849 41.5584 36.8421 41.5584 42.5468 44.045Z" fill="#F5E7CB"/>
</g>
<g opacity="0.5714">
<path opacity="0.7714" d="M43.4378 38.5475C49.7409 41.2976 49.7165 45.7074 43.5056 48.4311C37.293 51.1548 27.2059 51.1812 20.9028 48.4311C14.6501 45.7074 14.6136 41.2713 20.8263 38.5475C27.0389 35.8238 37.1851 35.8238 43.4378 38.5475Z" fill="#F0E5CE"/>
</g>
<g opacity="0.4286">
<path opacity="0.8286" d="M44.3286 33.0506C51.1849 36.0407 51.1589 40.8383 44.4034 43.8006C37.6479 46.7628 26.6753 46.7906 19.8207 43.8006C13.02 40.8383 12.9818 36.0129 19.7372 33.0506C26.4927 30.0883 37.5279 30.0883 44.3286 33.0506Z" fill="#EBE2D2"/>
</g>
<g opacity="0.2857">
<path opacity="0.8857" d="M45.2193 27.5532C52.6289 30.7848 52.5994 35.9688 45.3011 39.1696C38.0011 42.3719 26.1447 42.4012 18.7369 39.1696C11.3881 35.9673 11.3464 30.7555 18.6464 27.5532C25.9464 24.3524 37.8706 24.3524 45.2193 27.5532Z" fill="#E6E0D5"/>
</g>
<g opacity="0.1429">
<path opacity="0.9429" d="M46.1101 22.0562C54.0729 25.5293 54.0416 31.0997 46.1971 34.5391C38.3526 37.9785 25.6123 38.0107 17.653 34.5391C9.75625 31.0982 9.71102 25.4971 17.5556 22.0562C25.4018 18.6168 38.2151 18.6168 46.1101 22.0562Z" fill="#E1DED9"/>
</g>
<path opacity="0.6" d="M40.7654 55.0378C45.4105 57.0648 45.3931 60.314 40.8141 62.3234C36.2333 64.3315 28.8011 64.3505 24.1543 62.3234C19.5474 60.3154 19.5196 57.0458 24.0986 55.0378C28.6759 53.0297 36.1551 53.0297 40.7654 55.0378Z" fill="#1FA4E5"/>
<path d="M31.978 60.2674C31.978 60.2674 31.2839 61.2041 32.2459 61.428C33.2115 61.6505 32.9227 61.1441 35.0209 61.5905C37.1207 62.0369 36.872 61.0431 36.8267 60.8382C36.778 60.6362 35.8646 60.3508 35.4071 60.2499C34.9478 60.1489 33.1158 59.7917 33.1158 59.7917L31.9954 59.9659L31.978 60.2674Z" fill="#111114"/>
<path d="M30.7027 57.6767C30.7027 57.6767 31.5065 57.7762 31.3116 58.167C31.1203 58.5578 30.193 59.149 30.0729 59.3964C29.9512 59.6408 29.2118 60.4019 28.9508 60.4399C28.5176 60.5043 28.074 60.4824 28.1453 59.4769C28.2218 58.4743 29.6328 57.6313 30.7027 57.6767Z" fill="#111114"/>
<path d="M27.251 40.5265C27.251 40.5265 25.687 42.4745 26.703 45.7617C26.703 45.7617 28.4514 50.7232 28.1383 51.698C27.8251 52.6727 26.7604 55.0159 27.4615 57.0225C27.4615 57.0225 28.1522 58.8724 28.1661 59.3891C28.1852 60.2116 29.1473 60.3887 29.3178 59.8003C29.6605 58.6017 29.4935 56.2497 29.718 55.3203C30.4574 52.279 30.8401 50.694 30.607 48.6245C30.3738 46.555 30.6574 41.8686 30.6574 41.8686C30.6574 41.8686 27.8738 42.1086 27.251 40.5265Z" fill="#EFB185"/>
<path d="M28.9958 41.7092C28.9958 41.7092 27.6562 43.7714 29.0306 46.9635C29.0306 46.9635 31.3202 51.7684 31.1149 52.7607C30.9131 53.7559 30.111 56.1738 31.0313 58.1145C31.0313 58.1145 31.9238 59.9015 31.9917 60.4152C32.103 61.2319 33.0843 61.3329 33.1869 60.7343C33.3974 59.5137 32.9694 57.1866 33.0912 56.2426C33.4914 53.1573 33.7001 51.5489 33.2356 49.5057C32.7746 47.464 32.5415 42.7732 32.5415 42.7732C32.5415 42.7732 29.7926 43.2372 28.9958 41.7092Z" fill="#EFB185"/>
<path d="M36.71 32.8325C36.71 32.8325 37.3189 31.8695 37.5381 31.7217C37.7555 31.5739 38.6585 30.9284 39.5962 31.0967C40.1059 31.186 39.6362 31.5168 38.9751 31.8417C38.6741 31.9881 38.4149 32.0422 38.2601 32.5193C38.1505 32.8648 37.806 33.3375 37.6042 33.5409C37.4024 33.7444 36.71 32.8325 36.71 32.8325Z" fill="#EFB185"/>
<path d="M37.6513 33.5073C37.8531 33.3038 38.1332 32.8238 38.4933 32.632C38.9213 32.3993 38.6743 31.9895 38.9735 31.8417C39.4885 31.5885 39.8869 31.3178 39.7982 31.1787C39.4241 31.3953 38.8987 31.1114 38.1802 31.9002C37.9175 32.1871 37.4739 32.9789 37.3364 33.3843C37.5278 33.5234 37.5713 33.5863 37.6513 33.5073Z" fill="#E6A376"/>
<path d="M37.3032 33.3434C37.3032 33.3434 38.5628 32.7199 38.9107 32.4828C39.257 32.2471 39.3857 31.9618 39.2761 31.953C39.1665 31.9442 38.0913 32.594 37.9313 32.2208C37.846 32.0218 37.4633 33.2204 37.3032 33.3434Z" fill="#EFB185"/>
<path d="M27.0805 34.8361C27.0805 34.8361 26.5829 36.1329 28.6898 36.3319C30.7949 36.5295 34.765 36.5032 35.5653 35.8826C36.3673 35.2591 37.7921 33.3404 37.7921 33.3404C37.7921 33.3404 36.7466 33.2891 36.7031 32.5398L33.9838 34.6005C33.9838 34.6005 27.4024 33.9229 27.0805 34.8361Z" fill="#1FA4E5"/>
<path d="M27.0806 34.8361C27.4025 33.9229 33.9857 34.599 33.9857 34.599L36.7049 32.5383C36.7206 32.8164 36.8772 32.9994 37.0633 33.1179C36.5936 33.7209 35.7272 34.7922 35.1652 35.2269C34.3632 35.8504 30.3914 35.8738 28.288 35.6762C27.6739 35.6177 27.2894 35.4669 27.0389 35.2825C27.0041 35.0337 27.0806 34.8361 27.0806 34.8361Z" fill="#77D2FF"/>
<path d="M32.8671 34.921C32.8671 34.921 28.4934 31.306 27.0094 32.3583C27.0094 32.3583 25.6802 33.213 26.2282 36.1695C26.7762 39.1274 27.6357 39.6543 26.7762 41.4281C26.7762 41.4281 28.4934 44.3216 32.8671 43.0058C32.8671 43.0058 32.7906 40.3114 33.4934 39.5884C34.1945 38.8654 35.2906 37.2218 34.3528 36.3012C33.4151 35.3821 32.8671 34.921 32.8671 34.921Z" fill="#5A39EA"/>
<path d="M32.1918 33.0316V34.4293C32.1918 34.4293 30.8452 35.0425 29.7422 34.2522V32.8516C29.7422 32.8516 31.0453 33.2116 32.1918 33.0316Z" fill="#EFB185"/>
<path d="M32.6078 28.5297C32.6078 28.5297 33.5177 29.5425 33.4081 30.5377C33.2932 31.612 33.4811 31.8286 33.4011 32.3057C33.3698 32.5106 33.3489 32.818 33.1106 33.0112C32.7139 33.3317 31.9049 33.4473 30.8037 33.1092C29.471 32.7009 28.0705 31.1612 28.6412 29.7767C29.2118 28.3921 30.6053 27.4013 32.6078 28.5297Z" fill="#EFB185"/>
<path d="M28.7021 31.274C29.2345 30.0285 30.5567 28.5356 30.548 28.4551C30.5393 28.4083 30.9777 28.1741 31.4788 27.9282C31.9485 27.9516 32.4478 28.0921 32.9663 28.3834C32.9663 28.3834 33.1142 28.6937 33.2429 29.1298C32.9228 29.4299 32.2773 29.7694 32.1799 30.0226C31.9537 30.6183 32.0825 31.5213 32.2912 31.9209C32.5035 32.319 31.6493 32.9044 31.8285 33.2586C31.8372 33.2761 31.8372 33.2893 31.8354 33.3054C31.5292 33.2864 31.1848 33.2278 30.8038 33.1108C29.9548 32.8473 29.0762 32.1214 28.7021 31.274Z" fill="#E6A376"/>
<path d="M31.9831 27.9266C31.9831 27.9266 34.0743 28.3759 33.5437 29.4721C33.0131 30.5669 31.2542 30.3532 31.4091 31.0557C31.5656 31.7568 32.4042 32.9598 31.8283 33.2569C31.2542 33.554 29.4814 34.8244 29.7424 36.5324C30.0016 38.2419 31.0454 39.9308 29.7424 40.0187C28.441 40.1065 26.9309 39.9938 26.1498 38.8551C25.3704 37.7165 25.2643 37.7604 25.6801 34.8683C26.0959 31.9763 26.8787 30.4864 27.6599 29.6097C28.4393 28.733 30.0016 27.5138 31.9831 27.9266Z" fill="#131C24"/>
<path d="M26.7744 41.4281C26.7744 41.4281 25.1182 42.7204 25.7845 47.3117C26.3952 51.537 26.0959 52.061 26.0959 52.061C26.0959 52.061 30.16 53.9461 33.9091 52.4986C33.9091 52.4986 34.3249 51.5341 33.9091 47.7215C33.4933 43.9103 32.8653 43.0058 32.8653 43.0058C32.8653 43.0058 29.4815 44.2484 26.7744 41.4281Z" fill="#632BEE"/>
<path d="M40.5742 39.6849C40.5742 39.6849 41.6163 39.5562 41.9277 39.1464C42.2443 38.7336 42.6862 38.2945 42.7576 37.933C42.8237 37.5745 42.7245 37.4588 42.4044 37.5613C42.0808 37.6608 41.2683 38.2184 40.8664 38.6121C40.4663 39.0029 40.3671 38.9619 40.2088 39.0307C40.0575 39.098 40.0018 39.5532 40.5742 39.6849Z" fill="#EFB185"/>
<path d="M40.2088 39.0308C40.3671 38.962 40.4663 39.0015 40.8664 38.6122C41.2666 38.22 42.0808 37.6624 42.4044 37.5614C42.4496 37.5438 42.4914 37.5365 42.5279 37.5292C42.2965 37.7853 41.9068 38.2215 41.5537 38.5947C41.1152 39.0615 40.3689 39.2928 40.1323 39.3586C40.0783 39.2108 40.1288 39.0659 40.2088 39.0308Z" fill="#DB9669"/>
<path d="M31.8928 35.862C32.2738 35.581 33.1037 35.3863 33.8483 36.3274C34.5912 37.2685 36.6336 39.9161 36.6336 39.9161C36.6336 39.9161 40.0714 38.9575 40.4872 38.8989C40.4872 38.8989 40.0227 39.36 40.5881 39.7785C40.5881 39.7785 37.4061 41.8612 36.2613 41.5451C35.1166 41.2275 30.3323 37.0197 31.8928 35.862Z" fill="#1FA4E5"/>
</svg>
