<svg width="104" height="82" viewBox="0 0 104 82" fill="none" xmlns="http://www.w3.org/2000/svg">
<g opacity="0.1">
<path d="M82.2041 61.133C85.5246 63.0495 85.5424 66.1582 82.2415 68.0765C78.946 69.9929 73.5809 69.9929 70.2587 68.0747C66.94 66.1582 66.9222 63.0477 70.2213 61.1348C73.5186 59.2166 78.8855 59.2166 82.2041 61.133Z" fill="black"/>
</g>
<g opacity="0.1">
<path d="M90.8254 45.4757C91.8273 46.0487 91.8326 46.9847 90.8397 47.5648L88.8645 48.7197L52.2452 70.1514L49.1898 71.9397C48.1987 72.5198 46.5865 72.5234 45.5865 71.9504L24.185 59.6793C23.1832 59.1045 23.1761 58.1721 24.1672 57.592L65.8188 33.2189C66.8117 32.6388 68.4257 32.6317 69.4275 33.2064L90.8254 45.4757Z" fill="black"/>
</g>
<path d="M91.5996 38.7209C91.5996 38.8099 91.5818 38.8953 91.5551 38.9843C91.5534 38.9932 91.5498 39.0021 91.548 39.0128C91.5195 39.0946 91.4768 39.1747 91.4252 39.2512C91.4163 39.2655 91.4092 39.2779 91.3985 39.2904C91.3416 39.3687 91.274 39.4416 91.1939 39.5146C91.1423 39.5626 91.0765 39.6036 91.0142 39.648C90.9608 39.6854 90.9163 39.7246 90.8558 39.7601L88.8771 40.9097L88.8682 44.2372L90.8469 43.0895C90.8558 43.0824 90.8665 43.077 90.8789 43.0699C90.927 43.0397 90.959 43.0094 91.0017 42.9792C91.0658 42.9347 91.1316 42.8902 91.185 42.8422C91.1903 42.8386 91.1975 42.835 91.201 42.8297C91.2615 42.7745 91.3149 42.7176 91.3612 42.6589C91.3718 42.6464 91.379 42.6322 91.3879 42.6197C91.3985 42.6055 91.4057 42.593 91.4146 42.5788C91.4306 42.5539 91.4501 42.5307 91.4626 42.5076C91.4893 42.4596 91.5124 42.4115 91.5302 42.3617C91.5338 42.3546 91.5338 42.3475 91.5356 42.3386C91.5391 42.3297 91.5391 42.3225 91.5427 42.3137C91.5534 42.2816 91.564 42.2514 91.5694 42.2193C91.58 42.1713 91.5854 42.1215 91.5872 42.0734V42.0539V42.0503C91.5907 41.0841 91.5925 40.116 91.5943 39.1498L91.5961 38.7459C91.5996 38.7352 91.5996 38.7281 91.5996 38.7209Z" fill="#747BE3"/>
<path d="M24.162 51.6753C23.6602 51.3853 23.4093 51.0045 23.4093 50.6237L23.4004 53.953C23.3986 54.3338 23.6495 54.7146 24.1531 55.0047L45.5154 67.338L45.5261 64.0105L24.162 51.6753Z" fill="#626BDC"/>
<path d="M49.1312 64.0068C48.9781 64.0958 48.8073 64.1669 48.6276 64.2275C48.5653 64.2506 48.5012 64.2684 48.4336 64.2862C48.3518 64.3093 48.2681 64.3324 48.1827 64.3485C48.0795 64.3698 47.9763 64.3894 47.8695 64.4036C47.8446 64.4054 47.8215 64.4107 47.7966 64.4143C47.6542 64.4285 47.5101 64.4374 47.3659 64.4392C47.3446 64.4392 47.325 64.4392 47.3037 64.4392C47.1595 64.4392 47.0172 64.4303 46.8748 64.4161C46.8552 64.4143 46.8357 64.4125 46.8161 64.409C46.6755 64.3929 46.5367 64.3698 46.4033 64.3378C46.3801 64.3342 46.357 64.3271 46.3339 64.32C46.2111 64.2897 46.0901 64.2541 45.9744 64.2114C45.9566 64.2043 45.9353 64.199 45.9157 64.1919C45.7805 64.1385 45.6488 64.078 45.5278 64.0068L45.5171 67.3344C45.6328 67.4002 45.7573 67.4589 45.8872 67.5105C45.8926 67.5141 45.9014 67.5159 45.9086 67.5177C45.9264 67.5248 45.9477 67.5301 45.9691 67.5372C46.0438 67.5639 46.1185 67.5924 46.1986 67.6155C46.2413 67.6262 46.2823 67.6351 46.3267 67.6458C46.3481 67.6511 46.373 67.6565 46.3961 67.6636C46.4193 67.6689 46.4406 67.676 46.4638 67.6796C46.5456 67.6956 46.631 67.7116 46.7164 67.7223C46.7449 67.7259 46.7752 67.7294 46.8054 67.733C46.8285 67.7365 46.8499 67.7383 46.873 67.7401C46.9033 67.7436 46.9335 67.749 46.9638 67.7508C47.0474 67.7579 47.1311 67.7614 47.2147 67.7632C47.2414 67.7632 47.2681 67.7632 47.293 67.7632C47.3161 67.7632 47.3392 67.7632 47.3624 67.7632C47.4015 67.7632 47.4389 67.7632 47.4763 67.7632C47.5706 67.7597 47.6649 67.7543 47.7592 67.7454C47.7699 67.7436 47.7806 67.7401 47.7912 67.7401C47.8161 67.7365 47.8411 67.733 47.8642 67.7294C47.9389 67.7205 48.0119 67.7116 48.0831 67.6992C48.1151 67.6938 48.1453 67.6814 48.1756 67.676C48.2628 67.6582 48.3464 67.6369 48.4318 67.6137C48.4745 67.6013 48.5226 67.5924 48.5671 67.5799C48.5884 67.5728 48.6044 67.5604 48.6258 67.555C48.8037 67.4927 48.9746 67.4233 49.1276 67.3344L52.1865 65.5567L52.1954 62.2291L49.1312 64.0068Z" fill="#747BE3"/>
<path d="M90.8471 37.6693C91.8471 38.2458 91.8507 39.1818 90.856 39.7601L88.8772 40.9096L52.1921 62.2292L49.1332 64.0069C48.1385 64.5852 46.5281 64.5852 45.528 64.0069L24.1639 51.6735C23.1657 51.0952 23.1603 50.1628 24.155 49.5845L65.8796 25.3359C66.8725 24.7593 68.4883 24.7576 69.4883 25.3341L90.8471 37.6693Z" fill="#1FA4E5"/>
<path d="M88.877 40.9097L52.1918 62.2293L27.2119 47.8086L63.8988 26.489L88.877 40.9097Z" fill="white"/>
<path d="M82.5473 34.6886C82.8143 34.8435 82.8214 35.1584 82.4281 35.3631C82.1559 35.5054 81.8124 35.6157 81.5437 35.4627L73.7764 31.0514C73.5095 30.8966 73.8547 30.5336 74.1199 30.3788C74.3814 30.2276 74.8139 30.224 75.0808 30.3788L82.5473 34.6886Z" fill="#2A70EA"/>
<path d="M82.3127 34.888C82.5796 35.0428 82.5814 35.2955 82.3181 35.4467C82.0529 35.6015 81.6187 35.6015 81.3518 35.4467L73.887 31.1369C73.6201 30.9821 73.6219 30.733 73.887 30.5782C74.1486 30.4269 74.581 30.4233 74.8479 30.5782L82.3127 34.888Z" fill="#1FA4E5"/>
<path d="M88.877 40.9097L88.8681 44.2372L52.1812 65.5568L52.1918 62.2293L88.877 40.9097Z" fill="#5A39EA"/>
<mask id="mask0_729_1513" style="mask-type:luminance" maskUnits="userSpaceOnUse" x="72" y="42" width="1" height="2">
<path d="M72.7871 43.205C72.7889 42.9363 72.7889 42.6641 72.7889 42.3954C72.7871 42.6659 72.7871 42.9363 72.7871 43.205Z" fill="white"/>
</mask>
<g mask="url(#mask0_729_1513)">
<path d="M73.0397 42.2867L73.0379 43.2032C72.9472 43.2334 72.8635 43.269 72.787 43.3135C72.7817 43.317 72.7763 43.3188 72.771 43.3242L72.7728 42.406C72.7781 42.4024 72.7835 42.4006 72.7888 42.3971C72.8653 42.3526 72.9489 42.3152 73.0397 42.2867Z" fill="#5A39EA"/>
</g>
<path d="M79.6718 7.99673L76.04 10.1072C75.8104 10.2406 75.5275 10.2406 75.298 10.1089L71.6341 7.99495C71.1412 7.71024 71.1412 7.00024 71.6323 6.71553L75.2659 4.6051C75.4955 4.47164 75.7784 4.47164 76.008 4.6051L79.6701 6.71909C80.163 7.00024 80.163 7.71024 79.6718 7.99673Z" fill="#1FA4E5"/>
<g opacity="0.8571">
<path d="M79.6718 10.2228L76.04 12.3332C75.8104 12.4666 75.5275 12.4666 75.298 12.335L71.6341 10.221C71.1412 9.93626 71.1412 9.22626 71.6323 8.93977L75.2659 6.82934C75.4955 6.69588 75.7784 6.69588 76.008 6.82934L79.6701 8.94333C80.163 9.22804 80.163 9.93804 79.6718 10.2228Z" fill="#1FA4E5"/>
</g>
<g opacity="0.7143">
<path d="M79.6718 12.4505L76.04 14.561C75.8104 14.6944 75.5275 14.6944 75.298 14.5627L71.6341 12.4488C71.1412 12.164 71.1412 11.454 71.6323 11.1676L75.2659 9.05713C75.4955 8.92367 75.7784 8.92367 76.008 9.05713L79.6701 11.1711C80.163 11.454 80.163 12.164 79.6718 12.4505Z" fill="#1FA4E5"/>
</g>
<g opacity="0.5714">
<path d="M79.6718 14.6768L76.04 16.7872C75.8104 16.9207 75.5275 16.9207 75.298 16.789L71.6341 14.675C71.1412 14.3903 71.1412 13.6803 71.6323 13.3956L75.2659 11.2851C75.4955 11.1517 75.7784 11.1517 76.008 11.2834L79.6701 13.3973C80.163 13.6821 80.163 14.3921 79.6718 14.6768Z" fill="#1FA4E5"/>
</g>
<g opacity="0.4286">
<path d="M79.672 16.9046L76.0402 19.015C75.8106 19.1485 75.5277 19.1485 75.2981 19.0168L71.636 16.9011C71.1431 16.6163 71.1431 15.9063 71.6342 15.6216L75.2679 13.5112C75.4974 13.3777 75.7804 13.3777 76.0099 13.5094L79.672 15.6234C80.1631 15.9081 80.1631 16.6181 79.672 16.9046Z" fill="#1FA4E5"/>
</g>
<g opacity="0.2857">
<path d="M79.6718 19.1326L76.04 21.243C75.8104 21.3765 75.5275 21.3765 75.298 21.2448L71.6341 19.1308C71.1412 18.8461 71.1412 18.1361 71.6323 17.8514L75.2659 15.741C75.4955 15.6075 75.7784 15.6075 76.008 15.741L79.6701 17.8549C80.163 18.1361 80.163 18.8461 79.6718 19.1326Z" fill="#1FA4E5"/>
</g>
<g opacity="0.1429">
<path d="M79.6718 21.3587L76.04 23.4691C75.8104 23.6026 75.5275 23.6026 75.298 23.4709L71.6341 21.3569C71.1412 21.0722 71.1412 20.3622 71.6323 20.0775L75.2659 17.967C75.4955 17.8336 75.7784 17.8336 76.008 17.967L79.6701 20.081C80.163 20.3622 80.163 21.074 79.6718 21.3587Z" fill="#1FA4E5"/>
</g>
<path d="M79.6718 7.99673L76.04 10.1072C75.8104 10.2406 75.5275 10.2406 75.298 10.1089L71.6341 7.99495C71.1412 7.71024 71.1412 7.00024 71.6323 6.71553L75.2659 4.6051C75.4955 4.47164 75.7784 4.47164 76.008 4.6051L79.6701 6.71909C80.163 7.00024 80.163 7.71024 79.6718 7.99673Z" fill="#1FA4E5"/>
<g opacity="0.1">
<path d="M79.672 23.3676L76.0402 25.478C75.8106 25.6115 75.5277 25.6115 75.2999 25.478L71.636 23.364C71.1431 23.0793 71.1431 22.3693 71.6342 22.0846L75.2679 19.9724C75.4974 19.8389 75.7804 19.8389 76.0099 19.9724L79.672 22.0882C80.1631 22.3711 80.1631 23.0811 79.672 23.3676Z" fill="black"/>
</g>
<g opacity="0.1">
<path d="M103.186 36.3861L99.5538 38.4965C99.3243 38.63 99.0413 38.63 98.8118 38.4965L95.1497 36.3825C94.6568 36.0978 94.6568 35.3878 95.1479 35.1013L98.7798 32.9891C99.0093 32.8557 99.2923 32.8557 99.5218 32.9891L103.186 35.1049C103.677 35.3896 103.679 36.0996 103.186 36.3861Z" fill="black"/>
</g>
<path d="M103.186 17.6734L99.5538 19.7838C99.3243 19.9173 99.0413 19.9173 98.8118 19.7838L95.1497 17.6698C94.6568 17.3851 94.6568 16.6751 95.1479 16.3886L98.7798 14.2782C99.0093 14.1447 99.2923 14.1447 99.5218 14.2782L103.184 16.3922C103.677 16.6769 103.679 17.3887 103.186 17.6734Z" fill="#2A70EA"/>
<g opacity="0.8571">
<path d="M103.186 20.3461L99.5538 22.4565C99.3243 22.59 99.0413 22.59 98.8118 22.4565L95.1497 20.3425C94.6568 20.0578 94.6568 19.3478 95.1479 19.0613L98.7798 16.9509C99.0093 16.8174 99.2923 16.8174 99.5218 16.9491L103.184 19.0649C103.677 19.3496 103.679 20.0614 103.186 20.3461Z" fill="#2A70EA"/>
</g>
<g opacity="0.7143">
<path d="M103.186 23.0189L99.5538 25.1293C99.3243 25.2628 99.0413 25.2628 98.8118 25.1311L95.1497 23.0171C94.6568 22.7324 94.6568 22.0224 95.1479 21.7359L98.7798 19.6255C99.0093 19.492 99.2923 19.492 99.5218 19.6255L103.184 21.7412C103.677 22.0242 103.679 22.7342 103.186 23.0189Z" fill="#2A70EA"/>
</g>
<g opacity="0.5714">
<path d="M103.186 25.6935L99.5538 27.8039C99.3243 27.9373 99.0413 27.9373 98.8118 27.8039L95.1497 25.6899C94.6568 25.4052 94.6568 24.6952 95.1479 24.4105L98.7798 22.3C99.0093 22.1666 99.2923 22.1666 99.5218 22.3L103.184 24.414C103.677 24.697 103.679 25.407 103.186 25.6935Z" fill="#2A70EA"/>
</g>
<g opacity="0.4286">
<path d="M103.186 28.3662L99.5538 30.4766C99.3243 30.6101 99.0413 30.6101 98.8118 30.4766L95.1497 28.3626C94.6568 28.0779 94.6568 27.3679 95.1479 27.0832L98.7798 24.9728C99.0093 24.8393 99.2923 24.8393 99.5218 24.9728L103.184 27.0885C103.677 27.3697 103.679 28.0815 103.186 28.3662Z" fill="#2A70EA"/>
</g>
<g opacity="0.2857">
<path d="M103.186 31.0389L99.5538 33.1494C99.3243 33.2828 99.0413 33.2828 98.8118 33.1494L95.1497 31.0354C94.6568 30.7507 94.6568 30.0407 95.1479 29.7542L98.7798 27.642C99.0093 27.5085 99.2923 27.5085 99.5218 27.642L103.184 29.7577C103.677 30.0424 103.679 30.7542 103.186 31.0389Z" fill="#2A70EA"/>
</g>
<g opacity="0.1429">
<path d="M103.186 33.7117L99.5538 35.8221C99.3243 35.9556 99.0413 35.9556 98.8118 35.8221L95.1497 33.7082C94.6568 33.4234 94.6568 32.7134 95.1479 32.4269L98.7798 30.3165C99.0093 30.1831 99.2923 30.1831 99.5218 30.3165L103.186 32.4323C103.677 32.717 103.679 33.427 103.186 33.7117Z" fill="#2A70EA"/>
</g>
<path d="M103.186 17.6734L99.5538 19.7838C99.3243 19.9173 99.0413 19.9173 98.8118 19.7838L95.1497 17.6698C94.6568 17.3851 94.6568 16.6751 95.1479 16.3886L98.7798 14.2782C99.0093 14.1447 99.2923 14.1447 99.5218 14.2782L103.184 16.3922C103.677 16.6769 103.679 17.3887 103.186 17.6734Z" fill="#2A70EA"/>
<path d="M91.6559 5.8187L88.024 7.92913C87.7945 8.06259 87.5116 8.06259 87.282 7.93091L83.6199 5.81514C83.127 5.53043 83.127 4.82043 83.6181 4.53572L87.25 2.42529C87.4795 2.29183 87.7625 2.29183 87.992 2.42529L91.6559 4.53928C92.147 4.82221 92.147 5.53221 91.6559 5.8187Z" fill="#131395"/>
<g opacity="0.8571">
<path d="M91.6562 9.246L88.0244 11.3564C87.7948 11.4899 87.5119 11.4899 87.2823 11.3582L83.6184 9.24422C83.1255 8.95951 83.1255 8.24951 83.6167 7.96479L87.2503 5.85081C87.4798 5.71735 87.7628 5.71735 87.9923 5.84903L91.6562 7.96301C92.1473 8.2495 92.1473 8.95951 91.6562 9.246Z" fill="#131395"/>
</g>
<g opacity="0.7143">
<path d="M91.6562 12.6714L88.0244 14.7818C87.7948 14.9153 87.5119 14.9153 87.2823 14.7836L83.6184 12.6696C83.1255 12.3849 83.1255 11.6749 83.6167 11.3902L87.2485 9.27976C87.4781 9.1463 87.761 9.1463 87.9905 9.27798L91.6544 11.392C92.1473 11.6767 92.1473 12.3867 91.6562 12.6714Z" fill="#131395"/>
</g>
<g opacity="0.5714">
<path d="M91.6562 16.0985L88.0244 18.2089C87.7948 18.3424 87.5119 18.3424 87.2823 18.2107L83.6184 16.0967C83.1255 15.812 83.1255 15.102 83.6167 14.8173L87.2485 12.7069C87.4781 12.5734 87.761 12.5734 87.9905 12.7051L91.6544 14.8191C92.1473 15.102 92.1473 15.812 91.6562 16.0985Z" fill="#131395"/>
</g>
<g opacity="0.4286">
<path d="M91.6562 19.5241L88.0244 21.6345C87.7948 21.7679 87.5119 21.7679 87.2823 21.6363L83.6184 19.5223C83.1255 19.2376 83.1255 18.5276 83.6167 18.2428L87.2485 16.1324C87.4781 15.999 87.761 15.999 87.9905 16.1306L91.6544 18.2446C92.1473 18.5293 92.1473 19.2393 91.6562 19.5241Z" fill="#131395"/>
</g>
<g opacity="0.2857">
<path d="M91.6562 22.9513L88.0244 25.0617C87.7948 25.1952 87.5119 25.1952 87.2823 25.0635L83.6184 22.9495C83.1255 22.6648 83.1255 21.9548 83.6167 21.6701L87.2485 19.5597C87.4781 19.4262 87.761 19.4262 87.9905 19.5579L91.6544 21.6719C92.1473 21.9548 92.1473 22.6666 91.6562 22.9513Z" fill="#131395"/>
</g>
<g opacity="0.1429">
<path d="M91.6562 26.3785L88.0244 28.489C87.7948 28.6224 87.5119 28.6224 87.2823 28.4908L83.6184 26.3768C83.1255 26.0921 83.1255 25.3821 83.6167 25.0973L87.2485 22.9869C87.4781 22.8535 87.761 22.8535 87.9905 22.9851L91.6544 25.0991C92.1473 25.3821 92.1473 26.0921 91.6562 26.3785Z" fill="#131395"/>
</g>
<g opacity="0.1">
<path d="M91.6564 29.7933L88.0245 31.9037C87.795 32.0372 87.512 32.0372 87.2825 31.9037L83.6204 29.7898C83.1275 29.505 83.1275 28.795 83.6186 28.5103L87.2505 26.3999C87.48 26.2664 87.763 26.2664 87.9925 26.3999L91.6564 28.5139C92.1475 28.7968 92.1493 29.5068 91.6564 29.7933Z" fill="black"/>
</g>
<path d="M91.6559 5.8187L88.024 7.92913C87.7945 8.06259 87.5116 8.06259 87.282 7.93091L83.6199 5.81514C83.127 5.53043 83.127 4.82043 83.6181 4.53572L87.25 2.42529C87.4795 2.29183 87.7625 2.29183 87.992 2.42529L91.6541 4.53928C92.147 4.82221 92.147 5.53221 91.6559 5.8187Z" fill="#131395"/>
<g opacity="0.1">
<path d="M38.8174 72.8045L25.0303 81.168L0.480957 66.9964L14.2859 58.9426L38.8174 72.8045Z" fill="black"/>
</g>
<path d="M40.2642 70.6174L27.2992 78.4808L4.21436 65.1545L17.1972 57.5812L40.2642 70.6174Z" fill="#626BDC"/>
<path d="M40.2642 68.103L27.2992 75.9682L4.21436 62.6401L17.1972 55.0668L40.2642 68.103Z" fill="#5A39EA"/>
<path d="M4.21436 62.6401V65.1545L27.2992 78.4808V75.9682L4.21436 62.6401Z" fill="url(#paint0_linear_729_1513)"/>
<path d="M40.2644 68.1031V70.6175L27.2993 78.4809V75.9683L40.2644 68.1031Z" fill="url(#paint1_linear_729_1513)"/>
<path d="M11.4565 60.1686C11.3622 60.1241 11.2679 60.0796 11.1807 60.044C11.0187 59.9782 10.8675 59.9266 10.7287 59.8857C10.6611 59.8679 10.6006 59.8554 10.5401 59.8412C10.4991 59.8323 10.4529 59.8198 10.4137 59.8145C10.3212 59.7985 10.2358 59.7896 10.1539 59.7878C10.1379 59.7878 10.1237 59.7878 10.1094 59.7878C10.0418 59.7878 9.97776 59.7896 9.91726 59.7967C9.9048 59.7985 9.89235 59.7985 9.87989 59.802C9.81405 59.8127 9.75355 59.8269 9.69839 59.8447C9.68771 59.8483 9.67703 59.8518 9.66636 59.8554C9.60942 59.8768 9.55603 59.8981 9.50977 59.9266L9.92972 59.6828C9.93327 59.681 9.93683 59.6792 9.94039 59.6757C9.97064 59.6597 10.0045 59.6419 10.0383 59.6276C10.0525 59.6205 10.0703 59.617 10.0863 59.6098C10.097 59.6063 10.1077 59.6027 10.1183 59.5992C10.1272 59.5974 10.1379 59.5903 10.1486 59.5885C10.1877 59.576 10.2287 59.5671 10.2731 59.56C10.282 59.5582 10.2909 59.5582 10.2998 59.5565C10.3123 59.5547 10.3248 59.5547 10.3372 59.5529C10.3639 59.5493 10.3888 59.5458 10.4173 59.544C10.4529 59.5422 10.4902 59.544 10.5294 59.544C10.5436 59.544 10.5579 59.544 10.5739 59.544C10.5828 59.544 10.5881 59.544 10.5952 59.544C10.6646 59.5476 10.7394 59.5547 10.8177 59.5671C10.823 59.5671 10.8283 59.5689 10.8337 59.5707C10.8728 59.5778 10.9191 59.5903 10.96 59.5992C11.0152 59.6098 11.0668 59.6187 11.1237 59.6348C11.1308 59.6365 11.1415 59.6401 11.1486 59.6437C11.2874 59.6828 11.4369 59.7362 11.5988 59.8002C11.6077 59.8038 11.6149 59.8056 11.6238 59.8091C11.7038 59.8429 11.7928 59.8857 11.8782 59.9248C11.9245 59.9462 11.9654 59.9622 12.0135 59.9871C12.1629 60.0618 12.3195 60.1437 12.4868 60.2415C12.59 60.3003 12.695 60.3643 12.8071 60.4337C12.9245 60.5085 13.042 60.5779 13.1559 60.6437C13.3658 60.7647 13.5669 60.8679 13.7644 60.964C13.8214 60.9925 13.8801 61.0174 13.937 61.0423C14.0563 61.0975 14.1737 61.1437 14.2876 61.19C14.4353 61.2469 14.5776 61.295 14.7182 61.3377C14.7947 61.3626 14.8748 61.3893 14.9513 61.4071C15.0243 61.4267 15.0937 61.4391 15.1649 61.4534C15.2698 61.4747 15.3731 61.4961 15.4727 61.5085C15.5243 61.5139 15.5741 61.5192 15.6222 61.5245C15.7361 61.5334 15.8482 61.537 15.9532 61.537C15.9852 61.537 16.019 61.537 16.051 61.537C16.1863 61.5299 16.3144 61.5156 16.4372 61.4925C16.4639 61.4872 16.487 61.48 16.5119 61.4747C16.6133 61.4516 16.713 61.4249 16.8073 61.3911C16.834 61.3804 16.8625 61.3733 16.8891 61.3626C17.0048 61.3163 17.1151 61.2665 17.2183 61.206L16.7966 61.4516C16.7877 61.4569 16.7788 61.4622 16.7699 61.4676C16.6898 61.5121 16.6044 61.553 16.519 61.5904C16.503 61.5975 16.4852 61.601 16.4674 61.6082C16.4407 61.6188 16.414 61.6277 16.3873 61.6366C16.3429 61.6509 16.3001 61.6704 16.2557 61.6829C16.2023 61.6989 16.1453 61.7096 16.0884 61.722C16.0653 61.7274 16.0421 61.7345 16.0172 61.7381C16.0048 61.7398 15.9923 61.7452 15.9781 61.7487C15.8802 61.7648 15.7805 61.7772 15.6773 61.7843C15.6613 61.7843 15.6453 61.7843 15.6293 61.7843C15.5973 61.7861 15.5635 61.7843 15.5296 61.7861C15.4674 61.7861 15.4051 61.7897 15.341 61.7861C15.2983 61.7843 15.2485 61.7754 15.204 61.7719C15.1524 61.7683 15.1008 61.763 15.0474 61.7559C15.0136 61.7505 14.9816 61.7505 14.9478 61.7452C14.8837 61.7345 14.8143 61.7167 14.7485 61.7025C14.6755 61.6882 14.6026 61.674 14.526 61.6544C14.5011 61.6473 14.4798 61.6455 14.4549 61.6384C14.405 61.626 14.3517 61.601 14.3 61.585C14.1595 61.5423 14.0153 61.4943 13.8641 61.4338C13.8249 61.4178 13.7893 61.4106 13.7502 61.3946C13.6755 61.3644 13.5954 61.3235 13.5189 61.2879C13.4601 61.2612 13.4014 61.2363 13.3409 61.2078C13.1452 61.1135 12.9441 61.0085 12.7359 60.8875C12.622 60.8217 12.5046 60.7523 12.3871 60.6775C12.2768 60.6081 12.17 60.5441 12.0668 60.4853C11.8996 60.3892 11.743 60.3056 11.5953 60.2327C11.5455 60.206 11.5027 60.1882 11.4565 60.1686Z" fill="#1FA4E5"/>
<path d="M20.5904 54.5117C20.5957 54.51 20.5993 54.5064 20.6046 54.5046C20.6438 54.4815 20.6811 54.4637 20.7203 54.4477C20.7577 54.4317 20.795 54.4192 20.8342 54.4067C20.8484 54.4032 20.8626 54.3996 20.8787 54.3978C20.8858 54.3961 20.8911 54.3943 20.8982 54.3925C20.9143 54.389 20.9285 54.3854 20.9445 54.3818C20.9801 54.3747 21.0157 54.3712 21.0531 54.3694C21.0904 54.3676 21.1296 54.3676 21.1669 54.3694C21.1741 54.3694 21.1829 54.3712 21.1901 54.3712C21.1954 54.3712 21.2025 54.3729 21.2096 54.3729C21.2363 54.3747 21.263 54.3765 21.2897 54.3801C21.3378 54.3872 21.3876 54.3979 21.4374 54.4121C21.4588 54.4174 21.4801 54.4263 21.4997 54.4334C21.5175 54.4406 21.5371 54.4459 21.5566 54.453C21.5815 54.4619 21.6065 54.469 21.6314 54.4797C21.7097 54.5135 21.7897 54.5527 21.8698 54.5989C21.9855 54.6665 22.1065 54.752 22.2275 54.8463C22.2471 54.8605 22.2649 54.8747 22.2844 54.8908C22.4019 54.9868 22.5229 55.0936 22.6439 55.2128C22.6546 55.2235 22.6652 55.2306 22.6759 55.2413C22.6884 55.2538 22.7026 55.2698 22.7151 55.2822C22.8414 55.4086 22.9695 55.5456 23.1012 55.6951C23.1065 55.7004 23.1101 55.7057 23.1154 55.7111C23.1261 55.7235 23.1368 55.7378 23.1475 55.7502C23.2916 55.9175 23.4375 56.0937 23.5888 56.2894C23.6777 56.4051 23.7703 56.5261 23.8628 56.6524C24.0817 56.9496 24.2828 57.2307 24.4767 57.5048C24.4981 57.5332 24.5212 57.567 24.5426 57.5973C24.5728 57.64 24.6013 57.6827 24.6315 57.7254C24.708 57.8357 24.781 57.9425 24.854 58.0493C24.9145 58.1383 24.975 58.2254 25.0337 58.3109C25.0995 58.4105 25.1636 58.5048 25.2276 58.6009C25.2864 58.6881 25.3451 58.7753 25.4002 58.8607C25.4607 58.9515 25.5177 59.0404 25.5746 59.1276C25.628 59.2095 25.6814 59.2913 25.733 59.3714C25.7935 59.4639 25.8504 59.5529 25.9074 59.6419C25.9537 59.7148 26.0017 59.7878 26.0462 59.8572C26.1352 59.9978 26.2224 60.133 26.306 60.2611C26.3362 60.3092 26.3647 60.3519 26.3932 60.3964C26.4537 60.4907 26.5142 60.5832 26.5711 60.6722C26.6032 60.7202 26.6316 60.7629 26.6619 60.8092C26.7135 60.8893 26.7669 60.9694 26.8149 61.0441C26.8416 61.0832 26.8665 61.1188 26.8914 61.158C26.9448 61.2363 26.9982 61.3146 27.0498 61.3893C27.1352 61.5103 27.2171 61.6224 27.2989 61.7292C27.3274 61.7666 27.3541 61.8004 27.3826 61.8342C27.4253 61.8876 27.4662 61.9392 27.5071 61.989C27.5374 62.0246 27.5658 62.0566 27.5961 62.0904C27.637 62.1367 27.6762 62.1794 27.7171 62.2203C27.7473 62.2506 27.7758 62.279 27.8043 62.3057C27.8577 62.3555 27.9111 62.4036 27.9644 62.4463C27.9893 62.4677 28.0125 62.4872 28.0374 62.5068C28.1139 62.5655 28.1922 62.6207 28.2723 62.667C28.3452 62.7097 28.4218 62.747 28.4983 62.7773C28.5161 62.7844 28.5356 62.7897 28.5534 62.7969C28.6122 62.8182 28.6709 62.8378 28.7332 62.8538C28.7545 62.8591 28.7794 62.8627 28.8026 62.868C28.8577 62.8805 28.9147 62.8894 28.9716 62.8965C29.0019 62.9001 29.0339 62.9036 29.0641 62.9054C29.1175 62.909 29.1709 62.9107 29.2261 62.9107C29.267 62.9107 29.3097 62.9107 29.3524 62.909C29.3969 62.9072 29.4449 62.9018 29.4912 62.8983C29.5642 62.8912 29.6371 62.884 29.7136 62.8716C29.7546 62.8663 29.7955 62.8591 29.8364 62.8502C30.0037 62.8182 30.1799 62.7773 30.3703 62.7239C30.4859 62.6901 30.6034 62.6563 30.7297 62.6136L30.7012 73.0216L30.2795 73.2671L30.3098 62.8591C30.1941 62.8965 30.082 62.9321 29.9752 62.9641C29.9681 62.9659 29.9628 62.9659 29.9556 62.9695C29.7635 63.0246 29.5855 63.0673 29.4182 63.0976C29.4022 63.1011 29.3809 63.1065 29.3649 63.11C29.34 63.1136 29.3186 63.1136 29.2955 63.1172C29.2189 63.1296 29.146 63.1385 29.073 63.1438C29.0463 63.1456 29.0161 63.1527 28.9894 63.1545C28.9716 63.1545 28.9538 63.1545 28.9342 63.1545C28.8915 63.1563 28.8488 63.1563 28.8079 63.1563C28.7776 63.1563 28.7456 63.1581 28.7154 63.1581C28.6922 63.1563 28.6691 63.1527 28.646 63.151C28.6157 63.1492 28.5837 63.1456 28.5534 63.1421C28.5339 63.1403 28.5107 63.1403 28.4912 63.1367C28.4538 63.1314 28.42 63.1225 28.3844 63.1136C28.3613 63.11 28.3381 63.1047 28.315 63.0994C28.3061 63.0976 28.2954 63.0958 28.2865 63.0922C28.2349 63.0798 28.1851 63.0584 28.1353 63.0406C28.1175 63.0335 28.0979 63.0282 28.0801 63.0211C28.0765 63.0193 28.0748 63.0193 28.0712 63.0193C27.9965 62.989 27.9253 62.9534 27.8541 62.9107C27.774 62.8645 27.6975 62.8093 27.6192 62.7506C27.5943 62.7328 27.5694 62.7097 27.5445 62.6883C27.4929 62.6456 27.4413 62.6011 27.3897 62.5531C27.3772 62.5388 27.363 62.5299 27.3523 62.5175C27.3345 62.4997 27.3149 62.4783 27.2971 62.4605C27.2598 62.4232 27.2224 62.3822 27.185 62.3395C27.1672 62.32 27.1512 62.3039 27.1334 62.2844C27.1174 62.2666 27.1014 62.2452 27.0872 62.2274C27.048 62.1829 27.0106 62.1367 26.9733 62.0869C26.9537 62.0619 26.9341 62.0406 26.9146 62.0139C26.9039 61.9997 26.8914 61.9819 26.879 61.9659C26.7989 61.8609 26.717 61.7505 26.6334 61.6313C26.6298 61.626 26.6263 61.6224 26.6227 61.6189C26.5818 61.5601 26.5373 61.4943 26.4964 61.432C26.4626 61.384 26.4323 61.3377 26.3967 61.2879C26.3469 61.2131 26.2953 61.1313 26.2419 61.053C26.2117 61.0085 26.185 60.9658 26.1547 60.9213C26.0907 60.8234 26.0248 60.7185 25.9572 60.6153C25.9376 60.5832 25.9181 60.553 25.8967 60.5209C25.8024 60.375 25.7028 60.2202 25.6013 60.0618C25.5818 60.0298 25.5604 59.9978 25.539 59.9657C25.4607 59.8447 25.3807 59.7202 25.2988 59.5938C25.265 59.5405 25.2276 59.4835 25.1921 59.4301C25.1191 59.318 25.0426 59.2024 24.9643 59.0849C24.9216 59.0209 24.8771 58.9532 24.8344 58.8892C24.7579 58.7753 24.6813 58.6596 24.5995 58.5404C24.5514 58.4692 24.5016 58.3963 24.4518 58.3233C24.3699 58.2023 24.2845 58.0795 24.1973 57.955C24.1546 57.8945 24.1101 57.8322 24.0674 57.7699C23.8717 57.4905 23.6653 57.204 23.4446 56.9015C23.3521 56.7752 23.2613 56.656 23.1706 56.5403C23.0229 56.3499 22.8788 56.1737 22.7382 56.01C22.7186 55.9887 22.699 55.9638 22.6795 55.9424C22.5496 55.7929 22.4214 55.6577 22.2969 55.5314C22.2738 55.5082 22.2506 55.4869 22.2275 55.4637C22.1047 55.3427 21.9837 55.2342 21.868 55.1399C21.8485 55.1239 21.8307 55.1114 21.8129 55.0954C21.6901 55.0011 21.5709 54.9157 21.4534 54.8481C21.3467 54.7858 21.2417 54.7395 21.1402 54.7039C21.1224 54.6968 21.1029 54.6897 21.0851 54.6843C20.9872 54.6523 20.8893 54.631 20.7968 54.6238C20.7897 54.6238 20.7844 54.6221 20.7772 54.6221C20.6776 54.6149 20.5797 54.6221 20.4836 54.6434C20.4765 54.6452 20.4694 54.647 20.4623 54.647C20.3644 54.6719 20.2683 54.7075 20.1758 54.7626L20.5904 54.5117Z" fill="#1FA4E5"/>
<g opacity="0.4">
<path d="M21.448 54.8425C20.1294 54.0827 19.1596 55.1486 18.4105 58.7858C17.9478 61.0226 16.3801 62.9924 12.734 60.8856C12.6201 60.8197 12.5027 60.7503 12.3853 60.6756C12.2749 60.6062 12.1682 60.5421 12.065 60.4834C8.99362 58.7111 8.98828 60.8589 8.98828 60.971L30.2794 73.2634L30.3097 62.8554C29.169 63.2344 28.459 63.2593 27.8505 62.9088C26.7205 62.2557 25.9464 60.3001 23.4392 56.896C22.6989 55.8906 22.037 55.1842 21.448 54.8425Z" fill="#1FA4E5"/>
</g>
<path d="M35.04 70.0551L35.46 69.8096L35.4902 59.4033L35.0685 59.6471L35.04 70.0551Z" fill="url(#paint2_linear_729_1513)"/>
<path d="M14.5887 56.8838C14.5923 56.882 14.5958 56.8802 14.6012 56.8766C14.6368 56.8553 14.6741 56.8375 14.7186 56.8197C14.7275 56.8161 14.7382 56.8126 14.7489 56.809C14.7649 56.8019 14.7809 56.7966 14.7969 56.7912C14.8165 56.7841 14.8343 56.777 14.8556 56.7716C14.8877 56.761 14.9233 56.7556 14.9571 56.7485C14.9731 56.745 14.9891 56.7396 15.0069 56.7378C15.014 56.7361 15.0194 56.7343 15.0265 56.7325C15.0941 56.72 15.1653 56.7129 15.2436 56.7076C15.2471 56.7076 15.2507 56.7076 15.256 56.7076C15.2845 56.7058 15.3183 56.7076 15.3485 56.7058C15.4073 56.7058 15.4642 56.7022 15.5283 56.7058C15.5389 56.7058 15.5532 56.7076 15.5621 56.7094C15.6315 56.7129 15.7098 56.7236 15.7845 56.7325C15.8326 56.7378 15.8753 56.7396 15.9251 56.7467C15.9358 56.7485 15.95 56.7521 15.9607 56.7539C15.9874 56.7574 16.0176 56.7627 16.0443 56.7681C16.1475 56.7877 16.2596 56.8108 16.3753 56.8375C16.4109 56.8464 16.4447 56.8535 16.4821 56.8642C16.5087 56.8713 16.5337 56.8749 16.5604 56.8838C16.644 56.9069 16.7383 56.9371 16.8291 56.9656C16.8842 56.9834 16.9376 56.9976 16.9963 57.0172C17.1743 57.0777 17.3611 57.1436 17.5622 57.2218C17.7686 57.3037 17.9643 57.3802 18.153 57.455C18.5338 57.6062 18.879 57.745 19.1957 57.8713C19.2171 57.8785 19.2366 57.8874 19.2562 57.8945C19.3879 57.9461 19.516 57.9977 19.6388 58.044C19.694 58.0653 19.7456 58.0849 19.8007 58.1062C19.8844 58.1383 19.9698 58.1703 20.0499 58.2005C20.1104 58.2219 20.1673 58.2433 20.226 58.2628C20.2954 58.2877 20.3648 58.3144 20.4307 58.3376C20.4894 58.3571 20.5445 58.3749 20.6015 58.3945C20.662 58.4159 20.726 58.4354 20.7848 58.455C20.8417 58.4728 20.8951 58.4888 20.9485 58.5048C21.0054 58.5226 21.0624 58.5386 21.1193 58.5547C21.1353 58.5582 21.1513 58.5618 21.1656 58.5671C21.3738 58.6223 21.5748 58.6668 21.7706 58.697C21.7919 58.7006 21.8133 58.7023 21.8346 58.7059C21.977 58.7273 22.1158 58.7415 22.2582 58.7486C22.2724 58.7486 22.2884 58.7504 22.3026 58.7504C22.4503 58.7575 22.5998 58.754 22.7546 58.7451C22.7813 58.7451 22.808 58.7433 22.8365 58.7397C23.0304 58.7273 23.2333 58.7024 23.4468 58.665C23.5002 58.6561 23.5536 58.649 23.6088 58.6383C23.7564 58.6098 23.8952 58.5742 24.0305 58.5369C24.0625 58.528 24.0963 58.5191 24.1284 58.5084C24.2494 58.471 24.3686 58.4337 24.4842 58.3927C24.4914 58.3892 24.502 58.3874 24.5092 58.3838C24.6426 58.3358 24.7725 58.286 24.9006 58.2344C25.0145 58.1899 25.1284 58.1454 25.2405 58.1045C25.2654 58.0956 25.2886 58.0849 25.3135 58.0778C25.4274 58.0351 25.543 57.9959 25.6587 57.9621C25.6729 57.9568 25.6872 57.9532 25.6996 57.9479C25.7156 57.9443 25.7316 57.9407 25.7477 57.9372C25.8455 57.9105 25.9452 57.8874 26.0448 57.866C26.0644 57.8624 26.0822 57.8571 26.1035 57.8536C26.1107 57.8518 26.1196 57.8518 26.1285 57.85C26.1979 57.8393 26.269 57.8322 26.342 57.8251C26.3705 57.8215 26.3972 57.8162 26.4256 57.8162C26.4292 57.8162 26.4327 57.8162 26.4363 57.8162C26.4879 57.8126 26.5413 57.8144 26.5947 57.8144C26.6409 57.8144 26.6854 57.8108 26.7317 57.8144C26.7353 57.8144 26.7388 57.8144 26.7424 57.8144C26.7886 57.818 26.8385 57.8233 26.8847 57.8286C26.9399 57.834 26.9933 57.8358 27.0467 57.8447C27.052 57.8447 27.0573 57.8464 27.0645 57.8482C27.1552 57.8625 27.2495 57.8856 27.3474 57.9087C27.3723 57.9158 27.3936 57.9176 27.4186 57.9247L27.4239 57.9265C27.568 57.9657 27.7211 58.019 27.8794 58.0831C27.8972 58.0902 27.9097 58.0938 27.9275 58.0991C27.9862 58.124 28.0485 58.1543 28.1108 58.1828C28.1535 58.2023 28.1926 58.2183 28.2353 58.2397C28.367 58.3038 28.5005 58.3749 28.641 58.455C28.8617 58.5813 29.093 58.7308 29.3421 58.9052C29.4845 59.0049 29.6215 59.092 29.7532 59.1686C29.9098 59.2593 30.0593 59.3323 30.1998 59.391C30.3315 59.4462 30.4579 59.4871 30.5771 59.5173C30.602 59.5227 30.6251 59.5262 30.6483 59.5316C30.7426 59.5529 30.8351 59.5689 30.9241 59.5761C30.9437 59.5778 30.9668 59.5814 30.9864 59.5814C31.086 59.5885 31.1821 59.5867 31.2746 59.5778C31.2995 59.5761 31.3227 59.5725 31.3476 59.5707C31.417 59.5618 31.4828 59.5494 31.5504 59.5351C31.586 59.528 31.6198 59.5191 31.6537 59.512C31.6981 59.4995 31.7408 59.4853 31.7836 59.4711C31.8601 59.4462 31.9348 59.4195 32.0095 59.3892C32.0451 59.375 32.0825 59.3607 32.1181 59.3447C32.232 59.2949 32.3459 59.2433 32.458 59.1899C32.5665 59.1383 32.6751 59.0885 32.7872 59.0387C32.805 59.0315 32.8228 59.0227 32.8405 59.0155C32.8583 59.0084 32.8779 59.0031 32.8957 58.996C32.9687 58.9657 33.0452 58.939 33.1199 58.9141C33.1466 58.9052 33.1697 58.8928 33.1982 58.8856C33.2196 58.8803 33.2409 58.8767 33.2623 58.8714C33.2979 58.8625 33.3352 58.8554 33.3708 58.8465C33.3975 58.8411 33.4242 58.8323 33.4509 58.8287C33.4954 58.8198 33.5416 58.818 33.5861 58.8127C33.6075 58.8109 33.6271 58.8073 33.6484 58.8056C33.6573 58.8056 33.6662 58.8038 33.6751 58.8038C33.7463 58.7984 33.8192 58.7984 33.894 58.802C33.91 58.802 33.9278 58.8056 33.9438 58.8073C33.9669 58.8073 33.9901 58.8109 34.015 58.8145C34.0524 58.818 34.0862 58.8198 34.1235 58.8251C34.1805 58.834 34.241 58.8483 34.2997 58.8625C34.321 58.8678 34.3424 58.8696 34.362 58.875C34.3709 58.8767 34.378 58.8767 34.3851 58.8803C34.5008 58.9105 34.62 58.9515 34.7446 59.0031L34.7517 59.0049C34.8976 59.0671 35.0542 59.1419 35.2161 59.238C35.3051 59.2878 35.3958 59.3447 35.4901 59.407L35.0684 59.6508C34.9741 59.5885 34.8816 59.5316 34.7944 59.4818C34.6307 59.3874 34.4759 59.3109 34.3299 59.2504C34.1929 59.1935 34.063 59.1508 33.9402 59.1187C33.9189 59.1134 33.8993 59.1098 33.878 59.1063C33.7801 59.0849 33.684 59.0671 33.5915 59.0582C33.5683 59.0565 33.5434 59.0529 33.5203 59.0511C33.4171 59.044 33.3192 59.044 33.2231 59.0511C33.2036 59.0529 33.184 59.0565 33.1644 59.0582C33.0879 59.0671 33.0167 59.0796 32.9438 59.0938C32.9082 59.1027 32.8708 59.1098 32.8352 59.1187C32.7872 59.1312 32.7427 59.1454 32.6964 59.1614C32.6181 59.1864 32.5416 59.2131 32.4669 59.2451C32.4331 59.2593 32.3992 59.2736 32.3637 59.2878C32.2533 59.3358 32.143 59.3857 32.0345 59.4373C31.9223 59.4906 31.8102 59.5423 31.6964 59.5903C31.675 59.5992 31.6537 59.6099 31.6341 59.6188C31.6163 59.6259 31.5985 59.6312 31.5825 59.6366C31.5095 59.665 31.4366 59.6917 31.3618 59.7149C31.3334 59.7255 31.3084 59.738 31.2782 59.7451C31.2604 59.7504 31.2426 59.7522 31.2266 59.7576C31.1928 59.7665 31.159 59.7736 31.1252 59.7807C31.0931 59.7896 31.0611 59.7985 31.0291 59.8038C30.9935 59.8109 30.9561 59.8127 30.9223 59.8163C30.8974 59.8198 30.8743 59.8216 30.8493 59.8252C30.8369 59.827 30.8226 59.8287 30.8102 59.8305C30.7408 59.8359 30.6696 59.8359 30.5967 59.8323C30.586 59.8323 30.5735 59.8305 30.5628 59.8305C30.5415 59.8287 30.5201 59.827 30.5006 59.8252C30.4596 59.8216 30.4187 59.8198 30.376 59.8127C30.328 59.8056 30.2764 59.7932 30.2248 59.7807C30.2016 59.7754 30.1803 59.7718 30.1554 59.7665C30.1447 59.7629 30.1322 59.7629 30.1215 59.7593C30.0112 59.7291 29.8973 59.6917 29.7781 59.6419H29.7763C29.6358 59.5832 29.4863 59.5084 29.3297 59.4195C29.198 59.343 29.061 59.2558 28.9169 59.1543C28.6695 58.9799 28.4364 58.8305 28.2158 58.7041C28.0734 58.6223 27.9399 58.5529 27.8083 58.487C27.7691 58.4692 27.7335 58.4532 27.6962 58.4354C27.6125 58.3963 27.5307 58.3607 27.4506 58.3287C27.294 58.2664 27.1427 58.2112 27.0004 58.1721C26.9719 58.165 26.9452 58.1596 26.9168 58.1543C26.8242 58.1311 26.7317 58.1098 26.6445 58.0956C26.5822 58.0867 26.5235 58.0831 26.463 58.076C26.4167 58.0706 26.3669 58.0653 26.3224 58.0617C26.2726 58.06 26.2228 58.0617 26.1729 58.0617C26.1196 58.0617 26.0662 58.06 26.0146 58.0635C25.9825 58.0653 25.9523 58.0689 25.922 58.0724C25.8491 58.0795 25.7779 58.0867 25.7067 58.0973C25.68 58.1027 25.6516 58.1098 25.6249 58.1151C25.5252 58.1347 25.4256 58.1578 25.3295 58.1845C25.2992 58.1934 25.2672 58.2005 25.237 58.2094C25.1213 58.245 25.0074 58.2824 24.8935 58.3233C24.865 58.334 24.8366 58.3447 24.8099 58.3554C24.7067 58.3945 24.6035 58.4354 24.4985 58.4746C24.3615 58.528 24.2262 58.5813 24.0839 58.633C24.0785 58.6347 24.075 58.6365 24.0714 58.6365C23.954 58.6792 23.833 58.7184 23.7066 58.7557C23.6871 58.7611 23.6693 58.77 23.6515 58.7735C23.639 58.7771 23.623 58.7806 23.6088 58.7842C23.4735 58.8234 23.3347 58.8589 23.187 58.8856C23.1443 58.8928 23.1034 58.9016 23.0625 58.9088C23.0482 58.9105 23.0393 58.9105 23.0251 58.9123C22.8098 58.9479 22.6087 58.9746 22.413 58.9871C22.4023 58.9871 22.3898 58.9906 22.3792 58.9906C22.3631 58.9924 22.3489 58.9906 22.3329 58.9906C22.1781 58.9977 22.025 59.0013 21.8774 58.996H21.8702C21.8631 58.996 21.8542 58.9942 21.8471 58.9924C21.703 58.9853 21.5606 58.971 21.4147 58.9497C21.4005 58.9479 21.3862 58.9479 21.3702 58.9461C21.3631 58.9444 21.356 58.9426 21.3489 58.9426C21.1531 58.9105 20.9538 58.8678 20.7474 58.8127C20.7385 58.8091 20.7296 58.8091 20.7207 58.8056C20.7136 58.8038 20.7047 58.8002 20.6958 58.7984C20.646 58.7842 20.5944 58.7682 20.5445 58.754C20.484 58.7362 20.4235 58.7184 20.3613 58.6988C20.3114 58.6846 20.2598 58.665 20.2082 58.649C20.1406 58.6258 20.0748 58.6045 20.0054 58.5796C19.9573 58.5636 19.9075 58.544 19.8577 58.5262C19.7812 58.4995 19.7046 58.471 19.6228 58.4408C19.5783 58.4248 19.5285 58.4034 19.4822 58.3874C19.3915 58.3536 19.3043 58.3198 19.2082 58.2842C19.1637 58.2682 19.1156 58.2468 19.0712 58.2308C18.968 58.1899 18.8665 58.1507 18.758 58.108C18.742 58.1009 18.7259 58.0938 18.7099 58.0884C18.2526 57.9069 17.7383 57.7005 17.1422 57.4674C16.9394 57.3891 16.7525 57.3215 16.5728 57.2628C16.5159 57.2432 16.4643 57.229 16.4091 57.2129C16.2899 57.1756 16.1707 57.14 16.0621 57.1133C16.0247 57.1026 15.9909 57.0955 15.9553 57.0866C15.8361 57.0581 15.7205 57.0332 15.6137 57.0154C15.5906 57.0101 15.5656 57.0048 15.5425 57.0012C15.4749 56.9905 15.4144 56.9852 15.3521 56.9798C15.2791 56.9709 15.2044 56.9603 15.1404 56.9567C15.0585 56.9514 14.9855 56.9514 14.9144 56.9549C14.8894 56.9549 14.861 56.9549 14.8361 56.9549C14.7435 56.9603 14.6617 56.9709 14.5834 56.9852C14.5674 56.987 14.5549 56.9923 14.5389 56.9959C14.4784 57.0083 14.4232 57.0243 14.3716 57.0403C14.3574 57.0457 14.3432 57.051 14.3289 57.0564C14.2702 57.0795 14.215 57.1026 14.167 57.1311L14.5887 56.8838Z" fill="url(#paint3_linear_729_1513)"/>
<g opacity="0.4">
<path d="M34.7942 59.4781C33.5095 58.7361 32.7657 59.0831 32.0325 59.4301C31.2976 59.7771 30.5734 60.1294 29.3278 59.4105C29.1961 59.334 29.0591 59.2468 28.9149 59.1454C28.6676 58.971 28.4345 58.8215 28.2138 58.6952C25.8009 57.3036 24.9361 58.5564 23.1851 58.8838C21.274 59.2468 20.427 58.7574 17.1421 57.4673C13.8554 56.1808 13.7505 57.6826 13.7451 57.7627L35.038 70.0552L35.0665 59.6472C34.974 59.5849 34.8814 59.5297 34.7942 59.4781Z" fill="#131395"/>
</g>
<path d="M67.9987 31.943C67.9987 31.943 66.648 31.9964 66.5751 33.5196C66.5021 35.041 67.3634 41.7122 68.867 43.15C70.3671 44.5842 70.5913 41.4809 70.5913 41.4809C70.5913 41.4809 70.3974 31.8042 67.9987 31.943Z" fill="#5A39EA"/>
<path d="M76.2231 43.1553C76.2231 43.1553 78.0346 43.6518 79.3318 43.2354C80.6326 42.819 80.3337 42.7514 80.2518 42.5521C80.0757 42.1232 78.4083 42.0983 78.1094 41.9933C77.8086 41.8866 78.3905 41.6908 78.5347 41.4898C78.6788 41.2905 78.9884 41.0662 78.8941 40.9897C78.8016 40.9132 78.5489 40.8189 78.0524 41.1517C77.5542 41.4844 76.337 41.8919 76.337 41.8919L76.2231 43.1553Z" fill="#EFB185"/>
<path d="M76.606 41.737C76.606 41.737 76.4761 42.0805 76.4423 42.5485C76.4014 43.1125 76.6292 43.5147 76.6292 43.5147C76.6292 43.5147 70.5292 44.2211 69.0683 43.3225C69.0683 43.3225 67.7835 40.9292 70.0861 40.511L76.606 41.737Z" fill="#5A39EA"/>
<path d="M69.5717 43.5271C69.4311 43.5253 69.2692 43.4613 69.0895 43.3296C69.0823 43.3261 69.0734 43.3243 69.0681 43.3207L69.0628 43.31C68.9987 43.262 68.9346 43.2157 68.867 43.1499C67.3634 41.7121 66.5021 35.0409 66.5751 33.5195C66.5893 33.2277 66.6587 33.0052 66.7477 32.8113C67.0983 34.5409 68.7442 42.4844 69.4329 42.6801C70.0664 42.8598 74.7695 42.9684 76.4635 43.004C76.5187 43.3136 76.6272 43.5147 76.6272 43.5147C76.6272 43.5147 71.586 44.0966 69.5717 43.5271Z" fill="#A3C1CE"/>
<path d="M74.5684 61.836C74.5684 61.836 74.2268 63.0389 75.0702 63.3414C75.9173 63.6421 76.6112 64.0051 76.9351 64.2614C77.259 64.5176 80.8944 66.0622 81.3428 65.3308C81.7912 64.5995 80.7075 63.7738 80.4317 63.5176C80.1577 63.2631 77.6789 61.1224 77.6789 61.1224L74.5684 61.836Z" fill="#111114"/>
<path d="M71.6301 63.9286C71.6301 63.9286 71.2885 65.1316 72.1355 65.4341C72.979 65.7348 73.6729 66.0942 73.9986 66.3523C74.3224 66.6085 77.9561 68.1513 78.4027 67.4235C78.8511 66.6921 77.7657 65.8647 77.4934 65.6102C77.2212 65.354 74.7406 63.2151 74.7406 63.2151L71.6301 63.9286Z" fill="#111114"/>
<path d="M68.4861 44.4846C68.4861 44.4846 77.3976 50.0881 77.6538 51.5117C77.9101 52.9388 77.8567 61.3307 77.8567 61.3307C77.8567 61.3307 75.5719 62.3129 74.4722 61.7008L73.5486 53.7911C73.5486 53.7911 66.5376 48.6165 66.2298 48.4261C65.9219 48.2304 68.4861 44.4846 68.4861 44.4846Z" fill="#131395"/>
<path d="M66.2296 48.4262C66.5375 48.6183 73.5485 53.7912 73.5485 53.7912L74.4721 61.7009C75.0041 61.998 75.8102 61.9179 76.5006 61.7631C76.1874 59.3627 75.481 54.0741 75.2265 52.7342C74.8938 50.985 67.7048 46.8478 67.7048 46.8478L66.2403 48.2162C66.2012 48.3265 66.1905 48.403 66.2296 48.4262Z" fill="#131395"/>
<path d="M68.4967 44.6981C68.4967 44.6981 67.4682 47.7552 66.9326 48.4225C66.9326 48.4225 74.0522 52.1932 74.4187 54.0135C74.7817 55.8357 75.2284 63.6333 75.2284 63.6333C75.2284 63.6333 73.6376 64.6725 71.4933 63.9108C71.4933 63.9108 70.6961 57.923 70.6125 55.5118C70.6125 55.5118 59.8433 52.6612 60.6387 46.7641C60.6387 46.7641 64.7599 48.4047 68.4967 44.6981Z" fill="#131395"/>
<path d="M70.6106 55.5119C70.6942 57.9231 71.4914 63.9109 71.4914 63.9109C71.8598 64.0426 72.2103 64.1173 72.5395 64.1565C72.479 63.2205 72.4043 61.9891 72.31 60.3716C71.9541 54.3286 71.0216 54.4443 71.0216 54.4443C64.1903 51.3605 62.8077 48.4173 62.8077 48.4173L60.6136 47.0667C60.2168 52.7556 70.6106 55.5119 70.6106 55.5119Z" fill="#131395"/>
<path d="M63.8972 32.5035C63.8972 32.5035 60.4984 34.2349 60.413 34.4983C60.3276 34.7616 59.4468 35.3915 60.7066 38.3775C60.7066 38.3775 62.3935 41.6214 61.5483 44.8618C61.0572 46.7409 60.6176 47.7231 60.6176 47.7231C60.6176 47.7231 62.1266 49.9599 66.367 48.4011C67.2247 48.0861 68.6625 46.917 69.0985 45.9793C69.0985 45.9793 68.7017 43.2087 69.232 39.9701C69.7622 36.7297 70.0612 32.5266 68.223 31.9697C68.223 31.9697 67.7568 31.4038 63.8972 32.5035Z" fill="#5A39EA"/>
<path d="M69.2316 39.97C68.7014 43.2086 69.0982 45.9792 69.0982 45.9792C68.6622 46.917 67.2244 48.0861 66.3667 48.4011C65.8934 48.5737 65.4574 48.6965 65.0481 48.7837C65.2207 48.321 65.4966 47.522 65.7919 46.3903C66.639 43.1481 64.9503 39.906 64.9503 39.906C63.6904 36.9201 64.5712 36.2884 64.6567 36.0268C64.7403 35.767 68.1408 34.0338 68.1408 34.0338C68.6248 33.8968 69.0572 33.7829 69.4398 33.6921C69.8206 35.347 69.5768 37.8596 69.2316 39.97Z" fill="#5A39EA"/>
<path d="M65.0928 31.4644C65.0928 31.4644 67.5627 32.7651 66.463 34.6282L67.6249 35.267C67.6249 35.267 68.7638 32.0071 65.0928 31.4644Z" fill="#1FA4E5"/>
<path d="M63.5073 30.151C63.5073 30.151 64.5465 31.7294 63.7226 32.7953C63.2618 33.3896 64.3472 34.8043 66.1979 34.6904C66.1979 34.6904 67.0235 34.4875 66.9399 34.1868C66.7477 33.5053 67.02 33.1227 67.3171 32.6013C67.609 32.0799 63.5073 30.151 63.5073 30.151Z" fill="#EFB185"/>
<path d="M63.7224 32.7971C63.6672 32.8682 63.6334 32.9501 63.6245 33.0408C64.3203 32.3344 65.6495 32.281 65.6495 32.281L63.8914 30.3361C63.8238 30.304 63.7651 30.2756 63.7135 30.2524L63.6601 30.4233C63.9146 30.9197 64.3363 32.0016 63.7224 32.7971Z" fill="#DD9569"/>
<path d="M66.9397 34.1885C66.7653 33.1084 67.0198 33.1244 67.3169 32.603C67.3988 32.4589 67.1461 32.2098 66.7404 31.925C66.6407 31.9998 66.5393 32.1101 66.4397 32.2631C65.7225 33.37 65.7261 34.2312 65.8133 34.6921C65.9379 34.6992 66.066 34.7117 66.1977 34.6921C66.4201 34.6565 66.9931 34.523 66.9397 34.1885Z" fill="#F2B78F"/>
<path d="M63.1211 29.2667C63.1211 29.2667 63.5731 31.3558 65.0109 32.3042C66.285 33.1441 67.7672 33.694 68.0395 32.1743C68.2566 30.9661 68.8509 27.8894 67.7833 27.2702C66.4077 26.4748 65.9042 25.4943 64.3133 26.0815C64.3133 26.0815 62.493 26.9143 63.1211 29.2667Z" fill="#EFB185"/>
<path d="M63.1208 29.2668C63.1208 29.2668 63.2863 31.0605 65.0035 32.331C65.3736 32.6033 65.8434 32.8204 66.21 32.9734C65.5409 32.4805 65.4715 32.3257 64.9519 31.7225C64.4305 31.1174 65.726 31.3506 64.8398 29.806C64.5408 29.2793 66.0125 29.959 66.3434 29.9501C68.3026 29.9021 68.1567 28.7775 68.1958 28.3059C68.1567 28.0977 68.1015 27.9002 68.0339 27.7258L67.8489 27.3681C67.8275 27.3361 67.8044 27.3023 67.7848 27.2721C67.5695 27.0069 67.3595 26.7738 67.1477 26.5763C66.3096 26.5941 63.9216 26.6457 63.8753 26.6564C63.8415 26.667 63.434 27.2222 63.0532 27.7507C62.9589 28.1636 62.9589 28.6654 63.1208 29.2668Z" fill="#E6A376"/>
<path d="M63.9822 31.29C63.9822 31.29 62.3949 29.8326 62.9465 27.7418C62.9465 27.7418 63.2419 26.062 65.1086 25.836C66.0001 25.731 67.7172 25.7862 68.3952 27.587C68.6087 28.1475 68.4646 29.3789 66.2581 28.8059C65.9413 28.7205 65.1032 28.6119 64.8078 28.8806C64.5107 29.1493 64.4786 29.6529 64.621 30.0782C64.7456 30.4537 64.4146 30.4928 64.3701 30.4145C64.3256 30.3362 63.9003 29.265 63.5017 29.6849C63.1405 30.0622 63.943 31.217 63.9822 31.29Z" fill="#341C09"/>
<path d="M63.9822 31.2901C63.943 31.2171 63.1405 30.0622 63.5017 29.685C63.9003 29.2651 64.3238 30.3363 64.3701 30.4146C64.4146 30.4929 64.7473 30.4537 64.621 30.0783C64.4786 29.653 64.5089 29.1494 64.8078 28.8807C65.0765 28.6369 65.8114 28.7615 66.2581 28.806C65.8915 28.5711 65.1619 28.4892 64.9004 27.8789C64.5534 27.0639 64.064 26.6813 63.6014 26.5389C63.064 27.0852 62.9465 27.7418 62.9465 27.7418C62.3949 29.8327 63.9822 31.2901 63.9822 31.2901Z" fill="#221101"/>
<path d="M63.979 32.2845C63.979 32.2845 64.3545 34.1512 66.4631 34.6281L65.8599 36.0997C65.8599 36.0997 62.0785 34.2028 63.979 32.2845Z" fill="#1FA4E5"/>
<path d="M60.4145 34.4982C60.3291 34.7616 59.4482 35.3915 60.7081 38.3774C60.7081 38.3774 62.1263 41.5946 61.3878 44.8332C61.0711 46.2212 60.9216 45.8867 60.3913 47.0665C60.087 47.7426 61.5159 48.7854 62.9217 48.9082C63.646 47.191 63.4467 47.207 63.7509 45.3279C64.1638 42.7531 63.8719 40.6337 61.7633 38.0518C59.9091 35.7812 60.6885 34.8968 60.6476 34.2971C60.5123 34.3879 60.4269 34.459 60.4145 34.4982Z" fill="#9DBCC9"/>
<path d="M68.3954 27.5887C68.3954 27.5887 68.7211 29.5977 66.1604 28.8716C66.1604 28.8716 64.881 28.53 64.365 27.3431C64.2547 27.0922 63.9593 26.6705 63.5269 26.626C63.5269 26.626 64.2084 25.6597 65.9736 25.7825C66.8028 25.843 67.6659 26.6473 67.8758 26.779C68.0858 26.9089 67.7424 27.7488 68.3954 27.5887Z" fill="#341C09"/>
<path d="M64.0606 48.6002L64.0356 48.9223L68.7103 52.2552L68.7387 51.9331L64.0606 48.6002Z" fill="#B4B9BC"/>
<path d="M68.7389 51.9333L68.7104 52.2553L77.4458 48.2409L77.4742 47.9188L68.7389 51.9333Z" fill="#1FA4E5"/>
<path d="M64.0605 48.6003L68.7387 51.9332L77.474 47.9188L72.7994 44.5841L64.0605 48.6003Z" fill="#E3E5E5"/>
<path d="M70.1426 46.3939L69.7938 46.0701L68.3364 51.9156L68.6852 52.2376L70.1426 46.3939Z" fill="#BDBBBB"/>
<path d="M79.2731 42.1997L78.9243 41.8759L69.7939 46.07L70.1427 46.3939L79.2731 42.1997Z" fill="#1FA4E5"/>
<path d="M70.1424 46.3939L68.6851 52.2376L77.8154 48.0399L79.2728 42.1997L70.1424 46.3939Z" fill="#D5DFE6"/>
<path d="M70.1426 46.3939L77.8156 48.0399L79.2729 42.1997L70.1426 46.3939Z" fill="#E9F0F4"/>
<path d="M65.664 48.9545C65.664 48.9545 67.3492 50.9866 69.3813 50.9742C69.3813 50.9742 69.4756 50.4653 68.6393 50.1094C67.8083 49.7535 67.6018 49.0239 67.6268 48.9243C67.6534 48.8246 68.3474 48.8958 68.6553 48.9385C68.9649 48.983 69.4098 48.6324 68.6749 48.4456C67.9417 48.2587 66.7263 47.7303 65.9736 47.7516C65.9736 47.7516 65.1053 48.3851 65.664 48.9545Z" fill="#EFB185"/>
<path d="M61.8257 34.0054C61.8257 34.0054 60.1121 34.0712 59.4394 35.4378C58.7686 36.8062 56.8984 43.2692 57.7045 45.1821C58.5106 47.0986 65.7102 49.3958 65.7102 49.3958C65.3935 48.1751 66.3224 47.394 66.3224 47.394L60.4644 43.5183C60.4644 43.5183 63.2831 34.9325 61.8257 34.0054Z" fill="#5A39EA"/>
<path d="M60.4645 43.52L66.3225 47.3957C66.3225 47.3957 66.1659 47.5345 66.0004 47.7765C64.5768 46.9633 59.8933 44.2567 59.5036 43.5289C59.0783 42.7371 61.6941 35.5125 62.1052 34.395C62.8294 36.315 60.4645 43.52 60.4645 43.52Z" fill="#5A39EA"/>
<g opacity="0.5">
<path d="M54.5193 24.4301C54.6972 24.3482 54.8734 24.2646 55.0371 24.1987C55.3414 24.0742 55.6207 23.9781 55.8805 23.9051C56.0051 23.8695 56.1208 23.8464 56.2347 23.8215C56.313 23.8055 56.3984 23.7824 56.4731 23.7699C56.6457 23.7414 56.8076 23.7254 56.9571 23.7201C56.9856 23.7201 57.0123 23.7219 57.0407 23.7219C57.1671 23.7201 57.2863 23.7272 57.3966 23.7396C57.4216 23.7432 57.4465 23.745 57.4696 23.7485C57.5906 23.7663 57.7027 23.793 57.8077 23.8268C57.829 23.834 57.8486 23.8411 57.8682 23.8482C57.9732 23.8856 58.0728 23.93 58.1618 23.9799L57.3753 23.5226C57.3682 23.519 57.3628 23.5154 57.3557 23.5119C57.297 23.4798 57.2365 23.4496 57.1707 23.4211C57.1422 23.4087 57.1101 23.3998 57.0799 23.3891C57.0603 23.382 57.0408 23.3749 57.0212 23.3677C57.0016 23.3624 56.9838 23.3535 56.9642 23.3482C56.8913 23.3268 56.8148 23.309 56.7329 23.2948C56.7169 23.293 56.6991 23.2912 56.6831 23.2894C56.6617 23.2859 56.635 23.2841 56.6119 23.2823C56.5621 23.2752 56.514 23.2681 56.4624 23.2645C56.3966 23.261 56.3254 23.2628 56.256 23.2628C56.2275 23.2628 56.2008 23.261 56.1724 23.2628C56.1581 23.2628 56.1475 23.261 56.135 23.2628C56.0033 23.2681 55.8663 23.2823 55.7186 23.3055C55.7097 23.3055 55.6973 23.3108 55.6866 23.3108C55.6119 23.3233 55.5282 23.3464 55.4499 23.3624C55.3485 23.3838 55.2506 23.3998 55.1421 23.43C55.1278 23.4336 55.11 23.4425 55.0958 23.446C54.836 23.519 54.5549 23.6151 54.2523 23.7396C54.2346 23.7468 54.2221 23.7485 54.2043 23.7574C54.0566 23.8197 53.8929 23.8998 53.731 23.9745C53.6456 24.0155 53.5673 24.0475 53.4801 24.0902C53.2007 24.229 52.9089 24.3838 52.5975 24.5635C52.4035 24.6756 52.206 24.7949 51.9996 24.923C51.7789 25.0618 51.5618 25.1917 51.3483 25.3162C50.955 25.5422 50.5778 25.738 50.2112 25.9141C50.1027 25.9675 49.9977 26.012 49.8891 26.0618C49.6649 26.1633 49.4478 26.2522 49.2343 26.3359C48.9585 26.4444 48.6933 26.5334 48.4318 26.6135C48.2858 26.6562 48.1364 26.7095 47.9958 26.7451C47.8606 26.7807 47.7289 26.8056 47.5972 26.8306C47.4015 26.8715 47.2057 26.9088 47.0207 26.9338C46.9264 26.9444 46.8338 26.9533 46.7395 26.9622C46.5278 26.98 46.3196 26.9889 46.1203 26.9854C46.0598 26.9836 45.9975 26.9854 45.937 26.9836C45.6861 26.9711 45.4458 26.9444 45.2145 26.9017C45.1665 26.8928 45.122 26.8786 45.0757 26.8697C44.8853 26.8288 44.702 26.7754 44.5259 26.7131C44.4743 26.6953 44.4209 26.6793 44.3711 26.6579C44.1575 26.5743 43.9493 26.4782 43.7554 26.3661L44.5419 26.8234C44.5597 26.8341 44.5775 26.843 44.5935 26.8537C44.7447 26.9391 44.9031 27.0156 45.065 27.085C45.0971 27.0975 45.1291 27.1064 45.1594 27.1188C45.2074 27.1384 45.259 27.1544 45.3088 27.1722C45.3907 27.2007 45.4708 27.2345 45.5544 27.2594C45.6558 27.2879 45.7626 27.3092 45.8676 27.3324C45.9121 27.343 45.9548 27.3555 46.001 27.3626C46.026 27.3679 46.0473 27.3751 46.074 27.3804C46.2573 27.4124 46.4441 27.4338 46.6381 27.4462C46.6666 27.448 46.6986 27.4462 46.7271 27.448C46.7876 27.4498 46.8498 27.448 46.9121 27.4498C47.0296 27.4498 47.1452 27.4569 47.2662 27.4516C47.3481 27.448 47.4371 27.4338 47.5225 27.4249C47.6186 27.4178 47.7164 27.4071 47.8143 27.3964C47.8784 27.3875 47.9371 27.3875 48.0029 27.3768C48.1221 27.3573 48.252 27.3217 48.3766 27.2968C48.5136 27.2683 48.6489 27.2434 48.793 27.2078C48.8393 27.1953 48.8802 27.1918 48.9265 27.1793C49.0172 27.1544 49.1204 27.1099 49.2129 27.0797C49.4763 26.9996 49.7468 26.9088 50.0279 26.7985C50.1009 26.77 50.1667 26.7558 50.2415 26.7256C50.382 26.6668 50.5315 26.5939 50.6757 26.528C50.786 26.4782 50.8963 26.4302 51.0084 26.3768C51.375 26.1988 51.7504 26.0049 52.1401 25.7807C52.3537 25.6579 52.5708 25.5262 52.7914 25.3892C52.9978 25.2593 53.1971 25.1401 53.3893 25.0297C53.7007 24.85 53.9925 24.6952 54.2701 24.5564C54.3538 24.503 54.4339 24.471 54.5193 24.4301Z" fill="#1FA4E5"/>
<path d="M37.4544 13.8654C37.4455 13.86 37.4384 13.8565 37.4295 13.8511C37.3566 13.8102 37.2836 13.7746 37.2106 13.7426C37.1412 13.7141 37.0701 13.6892 37.0007 13.6679C36.974 13.6607 36.9455 13.6554 36.917 13.6483C36.9046 13.6465 36.8921 13.6429 36.8797 13.6394C36.8512 13.6341 36.8227 13.6252 36.7942 13.6198C36.7266 13.6091 36.659 13.6002 36.5896 13.5949C36.5184 13.5913 36.4473 13.5896 36.3743 13.5931C36.3601 13.5931 36.3458 13.5949 36.3298 13.5967C36.3174 13.5967 36.3049 13.5985 36.2924 13.6002C36.2426 13.6056 36.1946 13.6074 36.1447 13.6145C36.054 13.6269 35.9632 13.6483 35.8689 13.6732C35.8298 13.6839 35.7906 13.7017 35.7515 13.7141C35.7159 13.7248 35.6821 13.7373 35.6465 13.7515C35.5985 13.7675 35.554 13.78 35.5077 13.7995C35.3618 13.86 35.2123 13.9348 35.0628 14.022C34.8457 14.1465 34.6215 14.3067 34.3938 14.4846C34.3582 14.5113 34.3244 14.538 34.287 14.5665C34.0681 14.7444 33.8439 14.9473 33.6161 15.1697C33.5948 15.1893 33.577 15.2035 33.5556 15.2231C33.5343 15.2462 33.5076 15.2765 33.4845 15.2996C33.2496 15.5345 33.0094 15.7907 32.7638 16.0719C32.7549 16.0826 32.746 16.0897 32.7353 16.1022C32.7157 16.1253 32.6944 16.152 32.6748 16.1751C32.4061 16.4865 32.1321 16.8175 31.8509 17.1805C31.6837 17.3976 31.5128 17.6218 31.3402 17.8585C30.931 18.4119 30.5555 18.9404 30.1943 19.4529C30.1551 19.508 30.1089 19.5685 30.0715 19.6237C30.0128 19.7073 29.9612 19.7838 29.9042 19.8657C29.7601 20.0703 29.6231 20.2714 29.486 20.4689C29.3722 20.6362 29.2601 20.7999 29.1515 20.9601C29.0269 21.1433 28.9077 21.3231 28.7885 21.501C28.6782 21.6647 28.5696 21.8284 28.4646 21.9868C28.3525 22.1576 28.2458 22.3195 28.139 22.4833C28.0394 22.6363 27.9379 22.7893 27.8418 22.9388C27.7297 23.1114 27.623 23.2769 27.5162 23.4442C27.429 23.5794 27.3418 23.7146 27.2564 23.8445C27.0873 24.1061 26.9272 24.3588 26.7706 24.6008C26.7154 24.688 26.6638 24.7681 26.6087 24.8535C26.4966 25.0297 26.3827 25.2023 26.2759 25.3677C26.219 25.4567 26.1638 25.5386 26.1086 25.624C26.0108 25.7717 25.9129 25.9229 25.8204 26.0617C25.7723 26.1347 25.7261 26.2005 25.6762 26.2717C25.5766 26.4194 25.4769 26.5671 25.3809 26.7041C25.2225 26.9301 25.0694 27.1401 24.9164 27.3376C24.8648 27.407 24.8114 27.4711 24.7616 27.5369C24.6833 27.6365 24.605 27.7326 24.5249 27.8252C24.4716 27.8892 24.4146 27.9515 24.3594 28.0138C24.2847 28.0992 24.2082 28.1811 24.1335 28.2576C24.0801 28.3127 24.0267 28.3643 23.9715 28.4177C23.8737 28.512 23.774 28.5992 23.6744 28.6811C23.6299 28.7185 23.5854 28.7594 23.5391 28.7932C23.3968 28.9035 23.2508 29.0067 23.0996 29.0921C22.9626 29.1704 22.822 29.2398 22.6779 29.2986C22.6423 29.3128 22.6085 29.3217 22.5747 29.3324C22.4643 29.3733 22.354 29.4107 22.2383 29.4409C22.1974 29.4516 22.1511 29.4587 22.1084 29.4694C22.0052 29.4907 21.9002 29.5103 21.7917 29.5228C21.7348 29.5299 21.6778 29.5352 21.6173 29.5406C21.5177 29.5477 21.4162 29.5495 21.3148 29.5512C21.2365 29.5512 21.1582 29.5512 21.0781 29.5477C20.9945 29.5441 20.9073 29.5352 20.8201 29.5263C20.6867 29.5156 20.5496 29.4979 20.4055 29.4765C20.329 29.4658 20.2525 29.4516 20.1742 29.4373C19.8628 29.3786 19.5336 29.3021 19.1777 29.2007C18.9624 29.1384 18.7417 29.0726 18.5068 28.9943L18.562 48.4401L19.3485 48.8992L19.2934 29.4516C19.5104 29.5228 19.7186 29.5886 19.9179 29.6455C19.9322 29.6491 19.9428 29.6509 19.9571 29.6544C20.3165 29.7577 20.6493 29.8342 20.9625 29.8929C20.9945 29.9 21.0319 29.9107 21.0621 29.9178C21.1084 29.9267 21.1475 29.9267 21.192 29.9338C21.3344 29.957 21.4732 29.973 21.6084 29.9854C21.6582 29.9908 21.7152 30.0014 21.765 30.005C21.8006 30.0068 21.8326 30.005 21.8682 30.005C21.9483 30.0103 22.0266 30.0103 22.1031 30.0086C22.16 30.0086 22.2205 30.0121 22.2757 30.0103C22.322 30.0086 22.3629 30.0014 22.4074 29.9979C22.4661 29.9925 22.5231 29.9872 22.5818 29.9801C22.6209 29.9747 22.6601 29.9747 22.6992 29.9676C22.7686 29.9569 22.8327 29.9409 22.9003 29.9267C22.943 29.9178 22.9857 29.9107 23.0284 29.9C23.0462 29.8965 23.0658 29.8929 23.0818 29.8893C23.1779 29.8626 23.2704 29.8253 23.363 29.7915C23.3968 29.779 23.4324 29.7701 23.4662 29.7559C23.4715 29.7523 23.4786 29.7505 23.484 29.7488C23.6228 29.6918 23.7562 29.6242 23.8897 29.5477C24.0391 29.4623 24.1851 29.3591 24.3274 29.2505C24.3755 29.2131 24.4217 29.1722 24.468 29.1331C24.5659 29.053 24.662 28.9694 24.758 28.8768C24.7812 28.8537 24.8061 28.8359 24.831 28.811C24.8648 28.779 24.8986 28.738 24.9324 28.7042C25.0018 28.633 25.073 28.5565 25.1424 28.4782C25.1744 28.4426 25.2065 28.4124 25.2385 28.3768C25.267 28.3448 25.2972 28.3038 25.3257 28.2683C25.3969 28.1846 25.468 28.0974 25.5392 28.0067C25.5766 27.9604 25.6122 27.9195 25.6495 27.8714C25.6709 27.8447 25.694 27.8109 25.7154 27.7825C25.8649 27.5849 26.0179 27.3803 26.1745 27.1579C26.1816 27.1472 26.1869 27.1401 26.1941 27.1312C26.2706 27.0209 26.3524 26.8981 26.4325 26.7824C26.493 26.6934 26.5517 26.608 26.6158 26.5137C26.7083 26.3749 26.808 26.2237 26.9058 26.0742C26.961 25.9923 27.0126 25.9123 27.0678 25.8286C27.1888 25.6453 27.3133 25.4514 27.4397 25.2556C27.477 25.1969 27.5126 25.14 27.5518 25.0795C27.7279 24.8054 27.9112 24.519 28.1034 24.22C28.139 24.1631 28.1799 24.1008 28.2173 24.0421C28.3632 23.8161 28.5127 23.5847 28.6675 23.3445C28.7316 23.2449 28.7992 23.1399 28.8668 23.0402C29.0038 22.8303 29.1444 22.6149 29.2903 22.3943C29.3704 22.2733 29.4522 22.1505 29.5341 22.0277C29.6747 21.816 29.8206 21.5989 29.9701 21.3782C30.059 21.2448 30.1533 21.1077 30.2476 20.9725C30.4025 20.7465 30.5591 20.517 30.7245 20.2821C30.8028 20.1682 30.8847 20.0525 30.9683 19.9351C31.3349 19.4137 31.7175 18.8781 32.1321 18.314C32.3047 18.0791 32.4755 17.8531 32.6446 17.636C32.9204 17.2784 33.1891 16.9545 33.4542 16.6467C33.4898 16.604 33.5272 16.5595 33.5628 16.5185C33.8065 16.2409 34.045 15.9865 34.2781 15.7516C34.3208 15.7089 34.3635 15.668 34.4062 15.6253C34.6358 15.401 34.86 15.1982 35.0806 15.0202C35.1162 14.9918 35.15 14.9669 35.1856 14.9402C35.4134 14.7622 35.6376 14.6021 35.8547 14.4775C36.054 14.3618 36.248 14.2747 36.4401 14.2053C36.4739 14.1928 36.5095 14.1803 36.5433 14.1697C36.7266 14.1092 36.9081 14.07 37.0843 14.0558C37.0968 14.054 37.1092 14.0522 37.1199 14.0522C37.3067 14.0398 37.49 14.054 37.668 14.0932C37.6804 14.0967 37.6946 14.0985 37.7053 14.1038C37.8886 14.1465 38.0683 14.2177 38.2427 14.3174L37.4544 13.8654Z" fill="#1FA4E5"/>
<path d="M35.8511 14.4828C38.3138 13.0611 40.1253 15.054 41.5257 21.8515C42.3888 26.0297 45.3177 29.7096 52.133 25.7734C52.3466 25.6507 52.5637 25.519 52.7843 25.382C52.9907 25.2521 53.19 25.1328 53.3822 25.0225C59.1192 21.711 59.1316 25.7218 59.1316 25.9336L19.3467 48.901L19.2915 29.4534C21.4215 30.1616 22.7508 30.2096 23.8878 29.553C26.0018 28.3323 27.4449 24.6773 32.1285 18.3193C33.5146 16.4385 34.7478 15.1181 35.8511 14.4828Z" fill="#1FA4E5"/>
</g>
<g opacity="0.3">
<path d="M22.74 36.429C23.4269 36.0322 23.6973 36.5767 23.7009 37.3864C23.7045 38.2975 23.3842 39.1053 22.7311 39.4826C22.0674 39.8651 21.7737 39.3509 21.7666 38.5199C21.7631 37.6693 22.0763 36.8116 22.74 36.429ZM22.7435 38.9541C22.9767 38.8188 23.0994 38.4131 23.0994 37.7405C23.0977 37.091 22.9749 36.8134 22.7347 36.9522C22.5122 37.0803 22.3627 37.4914 22.3699 38.1711C22.3663 38.8509 22.5087 39.0875 22.7435 38.9541Z" fill="#1FA4E5"/>
<path d="M24.9286 35.1636C25.6155 34.7668 25.886 35.3113 25.8895 36.1227C25.8913 37.0338 25.5746 37.8417 24.9197 38.2189C24.2578 38.6033 23.9624 38.0873 23.957 37.2563C23.9553 36.4039 24.2667 35.5462 24.9286 35.1636ZM24.9322 37.6887C25.1671 37.5534 25.2898 37.1477 25.2881 36.4751C25.2863 35.8256 25.1635 35.548 24.9233 35.6868C24.7008 35.8149 24.5514 36.226 24.5585 36.9057C24.5567 37.5872 24.7008 37.8239 24.9322 37.6887Z" fill="#1FA4E5"/>
<path d="M27.1191 33.9003C27.8059 33.5035 28.0764 34.048 28.08 34.8594C28.0835 35.7705 27.7632 36.5784 27.1102 36.9556C26.4482 37.3382 26.1528 36.824 26.1475 35.9912C26.1439 35.1406 26.4571 34.2811 27.1191 33.9003ZM27.1244 36.4254C27.3575 36.2901 27.4821 35.8862 27.4785 35.2118C27.4767 34.5623 27.354 34.2847 27.1155 34.4235C26.8931 34.5516 26.7436 34.9627 26.7507 35.6424C26.7454 36.3222 26.8895 36.5606 27.1244 36.4254Z" fill="#1FA4E5"/>
<path d="M29.719 32.4484L29.7279 35.3951L29.146 35.7297L29.1407 33.3968L29.1318 33.4021L28.6442 33.9502L28.541 33.4911L29.2225 32.7366L29.719 32.4484Z" fill="#1FA4E5"/>
<path d="M31.5002 31.3699C32.1871 30.9731 32.4576 31.5176 32.4611 32.329C32.4629 33.2401 32.1462 34.0462 31.4913 34.4252C30.8276 34.8078 30.5322 34.2936 30.5269 33.4608C30.5251 32.6102 30.8365 31.7543 31.5002 31.3699ZM31.5056 33.895C31.7404 33.7597 31.8632 33.354 31.8615 32.6814C31.8597 32.0319 31.7369 31.7543 31.4967 31.8931C31.2742 32.0212 31.1248 32.4323 31.1319 33.112C31.1283 33.7918 31.2707 34.0302 31.5056 33.895Z" fill="#1FA4E5"/>
<path d="M33.6908 30.1047C34.3777 29.7079 34.6482 30.2542 34.6518 31.0621C34.6535 31.9731 34.3368 32.781 33.682 33.1583C33.02 33.5408 32.7246 33.0266 32.7193 32.1938C32.7157 31.3468 33.0271 30.4873 33.6908 30.1047ZM33.6962 32.6315C33.9293 32.4963 34.0539 32.0906 34.0503 31.418C34.0485 30.7685 33.9257 30.4909 33.6873 30.6297C33.4649 30.7578 33.3154 31.1688 33.3225 31.8486C33.3189 32.5283 33.4613 32.765 33.6962 32.6315Z" fill="#1FA4E5"/>
<path d="M35.8813 28.8396C36.5681 28.4427 36.8386 28.989 36.8422 29.7987C36.8457 30.7098 36.5272 31.5176 35.8724 31.8949C35.2086 32.2775 34.915 31.7632 34.9097 30.9322C34.9061 30.0816 35.2175 29.2221 35.8813 28.8396ZM35.8866 31.3664C36.1197 31.2311 36.2443 30.8272 36.2425 30.1528C36.2389 29.5033 36.1179 29.2257 35.8795 29.3663C35.6571 29.4944 35.5058 29.9037 35.5147 30.5852C35.5094 31.2632 35.6517 31.5016 35.8866 31.3664Z" fill="#1FA4E5"/>
<path d="M38.0715 27.576C38.7584 27.1792 39.0289 27.7255 39.0306 28.5351C39.0342 29.4462 38.7157 30.2541 38.0608 30.6313C37.3989 31.0139 37.1035 30.4996 37.0982 29.6669C37.0964 28.8181 37.4078 27.9586 38.0715 27.576ZM38.0751 30.101C38.31 29.9658 38.4327 29.5619 38.431 28.8892C38.4292 28.2397 38.3064 27.9621 38.068 28.0992C37.8455 28.2273 37.696 28.6383 37.7032 29.3181C37.6996 29.9996 37.842 30.2363 38.0751 30.101Z" fill="#1FA4E5"/>
<path d="M40.2621 26.311C40.949 25.9141 41.2195 26.4587 41.223 27.2701C41.2266 28.1812 40.9081 28.989 40.2532 29.3663C39.5913 29.7489 39.2959 29.2346 39.2906 28.4018C39.287 27.553 39.6002 26.6935 40.2621 26.311ZM40.2675 28.8378C40.5006 28.7025 40.6234 28.2968 40.6234 27.6242C40.6216 26.9729 40.4988 26.6971 40.2586 26.8359C40.0361 26.964 39.8867 27.3733 39.8938 28.0548C39.8902 28.7346 40.0326 28.9712 40.2675 28.8378Z" fill="#1FA4E5"/>
<path d="M42.4529 25.0477C43.1397 24.6509 43.412 25.1954 43.4138 26.005C43.4155 26.9179 43.0988 27.724 42.444 28.1012C41.7802 28.4838 41.4866 27.9695 41.4795 27.1385C41.4777 26.288 41.7891 25.4303 42.4529 25.0477ZM42.4564 27.5727C42.6913 27.4375 42.8141 27.0318 42.8123 26.3591C42.8105 25.7096 42.6877 25.432 42.4475 25.5726C42.2269 25.7007 42.0756 26.11 42.0827 26.7898C42.081 27.4695 42.2233 27.7062 42.4564 27.5727Z" fill="#1FA4E5"/>
<path d="M45.0489 23.5991L45.0578 26.5441L44.4795 26.8769L44.4742 24.544L44.4635 24.5493L43.9777 25.0974L43.8745 24.6383L44.5543 23.8838L45.0489 23.5991Z" fill="#1FA4E5"/>
<path d="M47.2394 22.3337L47.2465 25.2787L46.67 25.6133L46.6628 23.2786L46.6539 23.284L46.1664 23.832L46.0649 23.3729L46.7447 22.6185L47.2394 22.3337Z" fill="#1FA4E5"/>
<path d="M49.4298 21.0704L49.4387 24.0154L48.8604 24.3482L48.8533 22.0153L48.8444 22.0207L48.3586 22.567L48.2554 22.1079L48.9351 21.3551L49.4298 21.0704Z" fill="#1FA4E5"/>
<path d="M51.2146 19.9886C51.8997 19.5918 52.1719 20.1363 52.1737 20.9459C52.1773 21.857 51.8587 22.6649 51.2039 23.0421C50.5419 23.4247 50.2466 22.9087 50.2412 22.0777C50.2394 21.2289 50.5508 20.3712 51.2146 19.9886ZM51.2181 22.5136C51.453 22.3784 51.5758 21.9745 51.574 21.3001C51.5722 20.6506 51.4495 20.3747 51.2092 20.5118C50.9868 20.6417 50.8373 21.0509 50.8445 21.7307C50.8409 22.4122 50.985 22.6489 51.2181 22.5136Z" fill="#1FA4E5"/>
<path d="M53.4055 18.7235C54.0924 18.3284 54.3628 18.8729 54.3664 19.6826C54.37 20.5937 54.0514 21.4015 53.3966 21.7788C52.7329 22.1614 52.4393 21.6471 52.4321 20.8143C52.4304 19.9655 52.7418 19.1061 53.4055 18.7235ZM53.4091 21.2503C53.6404 21.1168 53.7667 20.7093 53.7632 20.0367C53.7614 19.3872 53.6386 19.1096 53.4002 19.2484C53.1777 19.3765 53.0283 19.7858 53.0354 20.4673C53.0318 21.1471 53.1742 21.3838 53.4091 21.2503Z" fill="#1FA4E5"/>
<path d="M55.5959 17.4582C56.2828 17.0614 56.5533 17.6059 56.5551 18.4155C56.5568 19.3284 56.2401 20.1345 55.5852 20.5135C54.9233 20.8961 54.6279 20.3818 54.6226 19.5508C54.6208 18.7003 54.9322 17.8426 55.5959 17.4582ZM55.5995 19.9832C55.8308 19.8498 55.9572 19.4441 55.9554 18.7714C55.9536 18.1219 55.8308 17.8443 55.5888 17.9849C55.3699 18.1113 55.2205 18.5205 55.2276 19.2021C55.2222 19.88 55.3664 20.1185 55.5995 19.9832Z" fill="#1FA4E5"/>
<path d="M57.7861 16.1947C58.4729 15.7978 58.7452 16.3423 58.747 17.152C58.7487 18.0631 58.432 18.8709 57.7772 19.2482C57.1152 19.6308 56.8198 19.1165 56.8145 18.2855C56.8109 17.4349 57.1223 16.5772 57.7861 16.1947ZM57.7896 18.7197C58.021 18.5862 58.1473 18.1787 58.1455 17.5061C58.142 16.8566 58.0209 16.579 57.7807 16.7178C57.5583 16.8477 57.4088 17.257 57.4159 17.9385C57.4124 18.6165 57.5547 18.8549 57.7896 18.7197Z" fill="#1FA4E5"/>
<path d="M22.7543 41.8705C23.4412 41.4737 23.7134 42.0235 23.7152 42.8279C23.717 43.7389 23.4003 44.5504 22.7472 44.9276C22.0835 45.312 21.7881 44.7924 21.7827 43.9614C21.7792 43.1108 22.0906 42.2531 22.7543 41.8705ZM22.7579 44.3956C22.9928 44.2603 23.1156 43.8564 23.1138 43.182C23.112 42.5325 22.9892 42.2549 22.749 42.3937C22.5266 42.5218 22.3771 42.9329 22.386 43.6126C22.3824 44.2941 22.5248 44.5308 22.7579 44.3956Z" fill="#1FA4E5"/>
<path d="M24.9448 40.6052C25.6316 40.2084 25.9021 40.7565 25.9057 41.5626C25.9092 42.4737 25.5907 43.2851 24.9359 43.6623C24.2739 44.0449 23.9785 43.5271 23.9732 42.6961C23.9696 41.8473 24.281 40.9878 24.9448 40.6052ZM24.9483 43.1321C25.1814 42.9968 25.306 42.5911 25.3042 41.9185C25.3024 41.269 25.1796 40.9914 24.9412 41.1302C24.7188 41.2583 24.5693 41.6693 24.5764 42.3491C24.5711 43.0288 24.7152 43.2673 24.9483 43.1321Z" fill="#1FA4E5"/>
<path d="M27.5429 39.1569L27.5518 42.1018L26.9717 42.4364L26.9664 40.1035L26.9575 40.1089L26.4681 40.6569L26.3667 40.1978L27.0464 39.4434L27.5429 39.1569Z" fill="#1FA4E5"/>
<path d="M29.3256 38.0765C30.0125 37.6797 30.2847 38.2278 30.2865 39.0339C30.2883 39.9467 29.9698 40.7546 29.3167 41.1336C28.653 41.5162 28.3594 41.0002 28.354 40.1674C28.3505 39.3186 28.6619 38.4591 29.3256 38.0765ZM29.3292 40.6016C29.5641 40.4663 29.6868 40.0606 29.6851 39.388C29.6833 38.7385 29.5605 38.4627 29.3203 38.5997C29.0978 38.7278 28.9484 39.1389 28.9555 39.8186C28.9519 40.4984 29.0961 40.7368 29.3292 40.6016Z" fill="#1FA4E5"/>
<path d="M31.5163 36.8115C32.2032 36.4147 32.4737 36.9628 32.4772 37.7706C32.4808 38.6817 32.1623 39.4931 31.5074 39.8704C30.8437 40.253 30.5483 39.7352 30.543 38.9041C30.5412 38.0518 30.8544 37.1959 31.5163 36.8115ZM31.5199 39.3383C31.7548 39.2031 31.8776 38.7974 31.8758 38.1247C31.874 37.4752 31.7512 37.1994 31.511 37.3365C31.2886 37.4646 31.1409 37.8738 31.148 38.5554C31.1427 39.2351 31.285 39.4718 31.5199 39.3383Z" fill="#1FA4E5"/>
<path d="M33.707 35.5482C34.3938 35.1514 34.6661 35.6995 34.6679 36.5073C34.6696 37.4184 34.3529 38.2281 33.6981 38.6071C33.0343 38.9897 32.7407 38.4718 32.7354 37.6408C32.7318 36.7885 33.0432 35.929 33.707 35.5482ZM33.7105 38.0732C33.9454 37.938 34.0682 37.5323 34.0664 36.8597C34.0646 36.2102 33.9419 35.9326 33.7034 36.0714C33.481 36.1995 33.3315 36.6105 33.3386 37.2903C33.3333 37.97 33.4774 38.2085 33.7105 38.0732Z" fill="#1FA4E5"/>
<path d="M36.3046 34.0979L36.3135 37.0447L35.7334 37.3774L35.7281 35.0446L35.7174 35.0499L35.2298 35.598L35.1284 35.1389L35.8082 34.3862L36.3046 34.0979Z" fill="#1FA4E5"/>
<path d="M38.0878 33.0178C38.7747 32.621 39.0452 33.1709 39.0487 33.977C39.0505 34.888 38.7338 35.6995 38.0789 36.0767C37.4152 36.4593 37.1216 35.9415 37.1162 35.1105C37.1127 34.2599 37.4241 33.4022 38.0878 33.0178ZM38.0914 35.5429C38.3245 35.4076 38.4491 35.0019 38.4455 34.3311C38.4455 33.6816 38.3227 33.404 38.0825 33.541C37.8601 33.6691 37.7106 34.0802 37.7177 34.7599C37.7159 35.4414 37.8583 35.6799 38.0914 35.5429Z" fill="#1FA4E5"/>
<path d="M40.2782 31.7543C40.9651 31.3575 41.2356 31.9055 41.2392 32.7116C41.2427 33.6227 40.9242 34.4341 40.2694 34.8114C39.6056 35.194 39.312 34.6761 39.3067 33.8451C39.3031 32.9946 39.6145 32.1369 40.2782 31.7543ZM40.2818 34.2793C40.5167 34.1441 40.6395 33.7384 40.6377 33.0657C40.6359 32.4162 40.5131 32.1386 40.2747 32.2774C40.0523 32.4056 39.9028 32.8148 39.9099 33.4964C39.9046 34.1761 40.0487 34.4146 40.2818 34.2793Z" fill="#1FA4E5"/>
<path d="M42.469 30.489C43.1541 30.094 43.4263 30.6421 43.4281 31.4482C43.4317 32.3592 43.1131 33.1707 42.4583 33.5479C41.7946 33.9323 41.501 33.4127 41.4956 32.5817C41.4938 31.7293 41.8052 30.8716 42.469 30.489ZM42.4725 33.0141C42.7056 32.8788 42.8302 32.4731 42.8284 31.8005C42.8266 31.151 42.7039 30.8734 42.4636 31.0122C42.2412 31.1403 42.0917 31.5514 42.0988 32.2329C42.0953 32.9109 42.2394 33.1493 42.4725 33.0141Z" fill="#1FA4E5"/>
<path d="M45.0651 29.0406L45.0722 31.9874L44.4956 32.3202L44.4885 29.9873L44.4796 29.9909L43.9921 30.539L43.8906 30.0798L44.5704 29.3254L45.0651 29.0406Z" fill="#1FA4E5"/>
<path d="M46.8498 27.9606C47.5367 27.5638 47.809 28.1118 47.8107 28.9179C47.8125 29.829 47.494 30.6404 46.8409 31.0177C46.179 31.4003 45.8836 30.8824 45.8765 30.0514C45.8747 29.2009 46.1861 28.3414 46.8498 27.9606ZM46.8534 30.4856C47.0847 30.3522 47.2093 29.9464 47.2075 29.272C47.2057 28.6225 47.0829 28.3467 46.8445 28.4837C46.6221 28.6119 46.4726 29.0211 46.4797 29.7009C46.4779 30.3824 46.6203 30.6209 46.8534 30.4856Z" fill="#1FA4E5"/>
<path d="M49.0383 26.6952C49.7252 26.2984 49.9974 26.8465 49.9992 27.6525C50.001 28.5654 49.6825 29.3751 49.0294 29.7523C48.3657 30.1349 48.0703 29.6171 48.0649 28.7861C48.0649 27.9355 48.3763 27.0778 49.0383 26.6952ZM49.0436 29.2202C49.2785 29.085 49.4013 28.6811 49.3995 28.0067C49.3977 27.3572 49.275 27.0813 49.0365 27.2201C48.8141 27.3465 48.6646 27.7575 48.6717 28.4391C48.6664 29.1188 48.8105 29.3555 49.0436 29.2202Z" fill="#1FA4E5"/>
<path d="M51.2289 25.4302C51.9158 25.0334 52.1881 25.5814 52.1898 26.3875C52.1916 27.3004 51.8749 28.11 51.22 28.4873C50.5563 28.8699 50.2627 28.3538 50.2574 27.521C50.2538 26.6705 50.567 25.8128 51.2289 25.4302ZM51.2343 27.9552C51.4674 27.82 51.5919 27.4161 51.5902 26.7416C51.5884 26.0939 51.4656 25.8163 51.2272 25.9551C51.0047 26.0832 50.8535 26.4943 50.8624 27.174C50.857 27.8538 50.9994 28.0905 51.2343 27.9552Z" fill="#1FA4E5"/>
<path d="M53.8271 23.9816L53.8342 26.9283L53.2577 27.2611L53.2506 24.9282L53.2417 24.9336L52.7541 25.4799L52.6509 25.0208L53.3324 24.2681L53.8271 23.9816Z" fill="#1FA4E5"/>
<path d="M55.6098 22.9014C56.2966 22.5064 56.5689 23.0544 56.5707 23.8588C56.5725 24.7716 56.2557 25.5813 55.6009 25.9603C54.9389 26.3429 54.6435 25.825 54.6382 24.9923C54.6364 24.1417 54.9478 23.284 55.6098 22.9014ZM55.6151 25.4265C55.8464 25.293 55.9728 24.8873 55.971 24.2129C55.9692 23.5634 55.8464 23.2858 55.6044 23.4263C55.3856 23.5527 55.2343 23.9637 55.2432 24.6435C55.2379 25.3232 55.3802 25.5617 55.6151 25.4265Z" fill="#1FA4E5"/>
<path d="M57.8007 21.6365C58.4876 21.2396 58.7598 21.7877 58.7616 22.5956C58.7634 23.5067 58.4467 24.3181 57.7918 24.6953C57.1299 25.0797 56.8327 24.5601 56.8291 23.7291C56.8256 22.8767 57.1388 22.019 57.8007 21.6365ZM57.806 24.1615C58.0374 24.028 58.1619 23.6205 58.1619 22.9479C58.1602 22.2984 58.0374 22.0208 57.7989 22.1596C57.5765 22.2877 57.4252 22.6988 57.4341 23.3785C57.4288 24.0583 57.5712 24.2967 57.806 24.1615Z" fill="#1FA4E5"/>
<path d="M46.4777 7.10535L46.4848 10.0503L45.9082 10.3831L45.9011 8.05023L45.8922 8.05557L45.4046 8.60186L45.3032 8.14276L45.983 7.39006L46.4777 7.10535Z" fill="#1FA4E5"/>
<path d="M48.6668 5.84021L48.6757 8.7852L48.0992 9.11796L48.092 6.7851L48.0831 6.79044L47.5956 7.33673L47.4941 6.87941L48.1739 6.12492L48.6668 5.84021Z" fill="#1FA4E5"/>
<path d="M50.4532 4.75813C51.1383 4.36131 51.4105 4.90583 51.4123 5.71548C51.4159 6.62655 51.0973 7.43442 50.4425 7.81167C49.7805 8.19425 49.4851 7.67999 49.478 6.84721C49.478 6.00019 49.7894 5.14071 50.4532 4.75813ZM50.4567 7.28317C50.6898 7.14793 50.8144 6.744 50.8126 6.06958C50.8108 5.42009 50.6881 5.14427 50.4478 5.28129C50.2254 5.40941 50.0759 5.82046 50.0848 6.50021C50.0795 7.18174 50.2218 7.41841 50.4567 7.28317Z" fill="#1FA4E5"/>
<path d="M52.6418 3.49312C53.3287 3.0963 53.6009 3.64081 53.6027 4.45046C53.6045 5.36154 53.2878 6.16941 52.6329 6.54665C51.9692 6.92923 51.6738 6.41497 51.6685 5.58397C51.6685 4.73517 51.9799 3.87748 52.6418 3.49312ZM52.6472 6.01994C52.8785 5.88648 53.0048 5.48076 53.003 4.80635C53.0013 4.15685 52.8803 3.87926 52.64 4.01983C52.4176 4.14795 52.2664 4.55723 52.2752 5.23876C52.2699 5.91673 52.4141 6.15339 52.6472 6.01994Z" fill="#1FA4E5"/>
<path d="M54.834 2.22979C55.5208 1.83297 55.7913 2.37749 55.7949 3.18891C55.7966 4.09999 55.4799 4.90786 54.8251 5.28511C54.1631 5.66769 53.8677 5.15343 53.8624 4.32064C53.857 3.47007 54.1702 2.61237 54.834 2.22979ZM54.8375 4.75483C55.0688 4.62137 55.1952 4.21566 55.1934 3.54125C55.1916 2.89175 55.0688 2.61415 54.8268 2.75473C54.608 2.88107 54.4585 3.29034 54.4656 3.97187C54.4603 4.65162 54.6026 4.89007 54.8375 4.75483Z" fill="#1FA4E5"/>
<path d="M57.0229 0.964457C57.7097 0.567639 57.982 1.11393 57.9838 1.9218C57.9856 2.83288 57.6688 3.64075 57.014 4.01799C56.3502 4.40235 56.0549 3.88631 56.0513 3.05531C56.0477 2.20473 56.3609 1.34704 57.0229 0.964457ZM57.0282 3.48949C57.2595 3.35604 57.3859 2.94854 57.3841 2.27591C57.3823 1.62641 57.2595 1.34882 57.0211 1.48761C56.7987 1.61751 56.6474 2.02679 56.6563 2.70832C56.651 3.38807 56.7933 3.62473 57.0282 3.48949Z" fill="#1FA4E5"/>
<path d="M41.7053 15.2587C42.3922 14.8619 42.6626 15.4099 42.6662 16.216C42.6698 17.1271 42.3512 17.9385 41.6964 18.3158C41.0344 18.6984 40.7391 18.1805 40.7319 17.3495C40.7302 16.499 41.0433 15.6413 41.7053 15.2587ZM41.7106 17.7837C41.9437 17.6485 42.0683 17.2445 42.0647 16.5701C42.063 15.9206 41.9402 15.643 41.7 15.7818C41.4793 15.91 41.3281 16.321 41.337 17.0008C41.3334 17.6805 41.4758 17.919 41.7106 17.7837Z" fill="#1FA4E5"/>
<path d="M44.3016 13.8121L44.3105 16.7571L43.7321 17.0899L43.7268 14.757L43.7179 14.7624L43.2303 15.3087L43.1289 14.8496L43.8069 14.0968L44.3016 13.8121Z" fill="#1FA4E5"/>
<path d="M46.0864 12.7302C46.7732 12.3334 47.0455 12.8815 47.0473 13.6893C47.049 14.6004 46.7323 15.4101 46.0775 15.7891C45.4155 16.1717 45.1183 15.6538 45.1148 14.8228C45.1112 13.9705 45.4244 13.1128 46.0864 12.7302ZM46.0917 15.2553C46.323 15.1218 46.4476 14.7161 46.4458 14.0417C46.444 13.3922 46.3212 13.1146 46.081 13.2534C45.8586 13.3815 45.7091 13.7908 45.7162 14.4705C45.7144 15.152 45.8568 15.3905 46.0917 15.2553Z" fill="#1FA4E5"/>
<path d="M48.2771 11.465C48.9639 11.0699 49.2344 11.6162 49.238 12.4241C49.2398 13.3352 48.9212 14.1448 48.2682 14.5238C47.6044 14.9064 47.3091 14.3886 47.3037 13.5558C47.3019 12.707 47.6133 11.8475 48.2771 11.465ZM48.2824 13.99C48.5155 13.8548 48.6401 13.4508 48.6383 12.7764C48.6365 12.1269 48.5137 11.8493 48.2735 11.9881C48.0511 12.1162 47.9016 12.5273 47.9087 13.207C47.9052 13.8886 48.0475 14.1252 48.2824 13.99Z" fill="#1FA4E5"/>
<path d="M50.4675 10.2017C51.1544 9.80488 51.4266 10.3547 51.4284 11.159C51.4302 12.0701 51.1134 12.8815 50.4586 13.2588C49.7949 13.6414 49.4995 13.1236 49.4941 12.2925C49.4924 11.442 49.8056 10.5843 50.4675 10.2017ZM50.4711 12.725C50.706 12.5897 50.8287 12.1858 50.827 11.5114C50.8252 10.8619 50.7024 10.5843 50.4622 10.7231C50.2397 10.8512 50.0885 11.2622 50.0974 11.942C50.0956 12.6235 50.238 12.8602 50.4711 12.725Z" fill="#1FA4E5"/>
<path d="M53.0636 8.75305L53.0725 11.698L52.4942 12.0326L52.4871 9.69794L52.4799 9.70328L51.9924 10.2514L51.8892 9.79225L52.5689 9.03776L53.0636 8.75305Z" fill="#1FA4E5"/>
<path d="M54.8486 7.67116C55.5354 7.27612 55.8077 7.82241 55.8095 8.6285C55.8112 9.54136 55.4927 10.351 54.8397 10.7283C54.1759 11.1108 53.8823 10.593 53.877 9.76201C53.8734 8.91143 54.1848 8.05374 54.8486 7.67116ZM54.8521 10.1962C55.0835 10.0627 55.2098 9.65524 55.208 8.98261C55.2062 8.33311 55.0835 8.05552 54.8414 8.19609C54.6226 8.32243 54.4731 8.73349 54.4802 9.41324C54.4767 10.093 54.619 10.3314 54.8521 10.1962Z" fill="#1FA4E5"/>
<path d="M57.0388 6.40602C57.7257 6.0092 57.9961 6.55906 57.9979 7.36515C58.0015 8.27623 57.683 9.08765 57.0299 9.4649C56.3662 9.84748 56.0708 9.32966 56.0654 8.49865C56.0637 7.6463 56.3751 6.7886 57.0388 6.40602ZM57.0441 8.93106C57.2755 8.7976 57.4018 8.39011 57.3982 7.71748C57.3965 7.06798 57.2737 6.79038 57.0335 6.92918C56.811 7.0573 56.6616 7.46835 56.6687 8.14988C56.6669 8.82963 56.8092 9.06808 57.0441 8.93106Z" fill="#1FA4E5"/>
<path d="M39.531 21.9655C40.2179 21.5687 40.4883 22.1185 40.4901 22.9246C40.4937 23.8357 40.1751 24.6418 39.5203 25.0208C38.8566 25.4034 38.563 24.8891 38.5576 24.0581C38.5558 23.2057 38.8672 22.3481 39.531 21.9655ZM39.5345 24.4905C39.7677 24.3553 39.8922 23.9513 39.8904 23.2769C39.8887 22.6274 39.7659 22.3498 39.5274 22.4886C39.305 22.6167 39.1555 23.0278 39.1626 23.7076C39.1591 24.3891 39.3014 24.6275 39.5345 24.4905Z" fill="#1FA4E5"/>
<path d="M42.1306 20.5153L42.1378 23.462L41.5577 23.7966L41.5505 21.4637L41.5416 21.469L41.0541 22.0153L40.9526 21.5562L41.6324 20.8035L42.1306 20.5153Z" fill="#1FA4E5"/>
<path d="M44.3175 19.2537L44.3246 22.1987L43.7481 22.5314L43.741 20.1986L43.7321 20.2039L43.2445 20.7502L43.1431 20.2929L43.8228 19.5384L44.3175 19.2537Z" fill="#1FA4E5"/>
<path d="M46.1025 18.1717C46.7893 17.7749 47.0598 18.323 47.0634 19.1309C47.0652 20.0419 46.7466 20.848 46.0936 21.2271C45.4298 21.6096 45.1362 21.0954 45.1309 20.2626C45.1273 19.412 45.4387 18.5543 46.1025 18.1717ZM46.106 20.6986C46.3374 20.5633 46.4637 20.1576 46.4619 19.485C46.4601 18.8355 46.3374 18.5579 46.0971 18.6967C45.8747 18.8248 45.7252 19.2358 45.7323 19.9156C45.7288 20.5953 45.8729 20.832 46.106 20.6986Z" fill="#1FA4E5"/>
<path d="M48.6989 16.7233L48.706 19.67L48.1294 20.0028L48.1223 17.6699L48.1134 17.6753L47.6258 18.2216L47.5244 17.7642L48.2042 17.0098L48.6989 16.7233Z" fill="#1FA4E5"/>
<path d="M50.8893 15.46L50.8964 18.4049L50.3199 18.7377L50.3127 16.4048L50.3038 16.4102L49.8163 16.9583L49.7148 16.4992L50.3946 15.7447L50.8893 15.46Z" fill="#1FA4E5"/>
<path d="M53.0797 14.1946L53.0868 17.1396L52.5103 17.4741L52.5049 15.1395L52.4943 15.1466L52.0067 15.6929L51.9053 15.2338L52.585 14.4811L53.0797 14.1946Z" fill="#1FA4E5"/>
<path d="M54.8627 13.1127C55.5496 12.7177 55.8218 13.2657 55.8236 14.0701C55.8254 14.9829 55.5069 15.789 54.8538 16.1662C54.1901 16.5488 53.8965 16.0346 53.8911 15.2036C53.8893 14.3548 54.2007 13.4953 54.8627 13.1127ZM54.868 15.6378C55.0994 15.5043 55.2257 15.0986 55.2239 14.4242C55.2222 13.7747 55.0994 13.4989 54.8574 13.6377C54.6385 13.764 54.489 14.1733 54.4961 14.8548C54.4908 15.5363 54.6349 15.773 54.868 15.6378Z" fill="#1FA4E5"/>
<path d="M57.0547 11.8495C57.7416 11.4527 58.0121 12.0007 58.0139 12.8086C58.0156 13.7197 57.6989 14.5275 57.0441 14.9048C56.3803 15.2874 56.0867 14.7731 56.0796 13.9421C56.0796 13.0898 56.391 12.2321 57.0547 11.8495ZM57.0583 14.3745C57.2878 14.2411 57.4142 13.8336 57.4142 13.1609C57.4124 12.5097 57.2896 12.2338 57.0512 12.3726C56.8287 12.5008 56.6793 12.91 56.6864 13.5916C56.681 14.2713 56.8234 14.5098 57.0583 14.3745Z" fill="#1FA4E5"/>
</g>
<defs>
<linearGradient id="paint0_linear_729_1513" x1="4.21507" y1="70.5608" x2="27.2993" y2="70.5608" gradientUnits="userSpaceOnUse">
<stop stop-color="#B101D0"/>
<stop offset="0.7515" stop-color="#790396"/>
<stop offset="1" stop-color="#650482"/>
</linearGradient>
<linearGradient id="paint1_linear_729_1513" x1="27.2995" y1="73.2917" x2="40.2642" y2="73.2917" gradientUnits="userSpaceOnUse">
<stop stop-color="#B101D0"/>
<stop offset="0.7515" stop-color="#790396"/>
<stop offset="1" stop-color="#650482"/>
</linearGradient>
<linearGradient id="paint2_linear_729_1513" x1="35.2089" y1="54.5794" x2="35.3084" y2="72.5979" gradientUnits="userSpaceOnUse">
<stop stop-color="#FADD8D"/>
<stop offset="0.3863" stop-color="#F4A3A8"/>
<stop offset="1" stop-color="#EA3FD6"/>
</linearGradient>
<linearGradient id="paint3_linear_729_1513" x1="35.4898" y1="58.2675" x2="14.1681" y2="58.2675" gradientUnits="userSpaceOnUse">
<stop stop-color="#FADD8D"/>
<stop offset="0.3863" stop-color="#F4A3A8"/>
<stop offset="1" stop-color="#EA3FD6"/>
</linearGradient>
</defs>
</svg>
